<svg xmlns="http://www.w3.org/2000/svg" xmlns:xlink="http://www.w3.org/1999/xlink" width="50" height="50" viewBox="0 0 50 50">
    <defs>
        <rect id="b" width="30" height="30" rx="15"/>
        <filter id="a" width="216.7%" height="216.7%" x="-58.3%" y="-41.7%" filterUnits="objectBoundingBox">
            <feOffset dy="5" in="SourceAlpha" result="shadowOffsetOuter1"/>
            <feGaussianBlur in="shadowOffsetOuter1" result="shadowBlurOuter1" stdDeviation="5"/>
            <feComposite in="shadowBlurOuter1" in2="SourceAlpha" operator="out" result="shadowBlurOuter1"/>
            <feColorMatrix in="shadowBlurOuter1" values="0 0 0 0 0 0 0 0 0 0 0 0 0 0 0 0 0 0 0.05 0"/>
        </filter>
    </defs>
    <g fill="none" fill-rule="evenodd">
        <g transform="rotate(-90 22.5 17.5)">
            <use fill="#000" filter="url(#a)" xlink:href="#b"/>
            <use fill="#FFF" fill-opacity=".8" xlink:href="#b"/>
            <rect width="29" height="29" x=".5" y=".5" stroke="#313131" stroke-opacity=".1" rx="14.5"/>
        </g>
        <path fill="#4EBCD1" d="M21.958 19.04a.499.499 0 0 0-.703 0l-5.726 5.733a.49.49 0 0 0 0 .695l5.726 5.733c.193.193.51.193.703 0l1.275-1.282a.49.49 0 0 0 0-.696L19.13 25.12l4.103-4.102a.49.49 0 0 0 0-.696l-1.275-1.282z"/>
    </g>
</svg>
