<svg xmlns="http://www.w3.org/2000/svg" width="40" height="40" viewBox="0 0 40 40">
    <path fill="#9B9B9B" fill-rule="evenodd" d="M20 24.93h-.008c-2.815-.001-5.69 1.233-7.47 3.765A1.51 1.51 0 0 0 15 30.43c1.136-1.626 3.037-2.474 5.001-2.476 1.965.002 3.865.85 5 2.476a1.512 1.512 0 1 0 2.476-1.735C25.7 26.16 22.817 24.927 20 24.93m0 11.912C10.698 36.826 3.174 29.302 3.158 20 3.174 10.7 10.698 3.175 20 3.158 29.3 3.175 36.824 10.7 36.842 20 36.824 29.303 29.3 36.826 20 36.842M20 0C8.954.002.001 8.955 0 20c.001 11.047 8.954 19.999 20 20 11.045-.001 19.998-8.953 20-20C39.999 8.955 31.045.002 20 0m-4.341 16.725a3.333 3.333 0 1 0-6.667 0 3.333 3.333 0 0 0 6.667 0m12.016-3.333a3.333 3.333 0 1 0 0 6.666 3.333 3.333 0 0 0 0-6.666"/>
</svg>
