<?xml version="1.0" encoding="UTF-8"?>
<svg width="40px" height="40px" viewBox="0 0 40 40" version="1.1" xmlns="http://www.w3.org/2000/svg" xmlns:xlink="http://www.w3.org/1999/xlink">
    <!-- Generator: Sketch 48.2 (47327) - http://www.bohemiancoding.com/sketch -->
    <title>04</title>
    <desc>Created with Sketch.</desc>
    <defs></defs>
    <g id="Page-1" stroke="none" stroke-width="1" fill="none" fill-rule="evenodd">
        <g id="04">
            <circle id="Oval" fill="#FFBB3C" cx="20" cy="20" r="19"></circle>
            <path d="M20,24.9295909 L19.9917353,24.9295909 C17.1769605,24.9289551 14.3011539,26.1626244 12.5226485,28.695127 C12.0439302,29.3785562 12.2101783,30.3223243 12.8939254,30.7997711 C13.5773547,31.2800788 14.5198512,31.1135128 14.9988874,30.4300836 C16.1349693,28.8038399 18.0361741,27.9560698 20,27.9541626 C21.9647796,27.9560698 23.8650307,28.8038399 24.9998411,30.4300836 C25.4788773,31.1135128 26.4213739,31.2800788 27.105121,30.8010426 C27.7895038,30.3223243 27.9557519,29.3801456 27.47608,28.695127 C25.6994819,26.1603992 22.8173178,24.9270479 20,24.9295909 M20,36.8419212 C10.6977336,36.8263454 3.17397247,29.3025843 3.15839664,20 C3.17397247,10.6996408 10.6977336,3.17524397 20,3.15839664 C29.3003592,3.17524397 36.8241203,10.6996408 36.8419212,20 C36.8241203,29.3025843 29.3003592,36.8263454 20,36.8419212 M20,0 C8.9535586,0.00158937029 0.000953622175,8.9548301 0,20 C0.000953622175,31.0467593 8.9535586,39.9990464 20,40 C31.0451699,39.9990464 39.9977749,31.0467593 40,20 C39.9987285,8.9548301 31.0451699,0.00158937029 20,0 M15.658794,16.7252615 C15.658794,14.883817 14.1663753,13.3917162 12.3252487,13.3917162 C10.4841222,13.3917162 8.99202136,14.883817 8.99202136,16.7252615 C8.99202136,18.566388 10.4841222,20.0584888 12.3252487,20.0584888 C14.1663753,20.0584888 15.658794,18.566388 15.658794,16.7252615 M27.6750691,13.3917162 C25.8336247,13.3917162 24.3415239,14.883817 24.3415239,16.7252615 C24.3415239,18.566388 25.8336247,20.0584888 27.6750691,20.0584888 C29.5161957,20.0584888 31.0082965,18.566388 31.0082965,16.7252615 C31.0082965,14.883817 29.5161957,13.3917162 27.6750691,13.3917162" id="Fill-12" fill="#FFFFFF"></path>
        </g>
    </g>
</svg>