<?xml version="1.0" encoding="UTF-8"?>
<svg width="40px" height="40px" viewBox="0 0 40 40" version="1.1" xmlns="http://www.w3.org/2000/svg" xmlns:xlink="http://www.w3.org/1999/xlink">
    <!-- Generator: Sketch 48.2 (47327) - http://www.bohemiancoding.com/sketch -->
    <title>02</title>
    <desc>Created with Sketch.</desc>
    <defs></defs>
    <g id="Page-1" stroke="none" stroke-width="1" fill="none" fill-rule="evenodd">
        <g id="02">
            <circle id="Oval" fill="#FFBB3C" cx="20" cy="20" r="19"></circle>
            <path d="M20,36.8416034 C10.6980514,36.8260275 3.17429035,29.3006771 3.15839664,20 C3.17429035,10.6993229 10.6980514,3.17429035 20,3.15807877 C29.3006771,3.17429035 36.8244382,10.6993229 36.8422391,20 C36.8244382,29.3006771 29.3006771,36.8260275 20,36.8416034 M20,0 C8.95324073,0.00127149623 0.00127149623,8.95387647 0,20 C0.00127149623,31.0454878 8.95324073,39.997457 20,40 C31.0458057,39.9990464 39.9980928,31.0454878 40.0006357,20 C39.9990464,8.95387647 31.0458057,0.00127149623 20,0 M26.9480315,24.7051969 C26.2705512,24.2292913 25.3366929,24.3943307 24.8623622,25.0714961 C23.736378,26.6825197 21.8522835,27.5222047 19.9067717,27.5247244 C17.96,27.5222047 16.0771654,26.6825197 14.9527559,25.0714961 C14.4781102,24.3943307 13.544252,24.2292913 12.8670866,24.703622 C12.1886614,25.1782677 12.023622,26.111811 12.4992126,26.7905512 C14.2598425,29.3020472 17.1152756,30.5240945 19.9067717,30.5215748 L19.9149606,30.5215748 C22.703622,30.5222047 25.5530709,29.2998425 27.3155906,26.7905512 C27.7902362,26.1130709 27.6251969,25.1782677 26.9480315,24.7051969 M27.5114961,13 C25.6872441,13 24.2088189,14.4781102 24.2088189,16.3029921 C24.2088189,18.1266142 25.6872441,19.6056693 27.5114961,19.6056693 C29.336063,19.6056693 30.8144882,18.1266142 30.8144882,16.3029921 C30.8144882,14.4781102 29.336063,13 27.5114961,13 M15.6053543,16.3029921 C15.6053543,14.4781102 14.1269291,13 12.3026772,13 C10.4784252,13 9,14.4781102 9,16.3029921 C9,18.1266142 10.4784252,19.6056693 12.3026772,19.6056693 C14.1269291,19.6056693 15.6053543,18.1266142 15.6053543,16.3029921" id="Fill-6" fill="#FFFFFF"></path>
        </g>
    </g>
</svg>