<svg xmlns="http://www.w3.org/2000/svg" width="41" height="40" viewBox="0 0 41 40">
    <path fill="#9B9B9B" fill-rule="evenodd" d="M20 36.842C10.698 36.826 3.174 29.3 3.158 20 3.174 10.7 10.698 3.174 20 3.158 29.3 3.174 36.824 10.7 36.842 20 36.824 29.3 29.301 36.826 20 36.842M20 0C8.953.001.001 8.954 0 20c.001 11.045 8.953 19.997 20 20 11.046-.001 19.998-8.955 20-20C40 8.954 31.047.001 20 0m6.948 24.705a1.496 1.496 0 0 0-2.086.366c-1.126 1.612-3.01 2.451-4.955 2.454-1.947-.003-3.83-.842-4.954-2.454a1.498 1.498 0 1 0-2.454 1.72c1.76 2.511 4.616 3.733 7.408 3.73h.008c2.789.001 5.638-1.221 7.4-3.73a1.497 1.497 0 0 0-.367-2.086M27.511 13a3.302 3.302 0 1 0 0 6.604 3.302 3.302 0 0 0 0-6.604m-11.906 3.303a3.302 3.302 0 1 0-6.604-.002 3.302 3.302 0 0 0 6.604.002"/>
</svg>
