<?xml version="1.0" encoding="UTF-8"?>
<svg width="40px" height="40px" viewBox="0 0 40 40" version="1.1" xmlns="http://www.w3.org/2000/svg" xmlns:xlink="http://www.w3.org/1999/xlink">
    <!-- Generator: Sketch 48.2 (47327) - http://www.bohemiancoding.com/sketch -->
    <title>03</title>
    <desc>Created with Sketch.</desc>
    <defs></defs>
    <g id="Page-1" stroke="none" stroke-width="1" fill="none" fill-rule="evenodd">
        <g id="03">
            <circle id="Oval" fill="#FFBB3C" cx="20" cy="20" r="19"></circle>
            <path d="M24.2846244,25.7954798 L15.7166471,25.7954798 C14.881274,25.7954798 14.2051559,26.4728694 14.2051559,27.3079246 C14.2051559,28.142344 14.881274,28.8194157 15.7166471,28.8194157 L24.2846244,28.8194157 C25.1199975,28.8194157 25.7954798,28.142344 25.7954798,27.3079246 C25.7954798,26.4728694 25.1199975,25.7954798 24.2846244,25.7954798 M15.658794,16.7246257 C15.658794,14.8831813 14.1666932,13.3910805 12.3255666,13.3910805 C10.4844401,13.3910805 8.99233924,14.8831813 8.99233924,16.7246257 C8.99233924,18.5657522 10.4844401,20.0578531 12.3255666,20.0578531 C14.1666932,20.0578531 15.658794,18.5657522 15.658794,16.7246257 M27.6750691,13.3910805 C25.8339426,13.3910805 24.3418418,14.8831813 24.3418418,16.7246257 C24.3418418,18.5657522 25.8339426,20.0578531 27.6750691,20.0578531 C29.5158778,20.0578531 31.0086144,18.5657522 31.0086144,16.7246257 C31.0086144,14.8831813 29.5158778,13.3910805 27.6750691,13.3910805 M20,36.8416034 C10.6980514,36.8260275 3.17429035,29.3006771 3.15839664,20 C3.17429035,10.6993229 10.6980514,3.17429035 20,3.15807877 C29.3006771,3.17429035 36.8244382,10.6993229 36.8422391,20 C36.8244382,29.3006771 29.3006771,36.8260275 20,36.8416034 M20,0 C8.95324073,0.00127149623 0.00127149623,8.95387647 0,20 C0.00127149623,31.0454878 8.95324073,39.997457 20,40 C31.0458057,39.9990464 39.9980928,31.0454878 40.0006357,20 C39.9990464,8.95387647 31.0458057,0.00127149623 20,0" id="Fill-6" fill="#FFFFFF"></path>
        </g>
    </g>
</svg>