<svg xmlns="http://www.w3.org/2000/svg" width="41" height="40" viewBox="0 0 41 40">
    <path fill="#9B9B9B" fill-rule="evenodd" d="M24.285 25.795h-8.568a1.512 1.512 0 0 0 0 3.024h8.568a1.511 1.511 0 1 0 0-3.024m-8.626-9.07a3.333 3.333 0 1 0-6.666-.001 3.333 3.333 0 0 0 6.666 0m12.016-3.333a3.333 3.333 0 1 0 0 6.666 3.333 3.333 0 0 0 0-6.666M20 36.841C10.698 36.827 3.174 29.302 3.158 20 3.174 10.7 10.698 3.174 20 3.158 29.3 3.174 36.824 10.7 36.842 20 36.824 29.3 29.301 36.826 20 36.842M20 0C8.953.001.001 8.954 0 20c.001 11.045 8.953 19.997 20 20 11.046-.001 19.998-8.955 20-20C40 8.954 31.047.001 20 0"/>
</svg>
