<svg xmlns="http://www.w3.org/2000/svg" width="20" height="20" viewBox="0 0 20 20">
    <defs>
        <filter id="prefix__a" width="157.5%" height="134.3%" x="-28.8%" y="-17.2%" filterUnits="objectBoundingBox">
            <feOffset dy="10" in="SourceAlpha" result="shadowOffsetOuter1"/>
            <feGaussianBlur in="shadowOffsetOuter1" result="shadowBlurOuter1" stdDeviation="25"/>
            <feColorMatrix in="shadowBlurOuter1" result="shadowMatrixOuter1" values="0 0 0 0 0 0 0 0 0 0 0 0 0 0 0 0 0 0 0.1 0"/>
            <feMerge>
                <feMergeNode in="shadowMatrixOuter1"/>
                <feMergeNode in="SourceGraphic"/>
            </feMerge>
        </filter>
    </defs>
    <g fill="#868E96" filter="url(#prefix__a)" transform="translate(-314 -436)">
        <path d="M324 440.088c3.552-.05 7.094 2.433 9.229 4.782.607.677.608 1.701.002 2.38-2.112 2.324-5.603 4.786-9.112 4.786h-.249c-3.497 0-6.989-2.462-9.099-4.786-.606-.677-.606-1.702 0-2.38 2.135-2.348 5.677-4.833 9.229-4.782zm0 2.26c-2.05 0-3.714 1.663-3.714 3.714 0 2.05 1.663 3.713 3.714 3.713 2.05 0 3.714-1.662 3.714-3.713s-1.663-3.714-3.714-3.714zm0 2.1c.892 0 1.615.722 1.615 1.614 0 .892-.723 1.614-1.615 1.614s-1.615-.722-1.615-1.614c0-.892.723-1.615 1.615-1.615z"/>
    </g>
</svg>
