<svg xmlns="http://www.w3.org/2000/svg" width="20" height="20" viewBox="0 0 20 20">
    <defs>
        <filter id="prefix__a" width="157.5%" height="134.3%" x="-28.8%" y="-17.2%" filterUnits="objectBoundingBox">
            <feOffset dy="10" in="SourceAlpha" result="shadowOffsetOuter1"/>
            <feGaussianBlur in="shadowOffsetOuter1" result="shadowBlurOuter1" stdDeviation="25"/>
            <feColorMatrix in="shadowBlurOuter1" result="shadowMatrixOuter1" values="0 0 0 0 0 0 0 0 0 0 0 0 0 0 0 0 0 0 0.1 0"/>
            <feMerge>
                <feMergeNode in="shadowMatrixOuter1"/>
                <feMergeNode in="SourceGraphic"/>
            </feMerge>
        </filter>
    </defs>
    <g fill="#868E96" filter="url(#prefix__a)" transform="translate(-314 -436)">
        <path d="M331.905 437.387c.21-.216.52-.303.81-.227.292.077.52.304.596.595.076.292-.011.602-.228.81l-3.333 3.33c1.323.835 2.529 1.844 3.583 3 .618.686.62 1.726.006 2.415-2.135 2.347-5.662 4.833-9.209 4.833h-.25c-1.237-.021-2.458-.287-3.592-.782l-3.455 3.455c-.28.28-.72.323-1.05.103-.33-.22-.46-.643-.309-1.01.007-.007.015-.008.022-.014l16.25-16.25c.066-.069.115-.152.144-.243zM324 440.063c.917-.005 1.828.135 2.7.415.07.024.124.081.14.153.018.071-.004.146-.056.198l-1.617 1.619c-.053.052-.13.072-.2.051-.314-.092-.64-.14-.967-.144-2.071 0-3.75 1.68-3.75 3.75.005.328.054.653.147.967.02.07 0 .147-.051.2l-2.538 2.542c-.073.072-.187.082-.271.024-1.044-.736-2.004-1.583-2.865-2.525-.624-.686-.621-1.734.005-2.417 2.156-2.374 5.74-4.88 9.323-4.832zm3.272 4.434c-.068-.012-.137.011-.185.06l-4.633 4.632c-.048.049-.07.117-.06.185.012.067.055.125.117.154.811.373 1.732.43 2.583.159 1.198-.379 2.133-1.322 2.5-2.524.26-.841.2-1.75-.167-2.55-.03-.062-.088-.105-.155-.116z"/>
    </g>
</svg>
