<?xml version="1.0" encoding="UTF-8"?>
<svg width="40px" height="40px" viewBox="0 0 40 40" version="1.1" xmlns="http://www.w3.org/2000/svg" xmlns:xlink="http://www.w3.org/1999/xlink">
    <!-- Generator: Sketch 48.2 (47327) - http://www.bohemiancoding.com/sketch -->
    <title>05</title>
    <desc>Created with Sketch.</desc>
    <defs></defs>
    <g id="Page-1" stroke="none" stroke-width="1" fill="none" fill-rule="evenodd">
        <g id="05">
            <circle id="Oval" fill="#FFBB3C" cx="20" cy="20" r="19"></circle>
            <path d="M20,22.4864109 C15.5783718,22.4864109 11.9943418,26.0710766 11.9943418,30.492069 L28.0056582,30.492069 C28.0056582,26.0710766 24.4216282,22.4864109 20,22.4864109 M27.6747513,13.3910805 C25.8336247,13.3910805 24.3415239,14.8834992 24.3415239,16.7246257 C24.3415239,18.5657522 25.8336247,20.0578531 27.6747513,20.0578531 C29.5161957,20.0578531 31.0082965,18.5657522 31.0082965,16.7246257 C31.0082965,14.8834992 29.5161957,13.3910805 27.6747513,13.3910805 M20.0003179,36.8431927 C10.6980514,36.8263454 3.17397247,29.3016307 3.15680727,20.0003179 C3.17397247,10.6980514 10.6980514,3.17333672 20.0003179,3.15712515 C29.3019486,3.17333672 36.8260275,10.6980514 36.8428749,20.0003179 C36.8260275,29.3016307 29.3019486,36.8263454 20.0003179,36.8431927 M20.0003179,0 C8.95292285,0 0,8.95324073 0,20.0003179 C0,31.0470771 8.95292285,39.9990464 20.0003179,40 C31.0470771,40 39.9990464,31.0470771 40.0006357,20.0003179 C40.0006357,8.95324073 31.0470771,0 20.0003179,0 M15.658794,16.7246257 C15.658794,14.8834992 14.1663753,13.3910805 12.3252487,13.3910805 C10.4841222,13.3910805 8.99170349,14.8834992 8.99170349,16.7246257 C8.99170349,18.5657522 10.4841222,20.0578531 12.3252487,20.0578531 C14.1663753,20.0578531 15.658794,18.5657522 15.658794,16.7246257" id="Fill-9" fill="#FFFFFF"></path>
        </g>
    </g>
</svg>