<?xml version="1.0" encoding="UTF-8"?>
<svg width="40px" height="40px" viewBox="0 0 40 40" version="1.1" xmlns="http://www.w3.org/2000/svg" xmlns:xlink="http://www.w3.org/1999/xlink">
    <!-- Generator: Sketch 48.2 (47327) - http://www.bohemiancoding.com/sketch -->
    <title>01</title>
    <desc>Created with Sketch.</desc>
    <defs></defs>
    <g id="Page-1" stroke="none" stroke-width="1" fill="none" fill-rule="evenodd">
        <g id="01">
            <circle id="Oval" fill="#FFBB3C" cx="20" cy="20" r="19"></circle>
            <path d="M20.0003179,32.72577 C24.6625767,32.72577 28.4420992,28.9459296 28.4420992,24.2839887 L11.5588544,24.2839887 C11.5588544,28.9459296 15.3380591,32.72577 20.0003179,32.72577 M27.675387,13.3910805 C25.8345783,13.3910805 24.3418418,14.8834992 24.3418418,16.7246257 C24.3418418,18.5654344 25.8345783,20.0578531 27.675387,20.0578531 C29.5165136,20.0578531 31.0086144,18.5654344 31.0086144,16.7246257 C31.0086144,14.8834992 29.5165136,13.3910805 27.675387,13.3910805 M15.6591119,16.7246257 C15.6591119,14.8834992 14.1660574,13.3910805 12.3255666,13.3910805 C10.4844401,13.3910805 8.99202136,14.8834992 8.99202136,16.7246257 C8.99202136,18.5654344 10.4844401,20.0578531 12.3255666,20.0578531 C14.1660574,20.0578531 15.6591119,18.5654344 15.6591119,16.7246257 M20.0003179,36.8416034 C10.6980514,36.8253918 3.17429035,29.3003592 3.15871452,20 C3.17429035,10.6990051 10.6980514,3.17524397 20.0003179,3.15807877 C29.3009949,3.17524397 36.8244382,10.6990051 36.8422391,20 C36.8244382,29.3003592 29.3009949,36.8253918 20.0003179,36.8416034 M20.0003179,0 C8.95324073,0.000953622175 0.00127149623,8.95324073 0,20 C0.00127149623,31.0467593 8.95324073,39.9984106 20.0003179,40 C31.0454878,39.9984106 39.9980928,31.0467593 40.0009536,20 C39.9990464,8.95324073 31.0454878,0.000953622175 20.0003179,0" id="Fill-1" fill="#FFFFFF"></path>
        </g>
    </g>
</svg>