<svg xmlns="http://www.w3.org/2000/svg" width="41" height="40" viewBox="0 0 41 40">
    <path fill="#9B9B9B" fill-rule="evenodd" d="M20 32.726a8.442 8.442 0 0 0 8.442-8.442H11.56A8.442 8.442 0 0 0 20 32.726m7.675-19.335a3.334 3.334 0 1 0 0 6.667 3.334 3.334 0 0 0 0-6.667M15.66 16.725a3.334 3.334 0 1 0-6.668 0 3.334 3.334 0 0 0 6.668 0M20 36.842C10.698 36.825 3.174 29.3 3.16 20 3.174 10.699 10.699 3.175 20 3.158 29.301 3.175 36.824 10.7 36.842 20 36.824 29.3 29.301 36.825 20 36.842M20 0C8.953.001.001 8.953 0 20c.001 11.047 8.953 19.998 20 20 11.045-.002 19.998-8.953 20.001-20-.002-11.047-8.956-19.999-20-20"/>
</svg>
