<svg xmlns="http://www.w3.org/2000/svg" width="41" height="40" viewBox="0 0 41 40">
    <path fill="#9B9B9B" fill-rule="evenodd" d="M20 22.486a8.006 8.006 0 0 0-8.006 8.006h16.012A8.006 8.006 0 0 0 20 22.486m7.675-9.095a3.333 3.333 0 1 0 0 6.666 3.333 3.333 0 0 0 0-6.666M20 36.843C10.698 36.826 3.174 29.302 3.157 20 3.174 10.698 10.698 3.173 20 3.157c9.302.016 16.826 7.541 16.843 16.843-.017 9.302-7.541 16.826-16.843 16.843M20 0C8.953 0 0 8.953 0 20S8.953 40 20 40C31.047 40 40 31.047 40 20 40 8.953 31.048 0 20 0M15.66 16.725a3.333 3.333 0 1 0-6.667 0 3.333 3.333 0 0 0 6.667 0"/>
</svg>
