<svg xmlns="http://www.w3.org/2000/svg" width="124" height="56" viewBox="0 0 124 56">
    <g fill="none" fill-rule="evenodd">
        <path fill="#FFF" fill-rule="nonzero" d="M49.18.055c49.732.029 74.598.062 74.598.098-.037 33.204-.074 49.807-.111 49.807-44.24-.026-69.36-.054-75.358-.085H0V0h49.18v.055zm-2.194 2.1H2.15V47.72H46.9c.028-25.107.057-40.296.086-45.567zm2.063 45.656h72.566l.011-45.61H49.06l-.01 45.61z"/>
        <path fill="#FFF" fill-rule="nonzero" d="M7.846 43.178h.336c.782 0 2.101.042 2.101-1.128 0-1.284-1.306-1.157-2.168-1.157h-.27v2.285zm0-4.344h.296c.7 0 1.428-.127 1.428-1.03 0-.973-.822-1.03-1.536-1.03h-.188v2.06zm-2.64 6.46V34.658h3.771c1.805 0 3.017.734 3.017 2.765 0 .959-.297 1.734-1.118 2.172 1.454.225 2.074 1.255 2.074 2.735 0 2.229-1.818 2.962-3.677 2.962H5.206zm9.118-10.635h3.744c2.828 0 5.158 2.327 5.158 5.317s-2.343 5.317-5.158 5.317h-3.744V34.66zm2.64 8.293h.592c1.576 0 2.923-.902 2.923-2.976 0-1.904-1.199-2.975-2.896-2.975h-.62v5.951zm7.489-8.293h3.744c2.828 0 5.158 2.327 5.158 5.317s-2.344 5.317-5.158 5.317h-3.744V34.66zm2.64 8.293h.592c1.576 0 2.922-.902 2.922-2.976 0-1.904-1.198-2.975-2.895-2.975h-.62v5.951zm13.346-8.293h3.273l-4.04 5.035 4.404 5.6h-3.421l-3.407-4.612-.027 4.611h-2.64V34.66h2.64v4.387l3.218-4.387z"/>
        <path fill="#D9DADA" d="M23.886 10l-.013.084-.05.095-.064.078-.077.047-.08.063-.037.02-.111.033-.112.013-.284-.017-.074-.025-.06-.032-.035-.01-.08.008-.244.07-.702-.098-.279.023-.06-.023-.04.014-.457-.045-.107-.04-.05-.008h-.226l-.157-.029-.079.005-.34.175-.337.113-.099.065-.077.035-.15.038-.024-.013-.037.023-.062.014-.06.005-.033-.003-.031.017-.131.047-.035.004-.05-.025-.058.012-.05.036-.024.044-.033-.016-.03.004-.03.014-.024.017-.148.077-.032.027-.048.053-.037.018-.008-.005-.019-.027-.01-.006-.011.006-.006.013-.005.02-.022.012-.018.006-.004.018-.118.006-.071.02-.033.062-.01.015-.14.157-.035.07-.059.036-.203.067-.02.012-.078.061-.261.127-.456.299-.322.123-.022.006-.012.012-.034.052-.012.012-.098.006-.047.017-.023.036.007.023.041.027.01.015-.005.034-.02.056-.005.025-.002.06-.008.044-.018.038-.03.04-.118.113-.072.045-.088.034-.013.009-.004.013-.005.011-.016.005-.01-.003-.021-.012-.013-.003-.088.018-.024-.003-.046-.013-.026-.002-.02.007-.053.03-.55.014-.184-.033-.033-.021-.071-.062-.705-.167-.072-.054-.088-.019-.028-.022-.024.012-.026.043-.023.023-.017-.013-.014.022-.016.032-.02.016-.03.007-.049.036-.032.014-.06.008-.541-.014-.57-.084-.426-.099-.402-.074-.034.004-.02.029h-.014l-.065-.011-.085.059-.08.088-.05.077.045.033-.005.034-.026.04-.029.106-.035.059-.043.048-.04.021.016.037.007.038.011.029.025.01-.004.011v.004h-.002l-.008.006.118.063.043.035.045.056.044.036.12.056.042.04.044-.009.049.036.042.05.024.036h-.008l-.006.003-.002.006.002.012-.009-.007-.02-.014-.002.028-.007.02-.014.01-.02.003v.017l.058-.013.025-.01.018-.015.02.017.009-.017.02.012.018.015.014.02.008.027-.01.004-.007.005-.005.006-.009.006.023.008.01.02.009.026.018.023.044.017.036-.016.034-.025.04-.013.508-.021.044.005.075.027.034.005.013.009.043.04.025.01h.024l.019-.006.015-.008.015-.005.173-.022.083.015.022.064-.032.052h-.044l-.078-.035-.244.012-.414.093h-.024l-.014-.051-.032-.033-.034-.017-.022-.004-.023.005-.024.009-.02.014-.008.02-.01.021-.024.014-.027.01-.02.013-.025.011-.02-.017-.017-.026-.016-.015-.016.003-.044.035-.088.048-.088.03-.633.059-.034.015-.091.09-.065.042-.151.058-.074.048-.039.085.116.027.189.116.113.027.024-.01.047-.039.018-.008h.117l.048.012.05.031.048.043.038.046-.033.017-.037.012-.035.001-.026-.011-.016.032-.02.074-.017.036-.03.023-.038.008-.166.004-.038-.006-.037-.013-.05-.031-.03-.014-.06-.014-.066-.003-.073-.022-.04-.006-.033.018-.033.026-.12.02-.018.01-.022.021-.019.008-.014-.003-.008-.01-.008-.003-.014.016-.096-.046-.1-.026h-.1l-.087.033.007-.025.012-.016.018-.01.023-.006-.185.007-.112-.018-.506.022-.18.066-.178.017-.077-.023-.01-.07.056-.048.186-.094.037-.064-.043-.047-.095-.033-.354-.054-.02.005-.007.01-.005.008-.02-.003-.003-.008-.04-.052-.021.034-.018-.004-.019-.012-.023.012-.035.04-.02.015-.027.011v.017l.02.028.07.069.016.006h.02l.015.004.007.019.002.034.005.016.01.012.014.022.012.01.015.003.012.007.004.028.009.028h.018l.032-.02.107.036.04.002-.036.048-.115.06-.05.074-.059.014-.064-.006-.044-.019-.051.029-.05-.01-.052-.024-.06-.013-.033.007-.075.049-.023.005h-.06l-.153-.037-.126-.055-.12-.078-.091-.099.015-.008.003-.005.001.001.01.012h.014l.03-.02-.032-.085-.022-.04-.035-.027-.034.001-.072.045-.048.011-.082-.003-.073-.014-.1.005-.065.051-.053.067-.06.047-.046.01-.123-.01-.056-.03-.023-.008-.073.017-.185-.015-.089.005-.045.036-.229.276-.027.022-.029.016-.019.006-.019.012-.094.124-.04.034-.071.019-.057.026-.029.006-.027-.001-.015.003-.01.017-.015.04.014.041.001.052-.008.05-.014.035-.009.009-.01.002h-.025l-.007.004v.01l.002.012-.001.011-.007.017-.003.036-.006.022-.02.031-.09.09-.023.014-.071.031-.034.023-.114-.039-.02.02-.045.077-.009.025-.004.023-.019.037-.006.024.002.025.011.054.002.017-.032.136-.012.032.033.007.007.024-.01.072v.065l-.007.016-.01.006-.01.01-.003.024.01.035.04.077.008.029-.014.15-.018.063-.081.077-.034.135-.053.142.009.06.083.042h.086l.169-.042.023.019.014.005.007-.014.003-.006.02-.023.022-.003.028-.014.023-.003.113.02h.026l.017-.012.094-.053h.022l.02-.024.05-.02.751-.134.054.037.041-.018.04-.037.049-.02.061.006.033.02.014.038.002.058-.03.103-.003.029v.01l-.008.005-.124.039-.034.026.024.04-.027.02-.028.012-.078.005.003.023v.016l-.003.019v.017l.01.003.019.015-.227.17-.038.056-.02.016-.024.012-.012.022.013.042-.015-.018-.017-.014-.02-.008-.023.001v-.017l.038-.009.003-.019-.02-.011-.028.011-.016.028-.013.054-.021.022.042.018.053.005.102-.006.037.016.017.042.01.054.017.055-.003.028.03.034.042.03.082.044.03.022.06.076.05.082.018.052-.022.023-.04.013-.054.03-.049.036-.027.032.034.002.011-.002v.02l-.033.045-.004.068.02.062.04.027.031.012.033.049.023.011.028-.007.073-.043.024-.022.021.025.016-.003.017-.013.027-.009.011.009.022.038.01.009.04-.001.025-.006.024-.017.037-.032.035.028v.03l-.035.073.046.013-.017.042-.045.03-.043-.03-.021.023-.028.02-.033.018-.036.011.027.069-.022.035-.036-.007-.014-.058-.086.037.015.018.043.076.015-.02.005.027.003.023-.002.02-.006.022-.018-.02-.016.006-.018.017-.021.015.013.037-.032.001-.03-.01-.049-.021h-.021l-.024-.004-.003-.003-.004-.005-.008-.01-.011-.004-.063.043-.11.023-.04.026.015.05.016.035.042.063h-.023l-.019.007-.016.013-.015.017.038.027.02.01.029.001-.004.012-.006.03-.004.013.03-.003.026.004.047.016-.007.01-.01.028h.044l.024-.02.02-.009.031.03-.01.032-.01.066-.01.031.035.017.03.02.027.024.026.031v.019l-.034.001-.058-.035-.038-.029-.031-.03.026.044.048.037.021.013.054.017.028.018.065.103.037.026-.02.031.007.002.044-.02.135-.056.057-.002.055.026.018-.009.072.008.042-.019.014.02.016-.014.009-.002.02.016v.019l-.061.034-.05.053-.05.032-.06-.028-.01.011-.004-.01-.025.012-.02-.003-.02-.009h-.022l-.013.007-.028.024-.01.005-.034.007-.106.05-.17.016-.037.012-.039.019-.03.004-.018-.035-.01.006-.024.009-.01.005-.04-.109-.024-.049-.024-.027H6.26v.019l-.036-.01-.032.027-.024.047-.011.046.014.111.034.025.014.023-.011.034-.046.016-.035-.058-.037-.123-.024-.041-.013-.041-.023-.03-.05-.007.017-.038.02-.031v-.025l-.037-.019.023-.015.025-.005.023.005.017.015.008-.003.008-.003.014-.012-.011-.027-.002-.025.001-.026-.004-.03-.011-.03-.013-.015-.014-.01-.019-.019-.054-.068-.05-.078-.01-.042-.035-.05-.073-.077-.038-.032-.048-.022-.053-.014-.057-.004-.024.005-.047.024-.032.006-.02.012-.012.031-.004.04-.001.038.024.102-.002.017.004.017.026.08.006.034-.013-.019.064.096.01.032-.015.051-.02.028v.011l.041.002.015-.008.017-.035.02-.012.02.003.028.026.044.016.053.048.03.017-.033.07-.018.002-.026-.028-.055-.025v.02l.036.03.019.055-.003.054-.03.024-.015.008-.055.038-.025.01-.026.004h-.013l-.034-.022v.018l.019.032-.015.018-.031.006-.032-.002-.013-.01-.003-.011-.004-.011-.017-.005H5.43l-.013-.003-.01-.005-.011-.009.017-.023.007-.026-.002-.028-.008-.033-.011.012-.009.006-.005.011-.004.025-.03-.033-.016.03.006.049.04.027v.02l-.047.012-.02.049-.024.036-.057-.024-.012.042.004.017.11.034.021.012.07.058.054.018.045-.017.018-.072h.015l.01.026-.001.024-.006.024-.003.027.047.047.011.016h.015l-.005-.012-.01-.043.053.024.052.057.054.044.06-.015-.009.038.004.026.014.022.042.046.029.021.022-.004.001-.056.02.033.025.065.013.011.026-.011.011-.026v-.034l-.006-.038h.013l.005.007.001.002.01.008.028-.174.021-.008.134-.001.04-.009.038-.014.033-.003.03.026-.006.079.01.033.038-.02.02.027.047.047.022.036.013.035.01.04.003.04-.012.033.05.095.017.014.018-.009.009-.019.006-.019.01-.009.015-.001.038-.016.067-.013.056.006.11.042.063.01.018.014.007.041.005.014.013.008.016.004h.018l.021.007.012.016.008.019.011.015.053.022.078.013h.078l.054-.019.058.098.018.06-.03.026.009.024.001.022-.004.022-.007.025-.01.019-.027.024-.008.01-.004.05.013.031.02.022.016.025.003.033-.002.058-.008.06-.016.04-.049.062-.029.02-.184.066-.046.006-.144-.01-.038.01-.02.055.08.041.188.051.123.08.031.01.008.03-.006.06-.02.042-.033-.022-.009.03.009.015.008.011-.008.017.013.041-.006.038-.012.04-.01.044.017-.02.015-.012h.015l.012.016.037-.01-.01.12.018.051v.018l-.012.003-.033.015.01.03-.005.028-.014.026-.021.025.016.008.006.005.006-.002.017-.011.007.008.004.008.003.02.014-.012h.014l.015.011.016.02.025-.021.03-.012.125-.007.013-.011-.031-.02v-.02h.053l.021-.022.01-.035.02-.034.035-.018.044-.002.041.018.026.04-.05.024-.04.043-.017.054.018.058.046.036.06.01.047-.026.01-.075h.015l.024.044-.003.035-.01.029.002.02-.039.049-.014.025-.005.025.01.016.021-.012.02-.02.007-.01h.049l.024.023-.005.035-.038.032.031.011.034-.018.027-.035.011-.04.01-.021.026-.008.052.003.005-.006v-.01l.006-.009.018.005.002.002.026.018-.004.02-.002.033-.007.02-.012.013-.027.019-.005.011-.002.052.013.017.033.013-.033.037-.017.01-.023.009.025-.053-.027-.007-.1.022v.02l.024.018.017.044.016.083.01-.01.006-.004.029-.005v.02l-.023.011h-.05L8 23.598l-.019.015-.044.02-.057.04-.032.008-.03-.02-.032-.055.005-.005.003-.002.003-.002.005-.007-.028.011-.016-.004-.012-.012-.017-.012-.023-.001-.015.002-.008-.012v-.046l-.004.007-.001.003-.003.004-.006.006-.015-.017-.017.006-.015.02-.011.028h-.015l.002-.03-.008-.023-.015-.015-.023-.007.007.028-.003.025-.005.02.001.019-.04.012-.067-.025-.025.03-.016-.017.005.02.004.007.007.01.021-.016.02-.004.018.006.015.013-.027.031-.039.025-.035.015-.018.001-.022.055.008.039.018.034.011.044.003.046.01.057.023.04.038-.01.014.02.015-.005h.01l.02.006-.006-.01-.01-.027.03-.01.025-.024.013-.029-.009-.028v-.016l.027-.012.057-.012.02-.013.006.018.004.006-.002.002-.009.01.003.01.005.003h.004l.003.004-.006.014-.003.005v.004l.009.014.025-.065.004-.025h.016l-.004.01.012.019.033-.027.032-.002.014.014.038.056.021.02.024.007.065-.007.03.006.023.013.05.035.01-.062.05-.005.06.024.039.024.041-.042.069-.024.068.001.043.03.025-.009h.025l.022.003.016.006.012-.026.003-.011h.014l.022.008.175-.057.054-.004.063.015.023.002.025-.006.026-.023.024-.007.228.036.036.02v-.02l-.005-.028.04-.01.103.002.28-.042.021.006.017.013.014.018v.017l-.062.014-.115.046.014.037-.018.015-.035-.007-.034-.026-.012.027-.018.026h.03v.02l-.016.017-.043.072-.01-.011-.013-.008-.016-.002-.02.003v.018l.014.007.009.007v.009l-.006.011.004.013.002.006v.005l-.006.014-.013-.034-.005-.02H9.33l-.02.009-.047-.023-.022.014h-.014l-.011-.01-.01-.005-.01.003-.014.012-.015-.014-.021-.004h-.05v.018h.042v.016l-.019-.001-.036.003-.018-.002.007.012.005.01.006.008.012.008-.016.02-.028-.02.013.024.018.024.042.044v.016l-.022.009-.019.012-.016.006-.016-.008-.008.006-.006.005-.007.004-.01.001.026.022.012.026-.003.015-.02-.007-.014.018h.04l.03.006.02.016.013.031-.04.03-.012.015-.007.027-.037-.034-.035-.01-.075.009-.041-.002-.043-.011-.034-.016-.015-.017-.022.009-.188.006-.029.014-.054.052-.026-.008-.027.006-.03.001-.034-.018-.03.011-.099-.058-.047.012-.012.032-.002.036-.011.028-.041.012-.077-.005-.157.023-.052-.004-.02.004-.024.018-.024.03-.009.042-.019.027-.027.012h-.036l-.035-.009-.027-.01v.015l.017.01.01.014v.015l-.012.016.007.002h.006l.003.003v.012l.027-.015.024.001.017.017.005.033.024-.01h.021l.05.01.015.006.026.026.01.005.01-.007.01-.012.01-.018.146-.053.01.028.024.002.03-.008.04-.005.036.006.038.013.072.036.003-.057.03-.083-.006-.022v-.019l.03-.019.046-.058.035-.012.034.004.027.008h.025l.025-.012v.018l.04-.018.042.009.038.022.027.023h.014l.016-.033.014.006.014.018.015.009.015-.013.017-.02.015-.004.011.037.032-.016.026-.026.02-.009.011.033h.015l.031-.017.084-.025.031-.032.011.028.017.004.046-.032.038-.057.018-.011.025-.005.025.007.012.022.003.054.011.046-.028-.026-.008-.011-.008-.019-.014.02-.025.022-.016.015-.004.017.011.017.043.003.02.016-.001.038-.034.024-.031-.002.008-.043-.022.013-.08.006v.003l-.008.011-.013.013-.01.008-.013.004-.046-.004.015.018-.077.019-.011.008.009.025.021.01h.024l.019-.008.015.01.025.01.023.002.01-.012.002-.033.006-.008.021.014.022.023.007.031-.008.032-.02.022v.016l.018-.013.041-.039.03.036-.031.033-.021.032-.025.025-.042.019h-.16l.011.018.006.008.012.008-.005.008-.006.02-.004.008.025.026.028.016.027-.005.022-.037.01.023.016.008.022-.002.025-.011-.004-.01-.004-.017-.005-.009.019-.005.01-.005.005-.01.009-.016.057.02.05-.04.04-.065.03-.058.038-.057.042-.031.11-.039-.003-.013h-.003l-.01-.005.008-.008.006-.007.002-.007v-.013l.015.011.014.008.014-.04.03-.009.034.012.026.018-.014-.06-.085-.064.01-.057-.03-.027-.007-.038.015-.043.03-.043.033-.015.034.016.03.027.026.017v.018l-.056.01-.022.011-.01.023.01.024.022.007.056-.003-.004-.014-.01-.042h.014l.021.015.112.057.041-.002.023-.027.016-.04.022-.037-.021-.021-.02-.001-.019.006-.013-.002-.014-.014-.014-.019-.001-.016.022-.007.062-.007.043-.013.02-.024.004-.024.01-.002.01.017.004.027.003.009.005.004.006.008.002.015-.004.01-.01.001-.015-.001.007.056.017.025.03.007h.049v.02l-.03.017.024.01.022.002.02.005.022.018-.007-.065.046-.026.064.01.027.03.005.02v.004l.013.01.001-.02.003-.011.01-.024h.015l-.009.015v.009l.005.006.004.007-.007.003H10.3l-.003.003.001.013.023.025.006.048-.01.052-.019.036.028.072.015.017.027-.04.028-.01.023.02.01.049h.016l.063-.033.096.019.078.053.01.07.038-.012.022.009.021.019.037.017v.02l-.033.007-.018.018v.024l.022.024.027.006.037-.003.023-.014-.013-.026.032-.024.036-.04.014-.045-.038-.035.013.037-.004.024-.013.02-.012.027h-.013l-.008-.012-.021-.024.014-.018-.012-.008-.006-.007-.011-.022.027-.007v-.02l-.006-.023.008-.021.016-.01.017-.005.04-.004v-.018h-.014v-.016l.028-.028.04-.048.035-.026.015.038.022.025.167.069.133.094.013.015.014.02.012.023.005.023-.014.02-.025.007-.018-.009.013-.028v-.016l-.033.015-.027.038-.027.025-.03-.026-.014.025-.02.048-.011.018.023.039.011.034-.008.025-.04.01.047.008.103-.04.026.033h.015l.024-.012.012.044.009.092v.02l-.019.004-.013.007-.028.024v.016l.032.017.027.035.013.044-.012.048.007.004h.003l.002.002v.012l-.024.003-.021.01-.016.016-.011.025h.02l.015.004.025.015-.016.016h.06v.02l-.007.012-.002.007.008.034.03-.02.035.045.128.04.028.033.02.039.14.13.015-.018.011.016.013.027.02.012.015-.007.01-.015.007-.019.01-.015.012-.012.005-.007.009-.006.022-.01.013.004.008.012.008.004.013-.02.008.073.01.023.026-.024.134.076.057.013.173-.003.047.02-.024-.001-.022.003-.022.007-.019.011v.016l.11-.016.016.013.002.023-.013.014-.028-.014.021.054.074.035.008.053.035-.046.002-.01.023-.003.007-.01.001-.012.007-.01.026-.012.026-.003.026.008.024.027.01-.011.006-.004.028-.004-.007.01-.004.009-.006.007-.012.009v.02l.038-.007.034-.015.03-.023.03-.028h-.044v-.018l.052-.017.02.001.002-.013-.003-.004h-.006l-.007-.003.03-.015.08-.018.036-.02.029-.029.01-.006h.02l.027.004.025.009.024.002.026-.015.032.004.145-.075v-.02h-.045l.029-.012.02.009.017.014.016.009.08.017.001-.018v-.02l.03.02v-.02l.013-.05.013.035.003.016h.013l.002-.054.008-.039.02-.022.16-.028.045.002.227.103.051-.014.025.023.01.045-.004.11.061-.053.03-.034.022-.058.027-.025.03-.022.021-.022-.015-.004-.004-.006-.002-.001-.01.011h-.014l.026-.054.057-.05.03-.037-.054-.02.015-.036-.03-.017-.024-.037-.003-.045.028-.044-.002-.023.047-.071.026-.093.032-.04.073-.06-.006-.03.03-.093.005-.056-.015.018-.012-.03-.015-.022-.013-.027-.004-.048.005-.038.01-.026.013-.022.016-.02v-.018l-.023-.039-.003-.046.012-.086v-.08l.01-.022.028-.046.03-.082.057-.056.125-.083.086.066.045.027.06.016.351-.02.859.128.076.043.005.064.062.012.404.177.031.036.036.029.163.071.044.007.026-.003.028.026.042.058.082.035.02.019.039-.007.06.01.054.02.024.022.019.026.043.006.086-.004.012.007.013.012.017.012.023.005h.025l.018.004.015.008.132.131.031.019.027.043.038.08.005.002.03.011.007.01.024.04.024.032.009.019.003.021.026.075.13.112.05.072.006.023.009.075.009.015.04.026.01.013.018.003.1.132.034.02.044.012.037.016.016.031.022.023.163.093.04.01.077.008.138.089.083.04.191.044.093.006.114-.087.018-.029.025-.008.137-.074.042.002.142.034.067-.003.028.003.02.01.006.007h.01l.023-.017.03-.036.019-.041.026-.033.05-.014.022.006.046.024.026.006.024-.002.064-.018.095.003.047-.006.04-.047.044.006.083.028.032-.007.075-.038.047-.01.043.006.092.024.049.006v.02l-.03.015.047.01.047-.046.048-.062.05-.044.03-.013.029-.005.02.01.007.036.054.083.007.015.012-.018.013-.07.011-.028.065-.07.015-.012.074-.03.02-.004.027-.012.03-.054.025-.022-.006-.01-.007-.005-.016-.005.036-.01.02-.023.04-.064.032-.026.026.006.026.018.032.011.044.029.033.066.01.071-.02.048v.016l.037-.001.012-.018.002-.03.007-.038.018-.033.04-.053.005-.017-.007.007-.012.005.023-.056.058-.02.066-.014.044-.033.003-.07-.01-.083.005-.07.074-.04.076-.078.045-.02.02-.017.009-.026.018-.04.184-.232.067-.056.23-.142.189-.168.066-.035.01-.011.021-.05.013-.011.066-.036.024-.01.064-.01.142-.065.092-.02.063.033.012-.02.175.092.088.093.03.015-.01.041-.005.013.028-.013.035-.007.035-.002.035.003.042.016.068.047.06.02.541.322.03.009.025.01.033.051.022.011.005-.008.055-.045.046-.015.02-.012.007-.02.01-.01.052-.028.018-.006.093.012.09.024-.074-.03-.017-.007-.021-.004.006-.024.019-.017.029-.007.02.01.068.061.026.005.07-.005.02-.005.032-.023.02-.006.017-.012.003-.03.001-.032.01-.027.012-.02.019-.047.012-.022.08-.082-.032.009-.03.018-.095.11-.029.019-.003-.029.034-.06.059-.045.126-.057-.028-.012-.023.009-.02.014-.024.008-.016-.014-.007-.025-.013-.015-.03.016.011.017.003.018-.004.02-.01.017-.005-.013-.006-.01-.008-.007-.011-.004-.007.042-.048-.014-.032.043-.014-.04.02-.032.03-.031.023-.041.017.012.007.01-.001.013-.01.019.025-.017.025-.05.025-.023.077-.028.178-.008.082-.02.033-.025.07-.081.022-.017.035-.01.029-.023.122-.148.074-.065.075-.028.082.021.08.056.073.073.127.177.021.046.008.04-.002.165.002.018.008.028.01.023.01.025v.033l-.01.04-.022.054-.025.047-.023.02-.033.007-.23.145-.023.002-.016.027-.101.125-.018.01-.085.03-.014.012-.01.013-.026.017-.012.054-.01.024-.02.016-.037.02-.018.018-.025.063-.011.01-.025.002-.023.007-.021.013-.018.021-.059.085-.003.043.024.059.027.03.034.033.03.033.024.081.027.044.029.038.15.245.058.18.003.046-.023.02-.093.16-.024.036.02.007.041-.009.044-.015.042-.007.027.03v.034l-.006.034.004.03.025.022.033.008.067.002.064.029.124.089.041-.007.024-.077.013-.183.048-.075.068-.025.052.014.034-.008.018-.091.042-.018.085.033.046-.015-.006-.074.007-.376.004-.039.012-.019.017-.017.004-.023-.031-.036.025-.024.027.031.027.02.029.009.059.008.012.004h.012l.019-.008.01-.015.003-.019.007-.017.024-.008.04-.006.162.025.04.001.152-.028.013-.023-.002-.058-.008-.037-.015-.043-.021-.04-.025-.029-.035-.014-.07-.007-.022-.02.01-.001.012-.024.014-.039v-.023l-.002-.02-.006-.018-.01-.017-.011-.007-.034-.015-.015-.013-.012-.02-.04-.142-.006-.044.01-.039.064-.1.01-.113-.002-.117.029-.11.025-.062.007-.052.002-.05.01-.058.027-.052.035-.046.024-.05-.008-.065.02-.001.02.003.397.135.135.008.041.01.043.017.04.022.033.03.066.06.016.034.003.055-.02.084.008.03.041.036.042.023.02-.006.017-.025.033-.033.04-.017.035.002.036.01.04.006.136-.034.047-.005.349.063.089.002.315-.2.13-.057.356-.075.342-.155.06-.016.247-.155.144-.055.073-.007.14.017.407.121.106.058.289.3.13.067.15.019.349-.016.047-.014.112-.008.33.109.114-.005 1.126-.211.46-.17.212-.126.078-.026.08-.015.08-.037.436-.289.043-.026.046-.017.047-.01.048-.002.099-.028.286-.157.107-.04.401-.058.51.1.097.04.046.012.596-.028 1.134-.264.094-.056.16-.15.109-.139.03-.019.04-.03.024.028.003.031-.004.026.003.012.029.004.065.032.012-.006.013-.015.015-.011.013.004.01.014.01.026.01.014.072.058.015.008.014.033-.039.147.025.034.017.016.004.037.001.075.096-.01.123-.04.184-.031.034-.016.008-.014.026-.072.269-.386.008-.02.003-.018.004-.019.014-.022.013-.01.106-.041.02-.002.025.003.018.014.01.045.018.014.177.058.086.012.092-.031.054-.04.082-.035.086-.023.067-.006.037.01.282.15.014.005.018.003.019-.004.02-.02.019-.008.04-.006.025.005.086.065.087.043.1.081.034.014.028-.003.053-.02.026-.005.028.005.018.008.038.03.055.022.051.006.22-.015.056.006.05.013.022.014.046.044.016.01.027-.007.038-.039.115-.02.066-.074.063-.092.078-.066.097-.015.112.02.207.083.048.031.035.036.025.045.018.061.011.058.003.033-.003.026-.018.03-.02.01-.026.005-.027.015-.036.046-.018.054-.001.056.015.055.087.191.014.028.019.015.09.023.025-.002.02-.02.02-.044h.001l.033-.056.008-.041.017-.03.182-.06.056-.03.053-.04.052-.065.077-.072.084-.06.068-.031.04-.003.225.032.042.021.027.046.013-.051-.013-.045-.02-.044-.007-.054.015-.047.026-.023.03-.017.025-.032.007-.086-.049-.055-.123-.078-.018-.035-.013-.038-.02-.024-.077.012-.02-.023-.03-.075-.033-.025-.08-.007-.029-.017-.013-.043.028-.079-.008-.044v-.001l-.011-.054.004-.066.014-.065.02-.054-.01-.045-.047-.036-.044-.048.01-.08.017-.024.074-.059.022-.034-.004-.025-.08-.095-.053-.046-.06-.027-.058.007-.027.015-.035.012-.029-.003-.016-.03.002-.016.008-.043-.001-.013-.017-.012-.014.003-.015.005-.016-.005-.024-.03-.012-.033-.008-.031-.012-.025-.024-.016-.077-.036-.025-.008-.139.016-.075-.012-.037-.059.009-.029.022-.027.019-.029-.002-.034-.01-.037.003-.034.013-.033.019-.034.02-.039.051-.058.019-.04.018-.056.02-.034.028-.022.04-.02.013-.017-.017-.05.002-.024.018-.015.038-.015.016-.021.014-.04.014-.052.007-.052-.01-.128.061-.068.078-.06.048-.068-.002-.042-.016-.043-.026-.036-.03-.025-.034-.013-.027.006-.07.04-.108-.02-.031-.014-.02-.013-.006-.024.007-.044v-.024l-.006-.068v-.032l.028-.108.002-.046-.02-.137.01-.107V19.6l-.014-.045-.016-.018-.017-.01-.038-.012-.027-.014.007-.016.018-.019.01-.02-.01-.048-.011-.033-.004-.033.008-.054.058-.196-.01-.079-.114-.053-.034-.033-.03-.041-.02-.06-.01-.021-.007-.02.002-.023-.002-.025-.016-.017-.02-.015-.012-.019-.01-.042-.006-.018-.012-.019.03-.05.035-.029.02-.032-.02-.107.011-.043.043-.082-.017-.067-.083-.057-.095-.05-.056-.042-.002-.023.015-.05-.002-.023-.026-.054-.007-.023-.001-.025.005-.018v-.02l-.025-.054-.012-.057-.01-.027-.056-.066-.013-.033.024-.032.043-.027.032-.012h.034l.048.005.049-.005.116-.03.052.005.147.073.055.004.047-.011.11-.05.042-.03.036-.054v-.049l-.007-.051.011-.061.022-.032.001-.033-.007-.035-.005-.039.005-.044.01-.037.07-.14.013-.036.005-.043-.01-.09.01-.03.227-.185.053-.015.033.023.058.086.028.033.129.059.04.035.175.124-.024-.034-.024-.104-.02-.034-.034-.055-.132-.17-.012-.022-.01-.009-.01-.002-.024.004-.012-.002-.039-.024-.078-.088-.028.017-.008-.016v-.03l-.007-.027-.033-.024-.017-.018-.008-.024-.01-.041-.025-.04-.055-.06-.123-.107-.297-.171-.08-.024h-.071l-.13.034-.06.008-.044.013-.023.003-.018-.006-.027-.026-.021-.006-.046.012-.074.052-.035.011-.257-.043-.234-.127-.197-.056-.098-.053-.027-.08.03-.026.096-.021.021-.036-.014-.03-.066-.082-.023-.048.039-.03-.033-.076-.096-.122-.057-.054-.022-.043.014-.045.019-.031.033-.112v-.018l-.086-.073-.046-.05-.008-.037.073-.086.046-.031.051-.006-.006-.02-.003-.009-.008-.011.014.005.01.002.009.004.013.01-.003-.067.029-.057.09-.105-.016-.063.013-.017.045-.078.006-.023-.011-.192-.007-.046-.02-.052-.09-.14-.021-.055-.012-.063-.005-.056-.009-.053-.024-.055-.067-.083-.085-.07-.092-.045-.092-.013-.04-.038-.035-.08-.018-.088.01-.066.024-.072-.03-.066-.059-.053-.058-.034-.067-.018-.062.005-.198.054-.03-.022-.052-.124-.043-.05-.042-.004-.048.005-.058-.018.116-.059.031-.027.029-.04-.003-.014-.062-.009-.067-.03-.103-.09-.157-.106-.031-.034-.065-.118-.016-.019-.02-.007-.01-.011-.008-.013-.013-.012-.063-.021-.017-.01-.017-.031-.012-.035-.016-.019-.029.018-.052.06-.04-.013-.041-.044-.055-.032.018-.028.042-.036.017-.02.01-.025.004-.028.007-.028.016-.027-.04-.019-.3-.025-.108.009-.054.017-.043.033-.022.047-.02.115-.021.045-.047.049-.064.095-.045.03-.054.002-.375-.145-.106.006-.051-.004-.036-.033-.03-.018-.033-.001-.067.02-.03-.014-.031-.006-.03.005-.031.014-.076.024-.153-.058-.086.034-.03.022-.067.095-.086.072-.02.012-.026-.01-.086-.079-.028-.01-.062-.007-.025-.01-.01-.017.001-.023.002-.021-.003-.011h-.016l-.054.024-.064.005-.027-.005-.227-.094-.03.052-.125.11-.022.014-.008.062-.022.06-.033.05-.04.03-.027.01-.075.009-.023.008-.046.025-.054.02-.201.162-.04.013-.055.003-.055.013-.043.032-.085.087-.04.03-.048.024-.05.017-.045.006-.034.013-.082.057-.053.008-.091-.033-.034-.005-.024.009-.15.11-.127.168-.026.018-.033.011-.066.008-.03.008-.08.07-.067.041-.06.017-.063-.007-.074-.032-.351.228-.1.027-.05.033-.076.03-.05.011-.063.026-.037.006-.086-.016-.061-.041-.123-.114-.053.005-.135.046-.034.025-.042-.008-.037-.018-.128-.1-.02-.007-.046.003-.024-.002-.058-.041-.043.006-.044.02-.042.014-.085-.016-.082-.046-.127-.11-.054-.072-.031-.03-.135-.032-.025.006-.012.01-.008.012-.013.011-.115.068-.025.009-.043.007-.059.037-.036.013-.048-.008-.066-.055-.04-.013-.07-.006-.026.006-.053.045-.02.012-.172.038-.246.003-.04.013-.034.03-.036.023-.15.03-.047.017-.01.007-.008.017-.043.05-.026.008-.022.018-.018.019-.014.012-.023.006h-.042l-.02.012-.016-.017-.033-.046-.013-.012-.026-.002-.07.021-.028.017-.078.076-.033.023-.162.009-.025.02-.054-.006-.08-.023-.083.025h-.043l-.093-.082-.041-.009-.095.026h-.048l-.086-.03-.127-.021-.257-.085-.102-.014-.083.036-.037-.065-.023-.028-.029-.023-.11-.053-.038-.048-.003-.175-.055.01-.014-.02-.037.033h-.041l-.035-.027-.019-.045-.038.025-.036.038-.033.045-.025.046-.028.074-.015.023-.016.011-.03.012-.013.015-.034-.01-.085.009-.043-.016-.05-.054-.009-.016-.088-.027-.036-.028-.052-.058-.037-.011-.05-.005-.045-.014-.024-.014-.05-.045-.076-.02-.274.002-.042-.018-.082-.05-.046-.01-.035-.02-.013-.048-.004-.123-.036-.088-.065-.056-.318-.158-.168-.044h-.184l-.047-.008-.036-.013-.029-.003-.028.024.004.004-.014.06-.004.006-.007.017-.03.052-.007.027-.019.026-.113.099-.09.05-.053.012-.04-.016-.018-.015-.04-.006-.022-.008-.01-.01-.022-.034-.012-.013-.024-.012-.024-.007-.018-.014-.007-.033-.001-.03-.006-.02-.012-.013-.06-.016-.108-.057-.035-.028-.069-.133-.056-.038-.095-.117-.022-.049-.008-.043.001-.092.004-.013.018-.046.007-.028v-.115l-.029-.08-.162-.208h-.015v.038l-.128-.118-.01.003-.024.02-.03.033-.03.05-.02.062-.005.067h-.016l-.007-.046.04-.088-.004-.042.022-.01.017-.014.012-.017.01-.017v-.02l-.047.012-.089.07-.05.017-.051.007-.227.096-.132.022-.082.05-.044.019-.093.008-.1-.013-.094-.03-.08-.044-.067-.064-.035-.023-.093-.015-.127-.052-.033-.025-.063-.075-.062-.031-.027-.039-.021-.045-.014-.037h.03v-.02l-.115-.096-.065-.084-.058-.105-.014-.044.002-.052.013-.066.018-.062.02-.043.045-.036.053-.006.116.014v-.02l-.045-.04-.02-.013-.032-.004-.023.007-.035.037-.023.014-.062.005-.05-.021-.08-.063v-.018l.01-.02-.014-.02-.023-.025-.016-.033h-.017l-.013-.001-.008.004-.005.018-.027-.018-.062-.01-.03-.011zm-16.56.008l-.028.021-.047.064-.006.01-.002.01-.009.004-.052-.013-.048-.002-.024.002-.033-.026-.036-.021-.039-.012h-.04l-.052.025-.047.088-.042.028-.03.012-.019.03-.017.033-.024.029-.019.004-.04-.006-.022.01-.023.022h-.02l-.02-.007h-.023l-.023.014-.048.04-.018.01-.024-.007-.04-.034-.02-.01-.025.007-.046.047-.022.015-.041.005-.201-.033-.039.004-.035.025-.061.065-.016.012-.013.013-.01.018.005.011.026.016.006.01-.002.016-.009.025-.002.015-.004.037-.009.052-.017.05-.03.04-.102.03-.22-.009-.088.077-.03.068-.008.06.014.057.022.03.056-.005.038.012.058.053.082.021.038.016.034.009-.007.04-.018.036.121.09.097.05.022.022.04-.06v.02l.002.022.005.018.008.016-.01.034.009.073-.014.028.023.04.01.049.011.104.035.137.009.057v.059l-.01.058-.02.049-.027.026-.04.004-.046-.012-.04-.022-.023-.028-.109.114-.023.004-.009.009-.005.012-.012.014-.06.038-.056.05-.037.018-.136.014-.023.022.033.049-.023.061-.01.054.007.05.026.048-.04.062v.023l.032.009.015.012-.037.073.006.04.03.063.019.03.056.027.002.032-.015.033-.018.015-.032.004-.018.01-.007.019.007.024.022.028.02.01.007.01-.021.028-.03.023-.062.029-.025.026.006.012.013.02.001.017-.028.008-.018-.003-.016-.008-.01-.013-.008-.016h-.013l-.018.056-.012.025-.016.016h-.014l-.003-.011-.01-.027v.03l-.003.014-.009.006-.02.005v.014l.002.004h.006l.007.003-.02.01-.007.01-.002.018.015.03-.115.098-.033.052-.018.074-.047.055-.066.032-.08-.007-.006.005-.017.004.032.043.022.061.006.06-.016.043.018.042.014.05.018.043.03.018.056.01.397.002.114-.033.037-.004.057.028.034-.011.033-.02.03-.01.035.004.034.013.06.04.164-.096.059-.018h.146l.029-.008.05-.024.163-.026.017.025.066.137-.027.059-.06.05-.07.022-.05-.025-.03.034-.046.07-.029.03-.03.013-.1-.013-.058.014-.067.03-.061.039-.095.08-.126.046-.1.083-.107.068-.032.055-.042.002-.11.042-.025.021-.014.005-.028.023-.019.027.01.012.028.006.009.014-.008.019-.022.018.064.049.04.058.012.076-.026.099-.097.133-.012.026-.016.059-.024.057-.036.027-.012.015-.017.033-.006.033.02.015.024-.003.113-.039.026-.016.065-.06.085-.048.033-.024.102-.096-.03-.024-.028-.052-.007-.05.03-.024.044-.008.05-.023.05-.03.039-.031.056-.067.01-.01v-.01l.046-.047.028-.022.063-.015.015-.011.118-.106.032-.037.013-.045.004-.046.014-.021.07-.038.022-.033.02-.082.024-.016.03-.013.068-.06.04-.024.133-.019.037-.025.033-.03.123-.077.082-.024.086-.012.025-.018.062-.087.037-.029.045-.006.1.002.059-.038.051-.007.024-.008.01-.01.022-.033.012-.014.192-.14.091-.159.202-.195.046-.084.054-.224.046-.093.067-.038.457-.066.082.005.084.023.035.02.03.026.033.022.172.02.038-.012-.003-.022.014-.036.048-.077.023-.023.034-.024.036-.02.032-.007.118-.049h.021l.016-.01.103-.038.035.02.038-.002.08-.018.017.006.024.027.017.007h.073l.074.012.15.054.07.012.055.028.11.112.062.008.027-.024.014-.039.005-.04v-.028l-.017-.047-.047-.047-.011-.04.052.012.044.039.021.056-.015.063.02.005.015.009.025.026-.017.088.064.027.257-.033.053.002.023.02.01.018.026.009.052.003.025-.007.014-.01.009-.013.012-.009.02-.007.086-.018.039-.026.023-.006.007-.006.019-.024.012-.008.012.003.019.015.046.004.01-.003.012-.016v-.015l-.006-.01-.002-.012-.001-.012.003-.014.017-.025.017-.013.039-.012.017-.014.023-.035.02-.043.015-.05.008-.054.005-.001.009-.014.004-.016-.011-.008-.004-.004-.014-.02-.012-.023-.018-.022-.005-.018.024-.008.037-.021.037-.048.028-.052.02-.07-.033-.03-.053-.021-.05-.008-.016.006-.013.026-.016.006-.015-.002-.005-.006-.005-.006-.011-.005-.213-.047-.658-.31-.464-.197-.325-.2-.118-.11-.045-.074-.031-.041-.062-.036-.034-.043-.03-.051-.016-.044.002-.018.01-.001h.012l.006-.01-.003-.017-.005-.008-.006-.005-.01-.03-.019-.02-.039-.036-.024-.038-.04-.127-.036-.05-.038-.044-.032-.052-.013-.075.007-.07.018-.038.027-.016.036-.002.04.018.021.004.02-.013.003-.02-.008-.021-.014-.018-.011-.008v-.03l-.03-.136-.078-.017-.033-.01-.104.012-.03-.01-.056-.027-.053-.013-.02-.001-.04.007-.01-.004-.008-.001h-.008l-.009.005-.006.028v.038l-.005.028.033.02-.006.018-.027.01-.028.001-.029-.01-.112-.06-.079-.003-.166.042-.005.029-.008.014h-.011l-.016-.012-.018.022-.022.014-.045.016.002.007.006.004.007.004.006.004-.007.006-.014.007-.005.006.03.013-.035.015-.028-.02-.051-.071-.032-.027-.158-.088-.051-.044-.047-.055-.091-.138-.058-.057-.069-.04-.075-.018-.047.007zm4.068 3.448l-.008.007-.002.013-.008.01-.005.008v.02l-.002.021.032.02.008-.044.005-.015.006-.006.006-.005.005-.036-.037.007zm-3.235.568l-.055.02-.053.026-.007-.03-.012-.007-.015.009-.017.02-.01.03.012.023.015.02-.006.06.034.03.042.017.024.001.047.021.042-.017.071-.062.04-.013.082-.013.04-.029-.011-.048-.055-.029-.062-.01-.034.01-.056-.029h-.056zm1.957.282l.009.046-.016.075.007.021.03-.012.025-.103.016-.012-.003-.013-.013-.01-.013-.001-.042.01zm-1.971.18l-.018.035-.023.02.004.03.031.021.04.004.035.008.03.016.024-.004v-.023l-.007-.008-.017.002-.022-.019.003-.032.012-.025-.003-.019-.071-.031-.018.025zm-3.61.705l-.184.068-.146.027-.086.054-.07.072L4 15.49v.018l.088.03.01.014.026.015.051.017.045.003.193-.03.095-.04.144-.022.048-.017.047-.025v-.056h-.013l-.032.025-.039.011-.021-.01.019-.043-.01-.022v-.034l.004-.036.006-.023v-.019l-.03-.005-.017-.018-.011-.02-.014-.013-.027-.004-.027.005zm.156 1.096l-.017.023.012.032.029.022.063.03.07.047.034.003.014-.041.003-.096-.012-.027-.036.02-.01-.014-.01-.004h-.01l-.014-.002-.077-.001-.04.008zm1.528 3.528v.024l-.006.034-.008.022-.001.08.011.015.05.02.005.016.017.014.026-.014.008-.033-.005-.02-.03-.031-.003-.07-.016-.032-.027-.021-.016-.006-.005.002zm-.756.25l-.018.014-.029.011.005.023.004.037.01-.003.012-.005.015-.008.013.008.011-.005.005-.033.012-.023-.014-.027-.026.01zm1.719 2.275l.013.025.035.06.004-.006-.007-.009.009.005.01.014.02.012-.027-.038-.021-.03-.013-.012.01-.015-.01-.012-.023.006zm.586 1.6l.008.005.017.01.016.016.007.026.017.005.014.006.013.003.017.015.006.002.008-.01.02-.01.001-.02-.02-.015-.019-.008-.022-.005-.02-.01-.027-.013-.02-.011-.016.013zm3.188.817l-.007.04.017.036.01-.012.017-.022.005-.009.018-.005.006-.014-.034-.011-.011.003-.01-.013-.01.007zm-1.69.215l.009.005.006-.006-.009-.006-.006.007zm2.83.994v.016l.01-.009.01-.014-.02.007zm-.194.006l-.016.005.007.018.02-.016.004-.014-.015.007zm1.156.067l-.041.014-.028.015-.014.009-.018.017-.014.006.007.01.016-.008.022-.004.022-.008.016-.003.014.005.014-.028.002-.005.012-.001.007-.014.017-.013.006-.017-.04.025zm8.328.03l-.007.015.023-.023-.016.008zm-8.997.042l-.023.029-.005.017-.008.032-.008.014-.002.015h.002l.034-.008.006-.003.01-.009.005-.003.002-.011.04-.02-.002-.016-.007-.003-.013-.008.002-.016.003-.022-.015-.001-.02.013zm-.205.02l.015.011.019.006.002-.008h.011l.01-.007-.014-.012-.022-.007-.02.017zm.552.062l-.01.029h.003l.018-.01.026-.019.016-.012-.008-.006-.025-.003-.02.021zm-.184 0l.01-.003-.013-.011.003.015z"/>
        <path fill="#FFF" fill-rule="nonzero" d="M2.188 29.392s11.616 6.248 20.993-2.358c0 0-5.542 9.786-20.993 4.244v-1.886zm0-5.943s11.616 6.247 20.993-2.358c0 0-5.542 9.785-20.993 4.243V23.45zm0-5.718s11.616 6.248 20.993-2.359c0 0-5.542 9.787-20.993 4.245V17.73zm0-5.944S13.804 18.035 23.18 9.43c0 0-5.542 9.786-20.993 4.244v-1.886zM47.18 5.45S35.565-.799 26.188 7.808c0 0 5.542-9.786 20.993-4.245V5.45zm0 5.944s-11.616-6.248-20.993 2.358c0 0 5.542-9.786 20.993-4.244v1.886zm0 5.718s-11.616-6.248-20.993 2.358c0 0 5.542-9.786 20.993-4.244v1.886zm0 5.943s-11.616-6.249-20.993 2.36c0 0 5.542-9.789 20.993-4.246v1.886zM61.171 19.373l-3.955-6.023h2.063l2.788 4.403 2.817-4.403h2.006l-3.955 5.98v3.963h-1.764v-3.92zm6.672-6.023h7.383v1.562h-5.633v2.585h4.993v1.563h-4.993v2.67h5.704v1.563h-7.454V13.35zm11.964 1.619h-3.158v-1.62h8.08v1.62h-3.158v8.324h-1.764v-8.324zm6.473-1.62h1.75v5l4.737-5h2.148l-4.14 4.276 4.325 5.668h-2.12l-3.4-4.475-1.55 1.592v2.883h-1.75V13.35zm10.968 9.944V13.35h1.75v9.943h-1.75zm-.028-10.767v-1.591h1.82v1.59h-1.82zm5.277.824h1.75v8.352h5.236v1.591h-6.986V13.35zm9.176 9.943V13.35h1.75v9.943h-1.75zm-.028-10.767v-1.591h1.82v1.59h-1.82zM58.129 26.73h1.47v4.202l3.981-4.202h1.805l-3.478 3.594 3.634 4.762H63.76l-2.858-3.76-1.303 1.337v2.423h-1.47V26.73zm8.117 0h1.47v4.751c0 1.552.801 2.388 2.116 2.388 1.304 0 2.105-.788 2.105-2.328v-4.81h1.47v4.738c0 2.495-1.41 3.749-3.598 3.749-2.176 0-3.563-1.254-3.563-3.677v-4.81zm8.942 0h3.73c1.052 0 1.877.31 2.415.836.442.454.693 1.074.693 1.802 0 1.397-.825 2.22-1.996 2.555l2.26 3.163h-1.734l-2.057-2.912h-1.84v2.912h-1.471V26.73zm3.622 4.143c1.053 0 1.722-.55 1.722-1.397v-.024c0-.895-.646-1.385-1.734-1.385h-2.14v2.806h2.152zm4.65-4.143h1.47v4.751c0 1.552.802 2.388 2.117 2.388 1.303 0 2.104-.788 2.104-2.328v-4.81h1.47v4.738c0 2.495-1.41 3.749-3.598 3.749-2.176 0-3.563-1.254-3.563-3.677v-4.81zm8.942 0h1.471v7.02h4.4v1.336h-5.87V26.73zm6.79 0h1.471v4.751c0 1.552.801 2.388 2.116 2.388 1.303 0 2.105-.788 2.105-2.328v-4.81h1.47v4.738c0 2.495-1.41 3.749-3.599 3.749-2.175 0-3.562-1.254-3.562-3.677v-4.81zm10.27 9.8l.932-1.372a5.062 5.062 0 0 1-2.821-1.29l.885-1.05c.8.693 1.602 1.087 2.642 1.087.908 0 1.482-.418 1.482-1.05 0-.622-.335-.944-1.889-1.302-1.781-.43-2.785-.955-2.785-2.495 0-1.456 1.195-2.447 2.857-2.447 1.22 0 2.188.37 3.037 1.05l-.79 1.11c-.753-.56-1.506-.859-2.271-.859-.86 0-1.363.442-1.363.991 0 .668.383.955 1.985 1.337 1.77.43 2.69 1.062 2.69 2.447 0 1.444-1.017 2.34-2.523 2.495l-.8 1.886-1.268-.537zM2.157 55.44c.542 0 .88-.24.88-.639v-.01c0-.388-.328-.612-.951-.612H.956v1.26h1.201zm-.143-1.619c.486 0 .823-.22.823-.637v-.01c0-.353-.28-.582-.792-.582H.956v1.23h1.058zm12.43 1.973l1.628-3.59h.378l1.63 3.598h-.434l-.42-.945H15.28l-.425.945h-.91l-1.375-1.73-.762.77v.96h-.403v-3.573h.403v2.133l2.055-2.133h.522l-1.534 1.562 1.594 2.003zM.559 52.229H2.08c.409 0 .73.118.935.317.148.153.23.342.23.571 0 .475-.286.715-.567.837.424.128.766.373.766.863 0 .622-.516.985-1.298.985H.557v-3.573zm4.707-.025h.379l1.63 3.598H6.84l-.42-.945H4.474l-.424.945h-.414l1.63-3.598zm.997 2.291l-.813-1.822-.817 1.822h1.63zm1.411-2.266h.378l2.254 2.863V52.23h.394v3.573h-.322l-2.31-2.93v2.93h-.394v-3.573zm9.395 2.266l-.812-1.822-.818 1.822h1.63zm2.853-2.327c.65 0 1.038.23 1.395.566l-.276.296c-.301-.285-.639-.49-1.124-.49-.792 0-1.385.643-1.385 1.465 0 .837.598 1.485 1.385 1.485.49 0 .813-.189 1.155-.515l.266.26c-.373.378-.782.628-1.431.628-1.033 0-1.794-.812-1.794-1.837 0-1.021.756-1.858 1.81-1.858zm2.996.061h.403v3.2h2.014v.373h-2.417v-3.573zm3.157 0h.404v3.573h-.404v-3.573zm-4.128 0h.403v3.573h-.403v-3.573zm5.009 0h.404v2.133l2.054-2.133h.522L28.4 53.791l1.6 2.01h-.506l-1.375-1.73-.761.771v.96h-.404v-3.573zm4.595 0h1.242c1.125 0 1.902.77 1.902 1.776 0 1.016-.777 1.797-1.902 1.797H31.55v-3.573zm1.242 3.2c.905 0 1.483-.612 1.483-1.403v-.01c0-.792-.578-1.414-1.483-1.414h-.838v2.827h.838zm4.126-3.501v-.46h.475v.46h-.475zm-.956 0v-.46h.475v.46h-.475zm-.777 2.378V52.23h.404v2.052c0 .77.409 1.204 1.093 1.204.66 0 1.079-.398 1.079-1.179V52.23h.404v2.047c0 1.04-.598 1.582-1.493 1.582-.884 0-1.487-.541-1.487-1.552zm3.466 1.225l2.315-2.94h-2.239v-.362h2.791v.27l-2.32 2.94h2.32v.363h-2.867v-.27zm3.399-3.302h2.586v.368h-2.182v1.22h1.952v.367h-1.952v1.25h2.208v.368H42.05v-3.573zm3.118 0h.378l2.255 2.863V52.23h.393v3.573h-.322l-2.31-2.93v2.93h-.394v-3.573zm3.732 0h.404v3.2h2.014v.373H48.9v-3.573zm2.857 0h2.587v.368H52.16v1.22h1.953v.367H52.16v1.25h2.208v.368h-2.612v-3.573zm3.119 0h.409l1.303 1.95 1.303-1.95h.41v3.573h-.404v-2.894l-1.304 1.914h-.02l-1.304-1.909v2.889h-.393v-3.573zm4.13 0h2.586v.368H59.41v1.22h1.952v.367H59.41v1.25h2.208v.368h-2.612v-3.573zm4.038 0h.45l1.273 3.077 1.278-3.077h.434l-1.538 3.598h-.358l-1.539-3.598zm3.834 0h2.587v.368h-2.183v1.22h1.952v.367h-1.952v1.25h2.208v.368h-2.612v-3.573zm4.345 0h1.242c1.125 0 1.902.77 1.902 1.776 0 1.016-.777 1.797-1.902 1.797h-1.242v-3.573zm1.242 3.2c.905 0 1.483-.612 1.483-1.403v-.01c0-.792-.578-1.414-1.483-1.414h-.838v2.827h.838zm2.45-3.2H77.5v.368h-2.182v1.22h1.952v.367h-1.952v1.25h2.208v.368h-2.612v-3.573zm3.117 0h.378l2.255 2.863V52.23h.393v3.573h-.322l-2.31-2.93v2.93h-.394v-3.573zm3.732 0h2.586v.368h-2.182v1.22h1.952v.367h-1.952v1.25h2.208v.368h-2.612v-3.573zm4.064.373h-1.201v-.373h2.81v.373h-1.2v3.2h-.41v-3.2zm2.06-.373h.404v3.2h2.014v.373h-2.418v-3.573zm2.857 0h2.587v.368h-2.183v1.22h1.953v.367h-1.953v1.25h2.208v.368h-2.612v-3.573zm3.119 0h.409l1.303 1.95 1.303-1.95h.41v3.573h-.404v-2.894l-1.304 1.914h-.02l-1.304-1.909v2.889h-.393v-3.573zm4.13 0h2.586v.368h-2.182v1.22h1.952v.367h-1.952v1.25h2.208v.368h-2.612v-3.573zm4.345 0h.404v2.133l2.055-2.133h.521l-1.533 1.562 1.6 2.01h-.507l-1.375-1.73-.761.771v.96h-.404v-3.573zm3.236 0h.404v2.052c0 .77.409 1.204 1.093 1.204.66 0 1.079-.398 1.079-1.179V52.23h.404v2.047c0 1.04-.598 1.582-1.493 1.582-.884 0-1.487-.541-1.487-1.552V52.23zm3.63 0h1.538c.44 0 .792.133 1.017.357a.986.986 0 0 1 .276.705c0 .602-.409.949-.971 1.051l1.099 1.46h-.496l-1.038-1.389h-1.022v1.389h-.404v-3.573zm1.502 1.822c.537 0 .92-.276.92-.735v-.01c0-.439-.337-.704-.915-.704h-1.104v1.45h1.099zm1.83-1.822h.404v2.052c0 .77.409 1.204 1.094 1.204.659 0 1.078-.398 1.078-1.179V52.23h.404v2.047c0 1.04-.598 1.582-1.493 1.582-.884 0-1.487-.541-1.487-1.552V52.23zm3.63 0h.408l1.304 1.95 1.303-1.95h.409v3.573h-.404v-2.894l-1.303 1.914h-.02l-1.304-1.909v2.889h-.394v-3.573zm4.074 0h.403v2.052c0 .77.41 1.204 1.094 1.204.66 0 1.079-.398 1.079-1.179V52.23h.403v2.047c0 1.04-.598 1.582-1.492 1.582-.884 0-1.487-.541-1.487-1.552V52.23z"/>
    </g>
</svg>
