<svg xmlns="http://www.w3.org/2000/svg" width="750" height="258" viewBox="0 0 750 258">
    <path fill="#FFF" fill-rule="evenodd" d="M276.114 166.27h73.15c9.475 0 17.158 7.692 17.158 17.182 0 9.488-7.683 17.18-17.158 17.18H234.69a17.158 17.158 0 0 1-15.852-10.606 17.2 17.2 0 0 1 3.719-18.724l85.284-85.397h-64.576c-9.476 0-17.158-7.691-17.158-17.18 0-9.49 7.682-17.18 17.158-17.18h106c6.94 0 13.197 4.185 15.852 10.605a17.197 17.197 0 0 1-3.72 18.724l-85.283 85.397zM0 68.726c0-9.49 7.682-17.18 17.158-17.18 9.477 0 17.158 7.69 17.158 17.18v114.727c0 9.488-7.681 17.18-17.158 17.18C7.682 200.633 0 192.94 0 183.453V68.725zm34.316-51.544c0 9.489-7.681 17.18-17.157 17.18C7.683 34.361 0 26.67 0 17.181 0 7.693 7.683 0 17.16 0c9.476 0 17.157 7.693 17.157 17.181zM392.16 68.725c0-9.49 7.682-17.18 17.158-17.18 9.477 0 17.159 7.69 17.159 17.18v114.727c0 9.488-7.682 17.18-17.159 17.18-9.476 0-17.158-7.692-17.158-17.18V68.725zm34.316-51.544c0 9.489-7.682 17.18-17.158 17.18-9.475 0-17.158-7.691-17.158-17.18C392.16 7.693 399.843 0 409.318 0c9.476 0 17.158 7.693 17.158 17.181zM601.11 126.088c0-41.104 33.396-74.544 74.445-74.544 41.05 0 74.444 33.44 74.444 74.544s-33.395 74.544-74.444 74.544c-41.05 0-74.445-33.44-74.445-74.544zm34.316 0c0 22.157 18.002 40.183 40.129 40.183s40.129-18.026 40.129-40.183-18.002-40.183-40.13-40.183c-22.126 0-40.128 18.026-40.128 40.183zm-108.77 40.182c10.72 0 20.796-4.18 28.374-11.768 6.7-6.709 17.566-6.709 24.266 0 6.7 6.71 6.7 17.588 0 24.298-14.06 14.079-32.755 21.833-52.64 21.833-41.048 0-74.444-33.44-74.444-74.545 0-41.104 33.396-74.544 74.445-74.544 19.877 0 38.568 7.749 52.627 21.82 6.702 6.709 6.705 17.587.006 24.298-6.7 6.712-17.564 6.714-24.266.006-7.578-7.585-17.653-11.763-28.367-11.763-22.127 0-40.13 18.026-40.13 40.183 0 22.156 18.003 40.182 40.13 40.182zM176.443 61.042c4.238-8.488 14.544-11.927 23.02-7.684 8.476 4.244 11.912 14.563 7.673 23.05l-57.287 114.727-28.643 57.363c-3.006 6.021-9.067 9.502-15.36 9.502-2.579 0-5.196-.585-7.66-1.818-8.476-4.244-11.911-14.563-7.674-23.05l24.806-49.68-53.45-107.043c-4.237-8.488-.801-18.807 7.674-23.05 8.477-4.244 18.783-.804 23.02 7.683l41.94 83.992 41.94-83.992z"/>
</svg>
