<svg xmlns="http://www.w3.org/2000/svg" viewBox="0 0 456.45 186.44"><defs><style>.cls-1{fill:#fff;}.cls-2{fill:#fff;}</style></defs><title>Asset 1</title><g id="Layer_2" data-name="Layer 2"><g id="Layer_1-2" data-name="Layer 1"><path class="cls-1" d="M213.05,101.77H168.62L220.42,50a10.42,10.42,0,0,0-7.37-17.79H148.67a10.42,10.42,0,1,0,0,20.84h39.22l-51.8,51.8a10.42,10.42,0,0,0,7.37,17.79h69.59a10.42,10.42,0,0,0,0-20.84Z"/><path class="cls-1" d="M11.33,122.61A11.34,11.34,0,0,1,0,111.28V43.51a11.33,11.33,0,0,1,22.66,0v67.77A11.34,11.34,0,0,1,11.33,122.61Z"/><path class="cls-1" d="M249.53,122.61a11.35,11.35,0,0,1-11.34-11.33V43.51a11.34,11.34,0,0,1,22.67,0v67.77A11.34,11.34,0,0,1,249.53,122.61Z"/><path class="cls-1" d="M411.24,32.18a45.22,45.22,0,1,0,45.21,45.21A45.26,45.26,0,0,0,411.24,32.18Zm0,69.59a24.38,24.38,0,1,1,24.37-24.38A24.41,24.41,0,0,1,411.24,101.77Z"/><path class="cls-1" d="M338,94.63a24.37,24.37,0,1,1,0-34.48,10.42,10.42,0,1,0,14.73-14.74,45.22,45.22,0,1,0,0,64A10.42,10.42,0,0,0,338,94.63Z"/><path class="cls-1" d="M11.33,22.66A11.33,11.33,0,1,1,22.66,11.33,11.34,11.34,0,0,1,11.33,22.66Z"/><path class="cls-1" d="M249.53,22.66a11.33,11.33,0,1,1,11.33-11.33A11.35,11.35,0,0,1,249.53,22.66Z"/><path class="cls-1" d="M65.66,157.42A11.33,11.33,0,0,1,55.53,141l14.41-28.82L38.14,48.57A11.33,11.33,0,1,1,58.41,38.44l24.2,48.41,24.21-48.4A11.36,11.36,0,0,1,122,33.38h0a11.34,11.34,0,0,1,5.07,15.21L75.8,151.15A11.27,11.27,0,0,1,65.66,157.42Z"/><path class="cls-2" d="M134.78,173.36v-.08c0-4.7,3.68-7,9-7a18.05,18.05,0,0,1,5.85.91v-.54c0-3.09-1.89-4.74-5.4-4.74a13.11,13.11,0,0,0-4.83.86,2.5,2.5,0,0,1-.78.13,2.08,2.08,0,0,1-2.1-2.06,2.17,2.17,0,0,1,1.36-2,18.51,18.51,0,0,1,7-1.28c3.26,0,5.69.86,7.22,2.43s2.35,3.88,2.35,6.72v10.73a2.38,2.38,0,0,1-2.44,2.39,2.25,2.25,0,0,1-2.43-2.1v-.83a8.85,8.85,0,0,1-7.09,3.18C138.41,180.09,134.78,177.74,134.78,173.36Zm14.94-1.56v-1.49a14,14,0,0,0-4.95-.86c-3.22,0-5.12,1.36-5.12,3.62v.09c0,2.1,1.86,3.3,4.25,3.3C147.2,176.46,149.72,174.56,149.72,171.8Z"/><path class="cls-2" d="M167.62,153.32a2.52,2.52,0,0,1,2.55-2.56H179c6.76,0,11,3.84,11,9.65v.09c0,6.47-5.2,9.85-11.55,9.85h-5.73v7a2.54,2.54,0,0,1-5.07,0Zm11,12.45c3.83,0,6.22-2.14,6.22-5.15v-.08c0-3.39-2.43-5.16-6.22-5.16h-5.9v10.39Z"/><path class="cls-2" d="M191.08,173.36v-.08c0-4.7,3.68-7,9-7a18.05,18.05,0,0,1,5.85.91v-.54c0-3.09-1.89-4.74-5.4-4.74a13.07,13.07,0,0,0-4.83.86,2.54,2.54,0,0,1-.78.13,2.08,2.08,0,0,1-2.1-2.06,2.17,2.17,0,0,1,1.36-2,18.51,18.51,0,0,1,7-1.28c3.26,0,5.69.86,7.22,2.43s2.35,3.88,2.35,6.72v10.73a2.38,2.38,0,0,1-2.44,2.39,2.25,2.25,0,0,1-2.43-2.1v-.83a8.85,8.85,0,0,1-7.09,3.18C194.71,180.09,191.08,177.74,191.08,173.36ZM206,171.8v-1.49a14,14,0,0,0-5-.86c-3.22,0-5.12,1.36-5.12,3.62v.09c0,2.1,1.86,3.3,4.25,3.3C203.5,176.46,206,174.56,206,171.8Z"/><path class="cls-2" d="M215.05,185.74a2.14,2.14,0,0,1-1.57-2.07,2,2,0,0,1,2-2.06,2.42,2.42,0,0,1,.91.17,5.8,5.8,0,0,0,1.73.29c1.49,0,2.27-.62,3.1-2.31l.16-.46-8.08-18.06A3.28,3.28,0,0,1,213,160a2.39,2.39,0,0,1,2.47-2.43,2.51,2.51,0,0,1,2.44,1.9L223.79,174l5.45-14.47a2.55,2.55,0,0,1,2.39-1.9A2.36,2.36,0,0,1,234,160a4.25,4.25,0,0,1-.21,1.2l-8,19.09c-1.85,4.46-3.83,6.11-7.34,6.11A8.84,8.84,0,0,1,215.05,185.74Z"/><path class="cls-2" d="M237.24,167.38V153.07a2.54,2.54,0,0,1,5.07,0v14.11c0,5.36,2.76,8.2,7.3,8.2s7.26-2.68,7.26-8V153.07a2.54,2.54,0,0,1,5.07,0v14.07c0,8.62-4.86,13-12.41,13S237.24,175.76,237.24,167.38Z"/><path class="cls-2" d="M276.21,168.87v-.08a11.25,11.25,0,0,1,11.35-11.39,11.08,11.08,0,0,1,7.63,2.72,2.38,2.38,0,0,1,.78,1.74,2.26,2.26,0,0,1-2.31,2.26,2.51,2.51,0,0,1-1.48-.49,6.92,6.92,0,0,0-4.66-1.86c-3.63,0-6.31,3.14-6.31,6.93v.09c0,3.87,2.68,7,6.51,7a7.3,7.3,0,0,0,4.87-1.94,2.1,2.1,0,0,1,3.5,1.65,1.91,1.91,0,0,1-.7,1.56,10.65,10.65,0,0,1-7.92,3.1A11.13,11.13,0,0,1,276.21,168.87Z"/><path class="cls-2" d="M297.5,168.87v-.08a11.61,11.61,0,0,1,23.22-.09v.09a11.39,11.39,0,0,1-11.67,11.34A11.27,11.27,0,0,1,297.5,168.87Zm18.23,0v-.08a6.74,6.74,0,0,0-6.68-7c-4,0-6.56,3.14-6.56,6.93v.09a6.71,6.71,0,0,0,6.64,7C313.17,175.76,315.73,172.62,315.73,168.87Z"/><path class="cls-2" d="M324.14,160.12a2.46,2.46,0,0,1,2.48-2.51,2.49,2.49,0,0,1,2.51,2.51v1c1.4-1.94,3.3-3.76,6.64-3.76a6.92,6.92,0,0,1,6.52,3.84,8.76,8.76,0,0,1,7.34-3.84c4.74,0,7.63,3,7.63,8.33v11.63a2.43,2.43,0,0,1-2.47,2.48,2.46,2.46,0,0,1-2.52-2.48v-10.1c0-3.47-1.61-5.32-4.41-5.32s-4.66,1.9-4.66,5.4v10a2.5,2.5,0,0,1-5,0V167.22c0-3.38-1.65-5.28-4.42-5.28s-4.66,2.06-4.66,5.4v10a2.5,2.5,0,0,1-5,0Z"/><path class="cls-2" d="M361.68,160.12a2.46,2.46,0,0,1,2.47-2.51,2.5,2.5,0,0,1,2.52,2.51v1.37a8.7,8.7,0,0,1,7.42-4.09c5.11,0,10.1,4,10.1,11.3v.09c0,7.21-4.94,11.3-10.1,11.3a8.88,8.88,0,0,1-7.42-3.84V184a2.5,2.5,0,0,1-5,0Zm17.44,8.67v-.09c0-4.2-2.84-7-6.23-7s-6.35,2.81-6.35,7v.09c0,4.16,3,7,6.35,7S379.12,173.07,379.12,168.79Z"/><path class="cls-2" d="M386.26,173.36v-.08c0-4.7,3.67-7,9-7a18.16,18.16,0,0,1,5.86.91v-.54c0-3.09-1.9-4.74-5.41-4.74a13,13,0,0,0-4.82.86,2.6,2.6,0,0,1-.79.13,2.08,2.08,0,0,1-2.1-2.06,2.17,2.17,0,0,1,1.36-2,18.55,18.55,0,0,1,7-1.28c3.26,0,5.69.86,7.22,2.43s2.35,3.88,2.35,6.72v10.73a2.37,2.37,0,0,1-2.43,2.39,2.26,2.26,0,0,1-2.44-2.1v-.83a8.85,8.85,0,0,1-7.09,3.18C389.89,180.09,386.26,177.74,386.26,173.36Zm14.93-1.56v-1.49a14,14,0,0,0-4.95-.86c-3.22,0-5.12,1.36-5.12,3.62v.09c0,2.1,1.86,3.3,4.25,3.3C398.67,176.46,401.19,174.56,401.19,171.8Z"/><path class="cls-2" d="M410.26,160.12a2.46,2.46,0,0,1,2.48-2.51,2.49,2.49,0,0,1,2.51,2.51v1.08a7.91,7.91,0,0,1,6.81-3.8c4.91,0,7.75,3.3,7.75,8.33v11.63a2.43,2.43,0,0,1-2.47,2.48,2.46,2.46,0,0,1-2.52-2.48v-10.1c0-3.38-1.69-5.32-4.66-5.32s-4.91,2-4.91,5.4v10a2.5,2.5,0,0,1-5,0Z"/><path class="cls-2" d="M434.35,185.74a2.14,2.14,0,0,1-1.57-2.07,2,2,0,0,1,2-2.06,2.42,2.42,0,0,1,.91.17,5.8,5.8,0,0,0,1.73.29c1.49,0,2.27-.62,3.1-2.31l.16-.46-8.08-18.06a3.28,3.28,0,0,1-.29-1.2,2.39,2.39,0,0,1,2.47-2.43,2.51,2.51,0,0,1,2.44,1.9L443.09,174l5.45-14.47a2.55,2.55,0,0,1,2.39-1.9,2.36,2.36,0,0,1,2.39,2.35,4.67,4.67,0,0,1-.2,1.2l-8,19.09c-1.85,4.46-3.83,6.11-7.34,6.11A8.84,8.84,0,0,1,434.35,185.74Z"/></g></g></svg>