<?xml version="1.0" encoding="UTF-8"?>
<svg width="206px" height="54px" viewBox="0 0 206 54" version="1.1" xmlns="http://www.w3.org/2000/svg" xmlns:xlink="http://www.w3.org/1999/xlink">
    <title>CAB72AA1-3199-49D0-A7E3-2CF80FFB50B9</title>
    <defs>
        <filter x="-11.4%" y="-83.3%" width="122.7%" height="266.7%" filterUnits="objectBoundingBox" id="filter-1">
            <feOffset dx="0" dy="0" in="SourceAlpha" result="shadowOffsetOuter1"></feOffset>
            <feGaussianBlur stdDeviation="5" in="shadowOffsetOuter1" result="shadowBlurOuter1"></feGaussianBlur>
            <feColorMatrix values="0 0 0 0 0   0 0 0 0 0   0 0 0 0 0  0 0 0 0.05 0" type="matrix" in="shadowBlurOuter1" result="shadowMatrixOuter1"></feColorMatrix>
            <feMerge>
                <feMergeNode in="shadowMatrixOuter1"></feMergeNode>
                <feMergeNode in="SourceGraphic"></feMergeNode>
            </feMerge>
        </filter>
    </defs>
    <g id="General" stroke="none" stroke-width="1" fill="none" fill-rule="evenodd">
        <g id="008.0.0-Ahbap_Donate_TR" transform="translate(-120.000000, -5.000000)">
            <g id="Group" transform="translate(134.999928, 0.000000)">
                <g id="iyzico_ahbap-logo" filter="url(#filter-1)" transform="translate(0.000000, 20.000000)">
                    <g id="Brand/1--Logo/1--iyzico/2--Black" fill="#FFFFFF" fill-rule="nonzero">
                        <g id="Group-21">
                            <path d="M16.3513771,6.38980631 C16.7906764,5.54963633 17.8325747,5.22191146 18.6794045,5.65935415 C19.5265218,6.09765402 19.8552775,7.13411605 19.4135345,7.97585752 L19.4135345,7.97585752 L11.5390664,23.0767737 C11.2426544,23.6413633 10.6745553,23.9730883 10.0782813,23.9979463 C9.78517557,24.0122324 9.48560107,23.9523734 9.20758903,23.8062258 C8.36061544,23.3693545 8.03214724,22.3328925 8.4725965,21.4910082 L8.4725965,21.4910082 L10.6992803,17.2165844 L5.87661958,7.97585752 C5.43617031,7.13411605 5.76693851,6.09765402 6.61290585,5.65935415 C7.45872944,5.22191146 8.5026402,5.54963633 8.94122072,6.38980631 L8.94122072,6.38980631 L12.6460833,13.4880355 Z M48.0447781,5.23684051 C49.9129499,5.23684051 51.6691408,5.95972099 52.9906323,7.27319197 C53.6625187,7.94392792 53.6625187,9.03067729 52.9906323,9.70155609 C52.3148647,10.370292 51.2210728,10.370292 50.5471739,9.70155609 C49.8775875,9.03582031 48.991514,8.67123711 48.0447781,8.67123711 C47.1006296,8.67123711 46.2131186,9.03582031 45.545401,9.70155609 C44.8769646,10.363006 44.5096839,11.246606 44.5096839,12.1860649 C44.5096839,13.1246666 44.8769646,14.0072665 45.545401,14.6717166 C46.2131186,15.3334522 47.1006296,15.7033213 48.0447781,15.7033213 C48.991514,15.7033213 49.8775875,15.3334522 50.5471739,14.6717166 C51.2210728,14.0002663 52.3148647,14.0002663 52.9906323,14.6717166 C53.6625187,15.3420239 53.6625187,16.4294876 52.9906323,17.0970806 C51.6691408,18.4108373 49.9129499,19.1348607 48.0447781,19.1348607 C46.1789062,19.1348607 44.4235778,18.4108373 43.1030925,17.0970806 C41.7824635,15.7876097 41.0546585,14.0412676 41.0546585,12.1860649 C41.0546585,10.3288621 41.7824635,8.58666295 43.1030925,7.27319197 C44.4235778,5.95972099 46.1789062,5.23684051 48.0447781,5.23684051 Z M62.0087304,5.23679765 C65.8638115,5.23679765 69,8.3538983 69,12.186022 C69,16.0174314 65.8638115,19.1349607 62.0087304,19.1349607 C58.1552306,19.1349607 55.0194733,16.0174314 55.0194733,12.186022 C55.0194733,8.3538983 58.1552306,5.23679765 62.0087304,5.23679765 Z M1.90755932,5.46620506 C2.86133898,5.46620506 3.63456894,6.2348013 3.63456894,7.1802604 L3.63456894,7.1802604 L3.63456894,17.2197274 C3.63456894,18.1684723 2.86133898,18.9350685 1.90755932,18.9350685 C0.95377966,18.9350685 0.1802622,18.1684723 0.1802622,17.2197274 L0.1802622,17.2197274 L0.1802622,7.1802604 C0.1802622,6.2348013 0.95377966,5.46620506 1.90755932,5.46620506 Z M30.9809789,5.46587382 C31.0162813,5.46596436 31.0352879,5.46606499 31.0362345,5.46617649 C31.4489401,5.45217604 31.8656706,5.5830374 32.2059263,5.86790374 C32.9356001,6.47406617 33.0310499,7.55852976 32.419251,8.28383889 L32.419251,8.28383889 L26.3228236,15.5023577 L31.0935907,15.5023577 C32.0480891,15.5023577 32.822469,16.272954 32.822469,17.2196988 C32.822469,18.1685866 32.0480891,18.9350399 31.0935907,18.9350399 L31.0935907,18.9350399 L22.6198298,18.9350399 C22.227968,18.9350399 21.8329436,18.8054643 21.5095067,18.5334555 C20.7798329,17.9255788 20.6835205,16.8439724 21.2971883,16.1160918 L21.2971883,16.1160918 L27.3926093,8.90000164 L23.4077222,8.90000164 C22.4527926,8.90000164 21.6807126,8.12940533 21.6807126,7.18037469 C21.6807126,6.23477273 22.4527926,5.46617649 23.4077222,5.46617649 L23.4077222,5.46617649 L23.9974829,5.46601073 C24.0500486,5.46599657 24.1055973,5.46598174 24.1639082,5.46596635 Z M37.0647689,5.46620506 C38.0204173,5.46620506 38.7917785,6.2348013 38.7917785,7.1802604 L38.7917785,7.1802604 L38.7917785,17.2197274 C38.7917785,18.1684723 38.0204173,18.9350685 37.0647689,18.9350685 C36.1118517,18.9350685 35.3397717,18.1684723 35.3397717,17.2197274 L35.3397717,17.2197274 L35.3397717,7.1802604 C35.3397717,6.2348013 36.1118517,5.46620506 37.0647689,5.46620506 Z M62.0087304,8.67119425 C60.0593399,8.67119425 58.4744988,10.2475309 58.4744988,12.186022 C58.4744988,14.1239417 60.0593399,15.7032784 62.0087304,15.7032784 C63.9594147,15.7032784 65.5465558,14.1239417 65.5465558,12.186022 C65.5465558,10.2475309 63.9594147,8.67119425 62.0087304,8.67119425 Z M1.90755932,0 C2.96067007,0 3.81583739,0.849455998 3.81583739,1.89734697 C3.81583739,2.94309502 2.96067007,3.7941225 1.90755932,3.7941225 C0.854448576,3.7941225 0,2.94309502 0,1.89734697 C0,0.849455998 0.854448576,0 1.90755932,0 Z M37.0647689,0 C38.1198921,0 38.9741969,0.849455998 38.9741969,1.89734697 C38.9741969,2.94309502 38.1198921,3.7941225 37.0647689,3.7941225 C36.0105081,3.7941225 35.1562033,2.94309502 35.1562033,1.89734697 C35.1562033,0.849455998 36.0105081,0 37.0647689,0 Z" id="Combined-Shape"></path>
                        </g>
                    </g>
                    <rect id="Rectangle" fill="#FFFFFF" fill-rule="nonzero" opacity="0.268252418" x="78.0000716" y="0" width="1" height="24"></rect>
                    <rect id="Rectangle" x="89.1061725" y="0" width="83.7800235" height="23.04"></rect>
                    <g id="Ahbap-Logo" transform="translate(88.000072, 0.000000)" fill="#FFFFFF" fill-rule="nonzero">
                        <path d="M0,11.8418041 C0,10.3154381 0.364583286,8.9493119 1.09414701,7.74260798 C2.43810108,5.52500341 4.39207687,4.41558795 6.95726581,4.41558795 C7.98111734,4.41558795 8.92990762,4.62855975 9.80244518,5.05450334 C10.6753799,5.48044693 11.3120106,6.06867421 11.713926,6.81918518 L11.713926,4.79533996 L14.7616516,4.79533996 L14.7616516,19.1801335 L11.713926,19.1801335 L11.713926,17.2061589 C11.2139147,17.9231503 10.5006341,18.5134214 9.57487849,18.9777899 C8.68168915,19.4241722 7.79286846,19.6477722 6.90762211,19.6477722 C5.58829131,19.6477722 4.40001986,19.3166644 3.34320491,18.6548576 C2.28599281,17.992642 1.46270179,17.0545033 0.87253756,15.8396239 C0.29071347,14.6504973 0,13.3178907 0,11.8418041 M7.58992504,16.3076713 C8.71902121,16.3076713 9.68052027,15.8862243 10.4744222,15.0429214 C11.2353608,14.2327293 11.61583,13.221011 11.61583,12.0065404 C11.61583,10.2353182 10.9160525,8.98732797 9.51689465,8.26175228 C8.86278934,7.92451288 8.18763511,7.75568879 7.4918291,7.75568879 C5.89647936,7.75568879 4.71416515,8.4350729 3.94528362,9.7926148 C3.56044571,10.4589181 3.36822533,11.2139256 3.36822533,12.0572285 C3.36822533,13.8035155 4.10454059,15.0510969 5.57717112,15.8020166 C6.22333344,16.1396648 6.89411903,16.3076713 7.58992504,16.3076713" id="Shape"></path>
                        <path d="M48.2628047,12.1075078 C48.2628047,13.4237635 47.9637511,14.6504973 47.3656439,15.7893446 C46.7591965,16.9535359 45.9196223,17.8790026 44.8461271,18.5661534 C43.7726319,19.2541218 42.5927006,19.5970841 41.3063332,19.5970841 C39.1430596,19.5970841 37.5937792,18.7836217 36.6596835,17.1554708 L36.6596835,19.1801335 L33.5627113,19.1801335 L33.5627113,0 L36.905519,0 L36.905519,6.3257937 C38.1021306,4.97642731 39.5521236,4.30194849 41.2570866,4.30194849 C42.2404289,4.30194849 43.1828648,4.51287641 44.0843943,4.93432348 C45.4033279,5.56669846 46.4402854,6.54980243 47.1940753,7.88200027 C47.9065615,9.15574329 48.2628047,10.5639733 48.2628047,12.1075078 M39.1263793,15.9283281 C39.6422766,16.1809511 40.2268807,16.3076713 40.8813832,16.3076713 C41.5934723,16.3076713 42.2761724,16.0967434 42.9306748,15.6752964 C44.2400769,14.8319935 44.8945794,13.5750102 44.8945794,11.905573 C44.8945794,10.302766 44.2194251,9.07971113 42.8695138,8.23640823 C42.2308973,7.84807194 41.5521688,7.65431258 40.8321366,7.65431258 C39.261013,7.65431258 38.0663872,8.4007358 37.2478619,9.89358223 C36.8554782,10.6105736 36.6588892,11.3316528 36.6588892,12.0568197 C36.6588892,12.5972203 36.7530136,13.0946996 36.9412625,13.5500749 C37.3757441,14.629241 38.1037192,15.4222646 39.1263793,15.9283281" id="Shape"></path>
                        <path d="M49.8549772,11.8418041 C49.8549772,10.3154381 50.2191634,8.9493119 50.9487271,7.74260798 C52.2926812,5.52500341 54.2466569,4.41558795 56.8118459,4.41558795 C57.8360946,4.41558795 58.7848848,4.62855975 59.6574224,5.05450334 C60.5303571,5.48044693 61.1669878,6.06867421 61.568506,6.81918518 L61.568506,4.79533996 L64.617026,4.79533996 L64.617026,19.1801335 L61.568506,19.1801335 L61.568506,17.2061589 C61.0688919,17.9231503 60.3560085,18.5134214 59.4298557,18.9777899 C58.5366664,19.4241722 57.6482428,19.6477722 56.7625993,19.6477722 C55.4428714,19.6477722 54.2553942,19.3166644 53.1981821,18.6548576 C52.14097,17.992642 51.317679,17.0545033 50.7275148,15.8396239 C50.1456907,14.6504973 49.8549772,13.3178907 49.8549772,11.8418041 M57.4449023,16.3076713 C58.5736013,16.3076713 59.5354975,15.8862243 60.3290023,15.0429214 C61.0899408,14.2327293 61.4704101,13.221011 61.4704101,12.0065404 C61.4704101,10.2353182 60.7706326,8.98732797 59.3714747,8.26175228 C58.7169723,7.92451288 58.041818,7.75568879 57.3464092,7.75568879 C55.7510594,7.75568879 54.5687452,8.4350729 53.7994666,9.7926148 C53.4150258,10.4589181 53.2228054,11.2139256 53.2228054,12.0572285 C53.2228054,13.8035155 53.9587235,15.0510969 55.4317512,15.8020166 C56.0783107,16.1396648 56.7486991,16.3076713 57.4449023,16.3076713" id="Shape"></path>
                        <path d="M66.8200145,23.9995912 L66.8200145,4.79533996 L69.8562228,4.79533996 L69.8562228,6.74356179 C71.1259099,5.11581959 72.679559,4.30194849 74.5147871,4.30194849 C76.4898118,4.30194849 78.1324223,5.09865104 79.4438101,6.69287369 C80.7218374,8.24499251 81.3612481,10.0329745 81.3612481,12.0572285 C81.3612481,13.0525957 81.1896795,14.0099469 80.8449537,14.9288731 C80.5006251,15.848617 80.0129254,16.6624881 79.3818548,17.3708952 C78.0303549,18.8894945 76.3504123,19.6477722 74.3428213,19.6477722 C72.5560455,19.6477722 71.1628449,18.9647091 70.1636166,17.5989917 L70.1636166,24 L66.8200145,24 L66.8200145,23.9995912 Z M70.2863358,10.2099741 C70.0405002,10.7585502 69.917781,11.3569969 69.917781,12.0061316 C69.917781,13.1703229 70.3192992,14.1697779 71.1223356,15.0049053 C71.9499953,15.873961 72.9206288,16.3080801 74.0354275,16.3080801 C74.7153476,16.3080801 75.3833531,16.1016487 76.0386499,15.6883772 C77.3917384,14.8450743 78.0672898,13.6686197 78.0672898,12.1586047 C78.0672898,10.4969342 77.3706895,9.232593 75.9774888,8.36312849 C75.3301351,7.95803243 74.6339319,7.75568879 73.8880851,7.75568879 C72.2244256,7.75568879 71.0238425,8.57364764 70.2863358,10.2099741" id="Shape"></path>
                        <path d="M31.5213626,12.0764409 C31.5161996,10.5451696 31.1607508,9.14715901 30.4526331,7.88200027 C29.6988433,6.54980243 28.6618858,5.56669846 27.3429522,4.93432348 C26.4418198,4.51287641 25.499384,4.30194849 24.5160417,4.30194849 C22.8114758,4.30194849 21.3606885,4.97683608 20.1644741,6.32620248 L20.1644741,0.000408775037 L16.8212692,0.000408775037 L16.8212692,19.1797248 L19.9186385,19.1797248 L19.9186385,17.1554708 C19.9190356,17.1566971 19.9198299,17.1566971 19.9198299,17.1575146 L19.9198299,12.0866603 C19.9198299,12.0764409 19.9186385,12.0670391 19.9186385,12.0568197 C19.9186385,11.3316528 20.1152275,10.6101649 20.5076113,9.89358223 C21.3261365,8.40032702 22.5207623,7.6539038 24.0914888,7.6539038 C24.8115209,7.6539038 25.4906467,7.84807194 26.128866,8.23640823 C27.4791745,9.07971113 28.1543287,10.302766 28.1543287,11.9047554 C28.1543287,11.9640278 28.1467829,12.0183949 28.1455914,12.0760322 L28.1519458,12.0760322 L28.1519458,18.5314075 L28.1519458,19.1094155 L31.5221569,19.1094155 L31.5221569,12.0764409 L31.5213626,12.0764409 Z" id="Path"></path>
                        <path d="M84.7052473,0 C82.8863024,0 81.4108918,1.51859926 81.4108918,3.39119771 C81.4108918,5.26379616 82.8863024,6.78239542 84.7052473,6.78239542 C86.5249866,6.78239542 88,5.26379616 88,3.39119771 C87.9996029,1.51819049 86.5249866,0 84.7052473,0 M86.7803537,3.27142662 C86.73071,3.52936367 86.5793961,3.72884589 86.4296707,3.92710178 C86.1266456,4.32770132 85.742602,4.63714403 85.3375094,4.92001635 C85.1786496,5.03161194 85.0114496,5.12971795 84.8482212,5.23395558 C84.8255837,5.24826271 84.8065205,5.27238043 84.7822944,5.27973838 C84.7556853,5.28914021 84.7171618,5.29690694 84.69651,5.28423491 C84.5305015,5.18081482 84.3640959,5.07535087 84.2036475,4.96293773 C84.0336675,4.84480174 83.8660703,4.72257801 83.7040333,4.59299632 C83.448269,4.3902439 83.2127593,4.16378253 83.0185532,3.89644366 C82.8994083,3.73334242 82.7758948,3.56942363 82.7159252,3.36953263 C82.6364953,3.10587273 82.6456298,2.84425671 82.7544488,2.59163374 C82.8743879,2.31284916 83.0753456,2.11786347 83.3529531,2.01035563 C83.8323126,1.82558932 84.3533728,2.00912931 84.6226402,2.4497888 C84.6643409,2.51928056 84.6977015,2.59490394 84.7401965,2.6774765 C84.7954003,2.52173321 84.8720501,2.38561112 84.9816634,2.27197166 C85.1325803,2.11541082 85.3120918,2.01321706 85.5233754,1.96579916 C85.9856575,1.86074397 86.4590597,2.09170187 86.6794777,2.51110506 C86.8065656,2.75023845 86.8319832,3.00449653 86.7803537,3.27142662" id="Shape"></path>
                    </g>
                </g>
            </g>
        </g>
    </g>
</svg>