<?xml version="1.0" encoding="UTF-8"?>
<svg width="148px" height="64px" viewBox="0 0 148 64" version="1.1" xmlns="http://www.w3.org/2000/svg" xmlns:xlink="http://www.w3.org/1999/xlink">
    <title>3ECDF886-B3D3-49D0-B61C-ACFD95BDD148</title>
    <defs>
        <filter id="filter-1">
            <feColorMatrix in="SourceGraphic" type="matrix" values="0 0 0 0 1.000000 0 0 0 0 1.000000 0 0 0 0 1.000000 0 0 0 1.000000 0"></feColorMatrix>
        </filter>
        <polygon id="path-2" points="0 0.0564394845 8.18489333 0.0564394845 8.18489333 8.20200674 0 8.20200674"></polygon>
        <polygon id="path-4" points="0.173221667 0.0564394845 8.36378833 0.0564394845 8.36378833 8.20200674 0.173221667 8.20200674"></polygon>
    </defs>
    <g id="00---Home" stroke="none" stroke-width="1" fill="none" fill-rule="evenodd">
        <g id="003.0.0-Bireysel-B2C---B" transform="translate(-135.000000, -9530.000000)">
            <g id="Components/Footer" transform="translate(0.000000, 9450.000000)">
                <g id="logos/branding/logo_Small-Blue-Black" transform="translate(135.000000, 80.000000)" filter="url(#filter-1)">
                    <g id="branding/logo_with_PayU-Copy" transform="translate(0.000000, 0.735632)">
                        <path d="M43.430415,59.7834013 C42.4030483,59.7834013 41.1999317,59.0012236 41.1999317,57.3264433 C41.1999317,55.671294 42.4030483,54.8664179 43.430415,54.8664179 C44.423865,54.8664179 45.5961483,55.5939965 45.5961483,57.3264433 C45.5961483,59.0269895 44.423865,59.7834013 43.430415,59.7834013 M46.0672817,53.9971272 C45.787315,53.9971272 45.544965,54.2339276 45.544965,54.527781 L45.544965,55.290941 C45.149065,54.4400544 44.246265,53.9572514 43.2811817,53.9572514 C41.8628483,53.9572514 40.148515,55.0743851 40.148515,57.3264433 C40.148515,59.6024268 41.8628483,60.7128123 43.2811817,60.7128123 C44.410915,60.7128123 45.289665,60.0232691 45.544965,59.2533609 L45.544965,60.1643678 C45.544965,60.441044 45.787315,60.6950216 46.0672817,60.6950216 C46.3558817,60.6950216 46.601315,60.441044 46.601315,60.1643678 L46.601315,54.527781 C46.601315,54.2339276 46.373765,53.9971272 46.0672817,53.9971272" id="Fill-1" fill="#060809"></path>
                        <path d="M56.0576517,56.0258812 L54.5813517,56.0258812 L54.5813517,53.2094283 L56.0576517,53.2094283 C57.0165683,53.2094283 57.725735,53.5897813 57.725735,54.6296175 C57.725735,55.6804961 57.0165683,56.0258812 56.0576517,56.0258812 M56.1359683,51.7542711 L53.805585,51.7542711 C53.256135,51.7542711 52.862085,52.1456667 52.862085,52.6898169 L52.862085,59.8496563 C52.862085,60.3189629 53.245035,60.7128123 53.7272683,60.7128123 C54.2008683,60.7128123 54.5813517,60.3189629 54.5813517,59.8496563 L54.5813517,57.4767441 L56.1359683,57.4767441 C58.1191683,57.4767441 59.392585,56.2534796 59.392585,54.6296175 C59.392585,53.0333616 58.1191683,51.7542711 56.1359683,51.7542711" id="Fill-3" fill="#060809"></path>
                        <path d="M63.4227483,59.2726853 C62.5822317,59.2726853 61.7053317,58.6316063 61.7053317,57.3261365 C61.7053317,56.0341631 62.5822317,55.3771339 63.4227483,55.3771339 C64.135615,55.3771339 65.079115,55.8955183 65.079115,57.3261365 C65.079115,58.7555278 64.135615,59.2726853 63.4227483,59.2726853 M65.841315,53.9968204 C65.386215,53.9968204 64.999565,54.375333 64.999565,54.8151929 L64.999565,55.0366566 C64.7473483,54.4397477 64.022765,53.9575582 63.1156483,53.9575582 C61.7256817,53.9575582 60.036015,55.0746919 60.036015,57.3261365 C60.036015,59.6303398 61.7170483,60.7131191 63.1156483,60.7131191 C64.2250317,60.7131191 64.9027483,60.0229623 64.999565,59.6303398 L64.999565,59.8726615 C64.999565,60.3303121 65.386215,60.6953284 65.841315,60.6953284 C66.2877817,60.6953284 66.6929317,60.3303121 66.6929317,59.8726615 L66.6929317,54.8151929 C66.6929317,54.375333 66.2877817,53.9968204 65.841315,53.9968204" id="Fill-5" fill="#060809"></path>
                        <path d="M73.653125,53.9970658 C73.334925,53.9970658 73.038925,54.172519 72.8656417,54.5792514 L71.1180083,58.5030225 L69.414775,54.5792514 C69.2322417,54.172519 68.9294583,53.9970658 68.611875,53.9970658 C68.1765083,53.9970658 67.8465917,54.3393836 67.8465917,54.7381408 C67.8465917,54.8933494 67.8983917,55.0234056 67.9360083,55.125242 L70.3033917,60.3189015 L69.577575,61.9648487 C69.5436583,62.0642313 69.492475,62.1881527 69.492475,62.3470422 C69.492475,62.7457994 69.7971083,63.0881171 70.2263083,63.0881171 C70.548825,63.0881171 70.8553083,62.9138909 71.0310583,62.5089989 L74.3314583,55.125242 C74.3777083,55.0234056 74.433825,54.8933494 74.433825,54.7381408 C74.433825,54.3393836 74.0977417,53.9970658 73.653125,53.9970658" id="Fill-7" fill="#060809"></path>
                        <path d="M82.2358917,51.712739 C81.748725,51.712739 81.3423417,52.0900247 81.3423417,52.543381 L81.3423417,57.4168078 C81.3423417,58.746203 80.5061417,59.2725626 79.5096083,59.2725626 C78.533425,59.2725626 77.6756417,58.746203 77.6756417,57.4168078 L77.6756417,52.543381 C77.6756417,52.0900247 77.2704917,51.712739 76.7968917,51.712739 C76.3257583,51.712739 75.958225,52.0900247 75.958225,52.543381 L75.958225,57.4431871 C75.958225,59.4921858 77.5264083,60.7129964 79.5096083,60.7129964 C81.484175,60.7129964 83.0634583,59.4921858 83.0634583,57.4431871 L83.0634583,52.543381 C83.0634583,52.0900247 82.703325,51.712739 82.2358917,51.712739" id="Fill-9" fill="#060809"></path>
                        <path d="M91.572595,54.8843313 C92.134995,54.8843313 92.7683117,55.1125431 93.1494117,55.6162042 C93.2536283,55.74442 93.4071783,55.8597528 93.5958783,55.8597528 C93.8382283,55.8597528 94.0429617,55.6806188 94.0429617,55.4260277 C94.0429617,55.2254221 93.9023617,55.0855503 93.8006117,54.9610154 C93.2400617,54.2843551 92.4414783,53.9573741 91.520795,53.9573741 C90.0179783,53.9573741 88.2086783,55.0634653 88.2086783,57.3259525 C88.2086783,59.5804645 90.0179783,60.6865557 91.520795,60.6865557 C92.4414783,60.6865557 93.2400617,60.3417841 93.8006117,59.6730989 C93.9023617,59.5534717 94.0429617,59.4191212 94.0429617,59.2179022 C94.0429617,58.963311 93.8382283,58.7835635 93.5958783,58.7835635 C93.4071783,58.7835635 93.2536283,58.8939886 93.1494117,59.0271122 C92.7683117,59.5313867 92.134995,59.7595985 91.572595,59.7595985 C90.440395,59.7595985 89.2576283,58.9498146 89.2576283,57.3259525 C89.2576283,55.6935017 90.440395,54.8843313 91.572595,54.8843313" id="Fill-11" fill="#060809"></path>
                        <path d="M98.2185967,59.7834013 C97.1622467,59.7834013 95.9548133,58.9631883 95.9548133,57.3399397 C95.9548133,55.7068755 97.1622467,54.8842086 98.2185967,54.8842086 C99.2878967,54.8842086 100.486697,55.7068755 100.486697,57.3399397 C100.486697,58.9631883 99.2878967,59.7834013 98.2185967,59.7834013 M98.2185967,53.9572514 C96.7552467,53.9572514 94.9052467,55.0854277 94.9052467,57.3399397 C94.9052467,59.6024268 96.7552467,60.7128123 98.2185967,60.7128123 C99.6992133,60.7128123 101.54058,59.6024268 101.54058,57.3399397 C101.54058,55.0854277 99.6992133,53.9572514 98.2185967,53.9572514" id="Fill-13" fill="#060809"></path>
                        <path d="M111.10841,53.9662081 C109.772093,53.9662081 108.92726,54.8465414 108.57391,55.6158361 C108.186643,54.4128162 107.195043,53.9662081 106.254627,53.9662081 C104.74071,53.9662081 103.95076,55.125058 103.875527,55.5544888 L103.875527,54.5275356 C103.875527,54.2342957 103.635027,53.9968818 103.350743,53.9968818 C103.05906,53.9968818 102.817327,54.2342957 102.817327,54.5275356 L102.817327,60.1555338 C102.817327,60.4273022 103.05906,60.6861876 103.350743,60.6861876 C103.635027,60.6861876 103.875527,60.4273022 103.875527,60.1555338 L103.875527,56.707204 C103.988993,55.9839197 104.651293,54.8931653 105.947527,54.8931653 C106.839227,54.8931653 107.679127,55.4146171 107.679127,56.7924767 L107.679127,60.1555338 C107.679127,60.4273022 107.907293,60.6861876 108.20206,60.6861876 C108.49621,60.6861876 108.735477,60.4273022 108.735477,60.1555338 L108.735477,56.7924767 L108.735477,56.707204 C108.853877,55.9839197 109.514327,54.8931653 110.814877,54.8931653 C111.706577,54.8931653 112.532293,55.4146171 112.532293,56.7924767 L112.532293,60.1555338 C112.532293,60.4273022 112.774027,60.6861876 113.070027,60.6861876 C113.35801,60.6861876 113.588027,60.4273022 113.588027,60.1555338 L113.588027,56.7924767 C113.588027,54.6894924 112.315227,53.9662081 111.10841,53.9662081" id="Fill-15" fill="#060809"></path>
                        <path d="M118.326493,59.7834013 C117.332427,59.7834013 116.16261,59.0269895 116.16261,57.3264433 C116.16261,55.5939965 117.332427,54.8664179 118.326493,54.8664179 C119.360027,54.8664179 120.552043,55.671294 120.552043,57.3264433 C120.552043,59.0012236 119.360027,59.7834013 118.326493,59.7834013 M118.47696,53.9572514 C117.50756,53.9572514 116.607227,54.4400544 116.211327,55.290941 L116.211327,54.527781 C116.211327,54.2339276 115.97206,53.9971272 115.691477,53.9971272 C115.384377,53.9971272 115.15991,54.2339276 115.15991,54.527781 L115.15991,62.5599785 C115.15991,62.8476972 115.399793,63.0881785 115.691477,63.0881785 C115.97206,63.0881785 116.222427,62.8476972 116.222427,62.5599785 L116.222427,59.2901692 C116.49376,60.0441271 117.357093,60.7128123 118.47696,60.7128123 C119.891593,60.7128123 121.612093,59.6024268 121.612093,57.3264433 C121.612093,55.0743851 119.891593,53.9572514 118.47696,53.9572514" id="Fill-17" fill="#060809"></path>
                        <path d="M125.816835,59.7834013 C124.780835,59.7834013 123.585118,59.0012236 123.585118,57.3264433 C123.585118,55.671294 124.780835,54.8664179 125.816835,54.8664179 C126.804735,54.8664179 127.978868,55.5939965 127.978868,57.3264433 C127.978868,59.0269895 126.804735,59.7834013 125.816835,59.7834013 M128.448152,53.9971272 C128.171885,53.9971272 127.925835,54.2339276 127.925835,54.527781 L127.925835,55.290941 C127.531785,54.4400544 126.625902,53.9572514 125.661435,53.9572514 C124.249885,53.9572514 122.531235,55.0743851 122.531235,57.3264433 C122.531235,59.6024268 124.249885,60.7128123 125.661435,60.7128123 C126.793635,60.7128123 127.671768,60.0232691 127.925835,59.2533609 L127.925835,60.1643678 C127.925835,60.441044 128.171885,60.6950216 128.448152,60.6950216 C128.743535,60.6950216 128.979102,60.441044 128.979102,60.1643678 L128.979102,54.527781 C128.979102,54.2339276 128.754635,53.9971272 128.448152,53.9971272" id="Fill-19" fill="#060809"></path>
                        <path d="M133.949127,53.9662081 C132.432743,53.9662081 131.640327,55.125058 131.56756,55.5544888 L131.56756,54.5275356 C131.56756,54.2342957 131.32706,53.9968818 131.047093,53.9968818 C130.75541,53.9968818 130.51121,54.2342957 130.51121,54.5275356 L130.51121,60.1555338 C130.51121,60.4273022 130.75541,60.6861876 131.047093,60.6861876 C131.32706,60.6861876 131.56756,60.4273022 131.56756,60.1555338 L131.56756,56.707204 C131.682877,55.9839197 132.347643,54.8931653 133.644493,54.8931653 C134.53311,54.8931653 135.37856,55.4146171 135.37856,56.7924767 L135.37856,60.1555338 C135.37856,60.4273022 135.605493,60.6861876 135.900877,60.6861876 C136.19071,60.6861876 136.432443,60.4273022 136.432443,60.1555338 L136.432443,56.7924767 C136.432443,54.6894924 135.14731,53.9662081 133.949127,53.9662081" id="Fill-21" fill="#060809"></path>
                        <path d="M142.854102,53.9970658 C142.647518,53.9970658 142.455735,54.1081044 142.351518,54.3510395 L140.268418,59.1907253 L138.190868,54.3510395 C138.090968,54.1081044 137.896102,53.9970658 137.692602,53.9970658 C137.415718,53.9970658 137.194952,54.2252776 137.194952,54.4792553 C137.194952,54.5792514 137.221468,54.6430525 137.247985,54.7160558 L139.746102,60.3919048 L138.892018,62.3697406 C138.863035,62.4470382 138.836518,62.5089989 138.836518,62.6108354 C138.836518,62.8611322 139.029535,63.0881171 139.310118,63.0881171 C139.514852,63.0881171 139.706018,62.9758516 139.807768,62.7365973 L143.299335,54.7160558 C143.323385,54.6430525 143.347435,54.5792514 143.347435,54.4792553 C143.347435,54.2252776 143.131602,53.9970658 142.854102,53.9970658" id="Fill-23" fill="#060809"></path>
                        <path d="M4.09146,11.9229638 C2.04536,11.9229638 0.386526667,13.5732052 0.386526667,15.6037997 L0.386526667,37.158775 C0.386526667,39.1961177 2.04536,40.8426783 4.09146,40.8426783 C6.13632667,40.8426783 7.79577667,39.1961177 7.79577667,37.158775 L7.79577667,15.6037997 C7.79577667,13.5732052 6.13632667,11.9229638 4.09146,11.9229638" id="Fill-25" fill="#1E64FF"></path>
                        <g id="Group-29" transform="translate(0.000000, 0.130670)">
                            <mask id="mask-3" fill="white">
                                <use xlink:href="#path-2"></use>
                            </mask>
                            <g id="Clip-28"></g>
                            <path d="M4.09146,0.05631679 C1.83199333,0.05631679 -0.000123333333,1.880171 -0.000123333333,4.13038871 C-0.000123333333,6.37508516 1.83199333,8.20200674 4.09146,8.20200674 C6.35031,8.20200674 8.18489333,6.37508516 8.18489333,4.13038871 C8.18489333,1.880171 6.35031,0.05631679 4.09146,0.05631679" id="Fill-27" fill="#1E64FF" mask="url(#mask-3)"></path>
                        </g>
                        <path d="M70.40175,37.1588977 C70.40175,35.1264628 68.7410667,33.4713136 66.6925,33.4713136 L56.46015,33.4713136 L69.5371833,17.9731538 C70.84945,16.4155468 70.6447167,14.087418 69.0783833,12.785629 C68.3494833,12.1739968 67.4559333,11.8930263 66.5704,11.9230865 C66.5290833,11.9181787 50.2077667,11.9230865 50.2077667,11.9230865 C48.1598167,11.9230865 46.5028333,13.5733279 46.5028333,15.603309 C46.5028333,17.6412651 48.1598167,19.2958009 50.2077667,19.2958009 L58.7547667,19.2958009 L45.6802,34.7896663 C44.3636167,36.3521812 44.5708167,38.6747887 46.1359167,39.979645 C46.8296667,40.563671 47.6769667,40.8421876 48.5181,40.8421876 L66.6925,40.8421876 C68.7410667,40.8421876 70.40175,39.1962404 70.40175,37.1588977" id="Fill-30" fill="#1E64FF"></path>
                        <path d="M103.052585,18.8050841 C105.082652,18.8050841 106.983835,19.5872617 108.420052,21.0172665 C109.865518,22.4527925 112.211935,22.4527925 113.661102,21.0172665 C115.102252,19.5762192 115.102252,17.2431827 113.661102,15.8033624 C110.826285,12.9826151 107.059068,11.4311428 103.052585,11.4311428 C99.0504183,11.4311428 95.2850517,12.9826151 92.4533183,15.8033624 C89.6203517,18.6234962 88.0595683,22.363839 88.0595683,26.3514113 C88.0595683,30.3346892 89.6203517,34.0842341 92.4533183,36.8957793 C95.2850517,39.7165266 99.0504183,41.2716798 103.052585,41.2716798 C107.059068,41.2716798 110.826285,39.7165266 113.661102,36.8957793 C115.102252,35.4620937 115.102252,33.1278302 113.661102,31.6886234 C112.211935,30.2463492 109.865518,30.2463492 108.420052,31.6886234 C106.983835,33.1088126 105.082652,33.9026462 103.052585,33.9026462 C101.027452,33.9026462 99.123185,33.1088126 97.6919017,31.6886234 C96.257535,30.261686 95.4700517,28.366669 95.4700517,26.3514113 C95.4700517,24.3349266 96.257535,22.4368422 97.6919017,21.0172665 C99.123185,19.5872617 101.027452,18.8050841 103.052585,18.8050841" id="Fill-32" fill="#1E64FF"></path>
                        <path d="M133.003653,33.9028303 C128.82327,33.9028303 125.423587,30.5127803 125.423587,26.3509818 C125.423587,22.1891833 128.82327,18.8052682 133.003653,18.8052682 C137.188353,18.8052682 140.59297,22.1891833 140.59297,26.3509818 C140.59297,30.5127803 137.188353,33.9028303 133.003653,33.9028303 M133.003653,11.4313268 C124.739087,11.4313268 118.012487,18.1237 118.012487,26.3509818 C118.012487,34.5776502 124.739087,41.2712503 133.003653,41.2712503 C141.273153,41.2712503 147.999753,34.5776502 147.999753,26.3509818 C147.999753,18.1237 141.273153,11.4313268 133.003653,11.4313268" id="Fill-34" fill="#1E64FF"></path>
                        <path d="M79.500605,11.9229638 C77.4575883,11.9229638 75.800605,13.5732052 75.800605,15.6037997 L75.800605,37.158775 C75.800605,39.1961177 77.4575883,40.8426783 79.500605,40.8426783 C81.550405,40.8426783 83.2055383,39.1961177 83.2055383,37.158775 L83.2055383,15.6037997 C83.2055383,13.5732052 81.550405,11.9229638 79.500605,11.9229638" id="Fill-36" fill="#1E64FF"></path>
                        <g id="Group-40" transform="translate(75.233333, 0.130670)">
                            <mask id="mask-5" fill="white">
                                <use xlink:href="#path-4"></use>
                            </mask>
                            <g id="Clip-39"></g>
                            <path d="M4.26727167,0.05631679 C2.00657167,0.05631679 0.173221667,1.880171 0.173221667,4.13038871 C0.173221667,6.37508516 2.00657167,8.20200674 4.26727167,8.20200674 C6.531055,8.20200674 8.36378833,6.37508516 8.36378833,4.13038871 C8.36378833,1.880171 6.531055,0.05631679 4.26727167,0.05631679" id="Fill-38" fill="#1E64FF" mask="url(#mask-5)"></path>
                        </g>
                        <path d="M40.0658817,12.3378554 C38.2491817,11.3986287 36.0149983,12.1022819 35.0714983,13.9065049 L27.1251317,29.1470062 L19.1781483,13.9065049 C18.2377317,12.1022819 15.998615,11.3986287 14.183765,12.3378554 C12.3695317,13.2789224 11.660365,15.5039877 12.6044817,17.3118917 L22.949065,37.1522109 L18.1729817,46.3297618 C17.2282483,48.1376658 17.9324817,50.3627311 19.7497983,51.3007308 C20.3454983,51.6148288 20.988065,51.7430446 21.617065,51.7129844 C22.8960317,51.6596123 24.1139483,50.9467571 24.7497317,49.7345351 L41.6408483,17.3118917 C42.5874317,15.5039877 41.8825817,13.2789224 40.0658817,12.3378554" id="Fill-41" fill="#1E64FF"></path>
                    </g>
                </g>
            </g>
        </g>
    </g>
</svg>