<?xml version="1.0" encoding="UTF-8"?>
<svg width="570px" height="444px" viewBox="0 0 570 444" version="1.1" xmlns="http://www.w3.org/2000/svg" xmlns:xlink="http://www.w3.org/1999/xlink">
    <title>EF54CA7C-CB89-4AAF-AE07-0F78EB5B88F0</title>
    <defs>
        <linearGradient x1="90.2554899%" y1="50%" x2="0%" y2="50%" id="linearGradient-1">
            <stop stop-color="#FFFFFF" offset="0%"></stop>
            <stop stop-color="#FFFFFF" stop-opacity="0" offset="100%"></stop>
        </linearGradient>
    </defs>
    <g id="06---About" stroke="none" stroke-width="1" fill="none" fill-rule="evenodd">
        <g id="006.0.0-About" transform="translate(-735.000000, -170.000000)" fill="url(#linearGradient-1)" fill-rule="nonzero">
            <g id="Group-21" transform="translate(135.000000, 170.000000)">
                <path d="M655.837713,0 C625.000406,0 600,24.8442667 600,55.5 L600,388.5 C600,419.155733 625.000406,444 655.837713,444 L1026.96611,444 C1047.78738,444 1066.87643,432.490532 1076.49044,414.128666 L1163.69654,247.6336 C1167.82605,239.740267 1169.92555,231.111867 1170,222.4736 L1170,221.5264 C1169.92555,212.888133 1167.82605,204.259733 1163.69654,196.371333 L1076.49044,29.8713333 C1066.87643,11.5144 1047.78738,0 1026.96611,0 L655.837713,0 Z" id="Fill-1"></path>
            </g>
        </g>
    </g>
</svg>