<?xml version="1.0" encoding="UTF-8"?>
<svg width="161px" height="56px" viewBox="0 0 161 56" version="1.1" xmlns="http://www.w3.org/2000/svg" xmlns:xlink="http://www.w3.org/1999/xlink">
    <title>40FF09B7-CF05-4FF1-9B93-4266F11CD5F6</title>
    <defs>
        <linearGradient x1="90.2554899%" y1="50%" x2="0%" y2="50%" id="linearGradient-1">
            <stop stop-color="#1E64FF" offset="0%"></stop>
            <stop stop-color="#1E64FF" stop-opacity="0" offset="100%"></stop>
        </linearGradient>
    </defs>
    <g id="05---Campaigns" stroke="none" stroke-width="1" fill="none" fill-rule="evenodd">
        <g id="009.0.0-Elca-Kozmetik-Campaign-Detail" transform="translate(-135.000000, -590.000000)">
            <g id="Group" transform="translate(135.000000, 139.000000)">
                <g id="Group-10" transform="translate(0.500000, 451.000000)">
                    <g id="Group" transform="translate(0.000000, 1.333333)">
                        <g id="Group-21" transform="translate(75.294030, 0.000000)" fill="#1E64FF">
                            <path d="M20.0733018,7.80976327 C20.6125951,6.78288884 21.8916517,6.38233623 22.9312383,6.91698841 C23.9711777,7.45268825 24.3747653,8.71947518 23.832472,9.7482703 L23.832472,9.7482703 L14.1656058,28.2049456 C13.8017241,28.8949996 13.1043135,29.3004413 12.3723147,29.3308232 C12.0124917,29.3482841 11.6447277,29.275123 11.3034341,29.0964982 C10.2636711,28.5625444 9.86043651,27.2957575 10.4011415,26.2667878 L10.4011415,26.2667878 L13.1346663,21.0424921 L7.21426445,9.7482703 C6.67355947,8.71947518 7.07961761,7.45268825 8.11814529,6.91698841 C9.1564965,6.38233623 10.4380238,6.78288884 10.9764346,7.80976327 L10.9764346,7.80976327 L15.5246035,16.4853767 Z M58.9808017,6.40058285 C61.2742096,6.40058285 63.4301472,7.28410344 65.0524386,8.88945686 C65.8772608,9.70924523 65.8772608,11.0374945 65.0524386,11.8574574 C64.2228518,12.6748013 62.8800893,12.6748013 62.0527966,11.8574574 C61.2307979,11.0437804 60.1430351,10.5981787 58.9808017,10.5981787 C57.8217448,10.5981787 56.7322172,11.0437804 55.9125127,11.8574574 C55.0919258,12.6658962 54.6410442,13.7458518 54.6410442,14.8940793 C54.6410442,16.0412592 55.0919258,17.1199924 55.9125127,17.932098 C56.7322172,18.740886 57.8217448,19.1929483 58.9808017,19.1929483 C60.1430351,19.1929483 61.2307979,18.740886 62.0527966,17.932098 C62.8800893,17.1114366 64.2228518,17.1114366 65.0524386,17.932098 C65.8772608,18.7513626 65.8772608,20.0804849 65.0524386,20.8964318 C63.4301472,22.5021345 61.2742096,23.3870519 58.9808017,23.3870519 C56.6902173,23.3870519 54.5353385,22.5021345 52.9142824,20.8964318 C51.2930498,19.2959675 50.3995807,17.1615493 50.3995807,14.8940793 C50.3995807,12.6241647 51.2930498,10.4948103 52.9142824,8.88945686 C54.5353385,7.28410344 56.6902173,6.40058285 58.9808017,6.40058285 Z M76.1232496,6.40053046 C80.8558299,6.40053046 84.7058824,10.2103201 84.7058824,14.8940269 C84.7058824,19.5768607 80.8558299,23.3871742 76.1232496,23.3871742 C71.3926104,23.3871742 67.5430874,19.5768607 67.5430874,14.8940269 C67.5430874,10.2103201 71.3926104,6.40053046 76.1232496,6.40053046 Z M2.3417608,6.6809173 C3.5126412,6.6809173 4.46187492,7.62031271 4.46187492,8.77587382 L4.46187492,8.77587382 L4.46187492,21.0463335 C4.46187492,22.2059106 3.5126412,23.1428615 2.3417608,23.1428615 C1.1708804,23.1428615 0.221293749,22.2059106 0.221293749,21.0463335 L0.221293749,21.0463335 L0.221293749,8.77587382 C0.221293749,7.62031271 1.1708804,6.6809173 2.3417608,6.6809173 Z M37.5317183,6.67997824 C37.5824694,6.68000623 37.6302607,6.68003618 37.6749123,6.68006817 L38.1007483,6.68088237 C38.6073945,6.66377071 39.1189819,6.82371238 39.536687,7.17188235 C40.4324503,7.91274754 40.5496265,9.23820304 39.798569,10.124692 L39.798569,10.124692 L32.3144638,18.947326 L38.1711599,18.947326 C39.3429227,18.947326 40.2935681,19.889166 40.2935681,21.0462986 C40.2935681,22.2060503 39.3429227,23.1428266 38.1711599,23.1428266 L38.1711599,23.1428266 L27.768589,23.1428266 C27.287531,23.1428266 26.8025906,22.9844564 26.4055325,22.6520012 C25.5097692,21.9090407 25.3915342,20.5870774 26.1448858,19.6974455 L26.1448858,19.6974455 L33.6277557,10.8777798 L28.7358227,10.8777798 C27.5635305,10.8777798 26.6157086,9.93593985 26.6157086,8.77601351 C26.6157086,7.62027778 27.5635305,6.68088237 28.7358227,6.68088237 L28.7358227,6.68088237 L32.3725035,6.68001053 C32.4697644,6.67999223 32.5676597,6.67997429 32.6660097,6.67995677 Z M45.5015065,6.6809173 C46.674681,6.6809173 47.6216206,7.62031271 47.6216206,8.77587382 L47.6216206,8.77587382 L47.6216206,21.0463335 C47.6216206,22.2059106 46.674681,23.1428615 45.5015065,23.1428615 C44.3316849,23.1428615 43.383863,22.2059106 43.383863,21.0463335 L43.383863,21.0463335 L43.383863,8.77587382 C43.383863,7.62031271 44.3316849,6.6809173 45.5015065,6.6809173 Z M76.1232496,10.5981263 C73.7301359,10.5981263 71.7845509,12.5247599 71.7845509,14.8940269 C71.7845509,17.2625955 73.7301359,19.1928959 76.1232496,19.1928959 C78.5179515,19.1928959 80.46636,17.2625955 80.46636,14.8940269 C80.46636,12.5247599 78.5179515,10.5981263 76.1232496,10.5981263 Z M2.3417608,0 C3.63458218,0 4.68440396,1.038224 4.68440396,2.31897964 C4.68440396,3.59711614 3.63458218,4.63726084 2.3417608,4.63726084 C1.04893943,4.63726084 0,3.59711614 0,2.31897964 C0,1.038224 1.04893943,0 2.3417608,0 Z M45.5015065,0 C46.7967985,0 47.8455614,1.038224 47.8455614,2.31897964 C47.8455614,3.59711614 46.7967985,4.63726084 45.5015065,4.63726084 C44.2072734,4.63726084 43.1585104,3.59711614 43.1585104,2.31897964 C43.1585104,1.038224 44.2072734,0 45.5015065,0 Z" id="Combined-Shape"></path>
                        </g>
                        <path d="M108.020413,35.7916105 C111.6638,35.7916105 115.265079,38.8334297 115.265079,43.2299094 C115.265079,47.6263892 111.6638,50.6666667 108.020413,50.6666667 C104.377539,50.6666667 100.77626,47.6263892 100.77626,43.2299094 C100.77626,38.8334297 104.377539,35.7916105 108.020413,35.7916105 Z M126.216551,35.6459176 C126.819931,35.6459176 127.340635,36.1464637 127.340635,36.7503051 L127.340635,49.5419798 C127.340635,50.1468491 126.819931,50.6463673 126.216551,50.6463673 C125.612658,50.6463673 125.113008,50.1468491 125.113008,49.5419798 L125.112118,48.418 L125.091179,48.5267605 C124.867323,49.4533863 123.600134,50.6664097 121.698648,50.6664097 C119.388346,50.6664097 116.619988,48.8749277 116.619988,45.1054153 C116.619988,41.3960301 119.408886,39.5629216 121.698648,39.5629216 C123.239193,39.5629216 124.571764,40.3553671 125.113008,41.5625361 L125.113008,40.7294919 C125.113008,40.6673091 125.113008,40.5835421 125.134062,40.5213593 L125.134062,36.7503051 C125.134062,36.1464637 125.634226,35.6459176 126.216551,35.6459176 Z M76.1891739,39.6261322 C76.6467155,39.6261322 77.0421219,40.0218411 77.0421219,40.5013169 L77.0421219,49.7501124 C77.0421219,50.2511724 76.6467155,50.6463673 76.1891739,50.6463673 C75.7105781,50.6463673 75.3146582,50.2511724 75.3146582,49.7501124 L75.3146582,40.5013169 C75.3146582,40.0218411 75.7105781,39.6261322 76.1891739,39.6261322 Z M80.2275566,35.6460204 C80.6861252,35.6460204 81.0815316,36.0427571 81.0815316,36.5006488 L81.0815316,49.7502152 C81.0815316,50.2086208 80.6861252,50.624886 80.2275566,50.624886 C79.7484473,50.624886 79.3535545,50.2086208 79.3535545,49.7502152 L79.3535545,36.5006488 C79.3535545,36.0427571 79.7484473,35.6460204 80.2275566,35.6460204 Z M88.2850138,39.5630243 C90.6579655,39.5630243 93.5089994,41.4382733 93.5089994,44.8136186 C93.5089994,45.4791289 93.1135931,45.7926126 92.4064832,45.7926126 L84.7458702,45.7509861 C84.9327895,48.0841267 86.7234155,49.1880003 88.5135279,49.1880003 C89.4707194,49.1880003 90.2409915,48.9171709 90.9275608,48.3955547 C91.2402912,48.187936 91.4277241,48.0841267 91.6562382,48.0841267 C92.0526716,48.0841267 92.3017262,48.354956 92.3017262,48.7295947 C92.3017262,48.9587975 92.1979963,49.1880003 91.8436711,49.5004561 C91.0112637,50.2291771 89.7839634,50.624886 88.4714197,50.624886 C85.8067917,50.624886 82.9557577,48.8750305 82.9557577,45.1255605 C82.9557577,41.3760904 85.9115487,39.5630243 88.2850138,39.5630243 Z M134.60692,39.5629216 C136.979872,39.5629216 139.831933,41.4381705 139.831933,44.7503051 C139.831933,45.6049335 139.352824,45.9384596 138.457767,45.9384596 L131.484237,45.9168754 C131.712751,47.8543072 133.232755,48.8132588 134.898083,48.8132588 C135.752058,48.8132588 136.334897,48.6051262 136.979872,48.2094174 C137.333684,48.0218411 137.562711,47.8758913 137.853874,47.8758913 C138.332983,47.8758913 138.62466,48.2094174 138.62466,48.6673091 C138.62466,48.9386523 138.520416,49.2300379 138.062361,49.6041627 C137.271548,50.2511724 136.125897,50.6247832 134.81438,50.6247832 C132.109184,50.6247832 129.215529,48.8965119 129.215529,45.1254577 C129.215529,41.3759877 132.233969,39.5629216 134.60692,39.5629216 Z M122.052974,41.4582129 C120.533484,41.4582129 118.826047,42.6468812 118.826047,45.1054153 C118.826047,47.5839918 120.533484,48.7711184 122.052974,48.7711184 C123.468734,48.7711184 125.217252,47.6878011 125.217252,45.1054153 C125.217252,42.5009315 123.468734,41.4582129 122.052974,41.4582129 Z M108.020413,37.9171324 C105.480569,37.9171324 103.128671,40.0637245 103.128671,43.2299094 C103.128671,46.3960943 105.480569,48.5211023 108.020413,48.5211023 C110.560257,48.5211023 112.912668,46.3960943 112.912668,43.2299094 C112.912668,40.0637245 110.580797,37.9171324 108.020413,37.9171324 Z M88.2850138,41.0847048 C86.7439561,41.0847048 84.9327895,42.1253678 84.7458702,44.4585084 L91.8231305,44.4585084 C91.6362111,42.1253678 89.8455852,41.0847048 88.2850138,41.0847048 Z M134.60692,41.479797 C133.232755,41.479797 131.67167,42.3549817 131.484237,44.33404 L137.687495,44.33404 C137.500576,42.3549817 136.00214,41.479797 134.60692,41.479797 Z M76.1891739,35.4377851 C76.6467155,35.4377851 77.063176,35.8334939 77.063176,36.3129697 C77.063176,36.7919317 76.6467155,37.1881544 76.1891739,37.1881544 C75.7105781,37.1881544 75.2941176,36.7919317 75.2941176,36.3129697 C75.2941176,35.8334939 75.7105781,35.4377851 76.1891739,35.4377851 Z M110.580797,32 C111.246826,32 111.788071,32.5416586 111.788071,33.1886683 C111.788071,33.8341363 111.246826,34.375795 110.580797,34.375795 C109.914769,34.375795 109.373524,33.8341363 109.373524,33.1886683 C109.373524,32.5416586 109.914769,32 110.580797,32 Z M105.460542,32 C106.126057,32 106.666788,32.5416586 106.666788,33.1886683 C106.666788,33.8341363 106.126057,34.375795 105.460542,34.375795 C104.794,34.375795 104.252755,33.8341363 104.252755,33.1886683 C104.252755,32.5416586 104.794,32 105.460542,32 Z" id="Combined-Shape" fill="#495057"></path>
                        <g id="Group-3" fill="url(#linearGradient-1)">
                            <path d="M6.65546218,0 C2.97987227,0 0,2.9842963 0,6.66666667 L0,46.6666667 C0,50.349037 2.97987227,53.3333333 6.65546218,53.3333333 L47.4891832,53.3333333 C49.9709311,53.3333333 52.2462118,51.9508148 53.3921345,49.7451852 L63.7864874,29.7457778 C64.2786958,28.7976296 64.5289412,27.7611852 64.5378151,26.7235556 L64.5378151,26.6097778 C64.5289412,25.5721481 64.2786958,24.5357037 63.7864874,23.5881481 L53.3921345,3.58814815 C52.2462118,1.38311111 49.9709311,0 47.4891832,0 L6.65546218,0 Z" id="Fill-1"></path>
                        </g>
                    </g>
                </g>
            </g>
        </g>
    </g>
</svg>