<svg xmlns="http://www.w3.org/2000/svg" width="124" height="55" viewBox="0 0 124 55">
    <g fill="#FFFFFE" fill-rule="evenodd">
        <path d="M111.158 25.736c.956 0 1.77.25 2.446.75.674.5 1.028 1.227 1.061 2.179h-1.799c-.033-.54-.274-.922-.723-1.149-.299-.15-.671-.225-1.115-.225-.495 0-.89.098-1.184.292-.296.195-.442.466-.442.815 0 .32.144.56.435.717.187.105.584.229 1.19.37l1.573.371c.69.162 1.206.379 1.55.65.534.422.8 1.032.8 1.83 0 .819-.316 1.499-.949 2.04-.632.54-1.516.81-2.65.81l-.377.566c.133-.029.228-.048.285-.057.057-.01.118-.016.181-.016.324 0 .582.08.774.24.191.16.287.39.287.69 0 .373-.152.667-.456.885-.304.216-.695.324-1.172.324-.207 0-.457-.042-.749-.127-.133-.04-.321-.105-.564-.195l.232-.522c.233.068.392.113.478.133.197.049.356.073.478.073.243 0 .417-.051.523-.155.105-.103.158-.211.158-.325 0-.17-.059-.29-.176-.359-.118-.068-.244-.103-.377-.103-.077 0-.157.01-.238.028-.081.017-.174.043-.276.075l-.263-.242.606-.912c-.77 0-1.492-.267-2.168-.8-.676-.532-1.014-1.265-1.014-2.197h1.787c.058.41.172.716.341.918.31.369.842.553 1.595.553.451 0 .818-.049 1.099-.146.533-.186.8-.533.8-1.04 0-.295-.13-.523-.392-.683-.26-.16-.676-.3-1.244-.422l-.97-.213c-.953-.21-1.608-.44-1.964-.687-.604-.413-.906-1.06-.906-1.939 0-.802.296-1.468.886-2 .59-.53 1.458-.795 2.603-.795zm-44.856.26V31.5c0 .615.073 1.065.219 1.348.225.502.718.754 1.478.754.754 0 1.245-.252 1.47-.754.146-.283.22-.733.22-1.348v-5.502h1.901v5.507c0 .952-.148 1.693-.443 2.224-.55.973-1.6 1.459-3.148 1.459-1.55 0-2.602-.486-3.156-1.46-.295-.53-.443-1.271-.443-2.223v-5.507h1.902zm34.572.001v5.502c0 .616.072 1.065.218 1.348.226.502.719.754 1.478.754.754 0 1.246-.252 1.471-.754.146-.283.218-.732.218-1.348v-5.502h1.903v5.507c0 .952-.148 1.694-.443 2.224-.55.972-1.6 1.459-3.149 1.459-1.55 0-2.602-.487-3.156-1.459-.295-.53-.442-1.272-.442-2.224v-5.507h1.902zm-16.593 0v5.502c0 .615.073 1.065.218 1.348.226.503.719.753 1.478.753.755 0 1.246-.25 1.471-.753.146-.283.219-.733.219-1.348v-5.502h1.902v5.506c0 .953-.148 1.694-.443 2.225-.55.973-1.6 1.459-3.149 1.459-1.55 0-2.601-.486-3.155-1.459-.296-.53-.443-1.272-.443-2.225v-5.506h1.902zm-26.998 0v3.691l3.461-3.691h2.42l-3.678 3.684 3.865 5.275h-2.406l-2.76-3.91-.902.913v2.997H55.44v-8.96h1.842zm20.434 0c.612.012 1.083.089 1.414.23.33.143.609.352.838.627.19.226.34.478.45.753.111.276.167.59.167.943 0 .425-.108.843-.322 1.255-.215.41-.57.702-1.064.872.413.166.706.402.878.708.173.306.259.773.259 1.4v.603c0 .409.016.687.049.833.049.23.165.4.346.51v.225h-2.067c-.057-.199-.097-.359-.122-.48-.048-.252-.075-.51-.078-.772l-.012-.833c-.008-.571-.107-.952-.297-1.143-.19-.19-.545-.285-1.066-.285H75.26v3.513h-1.83v-8.959zm15.523 0v7.348h4.473v1.61h-6.345v-8.958h1.872zm-15.912 1.556H75.26v2.407h2.015c.4 0 .7-.049.9-.146.355-.17.532-.506.532-1.01 0-.542-.172-.907-.514-1.093-.193-.106-.481-.158-.866-.158zM56.88 14.028l1.86 3.902 1.781-3.902h2.121l-2.996 5.6v3.359h-1.872v-3.36l-3.1-5.6h2.206zm21.644 0v1.586h-2.68v7.373H73.96v-7.373h-2.692v-1.586h7.257zm2.967 0v3.691l3.46-3.691h2.42l-3.676 3.684 3.864 5.275h-2.407l-2.76-3.911-.901.914v2.997h-1.843v-8.959h1.843zm8.825 0v8.959h-1.86v-8.96h1.86zm3.622 0v7.348h4.474v1.61h-6.346v-8.958h1.872zm7.44 0v8.959h-1.86v-8.96h1.86zm-31.041 0v1.586h-4.74v1.902h4.35v1.556h-4.35v2.304h4.959v1.61h-6.789v-8.958h6.57zm19.85-2.45v1.441h-1.585v-1.44h1.586zm11.062 0v1.441h-1.586v-1.44h1.586zM20.766 13.397v1.893c-6.08 2.32-9.604 6.485-9.413 13.334.009.308.056.594.121.893 2.144 9.983 14.464 13.998 23.428 6.672l.036 2.24c-10.903 6.906-30.484 1.358-28.51-13.332 1.33-6.64 6.875-9.931 14.338-11.7zm10.78 6.13c2.393-.016 3.839-.068 6.161 0 3.738.168 6.377 4.431 2.403 7.6 4.152 2.65 2.05 7.94-2.513 7.94h-6.051zm-13.215-.01c1.734 3.003 3.567 6.052 5.3 9.054 1.615-3.002 3.13-6.051 4.744-9.053h1.792v15.541h-3.55V27.87l-4.15 7.19-4.162-7.208-.008 7.207H15.83V19.518zm16.605 8.65V33.7c2.054.052 3.972-.346 4.16-2.478.016-.178.013-.338-.009-.516-.244-2.061-1.922-2.528-4.151-2.54zm0-7.195v5.71c2.054.053 3.617-.346 3.805-2.478.016-.177.013-.338-.008-.515-.244-2.061-1.568-2.706-3.797-2.717zM31.994 7.445v2.46h-6.358v14.77h-4.261V9.905h-6.426v-2.46h17.045zm-5.675 5.93c3.018.313 5.87 1.304 8.617 2.88v2.569c-2.213-2.33-5.142-3.728-8.617-4.075-.022-.473.023-.9 0-1.374z"/>
        <path d="M48.594 46.045h73.489V1.915h-73.49v44.13zm-46.679 0h44.764V1.915H1.915v44.13zM0 0v47.96H123.998V0H0zM30.308 50.656c.688 0 1.192.228 1.51.685.175.256.27.513.283.77h-.864c-.055-.197-.126-.347-.212-.448-.154-.18-.382-.27-.684-.27-.308 0-.55.127-.728.38-.178.254-.267.613-.267 1.077 0 .464.094.81.281 1.041.188.231.426.347.715.347.297 0 .523-.099.678-.297.086-.107.157-.266.214-.48h.859c-.075.451-.264.817-.568 1.1-.304.282-.694.423-1.17.423-.588 0-1.05-.19-1.387-.572-.337-.383-.505-.909-.505-1.576 0-.722.191-1.278.574-1.67.333-.34.757-.51 1.271-.51zm17.134.078v2.54c0 .284.034.491.1.622.105.232.332.348.682.348.35 0 .575-.116.68-.348.067-.131.1-.338.1-.622v-2.54h.878v2.542c0 .44-.068.782-.204 1.027-.254.449-.738.673-1.454.673-.714 0-1.2-.224-1.456-.673-.136-.245-.204-.587-.204-1.027v-2.542h.878zm-13.6 0v2.54c0 .284.033.491.1.622.104.232.332.348.682.348.349 0 .575-.116.68-.348.067-.131.1-.338.1-.622v-2.54h.878v2.542c0 .44-.068.782-.204 1.027-.254.449-.739.673-1.454.673s-1.2-.224-1.456-.673c-.137-.245-.205-.587-.205-1.027v-2.542h.879zm-28.832 0v2.54c0 .284.034.491.101.622.105.232.332.348.682.348.35 0 .575-.116.68-.348.067-.131.1-.338.1-.622v-2.54h.878v2.542c0 .44-.068.782-.204 1.027-.254.449-.739.673-1.454.673s-1.2-.224-1.456-.673c-.136-.245-.205-.587-.205-1.027v-2.542h.878zm115.565-.12c.441 0 .817.115 1.129.346.311.23.474.567.49 1.006h-.83c-.016-.249-.127-.425-.334-.53-.138-.07-.31-.104-.515-.104-.228 0-.41.045-.547.135-.136.09-.203.215-.203.376 0 .147.067.258.2.33.087.05.27.106.55.172l.726.17c.318.076.556.176.715.301.246.194.37.476.37.845 0 .377-.147.69-.438.94-.293.25-.705.375-1.238.375-.545 0-.973-.123-1.285-.37-.311-.245-.468-.583-.468-1.013h.825c.027.19.08.33.158.424.143.17.389.255.736.255.208 0 .377-.023.507-.068.246-.085.37-.245.37-.48 0-.136-.061-.241-.182-.316-.12-.073-.312-.138-.574-.194l-.447-.098c-.44-.097-.742-.203-.907-.317-.279-.19-.418-.489-.418-.894 0-.371.136-.678.409-.924.272-.245.673-.367 1.201-.367zm3.317.12v4.136h-.859v-4.135h.859zm-12.571 0v1.704l1.597-1.703h1.117l-1.697 1.7 1.784 2.435h-1.111l-1.274-1.806-.416.422v1.384h-.85v-4.135h.85zm-68.225 0v1.577h1.607v-1.576h.858v4.135h-.858v-1.846h-1.607v1.846h-.859v-4.135h.859zm41.485 0v1.704l1.598-1.703h1.117l-1.698 1.7 1.785 2.435H86.27l-1.273-1.806-.417.422v1.384h-.85v-4.135h.85zm-28.586 0v4.136h-.858v-4.135h.858zm-36.451 0l.858 1.802.822-1.802h.98L20.82 53.32v1.55h-.864v-1.55l-1.43-2.585h1.018zm-1.66 0v4.136h-.858v-4.135h.858zm20.644 0l.753 3.252.747-3.251h1.243v4.135h-.805v-2.864l.002-.272.003-.334-.783 3.47h-.84l-.778-3.47.003.334c.002.145.002.258.002.339v2.797h-.804v-4.135h1.257zm33.15 0l.752 3.252.747-3.251h1.243v4.135h-.805v-2.942l.003-.194.002-.334-.783 3.47h-.84l-.778-3.47.003.334.003.339v2.797h-.805v-4.135h1.257zm-58.039 0v1.704l1.598-1.703h1.116l-1.697 1.7 1.785 2.435h-1.112l-1.274-1.806-.416.422v1.384h-.85v-4.135h.85zm64.81 0v.733h-2.187v.878h2.008v.718h-2.008v1.063h2.289v.743h-3.134v-4.134h3.033zm-25.566 0c.282.006.5.042.652.107.152.066.281.162.388.289.087.105.156.22.207.348.052.127.076.272.076.435 0 .196-.049.389-.148.578-.099.19-.263.325-.491.404.19.076.326.185.405.326.08.141.12.357.12.647v.278c0 .189.007.317.023.384.023.107.075.185.159.236v.103h-.954c-.026-.091-.045-.165-.056-.221-.022-.116-.035-.235-.037-.356l-.005-.385c-.003-.264-.05-.44-.137-.527-.087-.088-.251-.132-.492-.132h-.844v1.621h-.844v-4.135zm51.091 0l1.463 4.136h-.937l-.272-.85h-1.523l-.28.85h-.904l1.476-4.135h.977zm-22.58 0c.282.006.5.042.652.107.152.066.281.162.387.289.088.105.157.22.208.348.051.127.076.272.076.435 0 .196-.049.389-.148.578-.1.19-.263.325-.491.404.19.076.326.185.405.326.08.141.12.357.12.647v.278c0 .189.007.317.022.384.023.107.076.185.16.236v.103h-.954c-.026-.091-.045-.165-.056-.221-.022-.116-.035-.235-.037-.356l-.005-.385c-.003-.264-.05-.44-.137-.527-.087-.088-.251-.132-.492-.132h-.844v1.621h-.844v-4.135zm35.544 0l1.463 4.136h-.937l-.273-.85h-1.522l-.28.85h-.904l1.476-4.135h.977zm-17.433 0c.505.008.862.155 1.072.441.126.176.19.386.19.631 0 .253-.064.456-.191.609-.072.086-.177.164-.316.236.21.076.37.198.478.364.107.167.16.369.16.606 0 .245-.06.465-.184.66-.078.128-.175.237-.292.325-.132.1-.288.17-.467.207-.18.038-.374.056-.585.056h-1.863v-4.134zm-96.05 0v.733H2.219v3.402H1.35v-3.402H.106v-.732h3.35zm6.996 0c.283.006.5.042.653.107.152.066.281.162.387.289.087.105.157.22.208.348.051.127.076.272.076.435 0 .196-.05.389-.148.578-.1.19-.263.325-.491.404.19.076.326.185.405.326.08.141.12.357.12.647v.278c0 .189.007.317.022.384.023.107.076.185.16.236v.103h-.954c-.026-.091-.045-.165-.056-.221-.022-.116-.035-.235-.037-.356l-.005-.385c-.003-.264-.05-.44-.137-.527-.087-.088-.251-.132-.492-.132h-.844v1.621h-.844v-4.135zm53.586 0v.733h-2.188v.878h2.008v.718H61.85v1.063h2.289v.743h-3.134v-4.134h3.033zm3.951 0v.733h-1.237v3.402h-.87v-3.402H64.64v-.732h3.35zm23.108 0v.733h-2.188v.878h2.008v.718h-2.008v1.063h2.289v.743h-3.133v-4.134h3.032zm15.931 0l1.642 2.883v-2.882h.805v4.134h-.864l-1.683-2.934v2.934h-.805v-4.134h.905zm-12.09 0v.693l-2.14 2.713h2.147v.73H91.75v-.73l2.114-2.673h-2.06v-.732h3.133zm-69.01 0v.733H23.74v.878h2.009v.718h-2.009v1.063h2.29v.743h-3.134v-4.134h3.032zm31.727 0l.858 1.802.822-1.802h.98L58.93 53.32v1.55h-.864v-1.55l-1.43-2.585h1.018zm41.695 2.315h-1.017v1.102h1.004c.18 0 .318-.024.418-.073.181-.09.272-.261.272-.516 0-.215-.088-.363-.263-.443-.098-.045-.236-.068-.414-.07zm17.091-1.369l-.536 1.627h1.059l-.523-1.627zm-12.964 0l-.536 1.627h1.059l-.523-1.627zm-22.262-.227h-.954v1.11h.93c.185 0 .323-.022.416-.067.163-.078.245-.233.245-.466 0-.25-.08-.418-.237-.504-.09-.049-.222-.073-.4-.073zm-28.51 0h-.955v1.11h.93c.185 0 .323-.022.416-.067.163-.078.245-.233.245-.466 0-.25-.079-.418-.237-.504-.09-.049-.222-.073-.4-.073zm-42.432 0h-.954v1.11h.93c.185 0 .323-.022.416-.067.163-.078.245-.233.245-.466 0-.25-.08-.418-.237-.504-.09-.049-.222-.073-.4-.073zm88.96 0h-.9v.911h1.005c.18 0 .325-.034.437-.102.112-.069.168-.19.168-.363 0-.193-.074-.32-.222-.382-.128-.043-.29-.064-.489-.064zM5.6 49.686v.665h-.732v-.665H5.6zm1.122 0v.665H5.99v-.665h.732zm11.104-.082v.665h-.732v-.665h.732zm38.11 0v.665h-.732v-.665h.732z"/>
    </g>
</svg>
