<?xml version="1.0" encoding="UTF-8"?>
<svg width="32px" height="32px" viewBox="0 0 32 32" version="1.1" xmlns="http://www.w3.org/2000/svg" xmlns:xlink="http://www.w3.org/1999/xlink">
    <title>A13835CE-159E-4967-B9BA-5ACDB223CC26</title>
    <g id="02---B2B" stroke="none" stroke-width="1" fill="none" fill-rule="evenodd">
        <g id="003.1.0-Sanal-Pos" transform="translate(-610.000000, -1848.000000)" fill="#2F9E44" fill-rule="nonzero">
            <g id="Group-21" transform="translate(0.000000, 1548.000000)">
                <g id="Group-2" transform="translate(135.000000, 80.000000)">
                    <g id="Group-15" transform="translate(105.000000, 220.000000)">
                        <g id="Icons/Basic/Done" transform="translate(370.000000, 0.000000)">
                            <path d="M16,0 C24.8325959,0.00955313015 31.9904469,7.16740407 32,16 C32,24.836556 24.836556,32 16,32 C7.163444,32 0,24.836556 0,16 C0,7.163444 7.163444,0 16,0 Z M16,2.66666667 C8.63620334,2.66666667 2.66666667,8.63620334 2.66666667,16 C2.66666667,23.3637967 8.63620334,29.3333333 16,29.3333333 C23.3604459,29.3252502 29.3252502,23.3604459 29.3333333,16 C29.3333333,8.63620334 23.3637967,2.66666667 16,2.66666667 Z M23.4021186,8.29266855 C23.8390012,8.22639843 24.284311,8.33647679 24.64,8.59866667 C24.9967978,8.86004336 25.2350707,9.25252331 25.3023432,9.68966954 C25.3696157,10.1268158 25.2603704,10.5727754 24.9986667,10.9293333 L24.9986667,10.9293333 L16.0653333,23.0453333 C15.7934336,23.4063512 15.3878301,23.6429233 14.939733,23.7018505 C14.4916359,23.7607776 14.0386594,23.6371133 13.6826667,23.3586667 L13.6826667,23.3586667 L7.30533333,18.2573333 C6.60908579,17.6754278 6.50572829,16.6436966 7.07270926,15.9352425 C7.63969023,15.2267883 8.66899244,15.1015329 9.38933333,15.6533333 L9.38933333,15.6533333 L14.412,19.672 L22.3106667,8.952 C22.572602,8.59612355 22.9652359,8.35893867 23.4021186,8.29266855 Z" id="Done"></path>
                        </g>
                    </g>
                </g>
            </g>
        </g>
    </g>
</svg>