<svg width="0" height="0" class="hidden">
  <symbol xmlns="http://www.w3.org/2000/svg" viewBox="0 0 36 36" id="baby">
    <g transform="translate(.5 .5)">
      <path d="M1.094 14.221h13.125c.604 0 1.094-.49 1.094-1.094V1.825A1.826 1.826 0 0013.385.002C6.19.237.375 5.94 0 13.127c0 .604.49 1.094 1.094 1.094z"></path>
      <circle cx="8.021" cy="32.45" r="2.552"></circle>
      <path d="M20.287 28.949h-9.22a.365.365 0 00-.255.625 4.03 4.03 0 011.062 1.765.73.73 0 00.7.526h6.205a.73.73 0 00.7-.526c.195-.67.56-1.279 1.062-1.765a.365.365 0 00-.254-.625zM33.542 4.157h-1.7a4.362 4.362 0 00-4.26 3.373l-1.785 7.584a.73.73 0 01-.71.563H1.093a1.092 1.092 0 00-.96 1.617l4.375 8.02c.192.352.56.57.96.57h16.874a.73.73 0 01.709.896l-.236 1.005a.53.53 0 00.517.655c.614 0 1.22.14 1.77.412.1.05.217.05.317 0a.357.357 0 00.199-.246L30.42 8.189a1.458 1.458 0 011.42-1.124h1.7a1.458 1.458 0 100-2.917v.01z"></path>
      <circle cx="23.333" cy="32.45" r="2.552"></circle>
    </g>
  </symbol>
  <symbol xmlns="http://www.w3.org/2000/svg" viewBox="0 0 64 64" id="book">
    <path d="M53.448 11.338a2.671 2.671 0 00-2.083-.658l-34.488 3.98a2.668 2.668 0 01-2.54-2.667c0-.832 0-2.09 3.182-2.714 4.416-.872 28.905-3.952 29.153-3.974a2.665 2.665 0 00-.667-5.289c-1 .128-24.92 3.125-29.515 4.029-6.512 1.283-7.485 5.53-7.485 7.95v41.333a10.364 10.364 0 0010.666 10.667c.267 0 32.331-4.021 32.331-4.021a2.666 2.666 0 002.336-2.646v-44a2.67 2.67 0 00-.89-1.99z"></path>
  </symbol>
  <symbol xmlns="http://www.w3.org/2000/svg" viewBox="0 0 54 54" id="decoration">
    <path d="M5.47 23.143a8.4 8.4 0 0111.894 9.308 1.094 1.094 0 001.284 1.302A43.601 43.601 0 0127 32.797c2.808.049 5.605.369 8.352.956a1.094 1.094 0 001.284-1.302 8.398 8.398 0 018.214-10.154 8.409 8.409 0 018.4 8.4 8.313 8.313 0 01-4.876 7.6 1.094 1.094 0 00-.593 1.312c.145.475.218.969.219 1.465v3.01a3.154 3.154 0 01-3.15 3.15h-.35c-.604 0-1.094.49-1.094 1.094v1.64a2.734 2.734 0 01-5.469 0v-1.64c0-.604-.49-1.094-1.093-1.094H17.156c-.604 0-1.094.49-1.094 1.094v1.64a2.734 2.734 0 01-5.468 0v-1.64c0-.604-.49-1.094-1.094-1.094h-.352a3.154 3.154 0 01-3.15-3.15v-3.012c0-.496.074-.99.219-1.465a1.094 1.094 0 00-.591-1.313A8.313 8.313 0 01.75 30.697a8.4 8.4 0 014.72-7.554zM26.995 1.297c9.722 0 18.027 7.012 19.656 16.596a1.094 1.094 0 01-1.146 1.274c-.219-.02-.437-.02-.656-.02a11.526 11.526 0 00-11.432 9.944 1.094 1.094 0 01-1.23.936 39.347 39.347 0 00-5.188-.38 39.57 39.57 0 00-5.193.38 1.094 1.094 0 01-1.23-.936A11.526 11.526 0 008.49 19.167a1.097 1.097 0 01-1.15-1.274C8.969 8.31 17.273 1.297 26.996 1.297z"></path>
  </symbol>
  <symbol xmlns="http://www.w3.org/2000/svg" viewBox="0 0 64 64" id="discover">
    <path d="M60.075 36.952l-7.08-17.67a1.422 1.422 0 00-.3-.457l-3.864-3.879-3.982-10.62a1.407 1.407 0 00-.31-.485 7.845 7.845 0 00-10.099 0 1.358 1.358 0 00-.397.964v13.581a29.36 29.36 0 00-2.724-.139c-.463 0-.912.022-1.362.044V4.81a1.361 1.361 0 00-.397-.964 7.846 7.846 0 00-10.098 0 1.396 1.396 0 00-.311.485l-3.982 10.615-3.867 3.879c-.128.131-.23.287-.3.457l-7.077 17.67a14.979 14.979 0 1026.032 10.076V31.94c.423-.04.87-.068 1.362-.068.914-.006 1.827.08 2.724.256v14.895a14.977 14.977 0 0027.716 7.912 14.979 14.979 0 00-1.684-17.989v.006zm-35.564 10.07a9.532 9.532 0 01-9.532 9.532 9.531 9.531 0 01-9.532-9.531 9.531 9.531 0 1119.064 0zm24.51 9.532a9.532 9.532 0 119.532-9.531 9.531 9.531 0 01-9.532 9.531z"></path>
  </symbol>
  <symbol xmlns="http://www.w3.org/2000/svg" viewBox="0 0 54 54" id="electronics">
    <path d="M7.384 24.95H4.441a2.05 2.05 0 100 4.1h2.943a2.05 2.05 0 100-4.1zm0 10.253H4.441a2.05 2.05 0 100 4.102h2.943a2.05 2.05 0 100-4.102zm0-19.483H4.441a2.05 2.05 0 000 4.102h2.943a2.05 2.05 0 100-4.101zm42.175 9.23h-2.943a2.05 2.05 0 100 4.1h2.943a2.05 2.05 0 100-4.1zm-2.943-5.128h2.943a2.05 2.05 0 100-4.101h-2.943a2.05 2.05 0 100 4.101zm2.943 15.381h-2.943a2.05 2.05 0 100 4.102h2.943a2.05 2.05 0 100-4.102zM27 9.435a2.05 2.05 0 002.05-2.05V4.44a2.05 2.05 0 00-4.1 0v2.943A2.05 2.05 0 0027 9.435zm-9.229 0a2.05 2.05 0 002.051-2.05V4.44a2.05 2.05 0 10-4.101 0v2.943a2.05 2.05 0 002.05 2.051zm18.458 0a2.05 2.05 0 002.05-2.05V4.44a2.05 2.05 0 00-4.101 0v2.943a2.05 2.05 0 002.05 2.051zM27 44.567a2.05 2.05 0 00-2.05 2.05v2.942a2.05 2.05 0 104.1 0v-2.941A2.05 2.05 0 0027 44.567zm9.229 0a2.05 2.05 0 00-2.051 2.05v2.942a2.05 2.05 0 104.101 0v-2.941a2.05 2.05 0 00-2.05-2.051zm-18.458 0a2.05 2.05 0 00-2.05 2.05v2.942a2.05 2.05 0 004.101 0v-2.941a2.05 2.05 0 00-2.05-2.051zM39.442 11.62H14.558a2.943 2.943 0 00-2.939 2.94v24.882a2.945 2.945 0 002.939 2.939h24.884a2.945 2.945 0 002.939-2.939V14.56a2.943 2.943 0 00-2.939-2.94zM36.23 34.177a2.05 2.05 0 01-2.051 2.05H29.05a2.05 2.05 0 110-4.101h5.127a2.05 2.05 0 012.05 2.05z"></path>
  </symbol>
  <symbol xmlns="http://www.w3.org/2000/svg" viewBox="0 0 54 54" id="footwear">
    <path d="M3.015 29.47a.525.525 0 00-.433.108.516.516 0 00-.191.4v3.982c0 1.14.93 2.063 2.08 2.063h4.784c.166 0 .322-.08.42-.213a.513.513 0 00.072-.463 8.849 8.849 0 00-6.732-5.876zm9.8 5.774c.113.458.523.78.994.78h36.775c.566 0 1.025-.46 1.025-1.026v-2.654a3.076 3.076 0 00-2.05-2.897l-11.075-3.958a1.025 1.025 0 00-1.07.24l-3.179 3.178a1.538 1.538 0 01-2.174-2.174l2.035-2.034a.515.515 0 00-.191-.847l-2.219-.794a1.025 1.025 0 00-1.07.242l-3.554 3.556a1.538 1.538 0 01-2.174-2.173l2.411-2.414a.51.51 0 00-.188-.845l-3.782-1.352a2.233 2.233 0 00-2.608.956 7.178 7.178 0 01-6.026 2.69 8.082 8.082 0 01-6.121-2.959 2.012 2.012 0 00-1.823-1.142H5.467a3.076 3.076 0 00-3.076 3.076v2.73c0 .503.365.93.861 1.011 4.66.764 8.42 4.227 9.563 8.81zM2.39 40.33a3.076 3.076 0 003.077 3.076h43.066a3.076 3.076 0 003.076-3.076c0-.566-.459-1.025-1.025-1.025H3.416c-.566 0-1.025.459-1.025 1.025z"></path>
  </symbol>  <symbol xmlns="http://www.w3.org/2000/svg" viewBox="0 0 54 54" id="health">
    <path d="M4.031 24.815a3.281 3.281 0 013.282 3.282v6.302a1.1 1.1 0 01-.184.604 5.408 5.408 0 00-.274 5.436l2.958 4.921a1.094 1.094 0 101.875-1.128l-2.919-4.85a3.063 3.063 0 011.002-3.988c2.498-1.667 3.789.414 7.917 4.712a9.826 9.826 0 011.656 5.469v6.584c0 .604-.49 1.094-1.094 1.094H9.588c-.333 0-.646-.152-.854-.411l-5.827-7.283A9.844 9.844 0 01.75 39.41V28.096a3.281 3.281 0 013.281-3.282zm45.938 0a3.281 3.281 0 013.281 3.282v11.311c0 2.236-.76 4.405-2.157 6.151l-5.827 7.283a1.09 1.09 0 01-.853.41H35.75a1.093 1.093 0 01-1.094-1.093v-6.578a9.826 9.826 0 011.656-5.468c4.128-4.305 5.419-6.386 7.917-4.719a3.063 3.063 0 011.002 3.988l-2.918 4.85a1.094 1.094 0 101.874 1.128l2.958-4.921a5.408 5.408 0 00-.274-5.436 1.094 1.094 0 01-.183-.604v-6.302a3.281 3.281 0 013.28-3.282zM29.719 3.64A9.844 9.844 0 0145.495 6.2a9.844 9.844 0 01-1.846 11.37L29.015 32.837a2.791 2.791 0 01-4.03 0L10.351 17.57c-3.847-3.846-3.847-10.083 0-13.93 3.847-3.846 10.083-3.846 13.93 0l1.947 1.945c.427.427 1.12.427 1.546 0z"></path>
  </symbol>
  <symbol xmlns="http://www.w3.org/2000/svg" viewBox="0 0 54 54" id="mcc-clothes">
    <path d="M52.61 16.703l-.016-.015-8.532-8.205a11.979 11.979 0 00-8.34-3.358c-.22.061-.945-.155-1.094.656a8.076 8.076 0 01-7.628 7 8.076 8.076 0 01-7.63-7c-.147-.81-.875-.595-1.094-.656a11.979 11.979 0 00-8.339 3.358l-8.546 8.22a2.187 2.187 0 000 3.094l5.084 5.083a2.163 2.163 0 002.913.16l2.724-2.107a1.094 1.094 0 011.763.875V44.5c0 1.208.98 2.188 2.187 2.188h21.875c1.209 0 2.188-.98 2.188-2.188V23.8a1.094 1.094 0 011.763-.875l2.693 2.08a2.187 2.187 0 002.944-.133l5.084-5.084a2.188 2.188 0 000-3.085z"></path>
  </symbol>
  <symbol xmlns="http://www.w3.org/2000/svg" viewBox="0 0 54 54" id="restaurant">
    <path d="M34.656.75c5.102 0 10.25 13.245 10.39 28.97v.014a2.72 2.72 0 01-2.733 2.735h-3.829c-.604 0-1.093.49-1.093 1.093v17.5a2.187 2.187 0 11-4.375 0V2.392a1.64 1.64 0 011.64-1.641zm-10.39 0c1.208 0 2.187.98 2.187 2.188v10.937a8.77 8.77 0 01-5.834 8.251 1.094 1.094 0 00-.728 1.03v27.907a2.187 2.187 0 11-4.375 0V23.157c0-.463-.292-.876-.729-1.03a8.77 8.77 0 01-5.834-8.252V2.937a2.188 2.188 0 014.375 0v10.938a4.36 4.36 0 001.25 3.058.55.55 0 00.938-.383V2.937a2.187 2.187 0 114.375 0v13.618a.55.55 0 00.938.383 4.36 4.36 0 001.25-3.063V2.937c0-1.208.979-2.187 2.187-2.187z"></path>
  </symbol>
   <symbol xmlns="http://www.w3.org/2000/svg" viewBox="0 0 54 54" id="sport">
    <g transform="translate(2.39 13.875)">
      <path d="M3.938 4.102h-1.97C.882 4.102 0 5.04 0 6.198v14.674c0 1.158.881 2.097 1.969 2.097h1.968c.544 0 .985-.47.985-1.048V5.15c0-.58-.44-1.048-.984-1.048zM14.56 0H9.435C8.3 0 7.383.932 7.383 2.082v22.906c0 1.15.918 2.082 2.05 2.082h5.128c.566 0 1.025-.466 1.025-1.04V1.04c0-.574-.46-1.04-1.026-1.04zm32.69 4.102h-1.969c-.543 0-.984.469-.984 1.048v16.77c0 .58.44 1.049.984 1.049h1.969c1.087 0 1.969-.939 1.969-2.097V6.198c0-1.158-.882-2.096-1.969-2.096zM40.605 0H35.48c-.567 0-1.026.466-1.026 1.041V26.03c0 .575.46 1.041 1.026 1.041h5.126c1.133 0 2.051-.932 2.051-2.082V2.082c0-1.15-.918-2.082-2.05-2.082z"></path>
      <rect x="17.227" y="10.664" width="14.766" height="6.563" rx=".923"></rect>
    </g>
  </symbol>
  <symbol xmlns="http://www.w3.org/2000/svg" viewBox="0 0 54 54" id="all-brands">
    <path d="M50.71 23.631a2.258 2.258 0 012.258 2.258v24.807a2.258 2.258 0 01-2.258 2.258l-18.065.032a2.258 2.258 0 01-2.258-2.258V25.889a2.258 2.258 0 012.258-2.258zM21.355 37.177a2.258 2.258 0 012.258 2.258v11.29a2.258 2.258 0 01-2.258 2.256L3.29 52.95a2.258 2.258 0 01-2.258-2.258V39.435a2.258 2.258 0 012.258-2.258zM3.29 1.017l18.065.033a2.258 2.258 0 012.258 2.258v24.84a2.258 2.258 0 01-2.258 2.257H3.29a2.258 2.258 0 01-2.258-2.258V3.275A2.258 2.258 0 013.29 1.016zm47.42 0a2.258 2.258 0 012.258 2.258v11.321a2.258 2.258 0 01-2.258 2.259H32.645a2.258 2.258 0 01-2.258-2.259V3.306a2.258 2.258 0 012.258-2.258z" fill="#868E96"></path>
  </symbol>
  <symbol xmlns="http://www.w3.org/2000/svg" viewBox="0 0 32 32" id="basic-cards">
    <path d="M22.667 13.333A2.667 2.667 0 0125.333 16v13.333A2.667 2.667 0 0122.667 32h-20A2.667 2.667 0 010 29.333V16a2.667 2.667 0 012.667-2.667zm-1.914 9.742a2.667 2.667 0 00-3.197.272.335.335 0 01-.445 0 2.667 2.667 0 100 3.973.335.335 0 01.445 0 2.667 2.667 0 103.197-4.245zm-13.42-5.742H4.667A.667.667 0 004 18v2.667c0 .368.298.666.667.666h2.666A.667.667 0 008 20.667V18a.667.667 0 00-.667-.667zM28 0a4 4 0 014 4v12a4 4 0 01-2.065 3.503 1.333 1.333 0 01-1.935-1.2l.003-.137c.031-.407.26-.777.617-.986.438-.23.713-.685.713-1.18V9.667A.333.333 0 0029 9.333H7a.333.333 0 00-.333.334V10c0 .736-.597 1.333-1.334 1.333l-.128-.006A1.333 1.333 0 014 10V4a4 4 0 014-4zm0 2.667H8c-.736 0-1.333.597-1.333 1.333v1c0 .184.149.333.333.333h22A.333.333 0 0029.333 5V4c0-.736-.597-1.333-1.333-1.333z" fill="#ADB5BD"></path>
  </symbol>
    <symbol xmlns="http://www.w3.org/2000/svg" viewBox="0 0 32 32" id="phone">
    <path d="M22.719 0H9.28C7.055 0 5.25 1.796 5.25 4.011V27.99c0 2.214 1.805 4.01 4.031 4.01H22.72c2.226 0 4.031-1.796 4.031-4.011V4.01C26.75 1.796 24.945 0 22.719 0zM16 29.994a1.34 1.34 0 01-1.344-1.337A1.34 1.34 0 0116 27.32a1.34 1.34 0 011.344 1.337A1.34 1.34 0 0116 29.994zm8.063-6.017a1.34 1.34 0 01-1.344 1.337H9.28a1.34 1.34 0 01-1.344-1.337V4.68A1.34 1.34 0 019.28 3.343h13.44a1.34 1.34 0 011.343 1.337v19.297z" fill="#ADB5BD"></path>
  </symbol>
  <symbol xmlns="http://www.w3.org/2000/svg" viewBox="0 0 32 32" id="basic-icn-oneclick">
    <path d="M15.282 13.357c.791 0 1.432.641 1.432 1.432v6.542a.36.36 0 00.255.344l5.36 1.598a1.836 1.836 0 011.278 2.177c-.159.69-.823 4.39-1.11 5.965a.716.716 0 01-.704.589h-7.784a.716.716 0 01-.596-.32l-4.17-6.254c-1.567-2.396 1.821-3.383 3.955-.32a.358.358 0 00.652-.204V14.789c0-.791.641-1.432 1.432-1.432zM16.004.115a15.313 15.313 0 0114.178 9.247A15.333 15.333 0 0127.48 26.1a1.073 1.073 0 01-1.586-1.446 13.219 13.219 0 002.322-14.425 13.19 13.19 0 00-12.212-7.966 13.176 13.176 0 00-12.217 7.982A13.22 13.22 0 006.15 24.692a1.076 1.076 0 01-1.584 1.454 15.346 15.346 0 01-2.74-16.765A15.303 15.303 0 0116.004.115zm0 5.729a9.452 9.452 0 017.991 14.473 1.074 1.074 0 01-1.817-1.146 7.194 7.194 0 00.199-7.407 7.29 7.29 0 10-12.559 7.387 1.074 1.074 0 11-1.82 1.139 9.452 9.452 0 018.006-14.446z" fill="#ADB5BD"></path>
  </symbol>
  <symbol xmlns="http://www.w3.org/2000/svg" viewBox="0 0 24 24" id="icons-basic-icn-web">
    <path d="M10.4 21.807a.247.247 0 01.277.046 26.18 26.18 0 001.658 1.452.248.248 0 01-.146.44c-.1.007-.198.007-.297.007a11.815 11.815 0 01-3.858-.645.248.248 0 01.022-.474 12.486 12.486 0 002.344-.826zm8.088-9.057a.247.247 0 01.266.082 13.392 13.392 0 012.68 5.968.247.247 0 01-.047.186 11.903 11.903 0 01-6.398 4.338.245.245 0 01-.207-.036 28.425 28.425 0 01-2.638-2.1.247.247 0 01.026-.388c3.59-2.47 5.12-5.135 5.697-7.77a.249.249 0 01.216-.199 2.18 2.18 0 00.405-.081zM1.001 15.836a18.704 18.704 0 015.638-.328.246.246 0 01.218.185c.213.845.515 1.664.903 2.444.409.788.907 1.526 1.487 2.199a.248.248 0 01-.1.39 11.253 11.253 0 01-4.08.794.25.25 0 01-.148-.048 11.937 11.937 0 01-4.095-5.304.248.248 0 01.176-.332zm7.763-.005l.066.005c1.593.328 3.138.854 4.6 1.566a.247.247 0 01.063.404c-.791.702-1.62 1.36-2.483 1.97a.247.247 0 01-.317-.043 10.607 10.607 0 01-1.605-2.26 10.178 10.178 0 01-.543-1.315.248.248 0 01.285-.322zM17.78 1.705a.248.248 0 01.276-.011 11.897 11.897 0 015.728 10.166 11.76 11.76 0 01-.936 4.587.247.247 0 01-.463-.018 14.881 14.881 0 00-2.496-4.558l-.007-.008a.248.248 0 01-.042-.279c.15-.299.227-.628.228-.963a2.226 2.226 0 00-1.34-2.035.247.247 0 01-.148-.226 28.143 28.143 0 00-.893-6.395.248.248 0 01.093-.26zM10.82 8.14a8.72 8.72 0 014.782 1.645.248.248 0 01.09.264 2.106 2.106 0 00-.083.573c.001.64.28 1.246.762 1.665a.246.246 0 01.08.235 10 10 0 01-1.584 3.7.25.25 0 01-.317.077A21.093 21.093 0 008.246 14.2a.249.249 0 01-.206-.212 12.144 12.144 0 01.092-3.826.045.045 0 01.044-.036 2.477 2.477 0 002.379-1.808.248.248 0 01.265-.18zm-5.171.368a.248.248 0 01.268.148c.17.385.435.72.77.973.022.016.03.044.022.07l-.084.44a12.93 12.93 0 00-.12 3.568.248.248 0 01-.262.272 19.745 19.745 0 00-5.694.434.247.247 0 01-.3-.192 11.8 11.8 0 01-.244-2.36c0-.135.012-.268.02-.401a.253.253 0 01.074-.162 10.9 10.9 0 015.55-2.79zM10.802.033a.248.248 0 01.209.406 19.557 19.557 0 00-3.028 4.697l-.017.03a.092.092 0 01-.06.032 2.466 2.466 0 00-2.06 1.633.252.252 0 01-.197.163A12.795 12.795 0 00.866 8.792a.248.248 0 01-.37-.279A11.9 11.9 0 0110.801.033zm2.607.048h.058c.745.101 1.478.273 2.19.514a.249.249 0 01.16.162 29.711 29.711 0 011.276 7.603.249.249 0 01-.15.228c-.047.02-.094.042-.14.066a.249.249 0 01-.264-.024 10.152 10.152 0 00-5.638-1.973.625.625 0 00-.204.034.247.247 0 01-.298-.126 2.487 2.487 0 00-.793-.927.248.248 0 01-.08-.307 22.252 22.252 0 013.73-5.174.25.25 0 01.211-.076z" fill="#FFF"></path>
  </symbol>
  <symbol xmlns="http://www.w3.org/2000/svg" viewBox="0 0 320 120" id="iyzico-logo-subbrands-pwi">
    <defs>
      <linearGradient x1="90.255%" y1="50%" x2="0%" y2="50%" id="a">
        <stop stop-color="#1E64FF" offset="0%"></stop>
        <stop stop-color="#1E64FF" stop-opacity="0" offset="100%"></stop>
      </linearGradient>
    </defs>
    <g fill="none" fill-rule="evenodd">
      <path d="M4.286 0A4.286 4.286 0 000 4.286V30a4.286 4.286 0 004.286 4.286H36.64a4.284 4.284 0 003.8-2.307l6.694-12.857c.317-.61.478-1.276.484-1.943v-.073a4.286 4.286 0 00-.484-1.942L40.442 2.307A4.285 4.285 0 0036.64 0H4.286z" transform="translate(0 42.857)" fill="url(#a)"></path>
      <path d="M91.621 49.314a3.267 3.267 0 115.797 3.021L82.512 81.099a3.269 3.269 0 01-2.765 1.754 3.176 3.176 0 01-1.648-.365 3.268 3.268 0 01-1.392-4.41l4.215-8.142-9.129-17.601a3.274 3.274 0 011.394-4.412 3.268 3.268 0 014.407 1.39l7.013 13.521zm59.994-2.196c3.536 0 6.86 1.377 9.362 3.879a3.28 3.28 0 010 4.625 3.277 3.277 0 01-4.625 0 6.643 6.643 0 00-4.737-1.963 6.632 6.632 0 00-4.731 1.963 6.634 6.634 0 00-1.961 4.732c0 1.788.695 3.47 1.96 4.735a6.666 6.666 0 004.732 1.965c1.792 0 3.47-.705 4.737-1.965a3.267 3.267 0 114.625 4.62 13.152 13.152 0 01-9.362 3.881 13.141 13.141 0 01-9.355-3.881 13.132 13.132 0 01-3.877-9.355c0-3.537 1.378-6.856 3.877-9.357a13.137 13.137 0 019.355-3.88zm26.433 0c7.297 0 13.233 5.937 13.233 13.236 0 7.298-5.936 13.236-13.233 13.236-7.295 0-13.23-5.938-13.23-13.236 0-7.299 5.935-13.236 13.23-13.236zm-113.768.437a3.268 3.268 0 013.27 3.265v19.122a3.267 3.267 0 01-3.27 3.268 3.267 3.267 0 01-3.27-3.268V50.82a3.27 3.27 0 013.27-3.265zm53.132-.002h1.816l.404.001c.71.022 1.415.273 2 .766a3.268 3.268 0 01.405 4.602l-11.54 13.75h9.03a3.269 3.269 0 110 6.538h-16.04a3.268 3.268 0 01-2.504-5.37l11.539-13.745h-7.544a3.272 3.272 0 01-3.269-3.275 3.267 3.267 0 013.27-3.265l2.814-.001h.298l4.814-.001h.358zm13.418.002a3.266 3.266 0 013.27 3.265v19.122a3.264 3.264 0 01-3.27 3.268 3.264 3.264 0 01-3.265-3.268V50.82a3.266 3.266 0 013.265-3.265zm47.218 6.104c-3.69 0-6.69 3.003-6.69 6.695s3 6.7 6.69 6.7c3.692 0 6.696-3.008 6.696-6.7a6.703 6.703 0 00-6.696-6.695zM64.28 37.143a3.614 3.614 0 010 7.227 3.615 3.615 0 010-7.227zm66.55 0a3.613 3.613 0 11.002 7.227 3.613 3.613 0 01-.002-7.227z" fill="#1E64FF"></path>
      <path d="M260.962 45.359c6.667 0 13.257 5.587 13.257 13.662 0 8.075-6.59 13.66-13.257 13.66-6.666 0-13.256-5.585-13.256-13.66s6.59-13.662 13.256-13.662zm33.297-.268c1.104 0 2.056.92 2.056 2.029v23.495c0 1.11-.952 2.028-2.056 2.028a2.037 2.037 0 01-2.02-2.028v-2.067c-.266 1.722-2.629 4.132-6.248 4.132-4.227 0-9.293-3.29-9.293-10.214 0-6.813 5.103-10.18 9.293-10.18 2.82 0 5.258 1.455 6.248 3.672v-1.53c0-.114 0-.268.039-.382V47.12c0-1.11.915-2.029 1.98-2.029zm-88.278 7.31c.837 0 1.56.728 1.56 1.608v16.988c0 .92-.723 1.646-1.56 1.646-.876 0-1.6-.726-1.6-1.646V54.009c0-.88.724-1.607 1.6-1.607zm7.39-7.31c.838 0 1.562.729 1.562 1.57v24.336c0 .842-.724 1.607-1.563 1.607-.876 0-1.599-.765-1.599-1.607V46.661c0-.841.723-1.57 1.6-1.57zm14.743 7.195c4.343 0 9.56 3.444 9.56 9.644 0 1.222-.724 1.798-2.018 1.798l-14.018-.077c.342 4.286 3.619 6.313 6.895 6.313 1.751 0 3.16-.497 4.417-1.455.572-.381.915-.572 1.333-.572.726 0 1.181.497 1.181 1.185 0 .421-.19.842-.838 1.416-1.523 1.339-3.769 2.066-6.17 2.066-4.876 0-10.093-3.214-10.093-10.101 0-6.887 5.408-10.217 9.751-10.217zm81.498 0c4.342 0 9.56 3.444 9.56 9.527 0 1.57-.876 2.183-2.514 2.183l-12.76-.04c.418 3.559 3.2 5.32 6.247 5.32 1.562 0 2.629-.382 3.809-1.109.647-.345 1.066-.613 1.6-.613.876 0 1.41.613 1.41 1.454 0 .498-.191 1.034-1.03 1.72-1.446 1.19-3.543 1.875-5.943 1.875-4.95 0-10.245-3.174-10.245-10.1 0-6.887 5.524-10.217 9.866-10.217zm-22.972 3.48c-2.78 0-5.905 2.184-5.905 6.7 0 4.552 3.124 6.733 5.905 6.733 2.59 0 5.79-1.99 5.79-6.733 0-4.784-3.2-6.7-5.79-6.7zm-25.678-6.503c-4.647 0-8.951 3.942-8.951 9.758 0 5.815 4.304 9.718 8.951 9.718 4.648 0 8.952-3.903 8.952-9.718 0-5.816-4.267-9.758-8.952-9.758zm-32.848 5.818c-2.82 0-6.134 1.911-6.476 6.197h12.95c-.341-4.286-3.618-6.197-6.474-6.197zm81.498.725c-2.515 0-5.371 1.608-5.714 5.243h11.35c-.341-3.635-3.083-5.243-5.636-5.243zM205.98 44.71c.837 0 1.599.727 1.599 1.607s-.762 1.608-1.6 1.608c-.875 0-1.637-.728-1.637-1.608 0-.88.762-1.607 1.638-1.607zm59.666-6.314c1.219 0 2.21.994 2.21 2.183 0 1.185-.991 2.18-2.21 2.18-1.218 0-2.209-.995-2.209-2.18 0-1.189.99-2.183 2.21-2.183zm-9.37 0c1.219 0 2.208.994 2.208 2.183 0 1.185-.99 2.18-2.207 2.18-1.22 0-2.21-.995-2.21-2.18 0-1.189.99-2.183 2.21-2.183z" fill="#495057"></path>
    </g>
  </symbol>
  <symbol xmlns="http://www.w3.org/2000/svg" viewBox="0 0 24 24" id="basic-close">
    <path d="M14.299 12.177a.25.25 0 010-.354l9.262-9.262a1.5 1.5 0 00-2.124-2.12l-9.26 9.257a.25.25 0 01-.355 0L2.561.44A1.5 1.5 0 10.439 2.561l9.26 9.262a.25.25 0 010 .354L.44 21.439a1.5 1.5 0 002.122 2.121l9.261-9.262a.25.25 0 01.354 0l9.261 9.262a1.5 1.5 0 102.122-2.12l-9.26-9.263z" fill="#495057"></path>
  </symbol>
  <symbol xmlns="http://www.w3.org/2000/svg" viewBox="0 0 64 64" id="informative-info">
    <g fill="none">
      <path fill="#FFE399" d="M61.318 39.168l-3.149-5.763a3.047 3.047 0 01.007-2.926l3.157-5.767a5.83 5.83 0 00.28-5.035 5.812 5.812 0 00-3.75-3.364l-6.306-1.852a3.042 3.042 0 01-2.07-2.064l-1.84-6.304a5.999 5.999 0 00-8.387-3.474L33.5 5.775c-.91.502-2.014.5-2.922-.004l-5.76-3.146a5.814 5.814 0 00-5.03-.275 5.833 5.833 0 00-3.365 3.757l-1.845 6.31a3.032 3.032 0 01-2.064 2.074l-6.308 1.848a5.836 5.836 0 00-3.48 8.399l3.15 5.763c.5.912.496 2.016-.007 2.926l-3.157 5.766a5.832 5.832 0 00-.28 5.036 5.817 5.817 0 003.75 3.364l6.304 1.842a3.038 3.038 0 012.07 2.064l1.841 6.316a5.82 5.82 0 008.387 3.474l5.76-3.159a3.038 3.038 0 012.923.005l5.757 3.153a5.811 5.811 0 005.03.276 5.834 5.834 0 003.365-3.758l1.846-6.312a3.03 3.03 0 012.064-2.074l6.302-1.848a5.836 5.836 0 003.48-8.399l.007-.005z"></path>
      <path fill="#FFB900" d="M61.83 27.402l-5.115-4.119a3.043 3.043 0 01-1.113-2.706l.71-6.535a5.833 5.833 0 00-1.67-4.76 5.811 5.811 0 00-4.75-1.672l-6.535.702a3.04 3.04 0 01-2.702-1.115l-4.113-5.12a6 6 0 00-9.078 0l-4.113 5.12a3.021 3.021 0 01-2.702 1.115l-6.526-.702c-1.755-.195-3.504.42-4.753 1.67s-1.863 3.001-1.67 4.76l.71 6.535a3.03 3.03 0 01-1.114 2.706l-5.12 4.122a5.832 5.832 0 000 9.09l5.115 4.12c.81.65 1.23 1.672 1.113 2.705l-.71 6.536a5.836 5.836 0 001.669 4.76 5.815 5.815 0 004.751 1.672l6.53-.71a3.034 3.034 0 012.701 1.114l4.119 5.13a5.816 5.816 0 009.078 0l4.113-5.122a3.037 3.037 0 012.702-1.114l6.526.71a5.814 5.814 0 004.752-1.67 5.827 5.827 0 001.67-4.76l-.71-6.537a3.03 3.03 0 011.114-2.706l5.115-4.12a5.83 5.83 0 000-9.089l.006-.009z"></path>
      <path fill="#FFF" d="M31.5 18a3 3 0 110 6 3 3 0 010-6zM36 45h-8a2 2 0 110-4h1.5a.5.5 0 00.5-.5v-9a.5.5 0 00-.5-.5H28a2 2 0 110-4h2c2.21 0 4 1.79 4 4v9.5a.5.5 0 00.5.5H36a2 2 0 110 4z"></path>
    </g>
  </symbol>
  <symbol xmlns="http://www.w3.org/2000/svg" viewBox="0 0 40 40" id="star">
    <path d="M38.806 18.883l-2.954-3.129.994-4.186a1.63 1.63 0 00-1.122-1.937l-4.122-1.229-1.23-4.125a1.628 1.628 0 00-1.938-1.12l-4.187.993-3.127-2.955a1.633 1.633 0 00-2.24 0L15.75 4.15l-4.186-.996a1.63 1.63 0 00-1.938 1.121L8.398 8.398 4.273 9.626a1.63 1.63 0 00-1.12 1.94l.995 4.187-2.953 3.127a1.63 1.63 0 000 2.238l2.954 3.128-.996 4.188a1.63 1.63 0 001.122 1.937L8.398 31.6l1.228 4.124a1.63 1.63 0 001.938 1.118l4.188-.993 3.129 2.955c.628.593 1.61.593 2.239 0l3.129-2.956 4.186.995c.84.2 1.69-.291 1.938-1.119l1.229-4.124 4.124-1.229a1.63 1.63 0 001.12-1.939l-.993-4.187 2.955-3.129a1.63 1.63 0 00-.002-2.234zm-12.025 8.31a.687.687 0 01-.968.874l-5.415-3.05a.813.813 0 00-.799 0l-5.413 3.056a.687.687 0 01-.969-.875c.73-1.675 1.75-4.023 2.204-5.07a.815.815 0 00-.205-.933L11.45 17.84a.687.687 0 01.456-1.201h4.47a.815.815 0 00.748-.49l2.244-5.202a.688.688 0 011.263 0l2.244 5.203c.13.297.424.49.748.489h4.468a.687.687 0 01.458 1.201l-3.766 3.356a.814.814 0 00-.205.934l2.203 5.064z"></path>
  </symbol>
  <symbol xmlns="http://www.w3.org/2000/svg" viewBox="0 0 32 32" id="basic-icn-support">
    <title>BE3365D2-4203-4FF3-A0C0-A0218FC1EB83</title>
    <path d="M32 19.066c0-2.596-1.602-4.91-4-5.773v-1.036C28 5.487 22.63 0 16.004 0c-6.628 0-12 5.488-12 12.257v1.036c-2.4.864-4.004 3.18-4.004 5.78s1.605 4.916 4.004 5.78a1.965 1.965 0 001.825-.26c.53-.385.844-1.01.842-1.674V12.257C6.67 8.85 8.449 5.704 11.337 4a9.162 9.162 0 019.331 0c2.888 1.703 4.666 4.85 4.666 8.256v10.662c.006.573.248 1.117.667 1.498v.773c0 2.008-1.721 2.724-3.333 2.724h-2.37a2.643 2.643 0 00-3-1.269c-1.165.32-1.975 1.398-1.975 2.631 0 1.233.81 2.312 1.976 2.63a2.643 2.643 0 002.999-1.268h2.37c3.532 0 6-2.24 6-5.448v-.65c2.035-1.033 3.326-3.152 3.332-5.474z" fill="#ADB5BD"></path>
  </symbol>
  <symbol xmlns="http://www.w3.org/2000/svg" viewBox="0 0 32 32" id="mcc-icn-shopping">
    <title>70061DE3-4674-42B4-8D6C-FF51C26BA1B4</title>
    <path d="M27.877 11.152a2.885 2.885 0 00-2.897-2.55h-2.765a.43.43 0 01-.43-.43v-1.72A6.254 6.254 0 0015.763 0a6.254 6.254 0 00-6.021 6.452v1.72a.43.43 0 01-.43.43H6.547a2.885 2.885 0 00-2.892 2.55L2.107 25.504c-.07.624-.105 1.252-.107 1.88a4.502 4.502 0 004.547 4.444H24.98a4.502 4.502 0 004.547-4.444c0-.628-.034-1.256-.102-1.88l-1.548-14.352zm-14.694-4.7a2.823 2.823 0 012.58-3.011 2.823 2.823 0 012.581 3.01v1.721a.43.43 0 01-.43.43h-4.301a.43.43 0 01-.43-.43v-1.72z" fill="#ADB5BD"></path>
  </symbol>
  <symbol xmlns="http://www.w3.org/2000/svg" viewBox="0 0 32 32" id="mcc-refund">
    <title>D594BD10-9484-4956-8C1A-C3DCA921AD49</title>
    <path d="M23.678 23.5c.21 0 .4.126.482.32a.514.514 0 01-.113.563l-1.808 1.793a.256.256 0 00-.008.358 4.312 4.312 0 004.044 1.308 4.277 4.277 0 003.191-2.788c.187-.541.781-.83 1.327-.644.546.185.837.774.65 1.315-.883 2.558-3.31 4.276-6.037 4.275a6.418 6.418 0 01-4.638-1.994.263.263 0 00-.375 0l-1.001.992a.526.526 0 01-.57.113.518.518 0 01-.322-.479v-4.614a.52.52 0 01.522-.518zm.033-6.852a6.313 6.313 0 015.962 1.85.258.258 0 00.372 0l1.066-1.075a.516.516 0 01.664-.06c.14.098.225.259.225.43v4.682c0 .29-.233.525-.52.525h-4.64a.52.52 0 01-.479-.324.529.529 0 01.112-.572l1.73-1.745c.097-.1.1-.261.005-.365a4.244 4.244 0 00-4.02-1.3 4.28 4.28 0 00-3.161 2.825 1.039 1.039 0 01-1.323.654 1.053 1.053 0 01-.648-1.334 6.37 6.37 0 014.655-4.191zM27.473 3.5c.41.006.802.176 1.089.473.25.26.402.598.432.955l.006.155v10.68a7.8 7.8 0 00-3.716-.936c-4.263 0-7.736 3.411-7.88 7.673H1.528a1.543 1.543 0 01-1.089-.473 1.567 1.567 0 01-.432-.955L0 20.917V5.083a1.568 1.568 0 01.438-1.11c.251-.26.582-.423.936-.463l.153-.01h25.946zM14.5 8.615c-2.402 0-4.35 1.963-4.35 4.385 0 2.422 1.948 4.385 4.35 4.385a4.33 4.33 0 003.076-1.285A4.402 4.402 0 0018.85 13c0-2.422-1.948-4.385-4.35-4.385z" fill="#ADB5BD"></path>
  </symbol>
  <symbol xmlns="http://www.w3.org/2000/svg" viewBox="0 0 32 32" id="socialmedia-facebook">
    <title>C1792BD5-CCB0-48DD-8B37-BF4FA198DB05</title>
    <path d="M16,0 C24.836556,0 32,7.163444 32,16 C32,24.836556 24.836556,32 16,32 C7.163444,32 0,24.836556 0,16 C0,7.163444 7.163444,0 16,0 Z M16,2 C8.2680135,2 2,8.2680135 2,16 C2,23.7319865 8.2680135,30 16,30 C23.7319865,30 30,23.7319865 30,16 C30,8.2680135 23.7319865,2 16,2 Z" id="Oval"></path>
    <path d="M20.6144,12.4 L17.2,12.4 L17.2,10.88 C17.1692835,10.6509941 17.2419998,10.4201889 17.3984382,10.2501471 C17.5548766,10.0801054 17.7788326,9.98844067 18.0096,10 C18.344,10 20.4,10.008 20.4,10.008 L20.4,6.8 L16.9368,6.8 C13.7952,6.8 13.2,9.1792 13.2,10.684 L13.2,12.4 L10.8,12.4 L10.8,15.6 L13.2,15.6 L13.2,25.2 L17.2,25.2 L17.2,15.6 L20.2808,15.6 L20.6144,12.4 Z" id="Path"></path>
  </symbol>
  <symbol version="1.1" xmlns="http://www.w3.org/2000/svg" viewBox="0 0 32 32" id="socialmedia-instagram">
    <title>6632A443-E7DD-4615-8532-3482F7D2B31C</title>
    <path d="M16,0 C24.836556,0 32,7.163444 32,16 C32,24.836556 24.836556,32 16,32 C7.163444,32 0,24.836556 0,16 C0,7.163444 7.163444,0 16,0 Z M16,2 C8.2680135,2 2,8.2680135 2,16 C2,23.7319865 8.2680135,30 16,30 C23.7319865,30 30,23.7319865 30,16 C30,8.2680135 23.7319865,2 16,2 Z" id="Oval"></path>
    <path d="M20.5361667,10.4438333 C19.97375,10.4438333 19.5161667,10.9 19.5161667,11.4638333 C19.5161667,12.02625 19.9723333,12.4838333 20.5361667,12.4838333 C21.0985833,12.4838333 21.5575833,12.0276667 21.5575833,11.4638333 C21.5575833,10.9 21.1,10.4438333 20.5361667,10.4438333 M16,18.8333333 C14.4345833,18.8333333 13.1666667,17.5654167 13.1666667,16 C13.1666667,14.436 14.4345833,13.1666667 16,13.1666667 C17.5625833,13.1666667 18.83475,14.4345833 18.83475,16 C18.83475,17.5654167 17.5625833,18.8333333 16,18.8333333 M16,11.63525 C13.59025,11.63525 11.63525,13.5888333 11.63525,16 C11.63525,18.4111667 13.59025,20.36475 16,20.36475 C18.40975,20.36475 20.36475,18.4111667 20.36475,16 C20.36475,13.59025 18.40975,11.63525 16,11.63525 M16,7.5 C13.6908333,7.5 13.40325,7.50991667 12.4951667,7.55241667 C9.40683333,7.69408333 7.69266667,9.40683333 7.551,12.4951667 C7.50991667,13.40325 7.5,13.69225 7.5,16 C7.5,18.3091667 7.50991667,18.5981667 7.551,19.5048333 C7.69266667,22.59175 9.40683333,24.3073333 12.4951667,24.449 C13.40325,24.4900833 13.6908333,24.5 16,24.5 C18.3091667,24.5 18.5981667,24.4900833 19.5048333,24.449 C22.5889167,24.3073333 24.3101667,22.5945833 24.449,19.5048333 C24.4900833,18.5981667 24.5,18.3091667 24.5,16 C24.5,13.69225 24.4900833,13.40325 24.449,12.4951667 C24.3101667,9.41108333 22.5945833,7.69266667 19.5048333,7.55241667 C18.5981667,7.50991667 18.3091667,7.5 16,7.5 M16,9.03283333 C18.2680833,9.03283333 18.5386667,9.04133333 19.4354167,9.08241667 C21.7403333,9.18725 22.81275,10.2795 22.9204167,12.566 C22.9600833,13.46275 22.9685833,13.7305 22.9685833,16 C22.9685833,18.2680833 22.9600833,18.5386667 22.9204167,19.434 C22.81275,21.7190833 21.74175,22.81275 19.4354167,22.919 C18.5386667,22.9586667 18.2695,22.9685833 16,22.9685833 C13.7305,22.9685833 13.4613333,22.9600833 12.566,22.919 C10.2568333,22.8113333 9.18725,21.71625 9.081,19.434 C9.04133333,18.5386667 9.03141667,18.2680833 9.03141667,16 C9.03141667,13.7305 9.04133333,13.4613333 9.081,12.566 C9.18583333,10.2780833 10.2596667,9.18583333 12.566,9.081 C13.4613333,9.03991667 13.7305,9.03283333 16,9.03283333" id="Fill-1"></path>
  </symbol>
  <symbol version="1.1" xmlns="http://www.w3.org/2000/svg" viewBox="0 0 32 32" id="socialmedia-linkedin">
    <title>0A904974-FBE5-4719-BE68-16EA57EBB3C8</title>
    <path d="M16,0 C24.836556,0 32,7.163444 32,16 C32,24.836556 24.836556,32 16,32 C7.163444,32 0,24.836556 0,16 C0,7.163444 7.163444,0 16,0 Z M16,2 C8.2680135,2 2,8.2680135 2,16 C2,23.7319865 8.2680135,30 16,30 C23.7319865,30 30,23.7319865 30,16 C30,8.2680135 23.7319865,2 16,2 Z" id="Oval"></path>
    <path d="M12.4,22.8 L8.4,22.8 L8.4,12.4 L12.4,12.4 L12.4,22.8 Z M19.6,15.6 C18.7163444,15.6 18,16.3163444 18,17.2 L18,22.8 L14,22.8 L14,12.4 L18,12.4 L18,13.588 C18.8930398,12.8311135 20.0214738,12.4083042 21.192,12.392 C23.5616,12.392 25.2,14.152 25.2,17.476 L25.2,22.8 L21.2,22.8 L21.2,17.2 C21.2,16.3163444 20.4836556,15.6 19.6,15.6 Z M12.4,8.8 C12.4,9.9045695 11.5045695,10.8 10.4,10.8 C9.2954305,10.8 8.4,9.9045695 8.4,8.8 C8.4,7.6954305 9.2954305,6.8 10.4,6.8 C10.930433,6.8 11.4391408,7.01071368 11.8142136,7.38578644 C12.1892863,7.76085919 12.4,8.26956702 12.4,8.8 Z" id="Shape"></path>
  </symbol>
  <symbol version="1.1" xmlns="http://www.w3.org/2000/svg" viewBox="0 0 32 32" id="socialmedia-twitter">
    <title>70C2371E-FE6D-4C0F-8209-C1BEA8E9C86B</title>
    <path d="M16,0 C24.836556,0 32,7.163444 32,16 C32,24.836556 24.836556,32 16,32 C7.163444,32 0,24.836556 0,16 C0,7.163444 7.163444,0 16,0 Z M16,2 C8.2680135,2 2,8.2680135 2,16 C2,23.7319865 8.2680135,30 16,30 C23.7319865,30 30,23.7319865 30,16 C30,8.2680135 23.7319865,2 16,2 Z" id="Oval"></path>
    <path d="M25.6,12.2357333 L24,11.8357333 L24.8,10.2357333 L22.8288,10.7957333 C21.7828036,9.81990044 20.2566965,9.55953234 18.9463161,10.1333454 C17.6359357,10.7071585 16.7922726,12.0052444 16.8,13.4357333 L16.8,14.2357333 C13.9688,14.8197333 11.4928,13.2757333 9.2,10.6357333 C8.8,12.7690667 9.2,14.3690667 10.4,15.4357333 L8,15.0357333 C8.324,16.6909333 9.0896,17.9957333 11.2,18.2357333 L9.2,19.0357333 C10,20.6357333 11.2528,20.8837333 13.2,21.0357333 C11.6855357,22.1178416 9.86082319,22.6792916 8,22.6357333 C18.204,27.1709333 24,20.5045333 24,14.6357333 L24,13.5733333 L25.6,12.2357333 Z" id="Path"></path>
  </symbol>
  <symbol version="1.1" xmlns="http://www.w3.org/2000/svg" viewBox="0 0 32 32" id="socialmedia-youtube">
    <title>DA8C2E32-F5BB-4C97-AC57-2BC6742D01BA</title>
    <path d="M16,0 C24.836556,0 32,7.163444 32,16 C32,24.836556 24.836556,32 16,32 C7.163444,32 0,24.836556 0,16 C0,7.163444 7.163444,0 16,0 Z M16,2 C8.2680135,2 2,8.2680135 2,16 C2,23.7319865 8.2680135,30 16,30 C23.7319865,30 30,23.7319865 30,16 C30,8.2680135 23.7319865,2 16,2 Z" id="Oval"></path>
    <path d="M13.4496813,18.8878776 L13.4496813,13.1108224 L19.5408699,15.9941501 L13.4496813,18.8878776 Z M21.3919385,9.63210964 C18.8397075,9.45531407 13.1539183,9.45661404 10.6055118,9.63210964 C7.84548181,9.82450481 7.52167229,11.5248622 7.5,15.99935 C7.52167229,20.466038 7.84420697,22.1741952 10.6067867,22.3678904 C13.1551931,22.543386 18.8409824,22.5446859 21.3932133,22.3678904 C24.1532433,22.1741952 24.4783277,20.4738378 24.5,15.99935 C24.4770529,11.532662 24.1545182,9.82450481 21.3919385,9.63210964 L21.3919385,9.63210964 Z" id="Fill-1"></path>
  </symbol>
</svg>
