<?xml version="1.0" encoding="UTF-8"?>
<svg width="120px" height="120px" viewBox="0 0 120 120" version="1.1" xmlns="http://www.w3.org/2000/svg" xmlns:xlink="http://www.w3.org/1999/xlink">
    <title>31881EDB-4A03-4278-8852-0B436D07D4ED</title>
    <g id="02---B2B" stroke="none" stroke-width="1" fill="none" fill-rule="evenodd">
        <g id="006.0.0-Link-B2B_AlicilarIcin" transform="translate(-935.000000, -2307.000000)">
            <g id="Group-Copy" transform="translate(135.000000, 2188.000000)">
                <g id="Group-16" transform="translate(0.000000, 118.000000)">
                    <g id="icons/big/currency" transform="translate(800.000000, 1.000000)">
                        <path d="M80.010431,0 C102.09606,0 120,17.9031372 120,39.9877761 C120,62.0724151 102.09606,79.9755522 80.010431,79.9755522 C80.0004072,79.9755522 79.9903844,79.9755486 79.9803624,79.9755412 C79.9997917,95.5550017 70.9280567,109.845106 56.599588,116.386785 C41.4145094,123.319551 23.5204017,120.091044 11.7158631,108.288733 C-0.0886754149,96.4864223 -3.31990235,78.5935816 3.61098845,63.4081863 C10.1508988,49.0794187 24.4403381,40.0060339 40.0206605,40.0227486 L40.020862,39.9877761 C40.020862,17.9031372 57.9248019,0 80.010431,0 Z M105.084004,82.334831 L105.114476,82.3352432 C105.117818,82.3353037 105.12116,82.3353709 105.124502,82.3354447 L105.084004,82.334831 C105.852764,82.334831 106.540458,82.6818962 106.998936,83.2278809 L116.857831,93.0230595 C117.837055,93.9958939 117.842199,95.5783142 116.869321,96.5574943 C116.00454,97.4278765 114.65809,97.5286502 113.681815,96.8570462 L113.334728,96.5689841 L107.567916,90.835414 C107.334098,97.7604682 104.491626,104.35693 99.5891219,109.288717 C94.448677,114.459865 87.464439,117.37726 80.1728773,117.399112 C78.7925317,117.403236 77.6701885,116.287646 77.6660423,114.907363 C77.6619189,113.527079 78.7775582,112.404786 80.1579038,112.400651 C86.123727,112.382782 91.8381035,109.995822 96.0439221,105.764882 C99.969336,101.816022 102.280552,96.5627399 102.556768,91.0235202 L102.559,90.897 L96.8736552,96.6183624 C96.0084395,97.4883121 94.661939,97.5884124 93.6859999,96.9163202 L93.3390566,96.6280846 C92.4690679,95.7629077 92.3689632,94.4164676 93.0410854,93.4405722 L93.329334,93.0936445 L103.296734,83.0717081 C103.768989,82.5968697 104.38465,82.3513749 105.005184,82.3356392 C105.031228,82.3352414 105.057568,82.334831 105.084004,82.334831 Z M8.15845536,65.4835468 C2.09392591,78.7707678 4.92124948,94.4270034 15.2502207,104.754025 C25.5791919,115.081047 41.2365362,117.905991 54.52348,111.839821 C67.1587256,106.071185 75.1222626,93.4164505 74.9802272,79.660503 C56.918148,77.3949077 42.6044721,63.0833302 40.3349737,45.0239808 C26.5792525,44.8833101 13.9254327,52.8482547 8.15845536,65.4835468 Z M42.7872797,64.9966757 C44.1584966,65.1552099 45.1415644,66.3952683 44.9830231,67.7664238 C44.8244818,69.1375792 43.5843677,70.1206029 42.2131508,69.9620687 C38.8668365,69.5751823 35.5271249,70.7382942 33.14516,73.1201524 C32.5763858,73.6889011 32.0771048,74.3122557 31.651827,74.9772672 L42.52021,74.9770802 C43.9005618,74.9770802 45.0195581,76.0960263 45.0195581,77.4763162 C45.0195581,78.7032406 44.1354129,79.7236711 42.969471,79.9352862 L42.52021,79.9755522 L29.9544247,79.9750754 C29.9173691,80.4057233 29.9055141,80.8400799 29.919598,81.2760247 L29.9869347,82.1877367 L29.9869347,82.7618398 C29.9012043,83.5032847 29.8915791,84.2444055 29.9544552,84.9748549 L37.5215139,84.9740243 C38.9018657,84.9740243 40.020862,86.0929703 40.020862,87.4732603 C40.020862,88.7001847 39.1367168,89.7206151 37.9707749,89.9322302 L37.5215139,89.9724963 L31.6523246,89.9730873 C32.0774942,90.637807 32.5766076,91.2608972 33.14516,91.8294241 C35.5271249,94.2112823 38.8668365,95.3743942 42.2131508,94.9875078 C43.5843677,94.8289736 44.8244818,95.8119973 44.9830231,97.1831528 C45.1415644,98.5543082 44.1584966,99.7943666 42.7872797,99.9529008 C37.9247377,100.515087 33.0717903,98.8249646 29.610548,95.3638776 C28.0530253,93.8064246 26.8541223,91.9671772 26.0577003,89.9720655 L22.5254255,89.9724963 C21.1450737,89.9724963 20.0260775,88.8535502 20.0260775,87.4732603 C20.0260775,86.2463359 20.9102226,85.2259054 22.0761645,85.0142903 L22.5254255,84.9740243 L24.9430182,84.9749145 C24.9088086,84.3961245 24.9059043,83.8133535 24.9351454,83.2290128 L24.9947814,82.4747883 L24.9351454,81.7205638 C24.9059206,81.1365471 24.9088054,80.5540984 24.9429613,79.9756251 L22.5254255,79.9755522 C21.1450737,79.9755522 20.0260775,78.8566062 20.0260775,77.4763162 C20.0260775,76.2493919 20.9102226,75.2289614 22.0761645,75.0173463 L22.5254255,74.9770802 L26.0577443,74.9774009 C26.7277449,73.2990226 27.6825799,71.7309506 28.8961365,70.3481575 L29.610548,69.585699 C33.0717903,66.1246119 37.9247377,64.4344895 42.7872797,64.9966757 Z M80.010431,4.99847202 C60.6855055,4.99847202 45.0195581,20.6637171 45.0195581,39.9877761 C45.0195581,40.6722262 45.0392118,41.3520861 45.0779855,42.0268223 C45.1388858,42.2709942 45.1620739,42.5292695 45.1432278,42.7942613 L45.1361226,42.8644657 C46.5220693,59.89485 60.1042001,73.4757575 77.1356189,74.8606841 L77.2084599,74.8534416 L77.2084599,74.8534416 C77.4731032,74.8345837 77.7310539,74.8576457 77.9758045,74.9169861 C78.6487445,74.957505 79.3273016,74.9770802 80.010431,74.9770802 C99.3353565,74.9770802 115.001304,59.3118352 115.001304,39.9877761 C115.001304,20.6637171 99.3353565,4.99847202 80.010431,4.99847202 Z M82.509779,14.995416 C83.7367584,14.995416 84.7572347,15.8795216 84.9688593,17.0454112 L85.0091271,17.4946521 L85.009,19.993 L87.4884804,19.9936934 C88.8688322,19.9936934 89.9878285,21.1126394 89.9878285,22.4929294 C89.9878285,23.7198537 89.1036833,24.7402842 87.9377414,24.9518993 L87.4884804,24.9921654 L78.9716106,24.9920925 C77.1980918,24.9785491 75.6274841,26.1345283 75.1133857,27.8317593 C74.6564105,29.3404049 75.1312151,30.9563803 76.2944843,31.9869635 L76.7625068,32.344639 L85.9451027,38.462846 C89.2750549,40.647069 90.7729582,44.7603739 89.6272928,48.574294 C88.5580085,52.1339414 85.4233408,54.6423382 81.7784632,54.9511373 L80.9901754,54.9832227 L80.01,54.983 L80.010431,57.4824282 C80.010431,58.8627181 78.8914347,59.9816642 77.5110829,59.9816642 C76.2841035,59.9816642 75.2636273,59.0975586 75.0520027,57.931669 L75.0117349,57.4824282 L75.011,54.983 L72.492392,54.9832227 C71.1120402,54.9832227 69.9930439,53.8642766 69.9930439,52.4839867 C69.9930439,51.2570623 70.8771891,50.2366318 72.043131,50.0250167 L72.492392,49.9847507 L80.9977733,49.9847622 C82.7677579,49.9901427 84.3307225,48.8314141 84.8399073,47.1363377 C85.2925159,45.6296039 84.8167931,44.0177363 83.6555143,42.9893784 L83.1883734,42.6324413 L74.0058729,36.5142967 C70.6692778,34.3259342 69.1726078,30.2015365 70.3293261,26.3827773 C71.4089081,22.818674 74.559089,20.3154821 78.2028996,20.0222778 L78.990697,19.9936934 L80.01,19.993 L80.010431,17.4946521 C80.010431,16.1143621 81.1294272,14.995416 82.509779,14.995416 Z M39.8584156,2.5642159 C41.2387612,2.56009272 42.3611044,3.67568198 42.3652507,5.05596572 C42.3693741,6.43624946 41.2537348,7.55854231 39.8733891,7.56267695 C33.907566,7.58054677 28.1931894,9.96750632 23.9873709,14.198446 C20.0619569,18.1473063 17.7507413,23.4005884 17.4745252,28.9398082 L17.471,29.058 L23.1576378,23.344966 C24.1310054,22.3662726 25.7134991,22.3619198 26.6922363,23.3352438 C27.562225,24.2004207 27.6623298,25.5468608 26.9902075,26.5227561 L26.7019589,26.8696839 L16.7345588,36.8916203 C16.252789,37.3760262 15.6217745,37.6217533 14.9885949,37.6283605 C14.9748701,37.6283854 14.9610927,37.6284973 14.9472892,37.6284973 L14.9138088,37.6280289 C14.8954276,37.6276741 14.8770494,37.6271177 14.8586779,37.6263597 L14.9472892,37.6284973 C14.8762194,37.6284973 14.8058424,37.6255311 14.7362753,37.6197158 C14.7345547,37.6181591 14.7325484,37.6179758 14.7305423,37.61779 C14.0519806,37.5608651 13.4511178,37.2316366 13.0363804,36.7402268 L3.17346237,26.9402689 C2.19423844,25.9674345 2.18909405,24.3850141 3.16197207,23.4058341 C4.02675253,22.5354518 5.37320274,22.4346782 6.34947787,23.1062822 L6.69656532,23.3943443 L12.4633771,29.1279143 C12.6971954,22.2028602 15.5396668,15.6063984 20.4421711,10.6746118 C25.582616,5.50346326 32.5668539,2.58606825 39.8584156,2.5642159 Z" id="Combined-Shape" fill="#FA7355" fill-rule="nonzero"></path>
                        <rect id="Rectangle" x="0" y="0" width="120" height="120"></rect>
                    </g>
                </g>
            </g>
        </g>
    </g>
</svg>