<?xml version="1.0" encoding="UTF-8"?>
<svg width="54px" height="54px" viewBox="0 0 54 54" version="1.1" xmlns="http://www.w3.org/2000/svg" xmlns:xlink="http://www.w3.org/1999/xlink">
    <title>A8CEF360-067C-4113-80D0-691D80BD0E55</title>
    <g id="05---Landings" stroke="none" stroke-width="1" fill="none" fill-rule="evenodd">
        <g id="004.0.0-ShopList-LP" transform="translate(-180.000000, -1499.000000)" fill="#1E64FF" fill-rule="nonzero">
            <g id="Kategoriler" transform="translate(0.000000, 1375.000000)">
                <g id="Group-3" transform="translate(0.000000, 67.000000)">
                    <g id="Group-15" transform="translate(135.000000, 24.000000)">
                        <g id="MerchantLogos/Mini/Puma" transform="translate(12.000000, 0.000000)">
                            <g id="Icons/Basic/Dashboard" transform="translate(33.750000, 33.750000)">
                                <path d="M49.9596774,22.8809677 C51.206772,22.8809677 52.2177419,23.8919377 52.2177419,25.1390323 L52.2177419,25.1390323 L52.2177419,49.946129 C52.2177419,51.1932236 51.206772,52.2041935 49.9596774,52.2041935 L49.9596774,52.2041935 L31.8951613,52.2358065 C30.6480667,52.2358065 29.6370968,51.2248365 29.6370968,49.9777419 L29.6370968,49.9777419 L29.6370968,25.1390323 C29.6370968,23.8919377 30.6480667,22.8809677 31.8951613,22.8809677 L31.8951613,22.8809677 Z M20.6048387,36.4270968 C21.8519333,36.4270968 22.8629032,37.4380667 22.8629032,38.6851613 L22.8629032,38.6851613 L22.8629032,49.9754839 C22.8629032,50.5743109 22.6247889,51.1485648 22.2012903,51.5719355 C21.7775502,51.9946061 21.2033418,52.2317615 20.6048387,52.231291 L20.6048387,52.231291 L2.54032258,52.1996774 C1.29322798,52.1996774 0.282258065,51.1887075 0.282258065,49.9416129 L0.282258065,49.9416129 L0.282258065,38.6851613 C0.282258065,37.4380667 1.29322798,36.4270968 2.54032258,36.4270968 L2.54032258,36.4270968 Z M2.54032258,0.266451613 L20.6048387,0.300322581 C21.8519333,0.300322581 22.8629032,1.3112925 22.8629032,2.5583871 L22.8629032,2.5583871 L22.8629032,27.3970968 C22.8629032,28.6441914 21.8519333,29.6551613 20.6048387,29.6551613 L20.6048387,29.6551613 L2.54032258,29.6551613 C1.29322798,29.6551613 0.282258065,28.6441914 0.282258065,27.3970968 L0.282258065,27.3970968 L0.282258065,2.52451613 C0.282258065,1.92568913 0.520372379,1.3514352 0.943870968,0.928064516 C1.36724165,0.504565928 1.94149558,0.266451613 2.54032258,0.266451613 L2.54032258,0.266451613 Z M49.9596774,0.266451613 C51.206772,0.266451613 52.2177419,1.27742153 52.2177419,2.52451613 L52.2177419,2.52451613 L52.2177419,13.8464516 C52.2177419,15.0935462 51.206772,16.1045161 49.9596774,16.1045161 L49.9596774,16.1045161 L31.8951613,16.1045161 C30.6480667,16.1045161 29.6370968,15.0935462 29.6370968,13.8464516 L29.6370968,13.8464516 L29.6370968,2.55612903 C29.6370968,1.30903444 30.6480667,0.298064516 31.8951613,0.298064516 L31.8951613,0.298064516 Z" id="Dashboard"></path>
                            </g>
                        </g>
                    </g>
                </g>
            </g>
        </g>
    </g>
</svg>