<?xml version="1.0" encoding="UTF-8"?>
<svg width="72px" height="72px" viewBox="0 0 72 72" version="1.1" xmlns="http://www.w3.org/2000/svg" xmlns:xlink="http://www.w3.org/1999/xlink">
    <title>09A39225-660A-4E8D-B792-B52547EA7D74</title>
    <g id="02---B2B" stroke="none" stroke-width="1" fill="none" fill-rule="evenodd" stroke-linecap="round" stroke-linejoin="round">
        <g id="003.1.0-Sanal-Pos" transform="translate(-935.000000, -3276.000000)" stroke="#7DE6E1" stroke-width="2.83333333">
            <g id="Group-30" transform="translate(135.000000, 2840.000000)">
                <g id="Group-29-Copy" transform="translate(800.000000, 436.000000)">
                    <g id="crypto-currency-bitcoin-wallet-open" transform="translate(4.000000, 3.000000)">
                        <path d="M59.9166667,40.14 L59.9166667,41.5 C59.9026638,46.1886079 56.1052746,49.9859971 51.4166667,50 L45.75,50" id="Path"></path>
                        <path d="M2.68333333,11.6168333 L37.5163333,21.0178333 C42.2418436,22.4107469 45.5538325,26.6607147 45.75,31.5833333 L45.75,58.8145 C45.8744729,60.912509 44.9669404,62.9391766 43.3189296,64.2434756 C41.6709188,65.5477745 39.4899687,65.9654505 37.4766667,65.3623333 L8.70133333,57.9333333 C3.95614957,56.628405 0.603770954,52.3989506 0.416666667,47.4811667 L0.416666667,17.4166667 C0.430669571,12.7280587 4.22805874,8.93066957 8.91666667,8.91666667 L24.551,8.91666667" id="Path"></path>
                        <circle id="Oval" cx="33.0113333" cy="45.75" r="5.66666667"></circle>
                        <path d="M29.6311667,13.229 C32.3378248,4.76312597 40.7046307,-0.561813383 49.5201832,0.570906954 C58.3357357,1.70362729 65.0845678,8.9707921 65.5630597,17.8459297 C66.0415516,26.7210672 60.1131684,34.6717082 51.4705,36.7456667" id="Path"></path>
                    </g>
                </g>
            </g>
        </g>
    </g>
</svg>