<?xml version="1.0" encoding="UTF-8"?>
<svg width="120px" height="120px" viewBox="0 0 120 120" version="1.1" xmlns="http://www.w3.org/2000/svg" xmlns:xlink="http://www.w3.org/1999/xlink">
    <title>18223E3E-7882-4C36-8A23-23808B52FBFC</title>
    <g id="02---B2B" stroke="none" stroke-width="1" fill="none" fill-rule="evenodd">
        <g id="006.0.0-Link-B2B" transform="translate(-935.000000, -2307.000000)">
            <g id="Group" transform="translate(135.000000, 2188.000000)">
                <g id="Group-16" transform="translate(0.000000, 119.000000)">
                    <g id="icons/big/flaud-copy" transform="translate(800.000000, 0.000000)">
                        <path d="M88.4583299,80.165514 L88.8425211,80.3666597 L105.129488,90.7442964 C106.647993,91.7140121 107.527794,93.4261045 107.432571,95.2260954 C107.347929,96.8260873 106.50453,98.2756344 105.190105,99.1404231 L104.675679,99.43646 L102.502,100.527 L105.920379,101.657159 C112.806917,104.101701 118.044057,109.789488 119.915959,116.857038 C120.269663,118.192482 119.474471,119.561984 118.139848,119.915906 C116.805224,120.269828 115.436564,119.474147 115.08286,118.138702 C113.724362,113.00956 110.076247,108.819171 105.275766,106.770824 L104.300642,106.390072 L96.173,103.705 L91.7234139,105.939085 L94.9976747,109.220364 C96.7994189,111.023761 96.9380146,113.860922 95.3537758,115.88064 L94.9217891,116.367468 L91.6918223,119.339265 C90.6754732,120.274378 89.0939671,120.208016 88.1594294,119.191041 C87.3287292,118.287064 87.2888312,116.936268 88.0040349,115.990492 L88.307562,115.656474 L91.4616433,112.757503 L88.1859713,109.474811 C87.0520681,108.338961 86.5318072,106.727614 86.7872278,105.142635 C87.0107207,103.75578 87.8043358,102.536546 88.9611493,101.769086 L89.4785599,101.468662 L102.439613,94.9616335 L88.7847046,86.258977 L88.6062089,86.7264318 C86.3791704,92.274279 83.5237355,96.8151689 79.4927541,101.493001 L78.2476461,102.901603 L76.9835952,104.240078 L75.1848981,106.071736 L70.6614281,110.570526 L69.3038873,111.899006 C69.2468001,111.960944 69.1862143,112.020349 69.1222076,112.076911 L61.7677492,119.266707 C60.7914485,120.243608 59.2085523,120.243608 58.2322516,119.266707 L50.8661566,112.066563 C50.8035786,112.010562 50.7443179,111.951827 50.6884487,111.890652 L49.3385727,110.570526 L44.8151028,106.071736 L42.5272815,103.73117 L41.7523547,102.901603 C37.0536362,97.7132772 33.8435343,92.8290638 31.3937919,86.7264318 L31.2102962,86.258977 L17.566574,94.9847407 L24.9305583,98.6810465 C25.0782374,98.7385392 25.2202311,98.8099126 25.3544867,98.8941324 L30.5240428,101.489982 C31.9572827,102.211626 32.9573525,103.577669 33.2127731,105.162648 C33.436266,106.549503 33.0658779,107.956548 32.2104137,109.047319 L31.8144049,109.494447 L28.5403237,112.77001 L31.6862358,115.650786 C32.5924478,116.478951 32.7497452,117.82114 32.1195628,118.82564 L31.846256,119.184834 C31.018601,120.091604 29.6772377,120.248998 28.6733555,119.618428 L28.3143816,119.344953 L25.0023262,116.314654 C23.2005819,114.511257 23.0619862,111.674096 24.5856888,109.712509 L25.0012452,109.241458 L28.2765869,105.959097 L23.812,103.717 L15.7727929,106.373516 C10.4334391,108.259887 6.3702071,112.663886 4.91681073,118.139946 C4.56241988,119.475209 3.19335103,120.270185 1.85890986,119.915576 C0.524468696,119.560967 -0.270019061,118.191056 0.0843717895,116.855793 C1.86305413,110.154132 6.66757944,104.695417 13.074207,102.053353 L14.1565684,101.639359 L17.483,100.54 L15.3305083,99.4595672 C13.7181763,98.6556826 12.6626523,97.0460984 12.5674294,95.2461075 C12.4827869,93.6461156 13.1685337,92.1155743 14.3886674,91.1140133 L14.870806,90.7641214 L31.1556386,80.3678339 C32.5277743,79.4918582 34.3572683,80.1405957 34.8719669,81.6856417 C37.2390594,88.7912895 40.351118,93.9037806 45.4573614,99.5420952 L46.4076348,100.55325 L48.5097087,102.695882 L52.034,106.173 L55.7100445,100.038186 C56.6130686,98.5288472 58.241946,97.6049631 60.0000004,97.6049631 C61.538298,97.6049631 62.9776945,98.3123119 63.917971,99.4994659 L64.2892214,100.036959 L67.975,106.189 L72.2365449,101.942538 L74.2051388,99.9081516 L74.5426394,99.5420952 C79.6488829,93.9037806 82.7609415,88.7912895 85.128034,81.6856417 C85.5956827,80.2818321 87.1488855,79.6177805 88.4583299,80.165514 Z M59.9992655,102.609216 L55.698,109.788 L57.7024726,111.76579 L60.0000004,114.005758 L64.303,109.792 L59.9992655,102.609216 Z M84.6220859,65.641116 L85.0719501,65.6757457 C86.4337503,65.9035392 87.353158,67.1928391 87.1255046,68.5554774 C85.0051533,81.2470138 70.1803847,92.482741 60.0000004,92.482741 C49.8196162,92.482741 34.9948476,81.2470138 32.8744963,68.5554774 C32.6468428,67.1928391 33.5662505,65.9035392 34.9280508,65.6757457 C36.2898511,65.4479521 37.5783579,66.3679256 37.8060113,67.730564 C39.5033346,77.8900313 52.1562625,87.4797153 60.0000004,87.4797153 C67.8437384,87.4797153 80.4966663,77.8900313 82.1939895,67.730564 C82.3963481,66.5193299 83.4369119,65.6578557 84.6220859,65.641116 Z M64.999949,69.9691251 C66.3806467,69.9691251 67.4999233,71.0890906 67.4999233,72.470638 C67.4999233,73.6986801 66.6155566,74.7200403 65.4493226,74.9318482 L64.999949,74.9721509 L55.0000518,74.9721509 C53.6193541,74.9721509 52.5000775,73.8521854 52.5000775,72.470638 C52.5000775,71.2425959 53.3844442,70.2212357 54.5506782,70.0094278 L55.0000518,69.9691251 L64.999949,69.9691251 Z M76.9208331,0.624482046 C79.4188563,1.55153279 81.4318839,3.4324446 82.5533875,5.89567699 L82.893645,6.73781223 L89.355363,27.2052481 C89.411033,27.3381479 89.4557471,27.4773524 89.4882475,27.6218956 L91.8816961,35.2073857 C97.7691812,34.3751732 103.632171,33.3112895 109.457028,32.0157345 C110.80483,31.7159586 112.140307,32.5662242 112.439899,33.914856 C112.73949,35.2634877 111.889747,36.5997862 110.541945,36.8995621 C104.039069,38.3459211 97.4896856,39.5097343 90.9119656,40.3910019 C90.9072601,40.3920991 90.9025111,40.3936155 90.8977545,40.3951191 C90.6052685,40.4875728 90.3084452,40.5234299 90.0190871,40.50883 C89.571358,40.5670947 89.1227114,40.6241095 88.6739428,40.6798116 C90.5923729,45.1658601 90.5755517,50.321641 88.4901172,54.8698886 C85.8286197,60.6745059 80.2199768,64.5689146 73.8543503,65.0323573 C68.9033074,65.3928127 64.1051186,63.6332781 60.582929,60.3124884 L60.0000004,59.7279314 L59.4170718,60.3124884 C56.1464672,63.3960789 51.7756388,65.133485 47.2038394,65.0773525 L46.1456506,65.0323573 C39.780024,64.5689146 34.1713811,60.6745059 31.5098837,54.8698886 C29.4244491,50.321641 29.4076279,45.1658601 31.3264557,40.6788816 C30.7535179,40.6087467 30.1811764,40.5355452 29.6090456,40.460207 C29.5676418,40.4554968 29.5256395,40.4502253 29.4836218,40.4438522 C22.7725083,39.5562091 16.0910883,38.3748702 9.45805568,36.8995621 C8.1102534,36.5997862 7.26051071,35.2634877 7.56010228,33.914856 C7.85969384,32.5662242 9.19517043,31.7159586 10.5429727,32.0157345 C16.3642037,33.310483 22.2235203,34.3738486 28.1073101,35.2058313 L30.5255063,27.5639474 C30.5499945,27.4659552 30.5801314,27.3705275 30.6155131,27.2779746 L37.1453364,6.65151554 C38.1380552,3.86449519 40.3125653,1.65998831 43.0846439,0.63027708 C45.5795146,-0.296463024 48.3281645,-0.186089927 50.7291846,0.913950772 L51.5158245,1.31722028 L57.515026,4.7488746 C58.8597192,5.51745806 60.4720536,5.61353099 61.8842066,5.03677955 L62.475795,4.74840611 L68.4853745,1.31653536 C71.056209,-0.15214623 74.1452517,-0.405574335 76.9208331,0.624482046 Z M83.3870617,41.2747978 L82.2971246,41.3822336 C67.1034956,42.8442431 51.8016292,42.8084327 36.6133025,41.2748025 C34.5808294,44.7659386 34.3469632,49.0598436 36.0543643,52.7836157 C37.9554339,56.9297709 41.9616074,59.7114914 46.5084835,60.0425219 C51.0553596,60.3735524 55.421752,58.2013877 57.9025947,54.374253 C58.8881112,52.853921 61.1118897,52.853921 62.0974062,54.374253 C64.5782489,58.2013877 68.9446412,60.3735524 73.4915173,60.0425219 C78.0383934,59.7114914 82.0445669,56.9297709 83.9456365,52.7836157 C85.6530377,49.0598436 85.4191714,44.7659386 83.3870617,41.2747978 Z M34.7093159,30.9176035 L33.1442969,35.8608772 C50.9815936,37.9786047 69.0073291,37.9790399 86.8447033,35.862183 L85.283689,30.9184523 C68.4870694,32.9560485 51.5058842,32.9557656 34.7093159,30.9176035 Z M71.5297448,5.38401511 L70.9640677,5.66150737 L64.9549495,9.09311454 C62.137497,10.7034799 58.732569,10.837677 55.8166363,9.49538133 L55.0343146,9.0926932 L49.0383452,5.66288307 C47.7534718,4.93102635 46.2107787,4.80568863 44.8247395,5.32054424 C43.6367058,5.76184905 42.668187,6.63471145 42.1210663,7.69931066 L41.8835572,8.24647806 L36.2458136,26.0621921 C52.0274384,27.9037014 67.9695434,27.903818 83.7511885,26.062542 L78.1543526,8.32958285 C77.6583571,6.9341353 76.5699464,5.83030398 75.1821558,5.31527579 C73.9926209,4.87382305 72.687937,4.90385441 71.5297448,5.38401511 Z" id="Combined-Shape" fill="#FA7355" fill-rule="nonzero"></path>
                        <rect id="Rectangle" x="0" y="0" width="120" height="120"></rect>
                    </g>
                </g>
            </g>
        </g>
    </g>
</svg>