<?xml version="1.0" encoding="UTF-8"?>
<svg width="56px" height="56px" viewBox="0 0 56 56" version="1.1" xmlns="http://www.w3.org/2000/svg" xmlns:xlink="http://www.w3.org/1999/xlink">
    <title>A2A47025-1E6E-4A49-B833-64EB520296F4</title>
    <g id="02---B2B" stroke="none" stroke-width="1" fill="none" fill-rule="evenodd">
        <g id="003.1.0-Sanal-Pos" transform="translate(-248.000000, -10925.000000)">
            <g id="Group-3-Copy" transform="translate(-436.000000, 10461.000000)">
                <g id="Group-4" transform="translate(435.000000, 276.000000)">
                    <rect id="click-area" fill-opacity="0" fill="#D8D8D8" x="0" y="0" width="335" height="433"></rect>
                    <g id="Icons/Basic/Arrow-Back" transform="translate(249.000000, 188.000000)" fill="#495057" fill-rule="nonzero">
                        <g id="navigation-left-2">
                            <path d="M0,27.9337759 C-0.001902914,26.3898726 0.659894428,24.9199403 1.81627304,23.8996221 L27.7842616,1.00830725 C29.573964,-0.496460776 32.2352223,-0.294402449 33.7782037,1.46340246 C35.3211851,3.22120737 35.1815015,5.89179313 33.4635948,7.47835271 L10.7555761,27.4951287 C10.6294741,27.6058852 10.5571622,27.76575 10.5571622,27.9337759 C10.5571622,28.1018018 10.6294741,28.2616666 10.7555761,28.372423 L33.4635948,48.3891991 C34.6589254,49.3942239 35.2172259,50.969142 34.9224569,52.5045248 C34.627688,54.0399077 33.5260955,55.2948707 32.0439506,55.7837948 C30.5618056,56.2727189 28.9316403,55.9188974 27.7842616,54.8592445 L1.82558724,31.9749294 C0.666409413,30.9528641 0.00147031574,29.4809394 0,27.9337759 Z" id="LeftArrow"></path>
                        </g>
                    </g>
                </g>
            </g>
        </g>
    </g>
</svg>