<?xml version="1.0" encoding="UTF-8"?>
<svg width="56px" height="56px" viewBox="0 0 56 56" version="1.1" xmlns="http://www.w3.org/2000/svg" xmlns:xlink="http://www.w3.org/1999/xlink">
    <title>D050D71C-DA44-4027-A9E6-D3028CC706FD</title>
    <g id="02---B2B" stroke="none" stroke-width="1" fill="none" fill-rule="evenodd">
        <g id="003.1.0-Sanal-Pos" transform="translate(-1134.000000, -10925.000000)" fill="#495057" fill-rule="nonzero">
            <g id="Group-3-Copy" transform="translate(-436.000000, 10461.000000)">
                <g id="Group-3" transform="translate(1540.000000, 276.000000)">
                    <g id="Icons/Basic/Arrow-Forward" transform="translate(30.000000, 188.000000)">
                        <g id="navigation-right" transform="translate(38.500000, 28.000000) rotate(-270.000000) translate(-38.500000, -28.000000) translate(10.500000, 10.500000)">
                            <path d="M10.5,17.4337759 C10.4980971,15.8898726 11.1598944,14.4199403 12.316273,13.3996221 L38.2842616,-9.49169275 C40.073964,-10.9964608 42.7352223,-10.7944024 44.2782037,-9.03659754 C45.8211851,-7.27879263 45.6815015,-4.60820687 43.9635948,-3.02164729 L21.2555761,16.9951287 C21.1294741,17.1058852 21.0571622,17.26575 21.0571622,17.4337759 C21.0571622,17.6018018 21.1294741,17.7616666 21.2555761,17.872423 L43.9635948,37.8891991 C45.1589254,38.8942239 45.7172259,40.469142 45.4224569,42.0045248 C45.127688,43.5399077 44.0260955,44.7948707 42.5439506,45.2837948 C41.0618056,45.7727189 39.4316403,45.4188974 38.2842616,44.3592445 L12.3255872,21.4749294 C11.1664094,20.4528641 10.5014703,18.9809394 10.5,17.4337759 Z" id="right" transform="translate(28.000000, 17.500000) rotate(-270.000000) translate(-28.000000, -17.500000) "></path>
                        </g>
                    </g>
                </g>
            </g>
        </g>
    </g>
</svg>