<?xml version="1.0" encoding="UTF-8"?>
<svg width="16px" height="16px" viewBox="0 0 16 16" version="1.1" xmlns="http://www.w3.org/2000/svg" xmlns:xlink="http://www.w3.org/1999/xlink">
    <title>E2DE7CAC-A57E-4DB4-856D-4E146274BD0B</title>
    <g id="05---Landings" stroke="none" stroke-width="1" fill="none" fill-rule="evenodd">
        <g id="004.0.0-14-Subat-LP_AllExpanded" transform="translate(-1265.000000, -5322.000000)" fill="#1E64FF" fill-rule="nonzero">
            <g id="Group-6" transform="translate(135.000000, 4564.000000)">
                <g id="Group-4-Copy-4" transform="translate(600.000000, 177.000000)">
                    <g id="Group-5" transform="translate(422.000000, 575.000000)">
                        <g id="Icons/Basic/Arrow-Forward" transform="translate(108.000000, 6.000000)">
                            <g id="navigation-right" transform="translate(11.000000, 8.000000) rotate(-270.000000) translate(-11.000000, -8.000000) translate(3.000000, 3.000000)">
                                <path d="M3,4.98107883 C2.99945631,4.5399636 3.18854127,4.11998296 3.51893515,3.82846344 L10.9383605,-2.71191221 C11.449704,-3.14184594 12.2100635,-3.08411499 12.6509154,-2.58188501 C13.0917672,-2.07965504 13.0518576,-1.31663053 12.5610271,-0.863327799 L6.07302175,4.85575107 C6.0369926,4.88739577 6.01633206,4.93307143 6.01633206,4.98107883 C6.01633206,5.02908622 6.0369926,5.07476188 6.07302175,5.10640658 L12.5610271,10.8254855 C12.9025501,11.1126354 13.0620645,11.562612 12.9778448,12.0012928 C12.8936251,12.4399736 12.5788844,12.7985345 12.1554144,12.9382271 C11.7319445,13.0779197 11.266183,12.9768278 10.9383605,12.6740699 L3.52159635,6.13569412 C3.19040269,5.84367546 3.00042009,5.42312553 3,4.98107883 Z" id="right" transform="translate(8.000000, 5.000000) rotate(-270.000000) translate(-8.000000, -5.000000) "></path>
                            </g>
                        </g>
                    </g>
                </g>
            </g>
        </g>
    </g>
</svg>