<?xml version="1.0" encoding="UTF-8"?>
<svg width="24px" height="24px" viewBox="0 0 24 24" version="1.1" xmlns="http://www.w3.org/2000/svg" xmlns:xlink="http://www.w3.org/1999/xlink">
    <title>C5178E3B-B20D-4D85-A976-8CCCB641483C</title>
    <g id="05---Landings" stroke="none" stroke-width="1" fill="none" fill-rule="evenodd">
        <g id="004.0.0-Kampanyalar" transform="translate(-975.000000, -1269.000000)" fill="#1E64FF" fill-rule="nonzero">
            <g id="Group-4-Copy-2" transform="translate(935.000000, 784.000000)">
                <g id="Buttons/2--Icon+Text/2--Secondary/1--Level-1/1--Normal" transform="translate(24.000000, 469.000000)">
                    <g id="Icons/Basic/Mail" transform="translate(16.000000, 16.000000)">
                        <path d="M0.138196601,10.6013932 C0.222892608,10.5590452 0.324245588,10.5681842 0.4,10.625 L0.4,10.625 L6.921,15.518 C6.98582966,15.5667827 7.02308117,15.6438933 7.021,15.725 C7.01878913,15.8057681 6.97737083,15.8803957 6.91,15.925 L6.91,15.925 L3.587,18.141 C3.24755729,18.3727262 3.15784353,18.834481 3.38582354,19.176451 C3.61380355,19.518421 4.07454403,19.6132063 4.419,19.389 L4.419,19.389 L8.661,16.557 C8.70220885,16.5296651 8.75054937,16.5150586 8.8,16.515 L8.8,16.515 L15.197,16.515 C15.2464506,16.5150586 15.2947912,16.5296651 15.336,16.557 L15.336,16.557 L19.587,19.389 C19.8099225,19.5411817 20.0974244,19.5618408 20.3398149,19.4430952 C20.5822055,19.3243496 20.7420941,19.0845168 20.7584782,18.8151002 C20.7748624,18.5456837 20.6452148,18.2882432 20.419,18.141 L20.419,18.141 L17.094,15.926 C17.0265365,15.8809396 16.9851331,15.8059444 16.9829466,15.7248458 C16.9807601,15.6437472 17.0180624,15.5666301 17.083,15.518 L17.083,15.518 L23.6,10.631 C23.6757544,10.5741842 23.7771074,10.5650452 23.8618034,10.6073932 C23.9464994,10.6497412 24,10.736307 24,10.831 L24,10.831 L24,20.765 C24,21.8695695 23.1045695,22.765 22,22.765 L22,22.765 L2,22.765 C0.8954305,22.765 0,21.8695695 0,20.765 L0,20.765 L0,10.825 C0,10.730307 0.0535005941,10.6437412 0.138196601,10.6013932 Z M11.143,1.752 C11.6583977,1.39563555 12.3406023,1.39563555 12.856,1.752 L12.856,1.752 L22.993,8.802 C23.058768,8.84788389 23.098533,8.92253246 23.0999563,9.00271251 C23.1013047,9.08289256 23.0641431,9.15887074 23,9.207 L23,9.207 L15.32,14.965 C15.2768644,14.9977189 15.2241398,15.0152937 15.17,15.0150036 L15.17,15.0150036 L8.837,15.0150036 C8.78286019,15.0152937 8.73013562,14.9977189 8.687,14.965 L8.687,14.965 L1.006,9.204 C0.941856919,9.15587074 0.904695303,9.07989256 0.906043697,8.99971251 C0.907466959,8.91953246 0.947232,8.84488389 1.013,8.799 L1.013,8.799 Z" id="Mail"></path>
                    </g>
                </g>
            </g>
        </g>
    </g>
</svg>