<?xml version="1.0" encoding="UTF-8"?>
<svg width="72px" height="72px" viewBox="0 0 72 72" version="1.1" xmlns="http://www.w3.org/2000/svg" xmlns:xlink="http://www.w3.org/1999/xlink">
    <title>B62B2676-1813-4B0B-953C-86BBF6438E71</title>
    <g id="02---B2B" stroke="none" stroke-width="1" fill="none" fill-rule="evenodd" stroke-linecap="round" stroke-linejoin="round">
        <g id="005.0.0-EFT/Havale" transform="translate(-135.000000, -7744.000000)" stroke="#1E146E" stroke-width="3">
            <g id="Group-30" transform="translate(135.000000, 7308.000000)">
                <g id="Group-27-Copy" transform="translate(0.000000, 436.000000)">
                    <g id="shield-check" transform="translate(6.000000, 3.000000)">
                        <polyline id="Path" points="43.9166667 18.8333333 26.8175 43.574 13.8465 30.5973333"></polyline>
                        <path d="M-0.00014331537,9.69583333 L-0.00014331537,31.334 C-0.0234053239,45.7049654 8.7874802,58.6128902 22.1793333,63.8266667 L25.2025,64.9996667 C27.2169964,65.778884 29.4496702,65.778884 31.4641667,64.9996667 L34.4873333,63.8266667 C47.8791865,58.6128902 56.690072,45.7049654 56.66681,31.334 L56.66681,9.69583333 C56.6804829,7.98821269 55.6943304,6.43031328 54.145,5.71216667 C46.0129649,2.13977561 37.2150715,0.334807134 28.3333333,0.416666667 C19.4515952,0.334807134 10.6537018,2.13977561 2.52166667,5.71216667 C0.972336295,6.43031328 -0.0138162496,7.98821269 -0.00014331537,9.69583333 Z" id="Path"></path>
                    </g>
                </g>
            </g>
        </g>
    </g>
</svg>