<?xml version="1.0" encoding="UTF-8"?>
<svg width="24px" height="25px" viewBox="0 0 24 25" version="1.1" xmlns="http://www.w3.org/2000/svg" xmlns:xlink="http://www.w3.org/1999/xlink">
    <title>9E435935-91A5-4C08-A2C2-939C070D49DF</title>
    <g id="Landings" stroke="none" stroke-width="1" fill="none" fill-rule="evenodd">
        <g id="008.0.0-Kendim-Icin-Landing-Page" transform="translate(-728.000000, -2759.000000)">
            <g id="Group-6" transform="translate(135.000000, 2586.000000)">
                <g id="Group-34" transform="translate(593.000000, 0.000000)">
                    <g id="bullet" transform="translate(0.000000, 173.000000)">
                        <g id="Group-15">
                            <ellipse id="Oval" fill="#EBFBEE" fill-rule="nonzero" cx="11.9980912" cy="12.5" rx="11.9980912" ry="12.5"></ellipse>
                            <g id="Group" transform="translate(5.999046, 6.250000)">
                                <rect id="Rectangle" x="0" y="0" width="11.9980912" height="12.5"></rect>
                                <path d="M11.5586772,1.38551754 C11.3294192,1.213079 11.0423964,1.14068203 10.7608053,1.18426695 C10.4792143,1.22785186 10.2261435,1.38384497 10.0573141,1.61789984 L4.96625776,8.66829094 L1.7289166,6.02527119 C1.26462355,5.66235993 0.601190629,5.74473863 0.23574515,6.21067882 C-0.12970033,6.67661901 -0.0630816369,7.35517387 0.385682132,7.73788485 L4.49616867,11.092959 C4.72562248,11.2760894 5.0175868,11.3574217 5.30640611,11.3186661 C5.59522541,11.2799106 5.85665564,11.1243205 6.03190763,10.8868842 L11.7898545,2.91836377 C11.9585346,2.68386067 12.0289483,2.39055942 11.985588,2.10305457 C11.9422278,1.81554973 11.7886499,1.55742127 11.5586772,1.38551754 Z" id="Path" fill="#37B24D" fill-rule="nonzero"></path>
                            </g>
                        </g>
                        <rect id="Rectangle-Copy" x="0" y="0" width="23.9961824" height="25"></rect>
                    </g>
                </g>
            </g>
        </g>
    </g>
</svg>