<?xml version="1.0" encoding="UTF-8"?>
<svg width="72px" height="72px" viewBox="0 0 72 72" version="1.1" xmlns="http://www.w3.org/2000/svg" xmlns:xlink="http://www.w3.org/1999/xlink">
    <title>63F0DA8B-28C5-4B85-A1BB-46FF389B9187</title>
    <g id="04---Merchant" stroke="none" stroke-width="1" fill="none" fill-rule="evenodd" stroke-linecap="round" stroke-linejoin="round">
        <g id="006.0.2-Success" transform="translate(-135.000000, -774.000000)" stroke="#37B24D" stroke-width="3">
            <g id="Group-27" transform="translate(135.000000, 774.000000)">
                <g id="email-action-lock" transform="translate(1.000000, 1.000000)">
                    <rect id="Rectangle" x="42.5" y="45.503" width="27" height="23.997" rx="3"></rect>
                    <circle id="Oval" cx="56" cy="57.689" r="3.75"></circle>
                    <path d="M63.5,41.0000002 C63.5,36.8578645 60.1421355,33.5000002 56,33.5000002 C51.8578645,33.5000002 48.5,36.8578645 48.5,41.0000002 L48.5,45.5000002 L63.5,45.5000002 L63.5,41.0000002 Z" id="Path"></path>
                    <path d="M36.5,42.5 L5,42.5 C2.51471863,42.5 0.5,40.4852814 0.5,38 L0.5,5 C0.5,2.51471863 2.51471863,0.5 5,0.5 L59,0.5 C61.4852814,0.5 63.5,2.51471863 63.5,5 L63.5,27.5" id="Path"></path>
                    <polyline id="Path" points="62.201 1.838 32 26 1.799 1.838"></polyline>
                </g>
            </g>
        </g>
    </g>
</svg>