<?xml version="1.0" encoding="UTF-8"?>
<svg width="120px" height="120px" viewBox="0 0 120 120" version="1.1" xmlns="http://www.w3.org/2000/svg" xmlns:xlink="http://www.w3.org/1999/xlink">
    <title>CB731242-ABD5-45DE-9414-7478DCECA450</title>
    <g id="05---Landings" stroke="none" stroke-width="1" fill="none" fill-rule="evenodd" stroke-linecap="round" stroke-linejoin="round">
        <g id="004.0.0-KadınGirisimci" transform="translate(-135.000000, -1582.000000)" stroke="#1E64FF" stroke-width="5">
            <g id="Avantajlar" transform="translate(135.000000, 1424.000000)">
                <g id="Card-01" transform="translate(0.000000, 158.000000)">
                    <g id="credit-card-payment" transform="translate(8.000000, 8.000000)">
                        <path d="M4.56442358,18.2608696 C2.04356204,18.2608696 0,20.304787 0,22.826087 L0,95.8695652 C0,100.912165 4.08712409,105 9.12884716,105 L50.2086594,105 C55.2503824,105 59.3375065,100.912165 59.3375065,95.8695652 L59.3375065,22.826087 C59.3375065,20.304787 57.2939445,18.2608696 54.7730829,18.2608696" id="Path"></path>
                        <line x1="0" y1="31.9565217" x2="59.3375065" y2="31.9565217" id="Path"></line>
                        <line x1="0" y1="50.2173913" x2="59.3375065" y2="50.2173913" id="Path"></line>
                        <line x1="9.14710485" y1="82.173913" x2="13.7115284" y2="82.173913" id="Path"></line>
                        <line x1="22.8403756" y1="82.173913" x2="27.4047992" y2="82.173913" id="Path"></line>
                        <line x1="36.5336463" y1="82.173913" x2="41.0980699" y2="82.173913" id="Path"></line>
                        <line x1="9.14710485" y1="91.3043478" x2="13.7115284" y2="91.3043478" id="Path"></line>
                        <line x1="22.8403756" y1="91.3043478" x2="27.4047992" y2="91.3043478" id="Path"></line>
                        <line x1="36.5336463" y1="91.3043478" x2="41.0980699" y2="91.3043478" id="Path"></line>
                        <line x1="9.14710485" y1="73.0434783" x2="13.7115284" y2="73.0434783" id="Path"></line>
                        <line x1="22.8403756" y1="73.0434783" x2="27.4047992" y2="73.0434783" id="Path"></line>
                        <line x1="36.5336463" y1="73.0434783" x2="41.0980699" y2="73.0434783" id="Path"></line>
                        <line x1="9.14710485" y1="63.9130435" x2="18.275952" y2="63.9130435" id="Path"></line>
                        <line x1="27.4047992" y1="63.9130435" x2="31.9692227" y2="63.9130435" id="Path"></line>
                        <line x1="41.0980699" y1="63.9130435" x2="50.2269171" y2="63.9130435" id="Path"></line>
                        <line x1="50.2269171" y1="91.3043478" x2="50.2269171" y2="73.0434783" id="Path"></line>
                        <path d="M13.6932522,31.9565217 L13.6932522,3.69326087 C13.6900649,2.89652594 14.1024517,2.15577388 14.781301,1.73888045 C15.4601503,1.32198702 16.307214,1.28928817 17.0161711,1.6526087 L22.8221179,4.56521739 L28.4226656,0.844565217 C29.1885257,0.334833333 30.1854962,0.334833333 30.9513563,0.844565217 L36.5153886,4.56521739 L42.3578508,1.6526087 C43.0653058,1.29804151 43.9059093,1.33530725 44.5792251,1.75108693 C45.2525409,2.16686661 45.6624935,2.90181626 45.6624935,3.69326087 L45.6624935,31.9565217" id="Path"></path>
                        <line x1="22.8403756" y1="13.6956522" x2="36.5336463" y2="13.6956522" id="Path"></line>
                        <line x1="22.8403756" y1="22.826087" x2="27.4047992" y2="22.826087" id="Path"></line>
                        <rect id="Rectangle" x="68.4846114" y="0" width="36.5153886" height="50.2173913" rx="4.56521739"></rect>
                        <line x1="82.1778821" y1="0" x2="82.1778821" y2="50.2173913" id="Path"></line>
                        <line x1="95.8711528" y1="15.9782609" x2="95.8711528" y2="9.13043478" id="Path"></line>
                        <polyline id="Path" points="77.6134585 77.6086957 86.7423057 86.7391304 95.8711528 77.6086957"></polyline>
                        <line x1="86.7423057" y1="86.7391304" x2="86.7423057" y2="63.9130435" id="Path"></line>
                    </g>
                </g>
            </g>
        </g>
    </g>
</svg>