<?xml version="1.0" encoding="UTF-8"?>
<svg width="72px" height="72px" viewBox="0 0 72 72" version="1.1" xmlns="http://www.w3.org/2000/svg" xmlns:xlink="http://www.w3.org/1999/xlink">
    <title>D13E7ACE-6A56-4F94-A6D5-A071F11741C7</title>
    <g id="02---B2B" stroke="none" stroke-width="1" fill="none" fill-rule="evenodd" stroke-linecap="round" stroke-linejoin="round">
        <g id="003.1.0-Sanal-Pos" transform="translate(-135.000000, -2840.000000)" stroke="#1E64FF" stroke-width="3">
            <g id="Group-30" transform="translate(135.000000, 2840.000000)">
                <g id="currency-euro-international" transform="translate(2.571429, 2.571429)">
                    <line x1="41.0338929" y1="40.6636071" x2="61.0408929" y2="40.6636071" id="Path"></line>
                    <line x1="40.6722857" y1="31.9850357" x2="60.9222857" y2="31.9850357" id="Path"></line>
                    <path d="M66.6964286,14.625 C55.5126624,14.625 46.4464286,23.6912338 46.4464286,34.875 C46.4464286,46.0587662 55.5126624,55.125 66.6964286,55.125" id="Path"></path>
                    <path d="M32.0081786,66.6732857 C14.6510357,43.5304286 14.6510357,18.999 32.0081786,0.195428571" id="Path"></path>
                    <line x1="4.2165" y1="49.3421786" x2="34.8836786" y2="49.3421786" id="Path"></line>
                    <line x1="4.2165" y1="17.52075" x2="34.8836786" y2="17.52075" id="Path"></line>
                    <line x1="0.172285714" y1="31.9850357" x2="34.8836786" y2="31.9850357" id="Path"></line>
                    <path d="M33.4285714,66.6964286 C15.0552415,66.6964286 0.160714781,51.8019014 0.160714781,33.4285714 C0.160714781,15.0552415 15.0552415,0.160714286 33.4285714,0.160714286 L34.875,0.160714286 L34.875,66.6964286 L33.4285714,66.6964286 Z" id="Path"></path>
                </g>
            </g>
        </g>
    </g>
</svg>