<?xml version="1.0" encoding="UTF-8"?>
<svg width="24px" height="24px" viewBox="0 0 24 24" version="1.1" xmlns="http://www.w3.org/2000/svg" xmlns:xlink="http://www.w3.org/1999/xlink">
    <title>download-thick-bottom</title>
    <g id="05---Landings" stroke="none" stroke-width="1" fill="none" fill-rule="evenodd">
        <g id="004.0.0-Brand-Kit" transform="translate(-1023.000000, -862.000000)" fill="#FA7355" fill-rule="nonzero">
            <g id="Group-4-Copy-7" transform="translate(135.000000, 784.000000)">
                <g id="Buttons/2--Icon+Text/2--Secondary/1--Level-1/1--Normal" transform="translate(872.000000, 62.000000)">
                    <g id="Content" transform="translate(16.000000, 16.000000)">
                        <g id="download-thick-bottom" transform="translate(0.000000, 0.287000)">
                            <path d="M8.616,1.454 C8.61655156,0.651206548 9.26720655,0.000551558733 10.07,0 L13.462,0 C14.2644029,0.00110277136 14.9144493,0.651596531 14.915,1.454 L14.915,9.682 C14.915,9.82007119 15.0269288,9.932 15.165,9.932 L18.065,9.932 C18.5563177,9.89389061 19.0163389,10.1763423 19.2046454,10.6317389 C19.3929519,11.0871355 19.2667517,11.6119897 18.892,11.932 L12.792,18.032 C12.2166459,18.5810808 11.3113541,18.5810808 10.736,18.032 L4.636,11.932 C4.25984477,11.612552 4.13270496,11.0869284 4.32128048,10.6308812 C4.50985601,10.174834 4.97108574,9.89250127 5.463,9.932 L8.363,9.932 C8.42938566,9.93226715 8.49312947,9.90601373 8.5400716,9.8590716 C8.58701373,9.81212947 8.61326715,9.74838566 8.613,9.682 L8.616,1.454 Z" id="Path"></path>
                            <path d="M0,19.39 C0.00220495584,21.617555 1.807445,23.422795 4.035,23.425 L19.965,23.425 C22.192555,23.422795 23.997795,21.617555 24,19.39 L24,17.513 C23.9810614,16.8503505 23.4384201,16.3229964 22.7755,16.3229964 C22.1125799,16.3229964 21.5699386,16.8503505 21.551,17.513 L21.551,19.387 C21.5498981,20.2624668 20.8404668,20.9718981 19.965,20.973 L4.035,20.973 C3.15953322,20.9718981 2.45010191,20.2624668 2.449,19.387 L2.449,17.513 C2.43006136,16.8503505 1.8874201,16.3229964 1.2245,16.3229964 C0.561579904,16.3229964 0.0189386414,16.8503505 0,17.513 L0,19.39 Z" id="Path"></path>
                        </g>
                    </g>
                </g>
            </g>
        </g>
    </g>
</svg>