<?xml version="1.0" encoding="UTF-8"?>
<svg width="72px" height="72px" viewBox="0 0 72 72" version="1.1" xmlns="http://www.w3.org/2000/svg" xmlns:xlink="http://www.w3.org/1999/xlink">
    <title>8C66523D-049D-474D-A1CA-96583812DCC7</title>
    <g id="02---B2B" stroke="none" stroke-width="1" fill="none" fill-rule="evenodd" stroke-linecap="round" stroke-linejoin="round">
        <g id="005.0.0-Abonelik" transform="translate(-535.000000, -6822.000000)" stroke="#37B24D" stroke-width="3">
            <g id="Group-30" transform="translate(135.000000, 6822.000000)">
                <g id="Group-28" transform="translate(400.000000, 0.000000)">
                    <g id="farmer-s-market-kiosk-1" transform="translate(3.000000, 3.000000)">
                        <line x1="6.08333333" y1="45.75" x2="6.08333333" y2="22.6243333" id="Path"></line>
                        <line x1="59.9166667" y1="22.6243333" x2="59.9166667" y2="45.75" id="Path"></line>
                        <path d="M58.1656667,0.416666667 L7.83433333,0.416666667 C6.76144715,0.417239618 5.78091337,1.02376667 5.30133333,1.9835 L0.416666667,11.75 L65.5833333,11.75 L60.6986667,1.9835 C60.2190866,1.02376667 59.2385528,0.417239618 58.1656667,0.416666667 Z" id="Path"></path>
                        <path d="M65.5833333,14.5833333 C65.7053391,18.0015669 63.6686511,21.1285581 60.4928799,22.3988665 C57.3171088,23.669175 53.6857201,22.8094145 51.4166667,20.25 C49.5558483,23.3968121 46.3063405,25.4680142 42.6681067,25.8262403 C39.0298729,26.1844663 35.4388148,24.7867969 33,22.0633333 C30.5611852,24.7867969 26.9701271,26.1844663 23.3318933,25.8262403 C19.6936595,25.4680142 16.4441517,23.3968121 14.5833333,20.25 C12.3115656,22.8024851 8.6838593,23.6576592 5.51122456,22.3886053 C2.33858981,21.1195514 0.301405271,17.998421 0.416666667,14.5833333 L0.416666667,11.75 L65.5833333,11.75 L65.5833333,14.5833333 Z" id="Path"></path>
                        <polyline id="Path" points="14.5833333 20.25 14.5833333 11.75 17.4166667 0.416666667"></polyline>
                        <polyline id="Path" points="33 22.0803333 33 11.75 33 0.416666667"></polyline>
                        <polyline id="Path" points="51.4166667 20.25 51.4166667 11.75 48.5833333 0.416666667"></polyline>
                        <rect id="Rectangle" x="0.416666667" y="45.75" width="65.1666667" height="14.1666667" rx="2.83333333"></rect>
                        <line x1="6.08333333" y1="59.9166667" x2="6.08333333" y2="65.5833333" id="Path"></line>
                        <line x1="59.9166667" y1="59.9166667" x2="59.9166667" y2="65.5833333" id="Path"></line>
                        <circle id="Oval" cx="16" cy="41.5" r="4.25"></circle>
                        <circle id="Oval" cx="24.5" cy="41.5" r="4.25"></circle>
                        <circle id="Oval" cx="41.5" cy="41.5" r="4.25"></circle>
                        <path d="M49.7535,37.25 C50.3812953,35.4879009 49.7831572,33.5225014 48.2801789,32.4088694 C46.7772006,31.2952373 44.7227994,31.2952373 43.2198211,32.4088694 C41.7168428,33.5225014 41.1187047,35.4879009 41.7465,37.25" id="Path"></path>
                        <circle id="Oval" cx="50" cy="41.5" r="4.25"></circle>
                    </g>
                </g>
            </g>
        </g>
    </g>
</svg>