<?xml version="1.0" encoding="UTF-8"?>
<svg width="72px" height="72px" viewBox="0 0 72 72" version="1.1" xmlns="http://www.w3.org/2000/svg" xmlns:xlink="http://www.w3.org/1999/xlink">
    <title>390777E1-DECB-4C5F-808A-91CB4BB30795</title>
    <g id="02---B2B" stroke="none" stroke-width="1" fill="none" fill-rule="evenodd" stroke-linecap="round" stroke-linejoin="round">
        <g id="005.0.0-Abonelik" transform="translate(-135.000000, -6822.000000)" stroke="#1E64FF" stroke-width="3">
            <g id="Group-30" transform="translate(135.000000, 6822.000000)">
                <g id="design-drawing-board-education" transform="translate(3.000000, 3.000000)">
                    <line x1="25.9166667" y1="0.462" x2="25.9166667" y2="8.962" id="Path"></line>
                    <path d="M11.75,45.7953333 L3.25,45.7953333 C1.68519321,45.7953333 0.416666667,44.5268068 0.416666667,42.962 L0.416666667,14.6286667 C0.416666667,13.0638599 1.68519321,11.7953333 3.25,11.7953333 L18.8333333,11.7953333" id="Path"></path>
                    <path d="M33,11.7953333 L48.5833333,11.7953333 C50.1481401,11.7953333 51.4166667,13.0638599 51.4166667,14.6286667 L51.4166667,35.788" id="Path"></path>
                    <line x1="15.1896667" y1="48.6286667" x2="10.3333333" y2="65.6286667" id="Path"></line>
                    <path d="M33,11.7953333 C33,10.2305265 31.7314735,8.962 30.1666667,8.962 L21.6666667,8.962 C20.1018599,8.962 18.8333333,10.2305265 18.8333333,11.7953333 C18.8333333,13.3601401 20.1018599,14.6286667 21.6666667,14.6286667 L30.1666667,14.6286667 C31.7314735,14.6286667 33,13.3601401 33,11.7953333 Z" id="Path"></path>
                    <path d="M27.2455,42.962 L14.5833333,42.962 C13.0185265,42.962 11.75,44.2305265 11.75,45.7953333 L11.75,47.212 C11.75,47.9944034 12.3842633,48.6286667 13.1666667,48.6286667 L20.3378333,48.6286667" id="Path"></path>
                    <polygon id="Path" points="45.75 40.2901667 25.9166667 48.1668333 45.75 55.1651667 65.5833333 48.1668333"></polygon>
                    <line x1="25.9166667" y1="48.1668333" x2="25.9166667" y2="58.5453333" id="Path"></line>
                    <path d="M34.4166479,51.1673333 L34.4166479,60.1036667 C34.4130126,60.9757904 34.9419154,61.7618455 35.7511667,62.087 L44.9595,65.487 C45.4667723,65.6909265 46.0332277,65.6909265 46.5405,65.487 L55.7488333,62.087 C56.5580846,61.7618455 57.0869874,60.9757904 57.0833521,60.1036667 L57.0833521,51.1673333" id="Path"></path>
                </g>
            </g>
        </g>
    </g>
</svg>