<?xml version="1.0" encoding="UTF-8"?>
<svg width="72px" height="72px" viewBox="0 0 72 72" version="1.1" xmlns="http://www.w3.org/2000/svg" xmlns:xlink="http://www.w3.org/1999/xlink">
    <title>55D44BE7-565D-4602-A365-60BD34B6590F</title>
    <g id="02---B2B" stroke="none" stroke-width="1" fill="none" fill-rule="evenodd" stroke-linecap="round" stroke-linejoin="round">
        <g id="005.0.0-Abonelik" transform="translate(-135.000000, -1166.000000)" stroke="#1E64FF" stroke-width="3">
            <g id="Group-30" transform="translate(135.000000, 1166.000000)">
                <g id="calendar-refresh" transform="translate(3.000000, 3.000000)">
                    <polyline id="Path" points="41.5 51.4195 31.5833333 51.4195 31.5833333 61.3361667"></polyline>
                    <path d="M63.9315,54.913 C61.5360519,61.9362667 54.5726917,66.3433159 47.1999694,65.502238 C39.827247,64.6611601 34.035395,58.7990003 33.2833333,51.4166667" id="Path"></path>
                    <polyline id="Path" points="55.6666667 45.7528333 65.5833333 45.7528333 65.5833333 35.8361667"></polyline>
                    <path d="M33.2351667,42.2593333 C35.6298197,35.2363906 42.5919631,30.8287957 49.9642793,31.6684642 C57.3365954,32.5081326 63.1292787,38.3684358 63.8833333,45.75" id="Path"></path>
                    <path d="M25.9166667,51.4166667 L3.25,51.4166667 C1.68519321,51.4166667 0.416666667,50.1481401 0.416666667,48.5833333 L0.416666667,8.91666667 C0.416666667,7.35185988 1.68519321,6.08333333 3.25,6.08333333 L54.25,6.08333333 C55.8148068,6.08333333 57.0833333,7.35185988 57.0833333,8.91666667 L57.0833333,27.3333333" id="Path"></path>
                    <line x1="14.5833333" y1="0.4195" x2="14.5833333" y2="14.5861667" id="Path"></line>
                    <line x1="42.9166667" y1="0.4195" x2="42.9166667" y2="14.5861667" id="Path"></line>
                    <line x1="0.416666667" y1="20.2528333" x2="57.0833333" y2="20.2528333" id="Path"></line>
                </g>
            </g>
        </g>
    </g>
</svg>