<?xml version="1.0" encoding="UTF-8"?>
<svg width="72px" height="72px" viewBox="0 0 72 72" version="1.1" xmlns="http://www.w3.org/2000/svg" xmlns:xlink="http://www.w3.org/1999/xlink">
    <title>FCB7DE29-EB18-4AFD-958A-DA8C70B9FD63</title>
    <g id="02---B2B" stroke="none" stroke-width="1" fill="none" fill-rule="evenodd" stroke-linecap="round" stroke-linejoin="round">
        <g id="005.0.0-Abonelik" transform="translate(-935.000000, -6822.000000)" stroke="#FFB900" stroke-width="3">
            <g id="Group-30" transform="translate(135.000000, 6822.000000)">
                <g id="Group-29" transform="translate(800.000000, 0.000000)">
                    <g id="official-building-1" transform="translate(4.000000, 2.000000)">
                        <line x1="0" y1="65.5266667" x2="62.3333333" y2="65.5266667" id="Path"></line>
                        <line x1="0" y1="45.6933333" x2="62.3333333" y2="45.6933333" id="Path"></line>
                        <line x1="2.83333333" y1="45.6933333" x2="2.83333333" y2="65.5266667" id="Path"></line>
                        <line x1="59.5" y1="45.6933333" x2="59.5" y2="65.5266667" id="Path"></line>
                        <line x1="8.5" y1="25.86" x2="53.8333333" y2="25.86" id="Path"></line>
                        <line x1="14.1666667" y1="25.86" x2="14.1666667" y2="45.6933333" id="Path"></line>
                        <line x1="25.5" y1="32.9433333" x2="25.5" y2="40.0266667" id="Path"></line>
                        <line x1="36.8333333" y1="32.9433333" x2="36.8333333" y2="40.0266667" id="Path"></line>
                        <line x1="25.5" y1="51.36" x2="25.5" y2="58.4433333" id="Path"></line>
                        <line x1="14.1666667" y1="51.36" x2="14.1666667" y2="58.4433333" id="Path"></line>
                        <line x1="36.8333333" y1="51.36" x2="36.8333333" y2="58.4433333" id="Path"></line>
                        <line x1="48.1666667" y1="51.36" x2="48.1666667" y2="58.4433333" id="Path"></line>
                        <line x1="48.1666667" y1="25.86" x2="48.1666667" y2="45.6933333" id="Path"></line>
                        <path d="M14.1666667,25.86 C14.1666667,16.4711593 21.7778259,8.86 31.1666667,8.86 C40.5555074,8.86 48.1666667,16.4711593 48.1666667,25.86 L14.1666667,25.86 Z" id="Path"></path>
                        <line x1="31.1666667" y1="8.86" x2="31.1666667" y2="0.476166667" id="Path"></line>
                    </g>
                </g>
            </g>
        </g>
    </g>
</svg>