<?xml version="1.0" encoding="UTF-8"?>
<svg width="72px" height="72px" viewBox="0 0 72 72" version="1.1" xmlns="http://www.w3.org/2000/svg" xmlns:xlink="http://www.w3.org/1999/xlink">
    <title>CDD0FCC2-348F-4909-A0C9-80D0A2704A61</title>
    <g id="02---B2B" stroke="none" stroke-width="1" fill="none" fill-rule="evenodd" stroke-linecap="round" stroke-linejoin="round">
        <g id="003.1.0-Sanal-Pos" transform="translate(-135.000000, -3276.000000)" stroke="#FF6B6B" stroke-width="3">
            <g id="Group-30" transform="translate(135.000000, 2840.000000)">
                <g id="Group-27-Copy" transform="translate(0.000000, 436.000000)">
                    <g id="iris-scan-2" transform="translate(2.000000, 2.000000)">
                        <line x1="34" y1="3.34848485" x2="34" y2="0.429292929" id="Path"></line>
                        <line x1="19.3398182" y1="7.08213131" x2="17.9444444" y2="4.51908081" id="Path"></line>
                        <line x1="8.25272727" y1="17.3722828" x2="5.80060606" y2="15.7871616" id="Path"></line>
                        <line x1="48.6601818" y1="7.08213131" x2="50.0555556" y2="4.51908081" id="Path"></line>
                        <line x1="59.7472727" y1="17.3722828" x2="62.1993939" y2="15.7871616" id="Path"></line>
                        <line x1="34" y1="64.6515152" x2="34" y2="67.5707071" id="Path"></line>
                        <line x1="19.3398182" y1="60.9207879" x2="17.9444444" y2="63.4838384" id="Path"></line>
                        <line x1="8.25272727" y1="50.6306364" x2="5.80060606" y2="52.2128384" id="Path"></line>
                        <line x1="48.6601818" y1="60.9207879" x2="50.0555556" y2="63.4838384" id="Path"></line>
                        <line x1="59.7472727" y1="50.6306364" x2="62.1993939" y2="52.2128384" id="Path"></line>
                        <circle id="Oval" cx="34" cy="34" r="20.4343434"></circle>
                        <path d="M67.5707071,34 C67.5707071,34 52.9747475,54.4343434 34,54.4343434 C15.0252525,54.4343434 0.429292929,34 0.429292929,34 C0.429292929,34 15.0252525,13.5656566 34,13.5656566 C52.9747475,13.5656566 67.5707071,34 67.5707071,34 Z" id="Path"></path>
                        <circle id="Oval" cx="34" cy="34" r="11.6767677"></circle>
                        <line x1="34" y1="19.4040404" x2="34" y2="25.2424242" id="Path"></line>
                        <line x1="34" y1="42.7575758" x2="34" y2="48.5959596" id="Path"></line>
                        <line x1="19.4040404" y1="34" x2="25.2424242" y2="34" id="Path"></line>
                        <line x1="42.7575758" y1="34" x2="48.5959596" y2="34" id="Path"></line>
                        <path d="M34,33.270202 C34.4030563,33.270202 34.729798,33.5969437 34.729798,34 C34.729798,34.4030563 34.4030563,34.729798 34,34.729798 C33.5969437,34.729798 33.270202,34.4030563 33.270202,34 C33.270202,33.5969437 33.5969437,33.270202 34,33.270202" id="Path"></path>
                    </g>
                </g>
            </g>
        </g>
    </g>
</svg>