<svg xmlns="http://www.w3.org/2000/svg" width="64" height="64" viewBox="0 0 64 64">
    <g fill="none" fill-rule="evenodd">
        <g fill="#ffffff" fill-rule="nonzero">
            <path d="M27.734 58.153c.247-.117.54-.068.737.121 1.514 1.448 3.031 2.751 4.421 3.872.214.173.298.46.211.72-.086.261-.325.441-.6.453-.264.018-.528.018-.792.018-3.5.003-6.978-.577-10.288-1.717-.276-.096-.457-.362-.443-.655.013-.292.217-.541.502-.611 2.152-.524 4.246-1.261 6.252-2.201zm21.569-24.154c.258-.08.54.008.708.22l.016.018c3.653 4.628 6.104 10.09 7.132 15.895.027.176-.02.356-.127.497-4.241 5.647-10.245 9.718-17.06 11.57-.19.052-.393.016-.553-.098-2.453-1.726-4.802-3.596-7.034-5.6-.15-.135-.23-.332-.217-.533.013-.202.119-.386.286-.5 9.571-6.588 13.654-13.694 15.192-20.723.056-.283.29-.497.576-.529.366-.038.728-.11 1.08-.217zM2.669 42.23c4.939-1.052 10.009-1.347 15.036-.875.28.023.514.222.582.494.566 2.252 1.373 4.437 2.407 6.517 1.089 2.102 2.42 4.07 3.964 5.863.136.163.186.382.134.587-.053.206-.2.374-.398.452-3.464 1.376-7.153 2.095-10.88 2.12-.142 0-.281-.044-.396-.128-4.916-3.576-8.705-8.484-10.92-14.145-.069-.18-.057-.382.032-.553.091-.17.251-.29.439-.333zm20.777-.013l.1.012c4.247.876 8.37 2.28 12.269 4.178.197.094.334.279.368.494.033.215-.042.433-.202.582-2.11 1.872-4.32 3.627-6.622 5.256-.272.174-.63.125-.846-.116-1.683-1.813-3.122-3.838-4.278-6.025-.564-1.135-1.048-2.308-1.448-3.51-.076-.224-.026-.471.13-.649.157-.177.397-.257.628-.21zM47.412 4.547c.216-.159.507-.17.736-.03 9.478 5.747 15.268 16.025 15.274 27.11-.004 4.203-.854 8.363-2.497 12.232-.105.255-.358.417-.634.407-.275-.011-.515-.192-.6-.455-1.49-4.41-3.742-8.525-6.657-12.156l-.019-.02c-.187-.201-.231-.497-.11-.743.397-.798.605-1.677.607-2.569-.007-2.359-1.41-4.49-3.575-5.428-.24-.105-.394-.341-.394-.602-.137-5.757-.936-11.479-2.38-17.053-.066-.26.033-.534.249-.693zM28.748 21.7l.106.004c.071.008.143.012.214.013 4.516.208 8.874 1.728 12.54 4.373.216.164.31.444.237.706-.144.496-.218 1.01-.222 1.527.005 1.704.746 3.323 2.032 4.44.179.155.26.394.212.626-.724 3.54-2.16 6.896-4.22 9.865-.191.27-.551.358-.846.209-5.273-2.743-10.948-4.632-16.812-5.597-.288-.048-.51-.277-.55-.566-.457-3.392-.374-6.835.246-10.2.01-.058.06-.099.119-.098 2.954-.008 5.543-1.976 6.342-4.82.087-.311.387-.514.708-.478zm-13.685.987c.3-.05.597.112.716.393.453 1.025 1.16 1.919 2.053 2.595.058.043.081.118.058.185l-.131.66c-.625 3.304-.764 6.683-.41 10.03.019.193-.048.384-.183.524s-.324.212-.518.2c-5.09-.352-10.205.037-15.184 1.157-.174.042-.357.011-.507-.085-.15-.097-.256-.25-.294-.425-.427-2.07-.645-4.178-.65-6.292 0-.362.032-.716.053-1.073.012-.163.082-.316.198-.43 4.107-3.863 9.249-6.447 14.799-7.44zM28.804.087c.265-.02.517.12.64.357.121.236.089.523-.082.727-3.277 3.767-5.996 7.985-8.073 12.525l-.025.051c-.04.063-.106.105-.181.113-2.517.274-4.652 1.968-5.492 4.355-.083.231-.286.399-.528.436-4.53.725-8.868 2.355-12.753 4.794-.232.147-.532.136-.751-.03-.22-.165-.315-.449-.238-.713C4.995 10.252 15.881 1.296 28.804.087zm7.004.125l.105.005c1.985.27 3.941.728 5.84 1.369.203.067.362.228.425.433 2.01 6.581 3.155 13.397 3.404 20.274 0 .264-.157.502-.4.608-.126.052-.25.113-.372.177-.227.116-.502.092-.705-.064-4.371-3.222-9.61-5.055-15.037-5.261-.185 0-.369.03-.544.09-.31.1-.648-.043-.793-.336-.488-.987-1.215-1.837-2.114-2.473-.258-.186-.348-.529-.214-.817 2.635-5.053 5.984-9.701 9.944-13.8.146-.152.356-.227.566-.2z"/>
        </g>
    </g>
</svg>
