<?xml version="1.0" encoding="UTF-8"?>
<svg width="120px" height="120px" viewBox="0 0 120 120" version="1.1" xmlns="http://www.w3.org/2000/svg" xmlns:xlink="http://www.w3.org/1999/xlink">
    <title>C5522A1A-B293-453D-93E5-87B7D7A1B14C</title>
    <g id="Landings" stroke="none" stroke-width="1" fill="none" fill-rule="evenodd">
        <g id="004.0.0-KadınGirisimci_Features_Cep-POS" transform="translate(-735.000000, -223.000000)" fill="#5EADA9" fill-rule="nonzero">
            <g id="Avantajlar" transform="translate(135.000000, 65.000000)">
                <g id="icons/SoftPOS" transform="translate(600.000000, 158.000000)">
                    <g id="monetization-phone-copy" transform="translate(7.500000, 5.625000)">
                        <path d="M107.8125,30.5984043 C110.401335,30.5984043 112.5,32.706 112.5,35.3058511 L112.5,35.3058511 L112.5,75.3191489 C112.5,77.919 110.401335,80.0265957 107.8125,80.0265957 L107.8125,80.0265957 L37.5,80.0265957 C34.9111652,80.0265957 32.8125,77.919 32.8125,75.3191489 L32.8125,75.3191489 L32.8125,35.3058511 C32.8125,32.706 34.9111652,30.5984043 37.5,30.5984043 L37.5,30.5984043 Z M81.0705522,63.8188808 C75.0436719,59.0100436 70.200028,58.9421378 64.0919873,63.656799 C63.3402427,64.2173622 62.9639469,65.1213849 63.1077294,66.0214051 C63.2515118,66.9214253 63.8929968,67.6773791 64.7856289,67.9987149 C65.678261,68.3200507 66.6831259,68.1567612 67.4140031,67.5716069 C71.5595625,64.3747895 73.5885131,64.4195639 77.680593,67.6785252 C77.9655956,67.9052027 78.2988597,68.0700032 78.65727,68.1614959 C79.6551207,68.4327542 80.7269518,68.1210396 81.3966688,67.3648119 C81.6672596,67.0458706 81.8487404,66.6666936 81.9241649,66.2626876 C82.1366405,65.3600508 81.8080535,64.4193395 81.0705522,63.8188808 Z M72.65625,50.08974 C65.8596201,50.0742548 61.1776927,52.654001 56.3862153,57.2540282 C55.4261917,58.2465329 55.4572898,59.7849602 56.4567096,60.7413951 C57.4561295,61.6978299 59.068161,61.7318613 60.1109255,60.8185387 C63.9152256,57.1654188 67.2592989,55.1163261 72.65625,55.1279173 C78.0537923,55.1147054 81.164996,57.1629644 84.9702087,60.8160196 C86.0059973,61.7706842 87.652435,61.7570311 88.6706821,60.7853335 C89.6889292,59.8136358 89.7032363,58.2424654 88.7028382,57.2540282 C83.9104072,52.6522813 79.4548252,50.0723456 72.65625,50.08974 Z M95.2877951,49.7316608 C81.6850425,36.7738436 63.5625166,36.7738436 49.9597641,49.7316608 C48.9593661,50.720098 48.9736732,52.2912684 49.9919202,53.2629661 C51.0101673,54.2346637 52.6566051,54.2483168 53.6923937,53.2936522 C65.2334876,42.3026453 80.0140716,42.3026453 91.5551655,53.2936522 C92.2179435,53.9485059 93.1994176,54.211136 94.1223576,53.9806005 C95.0452976,53.750065 95.7660724,53.0622405 96.0076518,52.181493 C96.2492312,51.3007454 95.9740197,50.3641396 95.2877951,49.7316608 Z" id="Shape"></path>
                        <path d="M0,97.6795213 C0.00517047268,104.82696 5.77347218,110.619808 12.890625,110.625 L50.390625,110.625 C57.5077778,110.619808 63.2760795,104.82696 63.28125,97.6795213 L63.28125,90.6183511 C63.28125,88.6684628 61.7072511,87.087766 59.765625,87.087766 L8.203125,87.087766 C7.89194222,87.0890235 7.59314309,86.965437 7.37310185,86.7444594 C7.15306062,86.5234818 7.02999774,86.2234112 7.03125,85.9109043 L7.03125,24.7140957 C7.03125,24.064133 7.55591631,23.537234 8.203125,23.537234 L59.765625,23.537234 C61.7072511,23.537234 63.28125,21.9565372 63.28125,20.0066489 L63.28125,12.9454787 C63.2760795,5.79804014 57.5077778,0.00519247469 50.390625,0 L12.890625,0 C5.77347218,0.00519247469 0.00517047268,5.79804014 0,12.9454787 L0,97.6795213 Z M31.640625,92.9720745 C34.2294598,92.9720745 36.328125,95.0796702 36.328125,97.6795213 C36.328125,100.279372 34.2294598,102.386968 31.640625,102.386968 C29.0517902,102.386968 26.953125,100.279372 26.953125,97.6795213 C26.953125,95.0796702 29.0517902,92.9720745 31.640625,92.9720745 Z" id="Shape"></path>
                    </g>
                </g>
            </g>
        </g>
    </g>
</svg>