<?xml version="1.0" encoding="UTF-8"?>
<svg width="170px" height="113px" viewBox="0 0 170 113" version="1.1" xmlns="http://www.w3.org/2000/svg" xmlns:xlink="http://www.w3.org/1999/xlink">
    <title>7DA2FCE1-3FB6-4CE3-A0F4-5547D4D1B314</title>
    <g id="05---Landings" stroke="none" stroke-width="1" fill="none" fill-rule="evenodd">
        <g id="006.0.0_D_iyiden-iyiye" transform="translate(-235.000000, -313.000000)" fill="#1E146E" fill-rule="nonzero">
            <g id="Hero-Copy-3" transform="translate(0.000000, 64.000000)">
                <g id="Brand/1--Logo/3--Subbrands/2--IyidenIyiye/2--Colored_Koamaru" transform="translate(235.000000, 249.000000)">
                    <g id="iyiden-iyiye_colored_01" transform="translate(-0.000000, 0.706250)">
                        <path d="M1.62142333,11.0086323 C2.12032282,11.5090247 2.74394718,11.8843189 3.36757153,12.1345151 C4.11592076,12.3847113 4.73954512,12.5098094 5.61261922,12.5098094 C6.36096845,12.5098094 7.10931768,12.3847113 7.85766691,12.1345151 C8.60601614,11.8843189 9.10491563,11.5090247 9.60381511,11.0086323 C10.1027146,10.5082399 10.4768892,9.88274944 10.8510638,9.25725897 C11.1005136,8.5066704 11.3499633,7.75608184 11.3499633,7.00549327 C11.3499633,6.25490471 11.2252384,5.50431614 10.8510638,4.75372758 C10.6016141,4.00313901 10.1027146,3.50274664 9.60381511,3.00235426 C9.10491563,2.50196188 8.48129127,2.1266676 7.85766691,1.75137332 C7.23404255,1.50117713 6.48569332,1.37607904 5.61261922,1.37607904 C4.86426999,1.37607904 4.11592076,1.50117713 3.36757153,1.87647141 C2.6192223,2.1266676 2.12032282,2.62705998 1.62142333,3.12745235 C1.12252384,3.50274664 0.74834923,4.12823711 0.498899486,4.75372758 C0.249449743,5.50431614 -6.64667636e-15,6.25490471 -6.64667636e-15,7.00549327 C-6.64667636e-15,7.75608184 0.124724872,8.5066704 0.374174615,9.25725897 C0.74834923,9.88274944 1.12252384,10.5082399 1.62142333,11.0086323 Z" id="Path"></path>
                        <rect id="Rectangle" x="1.24724872" y="16.0125561" width="8.85546588" height="32.7757007"></rect>
                        <path d="M61.1151871,3.00235426 C60.6162876,2.50196188 59.9926632,2.1266676 59.3690389,1.75137332 C58.6206897,1.50117713 57.9970653,1.25098094 57.1239912,1.25098094 C56.375642,1.25098094 55.6272927,1.37607904 54.8789435,1.75137332 C54.1305943,2.00156951 53.6316948,2.50196188 53.1327953,3.00235426 C52.6338958,3.50274664 52.2597212,4.12823711 52.0102715,4.75372758 C51.7608217,5.50431614 51.6360968,6.25490471 51.6360968,7.00549327 C51.6360968,7.75608184 51.7608217,8.5066704 52.0102715,9.25725897 C52.2597212,10.0078475 52.6338958,10.5082399 53.1327953,11.0086323 C53.6316948,11.5090247 54.2553191,11.8843189 54.8789435,12.1345151 C55.6272927,12.3847113 56.2509171,12.5098094 57.1239912,12.5098094 C57.8723404,12.5098094 58.6206897,12.3847113 59.3690389,12.1345151 C60.1173881,11.8843189 60.6162876,11.5090247 61.1151871,11.0086323 C61.6140866,10.5082399 61.9882612,9.88274944 62.3624358,9.25725897 C62.6118855,8.5066704 62.8613353,7.88117993 62.8613353,7.00549327 C62.8613353,6.25490471 62.7366104,5.50431614 62.3624358,4.75372758 C61.9882612,4.12823711 61.6140866,3.50274664 61.1151871,3.00235426 Z" id="Path"></path>
                        <rect id="Rectangle" x="52.7586207" y="16.0125561" width="8.85546588" height="32.7757007"></rect>
                        <path d="M69.8459281,44.6600196 C71.2179017,46.1611967 72.9640499,47.4121777 74.834923,48.2878643 C76.8305209,49.163551 78.8261189,49.6639434 81.0711665,49.6639434 C83.3162142,49.6639434 85.1870873,49.2886491 86.8085106,48.4129624 C88.429934,47.5372758 89.8019076,46.536491 90.7997065,45.160412 L90.7997065,48.7882567 L99.4057227,48.7882567 L99.4057227,0 L90.6749817,0 L90.6749817,19.3902046 C89.5524578,18.1392237 88.3052091,17.0133408 86.6837858,16.2627522 C85.0623624,15.5121637 83.1914894,15.1368694 81.0711665,15.1368694 C78.8261189,15.1368694 76.705796,15.6372618 74.834923,16.5129484 C72.839325,17.3886351 71.2179017,18.639616 69.8459281,20.1407932 C68.4739545,21.6419703 67.3514307,23.5184417 66.4783566,25.6451093 C65.7300073,27.7717769 65.2311079,30.0235426 65.2311079,32.5255045 C65.2311079,35.0274664 65.6052825,37.2792321 66.4783566,39.4058997 C67.3514307,41.4074692 68.4739545,43.1588425 69.8459281,44.6600196 Z M74.9596478,28.8976598 C75.3338225,27.7717769 75.9574468,26.7709922 76.705796,26.0204036 C77.4541453,25.269815 78.3272194,24.5192265 79.3250183,24.1439322 C80.3228173,23.6435398 81.570066,23.3933436 82.8173147,23.3933436 C84.0645635,23.3933436 85.1870873,23.6435398 86.3096112,24.0188341 C87.3074101,24.5192265 88.1804842,25.1447169 88.9288335,25.8953055 C89.6771827,26.6458941 90.300807,27.6466788 90.6749817,28.7725617 C91.0491563,29.8984445 91.298606,31.0243274 91.298606,32.4004064 C91.298606,33.6513873 91.0491563,34.9023683 90.6749817,36.0282511 C90.300807,37.154134 89.6771827,38.1549187 88.9288335,38.9055073 C88.1804842,39.6560959 87.3074101,40.4066844 86.3096112,40.7819787 C85.3118122,41.2823711 84.0645635,41.4074692 82.8173147,41.4074692 C81.570066,41.4074692 80.3228173,41.157273 79.3250183,40.6568806 C78.3272194,40.1564882 77.3294204,39.5309978 76.705796,38.7804092 C75.9574468,38.0298206 75.4585473,37.0290359 74.9596478,35.903153 C74.5854732,34.7772702 74.3360235,33.6513873 74.3360235,32.4004064 C74.3360235,31.1494254 74.5854732,30.0235426 74.9596478,28.8976598 Z" id="Shape"></path>
                        <path d="M131.08584,19.890597 C129.713866,18.3894198 127.967718,17.263537 126.096845,16.3878503 C124.101247,15.5121637 121.980924,15.1368694 119.611152,15.1368694 C117.116654,15.1368694 114.871607,15.5121637 112.876009,16.3878503 C110.880411,17.263537 109.134263,18.3894198 107.637564,19.890597 C106.140866,21.3917741 105.018342,23.2682455 104.269993,25.3949131 C103.521643,27.5215807 103.022744,29.8984445 103.022744,32.4004064 C103.022744,35.0274664 103.396919,37.2792321 104.269993,39.4058997 C105.143067,41.5325673 106.265591,43.2839406 107.762289,44.7851177 C109.258988,46.2862948 111.005136,47.4121777 113.125459,48.2878643 C115.245781,49.163551 117.490829,49.5388453 119.985326,49.5388453 C122.729274,49.5388453 125.348496,49.163551 127.593544,48.2878643 C129.963316,47.5372758 131.958914,46.2862948 133.829787,44.5349215 L128.716067,38.9055073 C127.468819,39.906292 126.22157,40.6568806 124.724872,41.2823711 C123.228173,41.7827635 121.8562,42.0329596 120.359501,42.0329596 C119.361702,42.0329596 118.363903,41.9078615 117.366104,41.6576654 C116.49303,41.4074692 115.619956,41.0321749 114.871607,40.4066844 C114.123258,39.7811939 113.499633,39.1557035 113.000734,38.2800168 C112.501834,37.4043302 112.12766,36.4035454 111.87821,35.2776626 L135.077036,35.2776626 C135.077036,34.9023683 135.201761,34.4019759 135.201761,33.9015835 C135.201761,33.4011911 135.201761,32.7757007 135.201761,32.2753083 C135.201761,29.7733464 134.827586,27.3964826 134.079237,25.269815 C133.580337,23.2682455 132.582539,21.3917741 131.08584,19.890597 Z M112.252384,29.272954 C112.626559,27.2713845 113.374908,25.6451093 114.622157,24.3941284 C115.869406,23.2682455 117.490829,22.642755 119.611152,22.642755 C121.482025,22.642755 123.103448,23.2682455 124.350697,24.3941284 C125.597946,25.5200112 126.346295,27.1462864 126.72047,29.272954 L112.252384,29.272954 Z" id="Shape"></path>
                        <path d="M168.877476,22.642755 C168.253852,21.0164798 167.380778,19.7654989 166.258254,18.639616 C165.13573,17.5137332 163.763756,16.6380465 162.267058,16.0125561 C160.645635,15.3870656 159.024211,15.1368694 157.153338,15.1368694 C155.282465,15.1368694 153.536317,15.5121637 151.790169,16.2627522 C150.044021,17.0133408 148.672047,18.1392237 147.549523,19.890597 L147.549523,16.0125561 L138.943507,16.0125561 L138.943507,48.7882567 L147.798973,48.7882567 L147.798973,30.7741312 C147.798973,29.5231502 147.923698,28.3972674 148.297872,27.5215807 C148.672047,26.6458941 149.170946,25.7702074 149.794571,25.1447169 C150.418195,24.5192265 151.166544,24.0188341 152.039618,23.7686379 C152.912693,23.5184417 153.785767,23.2682455 154.783566,23.2682455 C156.779164,23.2682455 158.400587,23.893736 159.523111,25.1447169 C160.645635,26.3956979 161.144534,28.2721693 161.144534,30.6490331 L161.144534,48.6631586 L170,48.6631586 L170,27.896875 C169.875275,26.0204036 169.501101,24.2690303 168.877476,22.642755 Z" id="Path"></path>
                        <path d="M3.4922964,63.0494395 C4.24064563,63.2996357 4.86426999,63.4247337 5.73734409,63.4247337 C6.48569332,63.4247337 7.23404255,63.2996357 7.98239178,63.0494395 C8.73074101,62.7992433 9.2296405,62.423949 9.72853999,61.9235566 C10.2274395,61.4231642 10.6016141,60.7976738 10.9757887,60.1721833 C11.2252384,59.4215947 11.4746882,58.7961043 11.4746882,57.9204176 C11.4746882,57.169829 11.3499633,56.4192405 10.9757887,55.6686519 C10.726339,54.9180633 10.2274395,54.417671 9.72853999,53.9172786 C9.2296405,53.4168862 8.60601614,53.0415919 7.98239178,52.6662976 C7.23404255,52.4161015 6.6104182,52.1659053 5.73734409,52.1659053 C4.98899486,52.1659053 4.24064563,52.2910034 3.4922964,52.6662976 C2.74394718,52.9164938 2.24504769,53.4168862 1.7461482,53.9172786 C1.24724872,54.417671 0.873074101,55.0431614 0.623624358,55.6686519 C0.374174615,56.4192405 0.249449743,57.169829 0.249449743,57.9204176 C0.249449743,58.6710062 0.374174615,59.4215947 0.623624358,60.1721833 C0.873074101,60.9227719 1.24724872,61.4231642 1.7461482,61.9235566 C2.24504769,62.423949 2.74394718,62.7992433 3.4922964,63.0494395 Z" id="Path"></path>
                        <rect id="Rectangle" x="1.24724872" y="66.8023823" width="8.85546588" height="32.7757007"></rect>
                        <path d="M61.1151871,53.7921805 C60.6162876,53.2917881 59.9926632,52.9164938 59.3690389,52.5411996 C58.6206897,52.2910034 57.9970653,52.0408072 57.1239912,52.0408072 C56.375642,52.0408072 55.6272927,52.1659053 54.8789435,52.5411996 C54.1305943,52.7913957 53.6316948,53.2917881 53.1327953,53.7921805 C52.6338958,54.2925729 52.2597212,54.9180633 52.0102715,55.5435538 C51.7608217,56.2941424 51.6360968,57.0447309 51.6360968,57.7953195 C51.6360968,58.5459081 51.7608217,59.2964966 52.0102715,60.0470852 C52.2597212,60.7976738 52.6338958,61.2980661 53.1327953,61.7984585 C53.6316948,62.2988509 54.2553191,62.6741452 54.8789435,62.9243414 C55.6272927,63.1745376 56.2509171,63.2996357 57.1239912,63.2996357 C57.8723404,63.2996357 58.6206897,63.1745376 59.3690389,62.9243414 C60.1173881,62.6741452 60.6162876,62.2988509 61.1151871,61.7984585 C61.6140866,61.2980661 61.9882612,60.6725757 62.3624358,60.0470852 C62.6118855,59.2964966 62.8613353,58.6710062 62.8613353,57.7953195 C62.8613353,57.0447309 62.7366104,56.2941424 62.3624358,55.5435538 C61.9882612,54.9180633 61.6140866,54.2925729 61.1151871,53.7921805 Z" id="Path"></path>
                        <rect id="Rectangle" x="52.7586207" y="66.8023823" width="8.85546588" height="32.7757007"></rect>
                        <path d="M129.838591,70.6804232 C128.466618,69.1792461 126.72047,68.0533632 124.849596,67.1776766 C122.853999,66.3019899 120.733676,65.9266956 118.363903,65.9266956 C115.869406,65.9266956 113.624358,66.3019899 111.62876,67.1776766 C109.633162,68.0533632 107.887014,69.1792461 106.390315,70.6804232 C104.893617,72.1816003 103.771093,74.0580717 103.022744,76.1847393 C102.274395,78.311407 101.775495,80.6882707 101.775495,83.1902326 C101.775495,85.8172926 102.14967,88.0690583 103.022744,90.1957259 C103.895818,92.3223935 105.018342,94.0737668 106.51504,95.5749439 C108.011739,97.0761211 109.757887,98.2020039 111.87821,99.0776906 C113.998533,99.9533772 116.24358,100.328672 118.738078,100.328672 C121.482025,100.328672 124.101247,99.9533772 126.346295,99.0776906 C128.716067,98.327102 130.711665,97.0761211 132.582539,95.3247478 L127.468819,89.6953335 C126.22157,90.6961183 124.974321,91.4467068 123.477623,92.0721973 C121.980924,92.5725897 120.608951,92.8227859 119.112252,92.8227859 C118.114453,92.8227859 117.116654,92.6976878 116.118855,92.4474916 C115.245781,92.1972954 114.372707,91.8220011 113.624358,91.1965107 C112.876009,90.5710202 112.252384,89.9455297 111.753485,89.069843 C111.254585,88.1941564 110.880411,87.1933716 110.630961,86.0674888 L133.829787,86.0674888 C133.829787,85.6921945 133.954512,85.1918021 133.954512,84.6914098 C133.954512,84.1910174 133.954512,83.5655269 133.954512,83.0651345 C133.954512,80.5631726 133.580337,78.1863089 132.831988,76.0596413 C132.208364,74.0580717 131.210565,72.1816003 129.838591,70.6804232 Z M110.880411,80.1878784 C111.254585,78.1863089 112.002935,76.5600336 113.250183,75.3090527 C114.497432,74.1831698 116.118855,73.5576794 118.239178,73.5576794 C120.110051,73.5576794 121.731475,74.1831698 122.978723,75.3090527 C124.225972,76.4349355 124.974321,78.0612108 125.348496,80.1878784 L110.880411,80.1878784 Z" id="Shape"></path>
                        <polygon id="Path" points="92.5458547 66.8023823 83.8151137 83.690625 74.834923 66.8023823 64.8569332 66.8023823 78.9508437 92.6976878 68.5986794 111.5875 78.2024945 111.5875 102.274395 66.8023823"></polygon>
                        <polygon id="Path" points="16.4636831 111.5875 26.0674982 111.5875 50.1393984 66.8023823 40.5355833 66.8023823 31.8048423 83.690625 22.8246515 66.8023823 12.8466618 66.8023823 26.9405723 92.6976878"></polygon>
                        <polygon id="Path" points="16.4636831 60.6725757 26.0674982 60.6725757 50.1393984 16.0125561 40.5355833 16.0125561 31.8048423 32.9007988 22.8246515 16.0125561 12.8466618 16.0125561 26.9405723 41.7827635"></polygon>
                    </g>
                </g>
            </g>
        </g>
    </g>
</svg>