<svg xmlns="http://www.w3.org/2000/svg" viewBox="0 0 119 40">
    <defs>
        <linearGradient id="im7dtzmr6a" x1="90.255%" x2="0%" y1="50%" y2="50%">
            <stop offset="0%" stop-color="#1E64FF"/>
            <stop offset="100%" stop-color="#1E64FF" stop-opacity="0"/>
        </linearGradient>
    </defs>
    <g fill="none" fill-rule="evenodd">
        <g>
            <g>
                <g fill="#1E64FF">
                    <path d="M14.93 5.857c.4-.77 1.352-1.07 2.125-.67.774.403 1.074 1.353.67 2.124l-7.19 13.843c-.27.517-.789.821-1.333.844-.268.013-.541-.042-.795-.176-.773-.4-1.073-1.35-.671-2.122l2.033-3.918-4.403-8.47c-.403-.772-.1-1.722.672-2.124.772-.401 1.725-.1 2.126.67l3.382 6.506zM43.867 4.8c1.706 0 3.31.663 4.516 1.867.613.615.613 1.611 0 2.226-.617.613-1.616.613-2.231 0-.612-.61-1.42-.944-2.285-.944-.862 0-1.672.334-2.282.944-.61.606-.946 1.416-.946 2.278 0 .86.336 1.669.946 2.278.61.607 1.42.946 2.282.946.864 0 1.673-.34 2.285-.946.615-.615 1.614-.615 2.23 0 .614.615.614 1.611 0 2.223-1.206 1.205-2.81 1.868-4.515 1.868-1.704 0-3.306-.663-4.512-1.868-1.206-1.2-1.87-2.8-1.87-4.501 0-1.703.664-3.3 1.87-4.504C40.561 5.463 42.163 4.8 43.867 4.8zm12.75 0C60.137 4.8 63 7.658 63 11.17c0 3.513-2.863 6.37-6.383 6.37-3.519 0-6.382-2.857-6.382-6.37 0-3.512 2.863-6.37 6.382-6.37zm-54.875.21c.87 0 1.577.705 1.577 1.572v9.203c0 .87-.706 1.572-1.577 1.572S.165 16.654.165 15.785V6.582c0-.867.706-1.571 1.577-1.571zm26.123 0H28.337c.377-.012.758.108 1.068.369.667.556.754 1.55.195 2.215l-5.566 6.616h4.356c.871 0 1.578.707 1.578 1.575 0 .87-.707 1.572-1.578 1.572h-7.737c-.358 0-.719-.119-1.014-.368-.666-.557-.754-1.549-.194-2.216l5.566-6.615h-3.639c-.872 0-1.577-.706-1.577-1.576 0-.867.705-1.571 1.577-1.571l2.66-.001h.27zm5.977 0c.872 0 1.577.705 1.577 1.572v9.203c0 .87-.705 1.572-1.577 1.572-.87 0-1.575-.703-1.575-1.572V6.582c0-.867.705-1.571 1.575-1.571zM56.617 7.95c-1.78 0-3.227 1.445-3.227 3.222 0 1.776 1.447 3.224 3.227 3.224 1.78 0 3.23-1.448 3.23-3.224 0-1.777-1.45-3.222-3.23-3.222zM1.742 0c.961 0 1.742.779 1.742 1.74 0 .958-.78 1.738-1.742 1.738S0 2.698 0 1.739C0 .78.78 0 1.742 0zm32.1 0c.963 0 1.743.779 1.743 1.74 0 .958-.78 1.738-1.743 1.738-.963 0-1.743-.78-1.743-1.739C32.1.78 32.88 0 33.842 0z" transform="translate(0 -1) translate(0 1) translate(56)"/>
                </g>
                <path fill="#495057" d="M80.34 26.844c2.71 0 5.388 2.281 5.388 5.578C85.728 35.72 83.05 38 80.34 38s-5.388-2.28-5.388-5.578c0-3.297 2.679-5.578 5.388-5.578zm13.534-.11c.448 0 .836.376.836.829v9.593c0 .454-.388.829-.836.829-.45 0-.821-.375-.821-.829v-.843c-.108.703-1.069 1.687-2.54 1.687-1.718 0-3.777-1.344-3.777-4.17 0-2.783 2.074-4.158 3.777-4.158 1.146 0 2.137.595 2.54 1.5v-.625c0-.047 0-.11.015-.156v-2.828c0-.453.372-.829.806-.829zM56.666 29.72c.34 0 .634.296.634.656v6.937c0 .375-.294.672-.634.672-.356 0-.65-.297-.65-.672v-6.937c0-.36.294-.656.65-.656zm3.003-2.985c.341 0 .635.297.635.64v9.938c0 .343-.294.656-.635.656-.356 0-.65-.313-.65-.656v-9.938c0-.343.294-.64.65-.64zm5.993 2.937c1.765 0 3.885 1.407 3.885 3.938 0 .5-.294.734-.82.734l-5.697-.03c.139 1.75 1.47 2.577 2.802 2.577.712 0 1.285-.203 1.795-.594.233-.156.372-.234.542-.234.295 0 .48.203.48.484 0 .172-.077.344-.34.578-.62.547-1.532.844-2.508.844-1.982 0-4.103-1.313-4.103-4.125 0-2.812 2.199-4.172 3.964-4.172zm34.452 0c1.765 0 3.886 1.407 3.886 3.89 0 .642-.356.892-1.022.892l-5.187-.016c.17 1.453 1.3 2.172 2.54 2.172.635 0 1.068-.156 1.548-.453.263-.14.433-.25.65-.25.356 0 .573.25.573.593 0 .204-.077.423-.418.703-.588.485-1.44.766-2.416.766-2.012 0-4.164-1.297-4.164-4.125 0-2.812 2.245-4.172 4.01-4.172zm-9.337 1.422c-1.13 0-2.4.891-2.4 2.735 0 1.859 1.27 2.75 2.4 2.75 1.053 0 2.353-.813 2.353-2.75 0-1.953-1.3-2.735-2.353-2.735zM80.34 28.438c-1.889 0-3.638 1.61-3.638 3.984 0 2.375 1.75 3.969 3.638 3.969 1.89 0 3.639-1.594 3.639-3.969 0-2.374-1.735-3.984-3.639-3.984zm-14.678 2.376c-1.146 0-2.493.78-2.632 2.53h5.263c-.139-1.75-1.47-2.53-2.631-2.53zm34.452.296c-1.022 0-2.183.656-2.323 2.14h4.614c-.139-1.484-1.253-2.14-2.291-2.14zm-43.448-4.532c.34 0 .65.297.65.657 0 .359-.31.656-.65.656-.356 0-.666-.297-.666-.656 0-.36.31-.657.666-.657zM82.244 24c.496 0 .898.406.898.892 0 .484-.402.89-.898.89-.495 0-.897-.406-.897-.89 0-.486.402-.892.897-.892zm-3.808 0c.495 0 .897.406.897.892 0 .484-.402.89-.897.89s-.898-.406-.898-.89c0-.486.403-.892.898-.892z" transform="translate(0 -1) translate(0 1)"/>
                <g fill="url(#im7dtzmr6a)" transform="translate(0 -1) translate(0 1)">
                    <path d="M4.95 0C2.216 0 0 2.238 0 5v30c0 2.762 2.216 5 4.95 5h30.37c1.846 0 3.538-1.037 4.39-2.691l7.731-15c.366-.71.552-1.488.559-2.266v-.086c-.007-.778-.193-1.555-.559-2.266l-7.73-15C38.857 1.037 37.165 0 35.32 0H4.95z"/>
                </g>
            </g>
        </g>
    </g>
</svg>
