<?xml version="1.0" encoding="UTF-8"?>
<svg width="198px" height="60px" viewBox="0 0 198 60" version="1.1" xmlns="http://www.w3.org/2000/svg" xmlns:xlink="http://www.w3.org/1999/xlink">
    <title>C186B4B9-02E2-4FD5-AE02-72E07185B6CB</title>
    <g id="Campaign-Web" stroke="none" stroke-width="1" fill="none" fill-rule="evenodd">
        <g id="009.0.0-Miniso-Campaign-Detail" transform="translate(-135.000000, -588.000000)">
            <g id="iyzico-miniso-logo" transform="translate(134.999895, 588.000000)">
                <rect id="Rectangle" fill="#D8D8D8" opacity="0" x="0.000104847919" y="0" width="198" height="60"></rect>
                <g id="Group-4">
                    <rect id="Rectangle" fill="#F3CECE" x="125.000105" y="6" width="1" height="48"></rect>
                    <g id="miniso-logo" transform="translate(150.000105, 0.000000)">
                        <rect id="Rectangle" fill="#E30613" fill-rule="nonzero" x="0" y="7.23196321" width="48" height="52.7680368"></rect>
                        <polygon id="Path" fill="#E30613" fill-rule="nonzero" points="17.1271494 8.24087381 17.1271494 2.77234838 31.0556316 2.77234838 31.0556316 8.24087381 33.8073422 8.24087381 33.8073422 2.77234838 31.0556316 0 17.1271494 0 14.2740525 2.77234838 14.2740525 8.24087381"></polygon>
                        <g id="Group" transform="translate(28.438151, 36.899971)" fill="#FFFFFF" fill-rule="nonzero">
                            <path d="M3.20152317,1.63983903 C3.20152317,2.5524576 2.48753496,3.28686404 1.60361754,3.28686404 C0.719700125,3.28686404 0,2.5524576 0,1.63983903 C0,0.727220466 0.718272149,0 1.60361754,0 C2.48896293,0 3.20152317,0.732969244 3.20152317,1.63983903" id="Path"></path>
                            <rect id="Rectangle" x="7.17700958" y="0.354987065" width="6.52014042" height="2.08824375"></rect>
                            <path d="M12.057833,6.13538373 C12.063545,6.24461052 12.0721128,6.35240011 12.0721128,6.4616269 C12.0721128,9.42943375 9.8002023,11.8352975 6.9999405,11.8352975 C4.19967871,11.8352975 1.92776819,9.42943375 1.92776819,6.4616269 C1.92776819,6.35240011 1.93633605,6.24461052 1.94633189,6.13538373 L0.0771107277,6.13538373 C0.0699708455,6.24748491 0.0599750104,6.35240011 0.0599750104,6.4616269 C0.0599750104,10.5231388 3.16725174,13.8157517 6.99851252,13.8157517 C10.8297733,13.8157517 13.938478,10.5231388 13.938478,6.4616269 C13.938478,6.35240011 13.9270542,6.24748491 13.9241983,6.13538373 L12.057833,6.13538373 Z" id="Path"></path>
                        </g>
                        <polygon id="Path" fill="#FFFFFF" points="27.151544 31.8295487 27.151544 19.2167289 28.7794371 19.2167289 35.0039864 26.7375683 35.0039864 19.2167289 37.0988279 19.2167289 37.0988279 31.8295487 35.8593443 31.8295487 29.2620932 24.106065 29.2620932 31.8295487"></polygon>
                        <polygon id="Path" fill="#FFFFFF" points="5.70333789 31.8295487 5.70333789 19.2167289 7.90527756 19.2167289 12.6875707 28.3615982 17.4712917 19.2167289 19.5718451 19.2167289 19.5718451 31.8295487 16.8001428 31.8295487 16.8001428 24.7916068 12.9731659 31.8295487 11.3438448 31.8295487 7.81674302 24.689566 7.81674302 31.8295487"></polygon>
                        <rect id="Rectangle" fill="#FFFFFF" fill-rule="nonzero" x="22.0922235" y="19.2167289" width="2.53894211" height="12.6128198"></rect>
                        <rect id="Rectangle" fill="#FFFFFF" fill-rule="nonzero" x="39.6192063" y="19.2167289" width="2.53894211" height="12.6128198"></rect>
                        <path d="M13.1902184,49.6450129 C14.1269709,48.9623455 15.2593562,46.8597298 14.18409,45.1020408 C13.6757304,44.2756539 12.547629,43.4693878 11.089665,42.8873239 C11.0096983,42.8557057 10.9254477,42.821213 10.8340572,42.7852831 C9.79877432,42.3771199 8.0666389,41.6930152 8.25798774,40.4196608 C8.3936455,39.5171026 9.36466948,39.0212705 10.9939906,39.0212705 C12.1292319,39.0212705 13.214494,39.254096 13.6600226,39.4438057 L14.0041649,37.651624 C13.2616172,37.4604771 12.0649729,37.2635815 10.8297733,37.2635815 C9.59457369,37.2635815 8.02951151,37.444668 7.00136848,38.3112963 C6.34021539,38.8660535 5.9089665,39.785858 5.84756352,40.7688991 C5.78901648,41.7030756 6.06889986,42.555332 6.63437853,43.1675769 C7.42262153,44.0212705 8.61498185,44.512791 9.66597251,44.9468238 C10.5998691,45.331992 11.4052478,45.6639839 11.7865175,46.174188 C12.1306598,46.6340903 12.2049146,47.171601 11.9921461,47.6501868 C11.7179747,48.2681805 11.0082704,48.6835297 10.0943654,48.7611383 C9.86160528,48.781259 9.61742131,48.7913193 9.37038139,48.7913193 C8.20800857,48.7913193 7.01136431,48.5786145 6.14029869,48.2193159 L5.80900815,50.0474274 C6.82287142,50.4268468 8.15660142,50.6524863 9.39608496,50.6524863 C10.4999108,50.6524863 12.0549771,50.4771486 13.1902184,49.6450129 L13.1902184,49.6450129 Z" id="Path" fill="#FFFFFF"></path>
                        <path d="M21.2625692,37.3095717 C21.2425775,37.3153205 21.2225858,37.3167577 21.2025942,37.3095717 C19.6917951,37.3210693 18.6779318,37.6861167 17.9168204,38.4895085 C16.6216457,39.6967519 15.9904802,41.647025 16.0847266,44.1376832 C16.2003927,47.0983041 17.1771286,50.628054 21.1683227,50.628054 L21.21259,50.628054 C21.2268698,50.6251796 21.2425775,50.6251796 21.2568573,50.628054 L21.2968406,50.628054 C23.5002082,50.628054 26.1705242,49.5027307 26.3790087,44.1376832 C26.4761111,41.6498994 25.8449456,39.6981891 24.5554828,38.4938201 C23.7872315,37.6846795 22.7719403,37.3210693 21.2625692,37.3095717 Z M23.7758077,44.1419948 C23.7601,45.9111814 23.4116737,48.877551 21.2682811,48.9422248 C21.2554293,48.9465364 21.2425775,48.9494108 21.2311537,48.9494108 C21.2197299,48.9494108 21.2083061,48.9465364 21.1968823,48.9422248 C19.0534896,48.8761138 18.7050634,45.9097442 18.6893556,44.1419948 C18.666508,41.6139695 18.9449634,39.0112101 21.1697507,38.8818626 C21.1826025,38.8818626 21.1983102,38.8832998 21.211162,38.884737 C21.2297257,38.877551 21.2482894,38.877551 21.2668531,38.8832998 C21.2768489,38.8818626 21.2839888,38.8818626 21.2911287,38.8818626 C23.5201999,39.0112101 23.7972273,41.6125323 23.7758077,44.1419948 L23.7758077,44.1419948 Z" id="Shape" fill="#FFFFFF"></path>
                    </g>
                    <g id="Brand/1--Logo/2--aPayUcompany/1--Colored" transform="translate(0.000000, 8.000000)">
                        <g id="Group-21" fill="#1E64FF">
                            <path d="M23.9346245,9.46182857 C24.5776567,8.21773071 26.1027542,7.73244581 27.3423167,8.3801975 C28.5823001,9.02921845 29.0635222,10.5639795 28.4169128,11.8104044 L28.4169128,11.8104044 L16.8905175,34.1713764 C16.456639,35.0074034 15.6250737,35.4986115 14.7522669,35.5354204 C14.323228,35.5565749 13.8847204,35.4679375 13.4777752,35.2515266 C12.2380023,34.6046211 11.757201,33.06986 12.4019166,31.8232236 L12.4019166,31.8232236 L15.6612654,25.4937885 L8.60200837,11.8104044 C7.95729278,10.5639795 8.44146072,9.02921845 9.67976074,8.3801975 C10.9178503,7.73244581 12.4458936,8.21773071 13.0878738,9.46182857 L13.0878738,9.46182857 L18.5109335,19.9726679 Z M70.3264142,7.7545523 C73.0609847,7.7545523 75.6316408,8.82497147 77.565998,10.7699189 C78.5494839,11.763124 78.5494839,13.3723491 77.565998,14.3657658 C76.5768309,15.3560093 74.9757732,15.3560093 73.9893415,14.3657658 C73.0092223,13.3799647 71.7122161,12.8401011 70.3264142,12.8401011 C68.9443999,12.8401011 67.6452895,13.3799647 66.6679058,14.3657658 C65.6894699,15.3452205 65.1518562,16.6536281 65.1518562,18.0447499 C65.1518562,19.4346025 65.6894699,20.7415293 66.6679058,21.7254265 C67.6452895,22.7053042 68.9443999,23.252995 70.3264142,23.252995 C71.7122161,23.252995 73.0092223,22.7053042 73.9893415,21.7254265 C74.9757732,20.7311636 76.5768309,20.7311636 77.565998,21.7254265 C78.5494839,22.717997 78.5494839,24.3282797 77.565998,25.3168309 C75.6316408,27.2622014 73.0609847,28.3343129 70.3264142,28.3343129 C67.5952105,28.3343129 65.0258168,27.2622014 63.0929326,25.3168309 C61.1598379,23.3778067 60.0945001,20.7918771 60.0945001,18.0447499 C60.0945001,15.2946611 61.1598379,12.7148663 63.0929326,10.7699189 C65.0258168,8.82497147 67.5952105,7.7545523 70.3264142,7.7545523 Z M90.7664025,7.75448883 C96.4093472,7.75448883 101,12.3701956 101,18.0446865 C101,23.7181196 96.4093472,28.334461 90.7664025,28.334461 C85.1257723,28.334461 80.5357508,23.7181196 80.5357508,18.0446865 C80.5357508,12.3701956 85.1257723,7.75448883 90.7664025,7.75448883 Z M2.79222451,8.09418826 C4.18833677,8.09418826 5.32016613,9.23230193 5.32016613,10.6323087 L5.32016613,10.6323087 L5.32016613,25.4984425 C5.32016613,26.9033148 4.18833677,28.0384668 2.79222451,28.0384668 C1.39611226,28.0384668 0.26386206,26.9033148 0.26386206,25.4984425 L0.26386206,25.4984425 L0.26386206,10.6323087 C0.26386206,9.23230193 1.39611226,8.09418826 2.79222451,8.09418826 Z M44.563256,8.09295755 C44.6228775,8.09298356 44.6798888,8.09301136 44.7341407,8.09304103 L45.4165271,8.09396153 L45.4165271,8.09396153 L45.4298505,8.09414595 C46.0339558,8.07341451 46.6439527,8.26719 47.1420081,8.68901131 C48.2100813,9.58659799 48.3497978,11.1924383 47.4542659,12.2664537 L47.4542659,12.2664537 L38.5305099,22.9554142 L45.5138066,22.9554142 C46.910971,22.9554142 48.0444837,24.0964895 48.0444837,25.4984002 C48.0444837,26.903484 46.910971,28.0384245 45.5138066,28.0384245 L45.5138066,28.0384245 L33.1101856,28.0384245 C32.5365908,28.0384245 31.9583667,27.8465529 31.48493,27.4437707 C30.4168568,26.5436455 30.2758779,24.9420361 31.1741451,23.8642128 L31.1741451,23.8642128 L40.0964282,13.1788486 L34.2634775,13.1788486 C32.8656819,13.1788486 31.7355359,12.0377733 31.7355359,10.6324779 C31.7355359,9.23225962 32.8656819,8.09414595 34.2634775,8.09414595 L34.2634775,8.09414595 L34.6594302,8.09403055 C34.7016317,8.09401855 34.7469017,8.09400575 34.7950908,8.09399222 L39.0493728,8.09300665 C39.1536227,8.0929881 39.2582512,8.09296998 39.363109,8.09295236 Z M54.2542269,8.09418826 C55.6530745,8.09418826 56.7821685,9.23230193 56.7821685,10.6323087 L56.7821685,10.6323087 L56.7821685,25.4984425 C56.7821685,26.9033148 55.6530745,28.0384668 54.2542269,28.0384668 C52.8593771,28.0384668 51.7292311,26.9033148 51.7292311,25.4984425 L51.7292311,25.4984425 L51.7292311,10.6323087 C51.7292311,9.23230193 52.8593771,8.09418826 54.2542269,8.09418826 Z M90.7664025,12.8400376 C87.9129468,12.8400376 85.5931069,15.1742284 85.5931069,18.0446865 C85.5931069,20.9142983 87.9129468,23.2529315 90.7664025,23.2529315 C93.6217519,23.2529315 95.9449584,20.9142983 95.9449584,18.0446865 C95.9449584,15.1742284 93.6217519,12.8400376 90.7664025,12.8400376 Z M2.79222451,0 C4.33373444,0 5.58550111,1.2578483 5.58550111,2.80953302 C5.58550111,4.35804456 4.33373444,5.61821986 2.79222451,5.61821986 C1.25071458,5.61821986 0,4.35804456 0,2.80953302 C0,1.2578483 1.25071458,0 2.79222451,0 Z M54.2542269,0 C55.7986826,0 57.0491868,1.2578483 57.0491868,2.80953302 C57.0491868,4.35804456 55.7986826,5.61821986 54.2542269,5.61821986 C52.7110336,5.61821986 51.4605294,4.35804456 51.4605294,2.80953302 C51.4605294,1.2578483 52.7110336,0 54.2542269,0 Z" id="Combined-Shape"></path>
                        </g>
                        <g id="Brand/1--Logo/aPayUcompany_Subtext" transform="translate(27.396355, 35.538462)" fill="#212529" fill-rule="nonzero">
                            <path d="M22.8646325,1.57536923 C23.1680533,1.57536923 23.3974075,1.81144615 23.3974075,2.08644615 C23.3974075,2.19390769 23.3591117,2.28317692 23.3275492,2.35340769 L23.3275492,2.35340769 L21.0752492,7.44556154 C20.9553117,7.72479231 20.7461575,7.84536923 20.5260617,7.84536923 C20.2331617,7.84536923 20.02527,7.60886923 20.02527,7.33429231 C20.02527,7.22429231 20.0601992,7.13883077 20.083345,7.07029231 L20.083345,7.07029231 L20.5786658,5.93517692 L18.9630867,2.35340769 C18.9374158,2.28317692 18.9020658,2.19390769 18.9020658,2.08644615 C18.9020658,1.81144615 19.1272117,1.57536923 19.42432,1.57536923 C19.6410492,1.57536923 19.8476783,1.69636923 19.972245,1.97686923 L19.972245,1.97686923 L21.1345867,4.68286923 L22.3272283,1.97686923 C22.4454825,1.69636923 22.6474825,1.57536923 22.8646325,1.57536923 Z M70.0895813,1.57536923 C70.2789563,1.57536923 70.4262479,1.73233077 70.4262479,1.90790769 C70.4262479,1.97686923 70.4098354,2.02086923 70.3934229,2.07121538 L70.3934229,2.07121538 L68.0107067,7.60252308 C67.9412692,7.76752308 67.8108108,7.84536923 67.6710942,7.84536923 C67.479615,7.84536923 67.3478942,7.68840769 67.3478942,7.51579231 C67.3478942,7.44556154 67.36599,7.40283077 67.3857692,7.34952308 L67.3857692,7.34952308 L67.9686233,5.98552308 L66.2638275,2.07121538 C66.2457317,2.02086923 66.2276358,1.97686923 66.2276358,1.90790769 C66.2276358,1.73233077 66.3782942,1.57536923 66.5672483,1.57536923 C66.7061233,1.57536923 66.8391067,1.65194615 66.9072817,1.81948462 L66.9072817,1.81948462 L68.3250692,5.15713846 L69.7466021,1.81948462 C69.8177229,1.65194615 69.9486021,1.57536923 70.0895813,1.57536923 Z M53.4538713,1.54795385 C54.4192629,1.54795385 55.5933879,2.31837692 55.5933879,3.87149231 C55.5933879,5.44110769 54.4192629,6.20687692 53.4538713,6.20687692 C52.6896379,6.20687692 52.1004712,5.74614615 51.9153046,5.22576154 L51.9153046,5.22576154 L51.9153046,7.48076154 C51.9153046,7.67918462 51.7444463,7.84545385 51.5529671,7.84545385 C51.3539129,7.84545385 51.1902087,7.67918462 51.1902087,7.48076154 L51.1902087,7.48076154 L51.1902087,1.94141538 C51.1902087,1.73918462 51.3433921,1.57545385 51.5529671,1.57545385 C51.7444463,1.57545385 51.9077296,1.73918462 51.9077296,1.94141538 L51.9077296,1.94141538 L51.9077296,2.46772308 C52.1779046,1.88091538 52.7923213,1.54795385 53.4538713,1.54795385 Z M15.6734746,1.54816538 C16.2925204,1.54816538 16.7869996,1.88070385 16.9591204,2.29235769 L16.9591204,2.29235769 L16.9591204,2.13962692 C16.9591204,1.83628077 17.2229829,1.57524231 17.5335579,1.57524231 C17.8382412,1.57524231 18.1147287,1.83628077 18.1147287,2.13962692 L18.1147287,2.13962692 L18.1147287,5.62747308 C18.1147287,5.94308846 17.8382412,6.19481923 17.5335579,6.19481923 C17.2229829,6.19481923 16.9591204,5.94308846 16.9591204,5.62747308 L16.9591204,5.62747308 L16.9591204,5.46035769 C16.8930496,5.73112692 16.4305537,6.20708846 15.6734746,6.20708846 C14.7190246,6.20708846 13.5718329,5.46035769 13.5718329,3.87128077 C13.5718329,2.31858846 14.7249162,1.54816538 15.6734746,1.54816538 Z M39.6289071,1.54795385 C40.6393279,1.54795385 41.8959362,2.32599231 41.8959362,3.8808 C41.8959362,5.44110769 40.6393279,6.20687692 39.6289071,6.20687692 C38.6302696,6.20687692 37.3677696,5.44110769 37.3677696,3.8808 C37.3677696,2.32599231 38.6302696,1.54795385 39.6289071,1.54795385 Z M28.7217908,0 C29.0407825,0 29.2865492,0.260192308 29.2865492,0.572846154 L29.2865492,0.572846154 L29.2865492,3.95196154 C29.2865492,5.36503846 28.208795,6.20696154 26.8612867,6.20696154 C25.5078867,6.20696154 24.4377075,5.36503846 24.4377075,3.95196154 L24.4377075,3.95196154 L24.4377075,0.572846154 C24.4377075,0.260192308 24.6885242,0 25.0100408,0 C25.3332408,0 25.6093075,0.260192308 25.6093075,0.572846154 L25.6093075,0.572846154 L25.6093075,3.93376923 C25.6093075,4.85057692 26.1951075,5.21357692 26.8612867,5.21357692 C27.5413533,5.21357692 28.1120033,4.85057692 28.1120033,3.93376923 L28.1120033,3.93376923 L28.1120033,0.572846154 C28.1120033,0.260192308 28.3893325,0 28.7217908,0 Z M10.9103567,0.0286846154 C12.2637567,0.0286846154 13.1327775,0.9108 13.1327775,2.01164615 C13.1327775,3.13195385 12.2637567,3.97514615 10.9103567,3.97514615 L10.9103567,3.97514615 L9.84943583,3.97514615 L9.84943583,5.61160769 C9.84943583,5.93526154 9.58978167,6.20687692 9.26658167,6.20687692 C8.93749,6.20687692 8.6761525,5.93526154 8.6761525,5.61160769 L8.6761525,5.61160769 L8.6761525,0.673876923 C8.6761525,0.298607692 8.945065,0.0286846154 9.3200275,0.0286846154 L9.3200275,0.0286846154 Z M58.35679,1.54795385 C59.0149733,1.54795385 59.6331775,1.88091538 59.90209,2.46772308 L59.90209,2.46772308 L59.90209,1.94141538 C59.90209,1.73918462 60.0700025,1.57545385 60.2585358,1.57545385 C60.46769,1.57545385 60.6208733,1.73918462 60.6208733,1.94141538 L60.6208733,1.94141538 L60.6208733,5.82864615 C60.6208733,6.01945385 60.460115,6.19460769 60.2585358,6.19460769 C60.0700025,6.19460769 59.90209,6.01945385 59.90209,5.82864615 L59.90209,5.82864615 L59.902,5.201 L59.8618097,5.30570578 C59.6633036,5.75784978 59.1575554,6.147328 58.5089334,6.20066089 L58.35679,6.20687692 C57.3935025,6.20687692 56.22064,5.44110769 56.22064,3.87149231 C56.22064,2.31837692 57.3935025,1.54795385 58.35679,1.54795385 Z M2.13783333,1.54795385 C2.7964375,1.54795385 3.4125375,1.88091538 3.6827125,2.46772308 L3.6827125,2.46772308 L3.6827125,1.94141538 C3.6827125,1.73918462 3.8481,1.57545385 4.03915833,1.57545385 C4.2483125,1.57545385 4.4036,1.73918462 4.4036,1.94141538 L4.4036,1.94141538 L4.4036,5.82864615 C4.4036,6.01945385 4.23610833,6.19460769 4.03915833,6.19460769 C3.8481,6.19460769 3.6827125,6.01945385 3.6827125,5.82864615 L3.6827125,5.82864615 L3.682,5.201 L3.64226998,5.30570578 C3.4430895,5.75784978 2.93706741,6.147328 2.28966763,6.20066089 L2.13783333,6.20687692 C1.16991667,6.20687692 0,5.44110769 0,3.87149231 C0,2.31837692 1.16991667,1.54795385 2.13783333,1.54795385 Z M48.4253337,1.55413077 C49.2489046,1.55413077 50.1175046,2.05293846 50.1175046,3.50324615 L50.1175046,3.50324615 L50.1175046,5.82255385 C50.1175046,6.00997692 49.9605337,6.18851538 49.7640046,6.18851538 C49.5620046,6.18851538 49.3970379,6.00997692 49.3970379,5.82255385 L49.3970379,5.82255385 L49.3970379,3.50324615 C49.3970379,2.55301538 48.8335421,2.19382308 48.2250171,2.19382308 C47.3374796,2.19382308 46.8867671,2.94563077 46.8059671,3.44443846 L46.8059671,3.44443846 L46.8059671,5.82255385 C46.8059671,6.00997692 46.6426837,6.18851538 46.4419462,6.18851538 C46.2407879,6.18851538 46.0850796,6.00997692 46.0850796,5.82255385 L46.0850796,5.82255385 L46.0850796,3.50324615 C46.0850796,2.55301538 45.5119046,2.19382308 44.9033796,2.19382308 C44.0187879,2.19382308 43.5668129,2.94563077 43.4893796,3.44443846 L43.4893796,3.44443846 L43.4893796,5.82255385 C43.4893796,6.00997692 43.3252546,6.18851538 43.1312504,6.18851538 C42.9321962,6.18851538 42.7672296,6.00997692 42.7672296,5.82255385 L42.7672296,5.82255385 L42.7672296,1.94124615 C42.7672296,1.73901538 42.9321962,1.57528462 43.1312504,1.57528462 C43.3252546,1.57528462 43.4893796,1.73901538 43.4893796,1.94124615 L43.4893796,1.94124615 L43.4893796,2.64947692 C43.5407212,2.35332308 44.0798087,1.55413077 45.1129546,1.55413077 C45.7547254,1.55413077 46.4314254,1.86255385 46.6957087,2.69178462 C46.9368462,2.16124615 47.5133879,1.55413077 48.4253337,1.55413077 Z M64.0125796,1.55413077 C64.8302588,1.55413077 65.7072754,2.05293846 65.7072754,3.50324615 L65.7072754,3.50324615 L65.7072754,5.82255385 C65.7072754,6.00997692 65.5423088,6.18851538 65.3445171,6.18851538 C65.1429379,6.18851538 64.9880713,6.00997692 64.9880713,5.82255385 L64.9880713,5.82255385 L64.9880713,3.50324615 C64.9880713,2.55301538 64.4111087,2.19382308 63.8046879,2.19382308 C62.9196754,2.19382308 62.4660171,2.94563077 62.3873212,3.44443846 L62.3873212,3.44443846 L62.3873212,5.82255385 C62.3873212,6.00997692 62.2231962,6.18851538 62.0321379,6.18851538 C61.8330837,6.18851538 61.6664338,6.00997692 61.6664338,5.82255385 L61.6664338,5.82255385 L61.6664338,1.94124615 C61.6664338,1.73901538 61.8330837,1.57528462 62.0321379,1.57528462 C62.2231962,1.57528462 62.3873212,1.73901538 62.3873212,1.94124615 L62.3873212,1.94124615 L62.3873212,2.64947692 C62.4369796,2.35332308 62.9777504,1.55413077 64.0125796,1.55413077 Z M35.05811,1.54799615 C35.6864142,1.54799615 36.2313933,1.77349615 36.6139308,2.24015 C36.6833683,2.32603462 36.7793183,2.42249615 36.7793183,2.56084231 C36.7793183,2.73684231 36.6396017,2.86038077 36.4742142,2.86038077 C36.3454392,2.86038077 36.2406517,2.78084231 36.1695308,2.69199615 C35.9094558,2.34465 35.47726,2.18726538 35.09346,2.18726538 C34.32081,2.18726538 33.5136517,2.74530385 33.5136517,3.87111154 C33.5136517,4.99099615 34.32081,5.54945769 35.09346,5.54945769 C35.47726,5.54945769 35.9094558,5.39207308 36.1695308,5.04430385 C36.2406517,4.95249615 36.3454392,4.87634231 36.4742142,4.87634231 C36.6396017,4.87634231 36.7793183,5.00030385 36.7793183,5.17588077 C36.7793183,5.31465 36.6833683,5.40730385 36.6139308,5.48980385 C36.2313933,5.95095769 35.6864142,6.18872692 35.05811,6.18872692 C34.0325392,6.18872692 32.7978142,5.42591923 32.7978142,3.87111154 C32.7978142,2.31080385 34.0325392,1.54799615 35.05811,1.54799615 Z M53.3511879,2.17495385 C52.6728046,2.17495385 51.8744837,2.67672308 51.8744837,3.87149231 C51.8744837,5.04426154 52.6728046,5.56633846 53.3511879,5.56633846 C54.0565046,5.56633846 54.8699754,5.02649231 54.8699754,3.87149231 C54.8699754,2.73003077 54.0565046,2.17495385 53.3511879,2.17495385 Z M58.46284,2.17495385 C57.75584,2.17495385 56.9398442,2.73003077 56.9398442,3.87149231 C56.9398442,5.02649231 57.75584,5.56633846 58.46284,5.56633846 C59.137015,5.56633846 59.9382817,5.04426154 59.9382817,3.87149231 C59.9382817,2.67672308 59.137015,2.17495385 58.46284,2.17495385 Z M2.239675,2.17495385 C1.53856667,2.17495385 0.717520833,2.73003077 0.717520833,3.87149231 C0.717520833,5.02649231 1.53856667,5.56633846 2.239675,5.56633846 C2.9176375,5.56633846 3.71764167,5.04426154 3.71764167,3.87149231 C3.71764167,2.67672308 2.9176375,2.17495385 2.239675,2.17495385 Z M39.6289071,2.18722308 C38.9080196,2.18722308 38.0840279,2.75456923 38.0840279,3.8808 C38.0840279,5.00026154 38.9080196,5.56633846 39.6289071,5.56633846 C40.3586321,5.56633846 41.1767321,5.00026154 41.1767321,3.8808 C41.1767321,2.75456923 40.3586321,2.18722308 39.6289071,2.18722308 Z M15.8830496,2.52716538 C15.3094537,2.52716538 14.7110287,2.98028077 14.7110287,3.87128077 C14.7110287,4.77158846 15.3094537,5.21370385 15.8830496,5.21370385 C16.3695329,5.21370385 17.0134079,4.85705 17.0134079,3.87128077 C17.0134079,2.88466538 16.3695329,2.52716538 15.8830496,2.52716538 Z M10.8569108,1.03222308 L9.84943583,1.03222308 L9.84943583,2.97456923 L10.8569108,2.97456923 C11.5113067,2.97456923 11.995265,2.7368 11.995265,2.01164615 C11.995265,1.29453077 11.5113067,1.03222308 10.8569108,1.03222308 L10.8569108,1.03222308 Z" id="Combined-Shape"></path>
                        </g>
                    </g>
                </g>
            </g>
        </g>
    </g>
</svg>