<?xml version="1.0" encoding="UTF-8"?>
<svg width="247px" height="60px" viewBox="0 0 247 60" version="1.1" xmlns="http://www.w3.org/2000/svg" xmlns:xlink="http://www.w3.org/1999/xlink">
    <title>9BEAD6E6-756C-4384-BE92-5905FC78F008</title>
    <g id="Campaign-Web" stroke="none" stroke-width="1" fill="none" fill-rule="evenodd">
        <g id="009.0.0-shopi-go-Campaign-Detail" transform="translate(-135.000000, -588.000000)">
            <g id="iyzico-shopigo-logo" transform="translate(134.999895, 588.000000)">
                <rect id="Rectangle" fill="#D8D8D8" opacity="0" x="0.000104847919" y="0" width="198" height="60"></rect>
                <g id="Group-4" transform="translate(0.000000, 6.000000)">
                    <rect id="Rectangle" fill="#343A40" fill-rule="nonzero" x="125.000105" y="0" width="1" height="48"></rect>
                    <g id="shopigo-logo" transform="translate(150.000105, 2.000000)" fill="#000000" fill-rule="nonzero">
                        <path d="M6.29313162,17.2585212 C4.45926645,17.2585212 2.99086907,16.9124279 1.88793949,16.2202412 C0.799926953,15.512365 0.170613791,14.5128474 0,13.2207656 L4.35857634,13.2207656 C4.4210415,13.5742423 4.61496319,13.8511169 4.94127372,14.0513896 C5.26758424,14.2359727 5.69458488,14.3282643 6.22320794,14.3282643 C6.65859941,14.3282643 6.99236847,14.2664289 7.22544742,14.1436812 C7.45852636,14.0209334 7.57506584,13.8363503 7.57506584,13.5899318 C7.57506584,13.3748925 7.48929279,13.2207656 7.318679,13.128474 C7.16298226,13.0204929 6.75928952,12.9134347 6.10666846,12.8054536 L3.96234213,12.4593603 C2.71956518,12.2590876 1.80216643,11.8751547 1.21201053,11.3057158 C0.621854636,10.7362769 0.326310528,9.9674882 0.326310528,8.99842685 C0.326310528,7.76818039 0.854933585,6.76035658 1.91124738,5.97587834 C2.98341055,5.1914001 4.32780992,4.79916099 5.9435132,4.79916099 C7.65244805,4.79916099 9.0126968,5.15263765 10.0223948,5.8605139 C11.0479422,6.55270058 11.6380981,7.52914525 11.7937948,8.79077084 L7.64498952,8.79077084 C7.59837373,8.46775039 7.4193691,8.20656529 7.10890794,8.00629261 C6.79844678,7.79125328 6.42552046,7.68327216 5.99012899,7.68327216 C5.61720267,7.68327216 5.31420003,7.75249082 5.08112109,7.89092816 C4.84804214,8.0293655 4.73150266,8.21394861 4.73150266,8.4446775 C4.73150266,8.64495018 4.80888487,8.79815417 4.96458161,8.90613529 C5.1351954,9.01411641 5.51651256,9.1137913 6.10666846,9.20608285 L8.39084216,9.57524908 C9.57208627,9.7598322 10.4652448,10.1594546 11.0712501,10.7750393 C11.6931047,11.3749345 12.0035659,12.166796 12.0035659,13.1515469 C12.0035659,14.3817934 11.4674843,15.3739276 10.3953211,16.1279497 C9.33900732,16.8819717 7.97130005,17.2585212 6.29313162,17.2585212 L6.29313162,17.2585212 Z M18.3992522,0 L18.3992522,6.78342947 C18.7404798,6.15307813 19.2150285,5.66854746 19.8210338,5.32983744 C20.4419561,4.97636078 21.1570423,4.79916099 21.9653601,4.79916099 C23.3787509,4.79916099 24.4826128,5.20708967 25.2750812,6.02202412 C26.0824667,6.82219192 26.4870918,7.93707394 26.4870918,9.36759308 L26.4870918,16.9816466 L21.7322812,16.9816466 L21.7322812,10.5212375 C21.7322812,9.8133613 21.5924338,9.28268485 21.3127391,8.92920818 C21.0479614,8.57573152 20.6442687,8.39853173 20.1007286,8.39853173 C19.5562561,8.39853173 19.136714,8.5988044 18.8421022,8.99842685 C18.5465581,9.38328264 18.3992522,9.94441531 18.3992522,10.6827478 L18.3992522,16.9816466 L13.6444417,16.9816466 L13.6444417,0 L18.3992522,0 L18.3992522,0 Z M34.6215471,4.79916099 C36.6577248,4.79916099 38.2808866,5.36029365 39.4928971,6.48348191 C40.7049076,7.60667016 41.3109129,9.12117462 41.3109129,11.0288411 C41.3109129,12.9365076 40.7049076,14.4510121 39.4928971,15.5742003 C38.2808866,16.6973886 36.6577248,17.2585212 34.6224794,17.2585212 C32.5863017,17.2585212 30.9631399,16.6973886 29.7511294,15.5742003 C28.5391188,14.4510121 27.9331136,12.9365076 27.9331136,11.0288411 C27.9331136,9.12117462 28.5391188,7.60667016 29.7511294,6.48348191 C30.9631399,5.36029365 32.5863017,4.79916099 34.6215471,4.79916099 Z M34.6215471,8.09858416 C33.9847754,8.09858416 33.5027681,8.34500262 33.1764576,8.83691662 C32.8659964,9.32883062 32.7102997,10.0597798 32.7102997,11.0288411 C32.7102997,11.9979025 32.8659964,12.7288516 33.1764576,13.2207656 C33.5027681,13.7126796 33.9847754,13.9590981 34.6215471,13.9590981 C35.2592511,13.9590981 35.7328675,13.7126796 36.044261,13.2207656 C36.3705715,12.7288516 36.5337268,11.9979025 36.5337268,11.0288411 C36.5337268,10.0597798 36.3705715,9.32883062 36.044261,8.83691662 C35.7328675,8.34500262 35.2592511,8.09858416 34.6215471,8.09858416 Z M51.1449799,17.2585212 C50.3674285,17.2585212 49.6607332,17.0896277 49.0239615,16.7509177 C48.4021068,16.397441 47.9434075,15.927677 47.6487957,15.3434714 L47.6487957,21.0886209 L42.8939851,21.0886209 L42.8939851,5.07603566 L47.6021799,5.07603566 L47.6021799,6.7142108 C47.8967917,6.13000524 48.3629496,5.66854746 49.0006536,5.32983744 C49.6532746,4.97636078 50.3674285,4.79916099 51.1449799,4.79916099 C52.7140674,4.79916099 53.9726937,5.37598322 54.9208589,6.52962769 C55.8680917,7.66758259 56.3426405,9.1673204 56.3426405,11.0288411 C56.3426405,12.8903618 55.8680917,14.397483 54.9208589,15.5511274 C53.9726937,16.6890823 52.7140674,17.2585212 51.1449799,17.2585212 L51.1449799,17.2585212 Z M49.5600431,8.09858416 C48.9381884,8.09858416 48.4487226,8.32931306 48.0916457,8.79077084 C47.7494858,9.25222863 47.578872,9.89826953 47.578872,10.7288936 L47.578872,11.3287887 C47.578872,12.1594127 47.7494858,12.8054536 48.0916457,13.2669114 C48.4487226,13.7283692 48.9381884,13.9590981 49.5600431,13.9590981 C50.2126641,13.9590981 50.7095884,13.7126796 51.0517483,13.2207656 C51.4088253,12.713162 51.5878299,11.9822129 51.5878299,11.0288411 C51.5878299,10.0754693 51.4088253,9.35190351 51.0517483,8.85998951 C50.7095884,8.35238595 50.2126641,8.09858416 49.5600431,8.09858416 Z M62.7056958,3.78395385 L57.9042694,3.78395385 L57.9042694,0 L62.7056958,0 L62.7056958,3.78395385 L62.7056958,3.78395385 Z M62.6842525,16.9816466 L57.929442,16.9816466 L57.929442,5.07603566 L62.6842525,5.07603566 L62.6842525,16.9816466 Z M75.2099152,18.2506555 C75.8933027,18.2506555 76.4060764,18.0660724 76.7482363,17.6969061 C77.1053132,17.3434295 77.2843179,16.812753 77.2843179,16.1048768 L77.2843179,14.4897745 C76.9738567,15.1053592 76.5076988,15.5972732 75.8858442,15.9664394 C75.2639895,16.3199161 74.5647527,16.4971159 73.7881336,16.4971159 C72.1873474,16.4971159 70.9054132,15.9590561 69.942331,14.8820136 C68.9941658,13.8049712 68.5205494,12.3901416 68.5205494,10.636602 C68.5205494,8.8830624 68.9941658,7.47561615 69.942331,6.41426324 C70.9054132,5.33722077 72.1873474,4.79916099 73.7881336,4.79916099 C74.5647527,4.79916099 75.2723804,4.97636078 75.9091521,5.32983744 C76.5617731,5.68331411 77.0353896,6.16046146 77.3309337,6.76035658 L77.3309337,5.07603566 L82.0391284,5.07603566 L82.0391284,15.3434714 C82.0391284,17.2815941 81.4489725,18.7656424 80.2677284,19.7965391 C79.0864843,20.8422024 77.4083159,21.3654955 75.2332231,21.3654955 C73.3844409,21.3654955 71.8768863,20.9963293 70.7114915,20.2579969 C69.5619461,19.535354 68.8776263,18.5349135 68.6603968,17.2585212 L73.3452836,17.2585212 C73.4543646,17.5972313 73.6641356,17.8427268 73.9745968,17.9968537 C74.285058,18.1657472 74.6971415,18.2506555 75.2099152,18.2506555 L75.2099152,18.2506555 Z M75.3264547,13.2669114 C75.9632264,13.2669114 76.461083,13.0518721 76.81816,12.6208705 C77.1752369,12.1898689 77.3542416,11.5899738 77.3542416,10.8211851 L77.3542416,10.428946 C77.3542416,9.69061353 77.1677784,9.1137913 76.7948521,8.69847929 C76.4377751,8.26747771 75.9483093,8.05243838 75.3264547,8.05243838 C74.6738336,8.05243838 74.1685185,8.27578395 73.8114415,8.72155218 C73.4692816,9.1673204 73.2986678,9.80597798 73.2986678,10.636602 C73.2986678,11.4829156 73.4692816,12.1363398 73.8114415,12.5977976 C74.1685185,13.0435658 74.6738336,13.2669114 75.3264547,13.2669114 Z M90.3106342,4.79916099 C92.3458795,4.79916099 93.9699737,5.36029365 95.1819842,6.48348191 C96.3939947,7.60667016 97,9.12117462 97,11.0288411 C97,12.9365076 96.3939947,14.4510121 95.1819842,15.5742003 C93.9699737,16.6973886 92.3458795,17.2585212 90.3106342,17.2585212 C88.2753888,17.2585212 86.6512947,16.6973886 85.4392841,15.5742003 C84.2272736,14.4510121 83.6212683,12.9365076 83.6212683,11.0288411 C83.6212683,9.12117462 84.2272736,7.60667016 85.4392841,6.48348191 C86.6512947,5.36029365 88.2753888,4.79916099 90.3106342,4.79916099 Z M90.3106342,8.09858416 C89.6738625,8.09858416 89.1918552,8.34500262 88.8655447,8.83691662 C88.5550835,9.32883062 88.3993868,10.0597798 88.3993868,11.0288411 C88.3993868,11.9979025 88.5550835,12.7288516 88.8655447,13.2207656 C89.1918552,13.7126796 89.6738625,13.9590981 90.3106342,13.9590981 C90.9474059,13.9590981 91.4219546,13.7126796 91.7324158,13.2207656 C92.0587263,12.7288516 92.2218815,11.9979025 92.2218815,11.0288411 C92.2218815,10.0597798 92.0587263,9.32883062 91.7324158,8.83691662 C91.4219546,8.34500262 90.9474059,8.09858416 90.3106342,8.09858416 Z M17.737308,26.9491348 L14.8005133,26.9491348 L14.8005133,25.3571054 L17.737308,25.3571054 L17.737308,26.9491348 Z M12.4930317,26.9491348 L9.67277638,26.9491348 L9.67277638,25.3571054 L12.4930317,25.3571054 L12.4930317,26.9491348 Z M7.36529478,26.9491348 L4.5683474,26.9491348 L4.5683474,25.3571054 L7.36529478,25.3571054 L7.36529478,26.9491348 Z M20.4177159,23.3036182 L2.00447896,23.3036182 L2.00447896,28.979549 L20.4177159,28.979549 L20.4177159,23.3036182 Z M6.06005267,37.1704248 L16.2689106,37.1704248 L16.2689106,38.3240692 L6.06005267,38.3240692 L6.06005267,37.1704248 Z M6.06005267,34.401678 L16.2689106,34.401678 L16.2689106,35.5553225 L6.06005267,35.5553225 L6.06005267,34.401678 Z M6.06005267,31.6560042 L16.2689106,31.6560042 L16.2689106,32.7865758 L6.06005267,32.7865758 L6.06005267,31.6560042 Z M19.1823975,40.0545359 L19.1823975,29.9255375 L3.26310528,29.9255375 L3.26310528,40.0545359 L6.8525211,40.0545359 C5.19766056,40.8390142 2.65710002,41.5773466 0.372926318,41.9926586 C0.95562369,42.4541164 1.95786317,43.4462507 2.42402107,44 C4.84804214,43.3308862 7.90137637,42.2233875 9.85923954,40.9543786 L7.83145268,40.0545359 L14.3343554,40.0545359 L12.4464159,41.2543262 C14.9869764,42.1080231 17.5508449,43.169376 18.9959343,43.9307813 L22.0026528,42.5694809 C20.3711001,41.8542213 17.6906922,40.8390142 15.2200554,40.0545359 L19.1823975,40.0545359 Z M31.8618923,32.532774 L29.717566,33.1326691 L29.717566,29.4179339 L31.6521213,29.4179339 L31.6521213,26.8106974 L29.717566,26.8106974 L29.717566,22.3807027 L27.1770054,22.3807027 L27.1770054,26.8106974 L26.0815344,26.8106974 C26.2213817,25.8877819 26.3379212,24.9879392 26.4311528,24.0650236 L24.1236712,23.6727845 C23.9139002,26.3953854 23.5176659,29.2794966 22.7951212,31.1022549 C23.3078949,31.4022024 24.3334423,32.0251704 24.7529844,32.3712638 C25.0792949,31.5406397 25.3589896,30.5485055 25.6153765,29.4179339 L27.1770054,29.4179339 L27.1770054,33.8248558 C25.5920686,34.2632407 24.170287,34.6324069 23.0048923,34.8862087 L23.6808212,37.4934452 C24.7529844,37.2165705 25.9183791,36.8474043 27.1770054,36.4782381 L27.1770054,43.9307813 L29.717566,43.9307813 L29.717566,35.7168327 C30.5799581,35.4630309 31.3957344,35.1861563 32.2348186,34.9554274 L31.8618923,32.532774 L31.8618923,32.532774 Z M36.0106976,25.9339276 C36.3370081,24.9187205 36.6400108,23.8804405 36.8730897,22.8190876 L34.3558371,22.3576298 C33.6566002,25.7493445 32.374666,29.0487677 30.5333423,31.0561091 C31.0927318,31.4022024 32.1882028,32.1636078 32.6310528,32.6019927 C33.5400607,31.494494 34.3558371,30.0639748 35.031766,28.4719455 L36.2204687,28.4719455 C35.1949213,31.8175144 33.3769055,35.232302 31.0694239,37.0319874 C31.7919686,37.4242265 32.6776686,38.0471945 33.1904423,38.577871 C35.5445397,36.3628736 37.5024029,32.2328264 38.5279503,28.4719455 L39.6234213,28.4719455 C38.4580266,33.8710016 36.1272371,39.1085475 32.3979739,41.7619297 C33.1671344,42.1541689 34.1227581,42.8232826 34.6588397,43.3539591 C38.4114108,40.2852648 40.8121239,34.2863136 41.9542108,28.4719455 L42.0707503,28.4719455 C41.697824,36.7551127 41.2782818,39.8930257 40.6955845,40.6313582 C40.4158897,40.9774515 40.1828108,41.0697431 39.8331924,41.0697431 C39.3903424,41.0697431 38.6211818,41.0697431 37.7587897,40.9774515 C38.1783318,41.7388568 38.4580266,42.8694284 38.5279503,43.6539067 C39.5301897,43.7000524 40.5091213,43.7000524 41.1617424,43.584688 C41.9309029,43.4231778 42.4436766,43.169376 42.9797582,42.3848977 C43.8654582,41.2312533 44.2850003,37.4703723 44.7278503,27.1798637 C44.7511582,26.8568432 44.7744661,25.9339276 44.7744661,25.9339276 L36.0106976,25.9339276 L36.0106976,25.9339276 Z" id="Shape"></path>
                    </g>
                    <g id="Brand/1--Logo/2--aPayUcompany/1--Colored" transform="translate(0.000000, 2.000000)">
                        <g id="Group-21" fill="#1E64FF">
                            <path d="M23.9346245,9.46182857 C24.5776567,8.21773071 26.1027542,7.73244581 27.3423167,8.3801975 C28.5823001,9.02921845 29.0635222,10.5639795 28.4169128,11.8104044 L28.4169128,11.8104044 L16.8905175,34.1713764 C16.456639,35.0074034 15.6250737,35.4986115 14.7522669,35.5354204 C14.323228,35.5565749 13.8847204,35.4679375 13.4777752,35.2515266 C12.2380023,34.6046211 11.757201,33.06986 12.4019166,31.8232236 L12.4019166,31.8232236 L15.6612654,25.4937885 L8.60200837,11.8104044 C7.95729278,10.5639795 8.44146072,9.02921845 9.67976074,8.3801975 C10.9178503,7.73244581 12.4458936,8.21773071 13.0878738,9.46182857 L13.0878738,9.46182857 L18.5109335,19.9726679 Z M70.3264142,7.7545523 C73.0609847,7.7545523 75.6316408,8.82497147 77.565998,10.7699189 C78.5494839,11.763124 78.5494839,13.3723491 77.565998,14.3657658 C76.5768309,15.3560093 74.9757732,15.3560093 73.9893415,14.3657658 C73.0092223,13.3799647 71.7122161,12.8401011 70.3264142,12.8401011 C68.9443999,12.8401011 67.6452895,13.3799647 66.6679058,14.3657658 C65.6894699,15.3452205 65.1518562,16.6536281 65.1518562,18.0447499 C65.1518562,19.4346025 65.6894699,20.7415293 66.6679058,21.7254265 C67.6452895,22.7053042 68.9443999,23.252995 70.3264142,23.252995 C71.7122161,23.252995 73.0092223,22.7053042 73.9893415,21.7254265 C74.9757732,20.7311636 76.5768309,20.7311636 77.565998,21.7254265 C78.5494839,22.717997 78.5494839,24.3282797 77.565998,25.3168309 C75.6316408,27.2622014 73.0609847,28.3343129 70.3264142,28.3343129 C67.5952105,28.3343129 65.0258168,27.2622014 63.0929326,25.3168309 C61.1598379,23.3778067 60.0945001,20.7918771 60.0945001,18.0447499 C60.0945001,15.2946611 61.1598379,12.7148663 63.0929326,10.7699189 C65.0258168,8.82497147 67.5952105,7.7545523 70.3264142,7.7545523 Z M90.7664025,7.75448883 C96.4093472,7.75448883 101,12.3701956 101,18.0446865 C101,23.7181196 96.4093472,28.334461 90.7664025,28.334461 C85.1257723,28.334461 80.5357508,23.7181196 80.5357508,18.0446865 C80.5357508,12.3701956 85.1257723,7.75448883 90.7664025,7.75448883 Z M2.79222451,8.09418826 C4.18833677,8.09418826 5.32016613,9.23230193 5.32016613,10.6323087 L5.32016613,10.6323087 L5.32016613,25.4984425 C5.32016613,26.9033148 4.18833677,28.0384668 2.79222451,28.0384668 C1.39611226,28.0384668 0.26386206,26.9033148 0.26386206,25.4984425 L0.26386206,25.4984425 L0.26386206,10.6323087 C0.26386206,9.23230193 1.39611226,8.09418826 2.79222451,8.09418826 Z M44.563256,8.09295755 C44.6228775,8.09298356 44.6798888,8.09301136 44.7341407,8.09304103 L45.4165271,8.09396153 L45.4165271,8.09396153 L45.4298505,8.09414595 C46.0339558,8.07341451 46.6439527,8.26719 47.1420081,8.68901131 C48.2100813,9.58659799 48.3497978,11.1924383 47.4542659,12.2664537 L47.4542659,12.2664537 L38.5305099,22.9554142 L45.5138066,22.9554142 C46.910971,22.9554142 48.0444837,24.0964895 48.0444837,25.4984002 C48.0444837,26.903484 46.910971,28.0384245 45.5138066,28.0384245 L45.5138066,28.0384245 L33.1101856,28.0384245 C32.5365908,28.0384245 31.9583667,27.8465529 31.48493,27.4437707 C30.4168568,26.5436455 30.2758779,24.9420361 31.1741451,23.8642128 L31.1741451,23.8642128 L40.0964282,13.1788486 L34.2634775,13.1788486 C32.8656819,13.1788486 31.7355359,12.0377733 31.7355359,10.6324779 C31.7355359,9.23225962 32.8656819,8.09414595 34.2634775,8.09414595 L34.2634775,8.09414595 L34.6594302,8.09403055 C34.7016317,8.09401855 34.7469017,8.09400575 34.7950908,8.09399222 L39.0493728,8.09300665 C39.1536227,8.0929881 39.2582512,8.09296998 39.363109,8.09295236 Z M54.2542269,8.09418826 C55.6530745,8.09418826 56.7821685,9.23230193 56.7821685,10.6323087 L56.7821685,10.6323087 L56.7821685,25.4984425 C56.7821685,26.9033148 55.6530745,28.0384668 54.2542269,28.0384668 C52.8593771,28.0384668 51.7292311,26.9033148 51.7292311,25.4984425 L51.7292311,25.4984425 L51.7292311,10.6323087 C51.7292311,9.23230193 52.8593771,8.09418826 54.2542269,8.09418826 Z M90.7664025,12.8400376 C87.9129468,12.8400376 85.5931069,15.1742284 85.5931069,18.0446865 C85.5931069,20.9142983 87.9129468,23.2529315 90.7664025,23.2529315 C93.6217519,23.2529315 95.9449584,20.9142983 95.9449584,18.0446865 C95.9449584,15.1742284 93.6217519,12.8400376 90.7664025,12.8400376 Z M2.79222451,0 C4.33373444,0 5.58550111,1.2578483 5.58550111,2.80953302 C5.58550111,4.35804456 4.33373444,5.61821986 2.79222451,5.61821986 C1.25071458,5.61821986 0,4.35804456 0,2.80953302 C0,1.2578483 1.25071458,0 2.79222451,0 Z M54.2542269,0 C55.7986826,0 57.0491868,1.2578483 57.0491868,2.80953302 C57.0491868,4.35804456 55.7986826,5.61821986 54.2542269,5.61821986 C52.7110336,5.61821986 51.4605294,4.35804456 51.4605294,2.80953302 C51.4605294,1.2578483 52.7110336,0 54.2542269,0 Z" id="Combined-Shape"></path>
                        </g>
                        <g id="Brand/1--Logo/aPayUcompany_Subtext" transform="translate(27.396355, 35.538462)" fill="#212529" fill-rule="nonzero">
                            <path d="M22.8646325,1.57536923 C23.1680533,1.57536923 23.3974075,1.81144615 23.3974075,2.08644615 C23.3974075,2.19390769 23.3591117,2.28317692 23.3275492,2.35340769 L23.3275492,2.35340769 L21.0752492,7.44556154 C20.9553117,7.72479231 20.7461575,7.84536923 20.5260617,7.84536923 C20.2331617,7.84536923 20.02527,7.60886923 20.02527,7.33429231 C20.02527,7.22429231 20.0601992,7.13883077 20.083345,7.07029231 L20.083345,7.07029231 L20.5786658,5.93517692 L18.9630867,2.35340769 C18.9374158,2.28317692 18.9020658,2.19390769 18.9020658,2.08644615 C18.9020658,1.81144615 19.1272117,1.57536923 19.42432,1.57536923 C19.6410492,1.57536923 19.8476783,1.69636923 19.972245,1.97686923 L19.972245,1.97686923 L21.1345867,4.68286923 L22.3272283,1.97686923 C22.4454825,1.69636923 22.6474825,1.57536923 22.8646325,1.57536923 Z M70.0895813,1.57536923 C70.2789563,1.57536923 70.4262479,1.73233077 70.4262479,1.90790769 C70.4262479,1.97686923 70.4098354,2.02086923 70.3934229,2.07121538 L70.3934229,2.07121538 L68.0107067,7.60252308 C67.9412692,7.76752308 67.8108108,7.84536923 67.6710942,7.84536923 C67.479615,7.84536923 67.3478942,7.68840769 67.3478942,7.51579231 C67.3478942,7.44556154 67.36599,7.40283077 67.3857692,7.34952308 L67.3857692,7.34952308 L67.9686233,5.98552308 L66.2638275,2.07121538 C66.2457317,2.02086923 66.2276358,1.97686923 66.2276358,1.90790769 C66.2276358,1.73233077 66.3782942,1.57536923 66.5672483,1.57536923 C66.7061233,1.57536923 66.8391067,1.65194615 66.9072817,1.81948462 L66.9072817,1.81948462 L68.3250692,5.15713846 L69.7466021,1.81948462 C69.8177229,1.65194615 69.9486021,1.57536923 70.0895813,1.57536923 Z M53.4538713,1.54795385 C54.4192629,1.54795385 55.5933879,2.31837692 55.5933879,3.87149231 C55.5933879,5.44110769 54.4192629,6.20687692 53.4538713,6.20687692 C52.6896379,6.20687692 52.1004712,5.74614615 51.9153046,5.22576154 L51.9153046,5.22576154 L51.9153046,7.48076154 C51.9153046,7.67918462 51.7444463,7.84545385 51.5529671,7.84545385 C51.3539129,7.84545385 51.1902087,7.67918462 51.1902087,7.48076154 L51.1902087,7.48076154 L51.1902087,1.94141538 C51.1902087,1.73918462 51.3433921,1.57545385 51.5529671,1.57545385 C51.7444463,1.57545385 51.9077296,1.73918462 51.9077296,1.94141538 L51.9077296,1.94141538 L51.9077296,2.46772308 C52.1779046,1.88091538 52.7923213,1.54795385 53.4538713,1.54795385 Z M15.6734746,1.54816538 C16.2925204,1.54816538 16.7869996,1.88070385 16.9591204,2.29235769 L16.9591204,2.29235769 L16.9591204,2.13962692 C16.9591204,1.83628077 17.2229829,1.57524231 17.5335579,1.57524231 C17.8382412,1.57524231 18.1147287,1.83628077 18.1147287,2.13962692 L18.1147287,2.13962692 L18.1147287,5.62747308 C18.1147287,5.94308846 17.8382412,6.19481923 17.5335579,6.19481923 C17.2229829,6.19481923 16.9591204,5.94308846 16.9591204,5.62747308 L16.9591204,5.62747308 L16.9591204,5.46035769 C16.8930496,5.73112692 16.4305537,6.20708846 15.6734746,6.20708846 C14.7190246,6.20708846 13.5718329,5.46035769 13.5718329,3.87128077 C13.5718329,2.31858846 14.7249162,1.54816538 15.6734746,1.54816538 Z M39.6289071,1.54795385 C40.6393279,1.54795385 41.8959362,2.32599231 41.8959362,3.8808 C41.8959362,5.44110769 40.6393279,6.20687692 39.6289071,6.20687692 C38.6302696,6.20687692 37.3677696,5.44110769 37.3677696,3.8808 C37.3677696,2.32599231 38.6302696,1.54795385 39.6289071,1.54795385 Z M28.7217908,0 C29.0407825,0 29.2865492,0.260192308 29.2865492,0.572846154 L29.2865492,0.572846154 L29.2865492,3.95196154 C29.2865492,5.36503846 28.208795,6.20696154 26.8612867,6.20696154 C25.5078867,6.20696154 24.4377075,5.36503846 24.4377075,3.95196154 L24.4377075,3.95196154 L24.4377075,0.572846154 C24.4377075,0.260192308 24.6885242,0 25.0100408,0 C25.3332408,0 25.6093075,0.260192308 25.6093075,0.572846154 L25.6093075,0.572846154 L25.6093075,3.93376923 C25.6093075,4.85057692 26.1951075,5.21357692 26.8612867,5.21357692 C27.5413533,5.21357692 28.1120033,4.85057692 28.1120033,3.93376923 L28.1120033,3.93376923 L28.1120033,0.572846154 C28.1120033,0.260192308 28.3893325,0 28.7217908,0 Z M10.9103567,0.0286846154 C12.2637567,0.0286846154 13.1327775,0.9108 13.1327775,2.01164615 C13.1327775,3.13195385 12.2637567,3.97514615 10.9103567,3.97514615 L10.9103567,3.97514615 L9.84943583,3.97514615 L9.84943583,5.61160769 C9.84943583,5.93526154 9.58978167,6.20687692 9.26658167,6.20687692 C8.93749,6.20687692 8.6761525,5.93526154 8.6761525,5.61160769 L8.6761525,5.61160769 L8.6761525,0.673876923 C8.6761525,0.298607692 8.945065,0.0286846154 9.3200275,0.0286846154 L9.3200275,0.0286846154 Z M58.35679,1.54795385 C59.0149733,1.54795385 59.6331775,1.88091538 59.90209,2.46772308 L59.90209,2.46772308 L59.90209,1.94141538 C59.90209,1.73918462 60.0700025,1.57545385 60.2585358,1.57545385 C60.46769,1.57545385 60.6208733,1.73918462 60.6208733,1.94141538 L60.6208733,1.94141538 L60.6208733,5.82864615 C60.6208733,6.01945385 60.460115,6.19460769 60.2585358,6.19460769 C60.0700025,6.19460769 59.90209,6.01945385 59.90209,5.82864615 L59.90209,5.82864615 L59.902,5.201 L59.8618097,5.30570578 C59.6633036,5.75784978 59.1575554,6.147328 58.5089334,6.20066089 L58.35679,6.20687692 C57.3935025,6.20687692 56.22064,5.44110769 56.22064,3.87149231 C56.22064,2.31837692 57.3935025,1.54795385 58.35679,1.54795385 Z M2.13783333,1.54795385 C2.7964375,1.54795385 3.4125375,1.88091538 3.6827125,2.46772308 L3.6827125,2.46772308 L3.6827125,1.94141538 C3.6827125,1.73918462 3.8481,1.57545385 4.03915833,1.57545385 C4.2483125,1.57545385 4.4036,1.73918462 4.4036,1.94141538 L4.4036,1.94141538 L4.4036,5.82864615 C4.4036,6.01945385 4.23610833,6.19460769 4.03915833,6.19460769 C3.8481,6.19460769 3.6827125,6.01945385 3.6827125,5.82864615 L3.6827125,5.82864615 L3.682,5.201 L3.64226998,5.30570578 C3.4430895,5.75784978 2.93706741,6.147328 2.28966763,6.20066089 L2.13783333,6.20687692 C1.16991667,6.20687692 0,5.44110769 0,3.87149231 C0,2.31837692 1.16991667,1.54795385 2.13783333,1.54795385 Z M48.4253337,1.55413077 C49.2489046,1.55413077 50.1175046,2.05293846 50.1175046,3.50324615 L50.1175046,3.50324615 L50.1175046,5.82255385 C50.1175046,6.00997692 49.9605337,6.18851538 49.7640046,6.18851538 C49.5620046,6.18851538 49.3970379,6.00997692 49.3970379,5.82255385 L49.3970379,5.82255385 L49.3970379,3.50324615 C49.3970379,2.55301538 48.8335421,2.19382308 48.2250171,2.19382308 C47.3374796,2.19382308 46.8867671,2.94563077 46.8059671,3.44443846 L46.8059671,3.44443846 L46.8059671,5.82255385 C46.8059671,6.00997692 46.6426837,6.18851538 46.4419462,6.18851538 C46.2407879,6.18851538 46.0850796,6.00997692 46.0850796,5.82255385 L46.0850796,5.82255385 L46.0850796,3.50324615 C46.0850796,2.55301538 45.5119046,2.19382308 44.9033796,2.19382308 C44.0187879,2.19382308 43.5668129,2.94563077 43.4893796,3.44443846 L43.4893796,3.44443846 L43.4893796,5.82255385 C43.4893796,6.00997692 43.3252546,6.18851538 43.1312504,6.18851538 C42.9321962,6.18851538 42.7672296,6.00997692 42.7672296,5.82255385 L42.7672296,5.82255385 L42.7672296,1.94124615 C42.7672296,1.73901538 42.9321962,1.57528462 43.1312504,1.57528462 C43.3252546,1.57528462 43.4893796,1.73901538 43.4893796,1.94124615 L43.4893796,1.94124615 L43.4893796,2.64947692 C43.5407212,2.35332308 44.0798087,1.55413077 45.1129546,1.55413077 C45.7547254,1.55413077 46.4314254,1.86255385 46.6957087,2.69178462 C46.9368462,2.16124615 47.5133879,1.55413077 48.4253337,1.55413077 Z M64.0125796,1.55413077 C64.8302588,1.55413077 65.7072754,2.05293846 65.7072754,3.50324615 L65.7072754,3.50324615 L65.7072754,5.82255385 C65.7072754,6.00997692 65.5423088,6.18851538 65.3445171,6.18851538 C65.1429379,6.18851538 64.9880713,6.00997692 64.9880713,5.82255385 L64.9880713,5.82255385 L64.9880713,3.50324615 C64.9880713,2.55301538 64.4111087,2.19382308 63.8046879,2.19382308 C62.9196754,2.19382308 62.4660171,2.94563077 62.3873212,3.44443846 L62.3873212,3.44443846 L62.3873212,5.82255385 C62.3873212,6.00997692 62.2231962,6.18851538 62.0321379,6.18851538 C61.8330837,6.18851538 61.6664338,6.00997692 61.6664338,5.82255385 L61.6664338,5.82255385 L61.6664338,1.94124615 C61.6664338,1.73901538 61.8330837,1.57528462 62.0321379,1.57528462 C62.2231962,1.57528462 62.3873212,1.73901538 62.3873212,1.94124615 L62.3873212,1.94124615 L62.3873212,2.64947692 C62.4369796,2.35332308 62.9777504,1.55413077 64.0125796,1.55413077 Z M35.05811,1.54799615 C35.6864142,1.54799615 36.2313933,1.77349615 36.6139308,2.24015 C36.6833683,2.32603462 36.7793183,2.42249615 36.7793183,2.56084231 C36.7793183,2.73684231 36.6396017,2.86038077 36.4742142,2.86038077 C36.3454392,2.86038077 36.2406517,2.78084231 36.1695308,2.69199615 C35.9094558,2.34465 35.47726,2.18726538 35.09346,2.18726538 C34.32081,2.18726538 33.5136517,2.74530385 33.5136517,3.87111154 C33.5136517,4.99099615 34.32081,5.54945769 35.09346,5.54945769 C35.47726,5.54945769 35.9094558,5.39207308 36.1695308,5.04430385 C36.2406517,4.95249615 36.3454392,4.87634231 36.4742142,4.87634231 C36.6396017,4.87634231 36.7793183,5.00030385 36.7793183,5.17588077 C36.7793183,5.31465 36.6833683,5.40730385 36.6139308,5.48980385 C36.2313933,5.95095769 35.6864142,6.18872692 35.05811,6.18872692 C34.0325392,6.18872692 32.7978142,5.42591923 32.7978142,3.87111154 C32.7978142,2.31080385 34.0325392,1.54799615 35.05811,1.54799615 Z M53.3511879,2.17495385 C52.6728046,2.17495385 51.8744837,2.67672308 51.8744837,3.87149231 C51.8744837,5.04426154 52.6728046,5.56633846 53.3511879,5.56633846 C54.0565046,5.56633846 54.8699754,5.02649231 54.8699754,3.87149231 C54.8699754,2.73003077 54.0565046,2.17495385 53.3511879,2.17495385 Z M58.46284,2.17495385 C57.75584,2.17495385 56.9398442,2.73003077 56.9398442,3.87149231 C56.9398442,5.02649231 57.75584,5.56633846 58.46284,5.56633846 C59.137015,5.56633846 59.9382817,5.04426154 59.9382817,3.87149231 C59.9382817,2.67672308 59.137015,2.17495385 58.46284,2.17495385 Z M2.239675,2.17495385 C1.53856667,2.17495385 0.717520833,2.73003077 0.717520833,3.87149231 C0.717520833,5.02649231 1.53856667,5.56633846 2.239675,5.56633846 C2.9176375,5.56633846 3.71764167,5.04426154 3.71764167,3.87149231 C3.71764167,2.67672308 2.9176375,2.17495385 2.239675,2.17495385 Z M39.6289071,2.18722308 C38.9080196,2.18722308 38.0840279,2.75456923 38.0840279,3.8808 C38.0840279,5.00026154 38.9080196,5.56633846 39.6289071,5.56633846 C40.3586321,5.56633846 41.1767321,5.00026154 41.1767321,3.8808 C41.1767321,2.75456923 40.3586321,2.18722308 39.6289071,2.18722308 Z M15.8830496,2.52716538 C15.3094537,2.52716538 14.7110287,2.98028077 14.7110287,3.87128077 C14.7110287,4.77158846 15.3094537,5.21370385 15.8830496,5.21370385 C16.3695329,5.21370385 17.0134079,4.85705 17.0134079,3.87128077 C17.0134079,2.88466538 16.3695329,2.52716538 15.8830496,2.52716538 Z M10.8569108,1.03222308 L9.84943583,1.03222308 L9.84943583,2.97456923 L10.8569108,2.97456923 C11.5113067,2.97456923 11.995265,2.7368 11.995265,2.01164615 C11.995265,1.29453077 11.5113067,1.03222308 10.8569108,1.03222308 L10.8569108,1.03222308 Z" id="Combined-Shape"></path>
                        </g>
                    </g>
                </g>
            </g>
        </g>
    </g>
</svg>