<?xml version="1.0" encoding="UTF-8"?>
<svg width="243px" height="52px" viewBox="0 0 243 52" version="1.1" xmlns="http://www.w3.org/2000/svg" xmlns:xlink="http://www.w3.org/1999/xlink">
    <title>F70E60D4-C5E8-48B6-BC97-12304312CCCA</title>
    <g id="Campaigns" stroke="none" stroke-width="1" fill="none" fill-rule="evenodd">
        <g id="009.0.0-BSL-Campaign-Detail" transform="translate(-135.000000, -588.000000)">
            <g id="Group" transform="translate(134.999895, 145.000000)">
                <g id="iyzico_bsl_logo" transform="translate(0.000000, 443.000000)">
                    <rect id="Rectangle" fill="#D8D8D8" opacity="0" x="12.0001048" y="0" width="231" height="48"></rect>
                    <g id="Brand/1--Logo/2--aPayUcompany/1--Colored" transform="translate(0.000000, 6.000000)">
                        <g id="Group-21" fill="#1E64FF">
                            <path d="M23.9346245,9.46182857 C24.5776567,8.21773071 26.1027542,7.73244581 27.3423167,8.3801975 C28.5823001,9.02921845 29.0635222,10.5639795 28.4169128,11.8104044 L28.4169128,11.8104044 L16.8905175,34.1713764 C16.456639,35.0074034 15.6250737,35.4986115 14.7522669,35.5354204 C14.323228,35.5565749 13.8847204,35.4679375 13.4777752,35.2515266 C12.2380023,34.6046211 11.757201,33.06986 12.4019166,31.8232236 L12.4019166,31.8232236 L15.6612654,25.4937885 L8.60200837,11.8104044 C7.95729278,10.5639795 8.44146072,9.02921845 9.67976074,8.3801975 C10.9178503,7.73244581 12.4458936,8.21773071 13.0878738,9.46182857 L13.0878738,9.46182857 L18.5109335,19.9726679 Z M70.3264142,7.7545523 C73.0609847,7.7545523 75.6316408,8.82497147 77.565998,10.7699189 C78.5494839,11.763124 78.5494839,13.3723491 77.565998,14.3657658 C76.5768309,15.3560093 74.9757732,15.3560093 73.9893415,14.3657658 C73.0092223,13.3799647 71.7122161,12.8401011 70.3264142,12.8401011 C68.9443999,12.8401011 67.6452895,13.3799647 66.6679058,14.3657658 C65.6894699,15.3452205 65.1518562,16.6536281 65.1518562,18.0447499 C65.1518562,19.4346025 65.6894699,20.7415293 66.6679058,21.7254265 C67.6452895,22.7053042 68.9443999,23.252995 70.3264142,23.252995 C71.7122161,23.252995 73.0092223,22.7053042 73.9893415,21.7254265 C74.9757732,20.7311636 76.5768309,20.7311636 77.565998,21.7254265 C78.5494839,22.717997 78.5494839,24.3282797 77.565998,25.3168309 C75.6316408,27.2622014 73.0609847,28.3343129 70.3264142,28.3343129 C67.5952105,28.3343129 65.0258168,27.2622014 63.0929326,25.3168309 C61.1598379,23.3778067 60.0945001,20.7918771 60.0945001,18.0447499 C60.0945001,15.2946611 61.1598379,12.7148663 63.0929326,10.7699189 C65.0258168,8.82497147 67.5952105,7.7545523 70.3264142,7.7545523 Z M90.7664025,7.75448883 C96.4093472,7.75448883 101,12.3701956 101,18.0446865 C101,23.7181196 96.4093472,28.334461 90.7664025,28.334461 C85.1257723,28.334461 80.5357508,23.7181196 80.5357508,18.0446865 C80.5357508,12.3701956 85.1257723,7.75448883 90.7664025,7.75448883 Z M2.79222451,8.09418826 C4.18833677,8.09418826 5.32016613,9.23230193 5.32016613,10.6323087 L5.32016613,10.6323087 L5.32016613,25.4984425 C5.32016613,26.9033148 4.18833677,28.0384668 2.79222451,28.0384668 C1.39611226,28.0384668 0.26386206,26.9033148 0.26386206,25.4984425 L0.26386206,25.4984425 L0.26386206,10.6323087 C0.26386206,9.23230193 1.39611226,8.09418826 2.79222451,8.09418826 Z M44.563256,8.09295755 C44.6228775,8.09298356 44.6798888,8.09301136 44.7341407,8.09304103 L45.4165271,8.09396153 L45.4165271,8.09396153 L45.4298505,8.09414595 C46.0339558,8.07341451 46.6439527,8.26719 47.1420081,8.68901131 C48.2100813,9.58659799 48.3497978,11.1924383 47.4542659,12.2664537 L47.4542659,12.2664537 L38.5305099,22.9554142 L45.5138066,22.9554142 C46.910971,22.9554142 48.0444837,24.0964895 48.0444837,25.4984002 C48.0444837,26.903484 46.910971,28.0384245 45.5138066,28.0384245 L45.5138066,28.0384245 L33.1101856,28.0384245 C32.5365908,28.0384245 31.9583667,27.8465529 31.48493,27.4437707 C30.4168568,26.5436455 30.2758779,24.9420361 31.1741451,23.8642128 L31.1741451,23.8642128 L40.0964282,13.1788486 L34.2634775,13.1788486 C32.8656819,13.1788486 31.7355359,12.0377733 31.7355359,10.6324779 C31.7355359,9.23225962 32.8656819,8.09414595 34.2634775,8.09414595 L34.2634775,8.09414595 L34.6594302,8.09403055 C34.7016317,8.09401855 34.7469017,8.09400575 34.7950908,8.09399222 L39.0493728,8.09300665 C39.1536227,8.0929881 39.2582512,8.09296998 39.363109,8.09295236 Z M54.2542269,8.09418826 C55.6530745,8.09418826 56.7821685,9.23230193 56.7821685,10.6323087 L56.7821685,10.6323087 L56.7821685,25.4984425 C56.7821685,26.9033148 55.6530745,28.0384668 54.2542269,28.0384668 C52.8593771,28.0384668 51.7292311,26.9033148 51.7292311,25.4984425 L51.7292311,25.4984425 L51.7292311,10.6323087 C51.7292311,9.23230193 52.8593771,8.09418826 54.2542269,8.09418826 Z M90.7664025,12.8400376 C87.9129468,12.8400376 85.5931069,15.1742284 85.5931069,18.0446865 C85.5931069,20.9142983 87.9129468,23.2529315 90.7664025,23.2529315 C93.6217519,23.2529315 95.9449584,20.9142983 95.9449584,18.0446865 C95.9449584,15.1742284 93.6217519,12.8400376 90.7664025,12.8400376 Z M2.79222451,0 C4.33373444,0 5.58550111,1.2578483 5.58550111,2.80953302 C5.58550111,4.35804456 4.33373444,5.61821986 2.79222451,5.61821986 C1.25071458,5.61821986 0,4.35804456 0,2.80953302 C0,1.2578483 1.25071458,0 2.79222451,0 Z M54.2542269,0 C55.7986826,0 57.0491868,1.2578483 57.0491868,2.80953302 C57.0491868,4.35804456 55.7986826,5.61821986 54.2542269,5.61821986 C52.7110336,5.61821986 51.4605294,4.35804456 51.4605294,2.80953302 C51.4605294,1.2578483 52.7110336,0 54.2542269,0 Z" id="Combined-Shape"></path>
                        </g>
                        <g id="Brand/1--Logo/aPayUcompany_Subtext" transform="translate(27.396355, 35.538462)" fill="#212529" fill-rule="nonzero">
                            <path d="M22.8646325,1.57536923 C23.1680533,1.57536923 23.3974075,1.81144615 23.3974075,2.08644615 C23.3974075,2.19390769 23.3591117,2.28317692 23.3275492,2.35340769 L23.3275492,2.35340769 L21.0752492,7.44556154 C20.9553117,7.72479231 20.7461575,7.84536923 20.5260617,7.84536923 C20.2331617,7.84536923 20.02527,7.60886923 20.02527,7.33429231 C20.02527,7.22429231 20.0601992,7.13883077 20.083345,7.07029231 L20.083345,7.07029231 L20.5786658,5.93517692 L18.9630867,2.35340769 C18.9374158,2.28317692 18.9020658,2.19390769 18.9020658,2.08644615 C18.9020658,1.81144615 19.1272117,1.57536923 19.42432,1.57536923 C19.6410492,1.57536923 19.8476783,1.69636923 19.972245,1.97686923 L19.972245,1.97686923 L21.1345867,4.68286923 L22.3272283,1.97686923 C22.4454825,1.69636923 22.6474825,1.57536923 22.8646325,1.57536923 Z M70.0895813,1.57536923 C70.2789563,1.57536923 70.4262479,1.73233077 70.4262479,1.90790769 C70.4262479,1.97686923 70.4098354,2.02086923 70.3934229,2.07121538 L70.3934229,2.07121538 L68.0107067,7.60252308 C67.9412692,7.76752308 67.8108108,7.84536923 67.6710942,7.84536923 C67.479615,7.84536923 67.3478942,7.68840769 67.3478942,7.51579231 C67.3478942,7.44556154 67.36599,7.40283077 67.3857692,7.34952308 L67.3857692,7.34952308 L67.9686233,5.98552308 L66.2638275,2.07121538 C66.2457317,2.02086923 66.2276358,1.97686923 66.2276358,1.90790769 C66.2276358,1.73233077 66.3782942,1.57536923 66.5672483,1.57536923 C66.7061233,1.57536923 66.8391067,1.65194615 66.9072817,1.81948462 L66.9072817,1.81948462 L68.3250692,5.15713846 L69.7466021,1.81948462 C69.8177229,1.65194615 69.9486021,1.57536923 70.0895813,1.57536923 Z M53.4538713,1.54795385 C54.4192629,1.54795385 55.5933879,2.31837692 55.5933879,3.87149231 C55.5933879,5.44110769 54.4192629,6.20687692 53.4538713,6.20687692 C52.6896379,6.20687692 52.1004712,5.74614615 51.9153046,5.22576154 L51.9153046,5.22576154 L51.9153046,7.48076154 C51.9153046,7.67918462 51.7444463,7.84545385 51.5529671,7.84545385 C51.3539129,7.84545385 51.1902087,7.67918462 51.1902087,7.48076154 L51.1902087,7.48076154 L51.1902087,1.94141538 C51.1902087,1.73918462 51.3433921,1.57545385 51.5529671,1.57545385 C51.7444463,1.57545385 51.9077296,1.73918462 51.9077296,1.94141538 L51.9077296,1.94141538 L51.9077296,2.46772308 C52.1779046,1.88091538 52.7923213,1.54795385 53.4538713,1.54795385 Z M15.6734746,1.54816538 C16.2925204,1.54816538 16.7869996,1.88070385 16.9591204,2.29235769 L16.9591204,2.29235769 L16.9591204,2.13962692 C16.9591204,1.83628077 17.2229829,1.57524231 17.5335579,1.57524231 C17.8382412,1.57524231 18.1147287,1.83628077 18.1147287,2.13962692 L18.1147287,2.13962692 L18.1147287,5.62747308 C18.1147287,5.94308846 17.8382412,6.19481923 17.5335579,6.19481923 C17.2229829,6.19481923 16.9591204,5.94308846 16.9591204,5.62747308 L16.9591204,5.62747308 L16.9591204,5.46035769 C16.8930496,5.73112692 16.4305537,6.20708846 15.6734746,6.20708846 C14.7190246,6.20708846 13.5718329,5.46035769 13.5718329,3.87128077 C13.5718329,2.31858846 14.7249162,1.54816538 15.6734746,1.54816538 Z M39.6289071,1.54795385 C40.6393279,1.54795385 41.8959362,2.32599231 41.8959362,3.8808 C41.8959362,5.44110769 40.6393279,6.20687692 39.6289071,6.20687692 C38.6302696,6.20687692 37.3677696,5.44110769 37.3677696,3.8808 C37.3677696,2.32599231 38.6302696,1.54795385 39.6289071,1.54795385 Z M28.7217908,0 C29.0407825,0 29.2865492,0.260192308 29.2865492,0.572846154 L29.2865492,0.572846154 L29.2865492,3.95196154 C29.2865492,5.36503846 28.208795,6.20696154 26.8612867,6.20696154 C25.5078867,6.20696154 24.4377075,5.36503846 24.4377075,3.95196154 L24.4377075,3.95196154 L24.4377075,0.572846154 C24.4377075,0.260192308 24.6885242,0 25.0100408,0 C25.3332408,0 25.6093075,0.260192308 25.6093075,0.572846154 L25.6093075,0.572846154 L25.6093075,3.93376923 C25.6093075,4.85057692 26.1951075,5.21357692 26.8612867,5.21357692 C27.5413533,5.21357692 28.1120033,4.85057692 28.1120033,3.93376923 L28.1120033,3.93376923 L28.1120033,0.572846154 C28.1120033,0.260192308 28.3893325,0 28.7217908,0 Z M10.9103567,0.0286846154 C12.2637567,0.0286846154 13.1327775,0.9108 13.1327775,2.01164615 C13.1327775,3.13195385 12.2637567,3.97514615 10.9103567,3.97514615 L10.9103567,3.97514615 L9.84943583,3.97514615 L9.84943583,5.61160769 C9.84943583,5.93526154 9.58978167,6.20687692 9.26658167,6.20687692 C8.93749,6.20687692 8.6761525,5.93526154 8.6761525,5.61160769 L8.6761525,5.61160769 L8.6761525,0.673876923 C8.6761525,0.298607692 8.945065,0.0286846154 9.3200275,0.0286846154 L9.3200275,0.0286846154 Z M58.35679,1.54795385 C59.0149733,1.54795385 59.6331775,1.88091538 59.90209,2.46772308 L59.90209,2.46772308 L59.90209,1.94141538 C59.90209,1.73918462 60.0700025,1.57545385 60.2585358,1.57545385 C60.46769,1.57545385 60.6208733,1.73918462 60.6208733,1.94141538 L60.6208733,1.94141538 L60.6208733,5.82864615 C60.6208733,6.01945385 60.460115,6.19460769 60.2585358,6.19460769 C60.0700025,6.19460769 59.90209,6.01945385 59.90209,5.82864615 L59.90209,5.82864615 L59.902,5.201 L59.8618097,5.30570578 C59.6633036,5.75784978 59.1575554,6.147328 58.5089334,6.20066089 L58.35679,6.20687692 C57.3935025,6.20687692 56.22064,5.44110769 56.22064,3.87149231 C56.22064,2.31837692 57.3935025,1.54795385 58.35679,1.54795385 Z M2.13783333,1.54795385 C2.7964375,1.54795385 3.4125375,1.88091538 3.6827125,2.46772308 L3.6827125,2.46772308 L3.6827125,1.94141538 C3.6827125,1.73918462 3.8481,1.57545385 4.03915833,1.57545385 C4.2483125,1.57545385 4.4036,1.73918462 4.4036,1.94141538 L4.4036,1.94141538 L4.4036,5.82864615 C4.4036,6.01945385 4.23610833,6.19460769 4.03915833,6.19460769 C3.8481,6.19460769 3.6827125,6.01945385 3.6827125,5.82864615 L3.6827125,5.82864615 L3.682,5.201 L3.64226998,5.30570578 C3.4430895,5.75784978 2.93706741,6.147328 2.28966763,6.20066089 L2.13783333,6.20687692 C1.16991667,6.20687692 0,5.44110769 0,3.87149231 C0,2.31837692 1.16991667,1.54795385 2.13783333,1.54795385 Z M48.4253337,1.55413077 C49.2489046,1.55413077 50.1175046,2.05293846 50.1175046,3.50324615 L50.1175046,3.50324615 L50.1175046,5.82255385 C50.1175046,6.00997692 49.9605337,6.18851538 49.7640046,6.18851538 C49.5620046,6.18851538 49.3970379,6.00997692 49.3970379,5.82255385 L49.3970379,5.82255385 L49.3970379,3.50324615 C49.3970379,2.55301538 48.8335421,2.19382308 48.2250171,2.19382308 C47.3374796,2.19382308 46.8867671,2.94563077 46.8059671,3.44443846 L46.8059671,3.44443846 L46.8059671,5.82255385 C46.8059671,6.00997692 46.6426837,6.18851538 46.4419462,6.18851538 C46.2407879,6.18851538 46.0850796,6.00997692 46.0850796,5.82255385 L46.0850796,5.82255385 L46.0850796,3.50324615 C46.0850796,2.55301538 45.5119046,2.19382308 44.9033796,2.19382308 C44.0187879,2.19382308 43.5668129,2.94563077 43.4893796,3.44443846 L43.4893796,3.44443846 L43.4893796,5.82255385 C43.4893796,6.00997692 43.3252546,6.18851538 43.1312504,6.18851538 C42.9321962,6.18851538 42.7672296,6.00997692 42.7672296,5.82255385 L42.7672296,5.82255385 L42.7672296,1.94124615 C42.7672296,1.73901538 42.9321962,1.57528462 43.1312504,1.57528462 C43.3252546,1.57528462 43.4893796,1.73901538 43.4893796,1.94124615 L43.4893796,1.94124615 L43.4893796,2.64947692 C43.5407212,2.35332308 44.0798087,1.55413077 45.1129546,1.55413077 C45.7547254,1.55413077 46.4314254,1.86255385 46.6957087,2.69178462 C46.9368462,2.16124615 47.5133879,1.55413077 48.4253337,1.55413077 Z M64.0125796,1.55413077 C64.8302588,1.55413077 65.7072754,2.05293846 65.7072754,3.50324615 L65.7072754,3.50324615 L65.7072754,5.82255385 C65.7072754,6.00997692 65.5423088,6.18851538 65.3445171,6.18851538 C65.1429379,6.18851538 64.9880713,6.00997692 64.9880713,5.82255385 L64.9880713,5.82255385 L64.9880713,3.50324615 C64.9880713,2.55301538 64.4111087,2.19382308 63.8046879,2.19382308 C62.9196754,2.19382308 62.4660171,2.94563077 62.3873212,3.44443846 L62.3873212,3.44443846 L62.3873212,5.82255385 C62.3873212,6.00997692 62.2231962,6.18851538 62.0321379,6.18851538 C61.8330837,6.18851538 61.6664338,6.00997692 61.6664338,5.82255385 L61.6664338,5.82255385 L61.6664338,1.94124615 C61.6664338,1.73901538 61.8330837,1.57528462 62.0321379,1.57528462 C62.2231962,1.57528462 62.3873212,1.73901538 62.3873212,1.94124615 L62.3873212,1.94124615 L62.3873212,2.64947692 C62.4369796,2.35332308 62.9777504,1.55413077 64.0125796,1.55413077 Z M35.05811,1.54799615 C35.6864142,1.54799615 36.2313933,1.77349615 36.6139308,2.24015 C36.6833683,2.32603462 36.7793183,2.42249615 36.7793183,2.56084231 C36.7793183,2.73684231 36.6396017,2.86038077 36.4742142,2.86038077 C36.3454392,2.86038077 36.2406517,2.78084231 36.1695308,2.69199615 C35.9094558,2.34465 35.47726,2.18726538 35.09346,2.18726538 C34.32081,2.18726538 33.5136517,2.74530385 33.5136517,3.87111154 C33.5136517,4.99099615 34.32081,5.54945769 35.09346,5.54945769 C35.47726,5.54945769 35.9094558,5.39207308 36.1695308,5.04430385 C36.2406517,4.95249615 36.3454392,4.87634231 36.4742142,4.87634231 C36.6396017,4.87634231 36.7793183,5.00030385 36.7793183,5.17588077 C36.7793183,5.31465 36.6833683,5.40730385 36.6139308,5.48980385 C36.2313933,5.95095769 35.6864142,6.18872692 35.05811,6.18872692 C34.0325392,6.18872692 32.7978142,5.42591923 32.7978142,3.87111154 C32.7978142,2.31080385 34.0325392,1.54799615 35.05811,1.54799615 Z M53.3511879,2.17495385 C52.6728046,2.17495385 51.8744837,2.67672308 51.8744837,3.87149231 C51.8744837,5.04426154 52.6728046,5.56633846 53.3511879,5.56633846 C54.0565046,5.56633846 54.8699754,5.02649231 54.8699754,3.87149231 C54.8699754,2.73003077 54.0565046,2.17495385 53.3511879,2.17495385 Z M58.46284,2.17495385 C57.75584,2.17495385 56.9398442,2.73003077 56.9398442,3.87149231 C56.9398442,5.02649231 57.75584,5.56633846 58.46284,5.56633846 C59.137015,5.56633846 59.9382817,5.04426154 59.9382817,3.87149231 C59.9382817,2.67672308 59.137015,2.17495385 58.46284,2.17495385 Z M2.239675,2.17495385 C1.53856667,2.17495385 0.717520833,2.73003077 0.717520833,3.87149231 C0.717520833,5.02649231 1.53856667,5.56633846 2.239675,5.56633846 C2.9176375,5.56633846 3.71764167,5.04426154 3.71764167,3.87149231 C3.71764167,2.67672308 2.9176375,2.17495385 2.239675,2.17495385 Z M39.6289071,2.18722308 C38.9080196,2.18722308 38.0840279,2.75456923 38.0840279,3.8808 C38.0840279,5.00026154 38.9080196,5.56633846 39.6289071,5.56633846 C40.3586321,5.56633846 41.1767321,5.00026154 41.1767321,3.8808 C41.1767321,2.75456923 40.3586321,2.18722308 39.6289071,2.18722308 Z M15.8830496,2.52716538 C15.3094537,2.52716538 14.7110287,2.98028077 14.7110287,3.87128077 C14.7110287,4.77158846 15.3094537,5.21370385 15.8830496,5.21370385 C16.3695329,5.21370385 17.0134079,4.85705 17.0134079,3.87128077 C17.0134079,2.88466538 16.3695329,2.52716538 15.8830496,2.52716538 Z M10.8569108,1.03222308 L9.84943583,1.03222308 L9.84943583,2.97456923 L10.8569108,2.97456923 C11.5113067,2.97456923 11.995265,2.7368 11.995265,2.01164615 C11.995265,1.29453077 11.5113067,1.03222308 10.8569108,1.03222308 L10.8569108,1.03222308 Z" id="Combined-Shape"></path>
                        </g>
                    </g>
                    <rect id="Rectangle" fill="#343A40" fill-rule="nonzero" x="125.000105" y="4" width="1" height="48"></rect>
                    <g id="bsl-logo" transform="translate(150.000105, 8.000000)" fill="#000000" fill-rule="nonzero">
                        <path d="M12.9978957,19.1281555 C13.7458059,19.2313836 14.4250799,19.4034305 15.0592182,19.7207781 C16.6559785,20.5198568 17.8168246,21.7681356 18.6538872,23.3300055 C19.6992455,25.2805961 20.0832349,27.3767879 19.9496183,29.579213 C19.8672549,30.937106 19.5964405,32.2488693 19.0131825,33.4839253 C18.0484716,35.5267 16.4610369,36.9133676 14.4528328,37.8498584 C13.059146,38.4997297 11.5869752,38.8851447 10.0651179,39.0321734 C8.90941947,39.143816 7.74476851,39.1915234 6.58332554,39.2061736 C4.47522597,39.2328447 2.36660418,39.2137617 0.2582062,39.2137617 C0.175544406,39.2137617 0.0929572161,39.2137617 0,39.2137617 C0,26.2777166 0,13.3647362 0,0.425836081 C0.100119249,0.425836081 0.189495449,0.425836081 0.278871648,0.425836081 C3.68471662,0.425836081 7.09063619,0.433424174 10.4964812,0.423466696 C13.3316016,0.415167673 15.4179167,1.69913306 16.8360738,4.12769837 C17.6522471,5.52533488 18.068018,7.05933168 18.2395338,8.66380007 C18.3697932,9.88247781 18.3937413,11.1025079 18.1957409,12.3157763 C17.8015307,14.7310436 16.7578136,16.7723908 14.7298393,18.2072165 C14.2618452,18.5383128 13.7193213,18.762725 13.2104439,19.0350699 C13.1565795,19.0637694 13.0983133,19.0844301 12.9978957,19.1281555 Z M5.04781557,38.1482733 C5.95724451,38.1482733 6.84563499,38.170136 7.73253337,38.1436904 C9.57131066,38.0889209 11.1250987,37.373762 12.363832,36.0033975 C13.5903301,34.6466315 14.1920154,32.9949066 14.5150529,31.2220727 C14.7687829,29.8296201 14.784599,28.4256727 14.6756764,27.0197719 C14.5954766,25.9840348 14.4176195,24.9647511 14.0481779,23.9884416 C13.5350481,22.632502 12.7164875,21.5434229 11.3761429,20.9167666 C10.5291579,20.5208335 9.63129268,20.3739551 8.70485391,20.3730535 C7.56236049,20.3720017 6.41994167,20.372753 5.27744824,20.372753 C5.20306755,20.372753 5.12876146,20.372753 5.04781557,20.372753 C5.04781557,26.3104731 5.04781557,32.216789 5.04781557,38.1482733 Z M5.04990449,19.3047853 C5.10734997,19.3082413 5.14219027,19.3122231 5.17703057,19.3122231 C6.53759297,19.312148 7.89815537,19.3174822 9.25864317,19.3064381 C9.52341457,19.3042594 9.7937067,19.2624873 10.0510176,19.197425 C11.0014045,18.9570854 11.6647877,18.330955 12.1846319,17.5292467 C12.662623,16.7920748 12.9928972,15.986009 13.2030581,15.1353162 C13.8468204,12.5290693 13.8523411,9.90944934 13.3034757,7.28840192 C13.0243803,5.95575254 12.533408,4.70784937 11.6779181,3.63319514 C10.7545381,2.47326877 9.59242373,1.68703719 8.09488746,1.570436 C7.09981254,1.49297735 6.09503904,1.54241265 5.09459259,1.53602663 C5.0830289,1.5359515 5.07131599,1.54872354 5.04990449,1.56119506 C5.04990449,7.46645915 5.04990449,13.3767569 5.04990449,19.3047853 Z" id="Shape"></path>
                        <path d="M41.9817468,4.22934876 C41.4770473,4.62978969 40.9856274,5.01971247 40.4965948,5.40775701 C40.1784812,4.97786527 39.8917015,4.53843206 39.5521764,4.14520357 C39.1648298,3.69660455 38.7518938,3.26498482 38.3122495,2.86860089 C37.2839755,1.94165151 36.0682205,1.63970552 34.7158646,1.86321617 C32.1593173,2.28567008 30.630298,3.85798299 29.9754942,6.30397837 C29.3314335,8.70947888 29.7419821,10.9787694 31.0455466,13.0993783 C32.0610632,14.7514038 33.3392622,16.1738331 34.7482429,17.4809384 C36.1533442,18.7844375 37.5881381,20.0554806 39.0127858,21.3375677 C40.6105905,22.7753986 41.5915652,24.5723491 42.1055156,26.6521626 C42.4951004,28.2288331 42.6677352,29.8219569 42.5249422,31.4429538 C42.2685265,34.3545275 41.0806735,36.739142 38.605669,38.3769679 C37.3520895,39.2065493 35.9525835,39.643954 34.4774286,39.8478558 C33.3070331,40.009685 32.1309676,40.0664079 30.9569165,39.8982678 C28.058979,39.4833268 25.9376744,37.9676617 24.6265002,35.3229484 C24.4977329,35.0632253 24.3865721,34.7942612 24.2783956,34.5250718 C24.2589984,34.4769137 24.2731733,34.3733099 24.3074914,34.3511467 C24.8754555,33.983913 25.4490895,33.6256198 26.0383905,33.2546297 C26.0936725,33.413604 26.1371669,33.5530446 26.1901361,33.6887287 C27.0770345,35.9614 28.6484292,37.4968994 31.0289844,38.0639027 C33.0111516,38.5360173 34.622982,37.8467781 35.8389608,36.2258563 C36.636483,35.1627721 37.0639669,33.9325995 37.2988964,32.6353362 C37.7006417,30.4168333 37.589108,28.2423564 36.6975095,26.1417319 C36.1151467,24.7695644 35.2057924,23.6462261 34.1243255,22.646401 C32.5871742,21.2252489 31.035475,19.8189725 29.5321942,18.3622089 C28.5209301,17.3822932 27.6219458,16.2963695 26.8770198,15.0868576 C25.556147,12.9420569 25.0688304,10.6179969 25.3383018,8.11880973 C25.460131,6.98848444 25.7244548,5.89775246 26.2061761,4.86787549 C27.015635,3.13741471 28.2959229,1.86644675 30.0048884,1.05136538 C32.2248947,-0.00751162802 34.5567332,-0.234703631 36.9563872,0.226892819 C38.0574751,0.438683248 38.9851821,1.0090674 39.8186637,1.74962017 C40.6378212,2.47732577 41.3453703,3.30164808 41.9817468,4.22934876 Z" id="Path"></path>
                        <path d="M52.5904331,38.151579 C56.0746874,38.151579 59.527384,38.151579 63,38.151579 C63,38.5084448 63,38.8496835 63,39.2015907 C57.8681052,39.2015907 52.7388215,39.2015907 47.6005852,39.2015907 C47.6005852,26.2766647 47.6005852,13.3639098 47.6005852,0.438457859 C49.265907,0.438457859 50.9192175,0.438457859 52.5903585,0.438457859 C52.5904331,13.0021606 52.5904331,25.5607545 52.5904331,38.151579 Z" id="Path"></path>
                    </g>
                </g>
            </g>
        </g>
    </g>
</svg>