<?xml version="1.0" encoding="UTF-8"?>
<svg width="281px" height="52px" viewBox="0 0 281 52" version="1.1" xmlns="http://www.w3.org/2000/svg" xmlns:xlink="http://www.w3.org/1999/xlink">
    <title>52FBA6FE-73F6-4CE1-8EE7-2960C1E66A18</title>
    <defs>
        <linearGradient x1="90.2554899%" y1="50%" x2="0%" y2="50%" id="linearGradient-1">
            <stop stop-color="#1E64FF" offset="0%"></stop>
            <stop stop-color="#1E64FF" stop-opacity="0" offset="100%"></stop>
        </linearGradient>
    </defs>
    <g id="05---Campaigns" stroke="none" stroke-width="1" fill="none" fill-rule="evenodd">
        <g id="009.0.0-Sportime-Campaign-Detail" transform="translate(-135.000000, -588.000000)">
            <g id="iyzico_sportime_logo" transform="translate(135.000000, 588.000000)">
                <rect id="Rectangle" fill="#D8D8D8" opacity="0" x="19" y="0" width="231" height="48"></rect>
                <rect id="Rectangle" fill="#343A40" fill-rule="nonzero" x="140" y="4" width="1" height="48"></rect>
                <g id="Brand/1--Logo/3--Subbrands/1--PWI/1--TR/1--Colored" transform="translate(0.000000, 8.000000)">
                    <g id="Group" transform="translate(0.000000, 0.976190)">
                        <g id="Group-21" transform="translate(54.588172, 0.000000)" fill="#1E64FF">
                            <path d="M14.5531438,5.71786239 C14.9441314,4.96604362 15.8714475,4.67278188 16.6251477,5.06422366 C17.3791038,5.45643247 17.6717048,6.38390147 17.2785422,7.13712647 L17.2785422,7.13712647 L10.2700642,20.6500494 C10.0062499,21.1552676 9.50062725,21.4521088 8.96992814,21.4743527 C8.70905651,21.4871366 8.44242755,21.4335722 8.19498972,21.3027933 C7.44116157,20.9118629 7.14881647,19.9843939 7.54082758,19.231041 L7.54082758,19.231041 L9.5226331,15.4061103 L5.23034172,7.13712647 C4.83833061,6.38390147 5.13272277,5.45643247 5.88565534,5.06422366 C6.63845997,4.67278188 7.56756724,4.96604362 7.95791512,5.71786239 L7.95791512,5.71786239 L11.2553376,12.0696508 Z M42.7610812,4.68614101 C44.423802,4.68614101 45.9868567,5.3330043 47.163018,6.50835234 C47.7610141,7.10855454 47.7610141,8.08102273 47.163018,8.68135277 C46.5615675,9.27976524 45.5880648,9.27976524 44.9882775,8.68135277 C44.3923285,8.08562492 43.6037004,7.75938083 42.7610812,7.75938083 C41.920765,7.75938083 41.1308575,8.08562492 40.5365717,8.68135277 C39.9416462,9.27324547 39.6147571,10.0639272 39.6147571,10.9045938 C39.6147571,11.7444933 39.9416462,12.5342802 40.5365717,13.1288575 C41.1308575,13.7210059 41.920765,14.05198 42.7610812,14.05198 C43.6037004,14.05198 44.3923285,13.7210059 44.9882775,13.1288575 C45.5880648,12.5280161 46.5615675,12.5280161 47.163018,13.1288575 C47.7610141,13.7286762 47.7610141,14.7017836 47.163018,15.2991733 C45.9868567,16.474777 44.423802,17.122663 42.7610812,17.122663 C41.1004075,17.122663 39.5381204,16.474777 38.3628547,15.2991733 C37.1874611,14.1274047 36.539696,12.5647058 36.539696,10.9045938 C36.539696,9.24269204 37.1874611,7.68370038 38.3628547,6.50835234 C39.5381204,5.3330043 41.1004075,4.68614101 42.7610812,4.68614101 Z M55.189356,4.68610266 C58.6204767,4.68610266 61.4117647,7.47541296 61.4117647,10.9045554 C61.4117647,14.3330587 58.6204767,17.1227525 55.189356,17.1227525 C51.7596426,17.1227525 48.9687384,14.3330587 48.9687384,10.9045554 C48.9687384,7.47541296 51.7596426,4.68610266 55.189356,4.68610266 Z M1.69777658,4.89138588 C2.54666487,4.89138588 3.23485931,5.57915752 3.23485931,6.42519334 L3.23485931,6.42519334 L3.23485931,15.4089227 C3.23485931,16.2578988 2.54666487,16.9438807 1.69777658,16.9438807 C0.848888291,16.9438807 0.160437968,16.2578988 0.160437968,15.4089227 L0.160437968,15.4089227 L0.160437968,6.42519334 C0.160437968,5.57915752 0.848888291,4.89138588 1.69777658,4.89138588 Z M27.4928263,4.89094019 C27.5204952,4.89097863 27.5440311,4.8910197 27.5631668,4.89106351 L27.6230425,4.89136031 C27.990361,4.87883213 28.3612618,4.99593228 28.6640981,5.25084244 C29.3135264,5.79326159 29.3984792,6.76368437 28.8539625,7.41272091 L28.8539625,7.41272091 L23.4279862,13.8721494 L27.6740909,13.8721494 C28.5236189,13.8721494 29.2128369,14.5617108 29.2128369,15.4088972 C29.2128369,16.2580011 28.5236189,16.9438552 27.6740909,16.9438552 L27.6740909,16.9438552 L20.132227,16.9438552 C19.78346,16.9438552 19.4318782,16.8279056 19.144011,16.5845009 C18.4945827,16.0405477 18.4088623,15.0726817 18.9550422,14.421344 L18.9550422,14.421344 L24.3801229,7.96408877 L20.8334715,7.96408877 C19.9835596,7.96408877 19.2963887,7.27452739 19.2963887,6.42529561 C19.2963887,5.57913195 19.9835596,4.89136031 20.8334715,4.89136031 L20.8334715,4.89136031 L22.0504812,4.89103322 C22.1227132,4.89101546 22.1972215,4.89099741 22.2737391,4.89097919 Z M32.9885922,4.89138588 C33.8391437,4.89138588 34.525675,5.57915752 34.525675,6.42519334 L34.525675,6.42519334 L34.525675,15.4089227 C34.525675,16.2578988 33.8391437,16.9438807 32.9885922,16.9438807 C32.1404716,16.9438807 31.4533007,16.2578988 31.4533007,15.4089227 L31.4533007,15.4089227 L31.4533007,6.42519334 C31.4533007,5.57915752 32.1404716,4.89138588 32.9885922,4.89138588 Z M55.189356,7.75934248 C53.4543486,7.75934248 52.0437994,9.16991353 52.0437994,10.9045554 C52.0437994,12.638686 53.4543486,14.0519416 55.189356,14.0519416 C56.9255148,14.0519416 58.338111,12.638686 58.338111,10.9045554 C58.338111,9.16991353 56.9255148,7.75934248 55.189356,7.75934248 Z M1.69777658,0 C2.63507208,0 3.39619287,0.760128284 3.39619287,1.69782438 C3.39619287,2.63360289 2.63507208,3.3951374 1.69777658,3.3951374 C0.760481085,3.3951374 0,2.63360289 0,1.69782438 C0,0.760128284 0.760481085,0 1.69777658,0 Z M32.9885922,0 C33.9276789,0 34.688032,0.760128284 34.688032,1.69782438 C34.688032,2.63360289 33.9276789,3.3951374 32.9885922,3.3951374 C32.0502732,3.3951374 31.2899201,2.63360289 31.2899201,1.69782438 C31.2899201,0.760128284 32.0502732,0 32.9885922,0 Z" id="Combined-Shape"></path>
                        </g>
                        <path d="M78.3147993,26.2045719 C80.956255,26.2045719 83.5671822,28.4316182 83.5671822,31.6504694 C83.5671822,34.8693206 80.956255,37.0952381 78.3147993,37.0952381 C75.6737159,37.0952381 73.0627886,34.8693206 73.0627886,31.6504694 C73.0627886,28.4316182 75.6737159,26.2045719 78.3147993,26.2045719 Z M91.5069997,26.097904 C91.9444501,26.097904 92.3219604,26.4643752 92.3219604,26.9064734 L92.3219604,36.2718067 C92.3219604,36.7146574 91.9444501,37.0803761 91.5069997,37.0803761 C91.069177,37.0803761 90.7069309,36.7146574 90.7069309,36.2718067 L90.7069309,35.4481871 C90.6015705,36.134474 89.6652405,37.09505 88.2315202,37.09505 C86.5565506,37.09505 84.549491,35.7834292 84.549491,33.0236076 C84.549491,30.3078077 86.5714425,28.9657104 88.2315202,28.9657104 C89.3484147,28.9657104 90.3145286,29.5458938 90.7069309,30.429714 L90.7069309,29.8198066 C90.7069309,29.7742798 90.7069309,29.7129505 90.7221951,29.6674238 L90.7221951,26.9064734 C90.7221951,26.4643752 91.0848135,26.097904 91.5069997,26.097904 Z M55.237151,29.0119896 C55.5688687,29.0119896 55.8555384,29.3017051 55.8555384,29.6527499 L55.8555384,36.4241894 C55.8555384,36.7910369 55.5688687,37.0803761 55.237151,37.0803761 C54.8901691,37.0803761 54.6031272,36.7910369 54.6031272,36.4241894 L54.6031272,29.6527499 C54.6031272,29.3017051 54.8901691,29.0119896 55.237151,29.0119896 Z M58.1649785,26.0979792 C58.4974408,26.0979792 58.7841104,26.3884472 58.7841104,26.7236893 L58.7841104,36.4242647 C58.7841104,36.7598831 58.4974408,37.0646487 58.1649785,37.0646487 C57.8176243,37.0646487 57.531327,36.7598831 57.531327,36.4242647 L57.531327,26.7236893 C57.531327,26.3884472 57.8176243,26.0979792 58.1649785,26.0979792 Z M64.006635,28.9657857 C65.727025,28.9657857 67.7940246,30.3387358 67.7940246,32.8099707 C67.7940246,33.2972194 67.507355,33.5267342 66.9947004,33.5267342 L61.4407559,33.4962577 C61.5762724,35.2044499 62.8744762,36.012643 64.1723077,36.012643 C64.8662716,36.012643 65.4247189,35.8143573 65.9224816,35.4324597 C66.1492112,35.2804532 66.2851,35.2044499 66.4507727,35.2044499 C66.7381869,35.2044499 66.9187515,35.4027356 66.9187515,35.6770247 C66.9187515,35.8448339 66.8435473,36.012643 66.5866615,36.2414054 C65.9831662,36.7749332 65.0933735,37.0646487 64.1417793,37.0646487 C62.2099239,37.0646487 60.1429244,35.7835045 60.1429244,33.0383568 C60.1429244,30.2932091 62.2858728,28.9657857 64.006635,28.9657857 Z M97.5900171,28.9657104 C99.3104071,28.9657104 101.378151,30.3386605 101.378151,32.7636163 C101.378151,33.3893263 101.030797,33.633515 100.381881,33.633515 L95.3260718,33.6177124 C95.4917445,35.0361892 96.5937472,35.7382788 97.8011102,35.7382788 C98.4202421,35.7382788 98.8428006,35.585896 99.3104071,35.2961806 C99.5669205,35.1588479 99.7329655,35.0519919 99.9440586,35.0519919 C100.291413,35.0519919 100.502878,35.2961806 100.502878,35.6314227 C100.502878,35.8300847 100.427302,36.0434206 100.095212,36.3173334 C99.5218725,36.7910369 98.6912752,37.0645734 97.7404256,37.0645734 C95.7791587,37.0645734 93.6812584,35.7992319 93.6812584,33.0382815 C93.6812584,30.2931338 95.8696272,28.9657104 97.5900171,28.9657104 Z M88.4884059,30.3533344 C87.3867756,30.3533344 86.1488841,31.2236095 86.1488841,33.0236076 C86.1488841,34.8382797 87.3867756,35.707426 88.4884059,35.707426 C89.514832,35.707426 90.7825074,34.914283 90.7825074,33.0236076 C90.7825074,31.1167534 89.514832,30.3533344 88.4884059,30.3533344 Z M78.3147993,27.7607576 C76.4734124,27.7607576 74.7682867,29.3323698 74.7682867,31.6504694 C74.7682867,33.968569 76.4734124,35.5243785 78.3147993,35.5243785 C80.1561862,35.5243785 81.8616842,33.968569 81.8616842,31.6504694 C81.8616842,29.3323698 80.1710781,27.7607576 78.3147993,27.7607576 Z M64.006635,30.0798732 C62.8893682,30.0798732 61.5762724,30.8417871 61.4407559,32.5499794 L66.5717696,32.5499794 C66.4362531,30.8417871 65.1380493,30.0798732 64.006635,30.0798732 Z M97.5900171,30.3691371 C96.5937472,30.3691371 95.4619606,31.0098973 95.3260718,32.4588507 L99.823434,32.4588507 C99.6879175,31.0098973 98.6015513,30.3691371 97.5900171,30.3691371 Z M55.237151,25.9455212 C55.5688687,25.9455212 55.8708026,26.2352366 55.8708026,26.5862814 C55.8708026,26.93695 55.5688687,27.2270416 55.237151,27.2270416 C54.8901691,27.2270416 54.5882353,26.93695 54.5882353,26.5862814 C54.5882353,26.2352366 54.8901691,25.9455212 55.237151,25.9455212 Z M80.1710781,23.4285714 C80.6539488,23.4285714 81.0463511,23.8251429 81.0463511,24.2988465 C81.0463511,24.7714212 80.6539488,25.1679927 80.1710781,25.1679927 C79.6882073,25.1679927 79.295805,24.7714212 79.295805,24.2988465 C79.295805,23.8251429 79.6882073,23.4285714 80.1710781,23.4285714 Z M76.4588928,23.4285714 C76.9413912,23.4285714 77.3334212,23.8251429 77.3334212,24.2988465 C77.3334212,24.7714212 76.9413912,25.1679927 76.4588928,25.1679927 C75.9756497,25.1679927 75.5832474,24.7714212 75.5832474,24.2988465 C75.5832474,23.8251429 75.9756497,23.4285714 76.4588928,23.4285714 Z" id="Combined-Shape" fill="#495057"></path>
                        <g id="Group-3" fill="url(#linearGradient-1)">
                            <path d="M4.82521008,0 C2.16040739,0 0,2.18493122 0,4.88095238 L0,34.1666667 C0,36.8626878 2.16040739,39.047619 4.82521008,39.047619 L34.4296578,39.047619 C36.228925,39.047619 37.8785035,38.035418 38.7092975,36.420582 L46.2452034,21.7781587 C46.6020545,21.0839788 46.7834824,20.3251534 46.789916,19.5654603 L46.789916,19.4821587 C46.7834824,18.7224656 46.6020545,17.9636402 46.2452034,17.2698942 L38.7092975,2.62703704 C37.8785035,1.01263492 36.228925,0 34.4296578,0 L4.82521008,0 Z" id="Fill-1"></path>
                        </g>
                    </g>
                </g>
                <g id="sportime-logo" transform="translate(165.000000, 17.000000)" fill="#000000" fill-rule="nonzero">
                    <path d="M10.3087655,5.93962456 C10.3087655,6.03297818 10.2970377,6.14967022 10.2618542,6.31303907 C10.2383985,6.46473871 10.203215,6.61643836 10.1445759,6.768138 C10.0859367,6.91983765 10.0272975,7.03652968 9.95693054,7.14155251 C9.89829138,7.24657534 9.81619654,7.29325216 9.73410171,7.29325216 C9.61682337,7.29325216 9.48781721,7.24657534 9.33535537,7.16489092 C9.18289354,7.07153729 8.99524821,6.97818366 8.77241937,6.86149163 C8.54959054,6.74479959 8.27985037,6.65144597 7.96319887,6.55809234 C7.6582752,6.46473871 7.28298453,6.4180619 6.86078253,6.4180619 C6.45030836,6.4180619 6.08674553,6.47640791 5.77009402,6.59309995 C5.45344252,6.70979198 5.18370236,6.86149163 4.97260135,7.05986809 C4.74977252,7.26991375 4.59731069,7.49162861 4.48003235,7.74835109 C4.36275402,8.00507357 4.31584269,8.27346525 4.31584269,8.55352613 C4.31584269,8.92694064 4.44484885,9.23033993 4.69113335,9.4753932 C4.93741785,9.72044647 5.24234152,9.94216134 5.61763219,10.1405378 C5.98119503,10.3272451 6.39166919,10.5256215 6.82559903,10.7123288 C7.25952886,10.899036 7.6582752,11.1324201 8.02183803,11.412481 C8.38540087,11.6925419 8.70205237,12.0192796 8.94833687,12.4043633 C9.19462137,12.789447 9.32362754,13.2678843 9.32362754,13.8630137 C9.32362754,14.5164891 9.19462137,15.1116185 8.93660904,15.6834094 C8.6785967,16.2435312 8.31503387,16.7219685 7.8341927,17.1303907 C7.35335153,17.5388128 6.7786877,17.8538813 6.09847336,18.0755961 C5.41825902,18.297311 4.65594985,18.414003 3.82327368,18.414003 C3.38934385,18.414003 2.97886968,18.3789954 2.58012334,18.3206494 C2.19310484,18.2506342 1.84126984,18.1689498 1.53634617,18.0755961 C1.21969467,17.9705733 0.961682337,17.8655505 0.72712567,17.7371892 C0.504296836,17.608828 0.328379335,17.492136 0.211101001,17.3871131 C0.140734001,17.3170979 0.0820948337,17.2354135 0.0469113335,17.1537291 C0.0117278334,17.0720446 0,16.978691 0,16.8736682 C0,16.803653 0,16.7102993 0.0117278334,16.6052765 C0.0234556668,16.5002537 0.0351835002,16.3952308 0.0703670003,16.290208 C0.0938226671,16.173516 0.129006167,16.0684932 0.164189667,15.9751395 C0.199373168,15.8701167 0.234556668,15.7767631 0.281468001,15.6950786 C0.328379335,15.6133942 0.375290668,15.543379 0.422202002,15.4967022 C0.469113335,15.4500254 0.527752502,15.4150178 0.586391669,15.4150178 C0.703670003,15.4150178 0.83267617,15.4733638 0.996865838,15.601725 C1.16105551,15.7300863 1.36042867,15.8584475 1.61844101,16.0101471 C1.87645334,16.1501776 2.19310484,16.290208 2.58012334,16.4185693 C2.96714185,16.5469305 3.43625518,16.6052765 4.01091902,16.6052765 C4.52694369,16.6052765 4.96087352,16.5469305 5.33616419,16.4185693 C5.69972702,16.290208 6.00465069,16.1268392 6.25093519,15.9167935 C6.49721969,15.7067478 6.6731372,15.4616946 6.79041553,15.1816337 C6.90769386,14.9015728 6.96633303,14.6098427 6.96633303,14.3064434 C6.96633303,13.9213597 6.8490547,13.594622 6.6027702,13.3495687 C6.35648569,13.1045155 6.05156203,12.8828006 5.68799919,12.6844242 C5.32443636,12.4860477 4.92569002,12.2876712 4.49176019,12.0892948 C4.05783035,11.8909183 3.65908402,11.6692035 3.29552118,11.4008118 C2.93195835,11.1324201 2.61530684,10.8173516 2.36902234,10.4322679 C2.09928218,10.0005074 1.98200384,9.51040081 1.98200384,8.92694064 C1.98200384,8.30847286 2.09928218,7.74835109 2.34556668,7.22323694 C2.58012334,6.69812278 2.93195835,6.24302385 3.36588818,5.85794013 C3.81154585,5.47285642 4.33929835,5.16945713 4.96087352,4.95941147 C5.58244869,4.7493658 6.27439086,4.63267377 7.0249722,4.63267377 C7.3768072,4.63267377 7.71691437,4.65601218 8.05702153,4.71435819 C8.38540087,4.77270421 8.69032454,4.84271943 8.97179254,4.92440386 C9.25326054,5.00608828 9.48781721,5.09944191 9.69891821,5.20446474 C9.91001921,5.30948757 10.062481,5.4145104 10.1563037,5.50786403 C10.2618542,5.61288686 10.3087655,5.7529173 10.3087655,5.93962456 Z" id="Path"></path>
                    <path d="M27.5134971,8.98528666 C27.5134971,9.52207002 27.4665858,10.1288686 27.3610353,10.8056824 C27.2554848,11.4824962 27.0912951,12.15931 26.8684663,12.847793 C26.6456374,13.536276 26.3524416,14.2014206 26.0123344,14.8432268 C25.6604994,15.485033 25.2382974,16.0568239 24.7457284,16.5585997 C24.2531594,17.0603754 23.6784956,17.4571284 23.0334648,17.7605277 C22.3884339,18.0639269 21.6495804,18.2156266 20.8286321,18.2156266 C20.4064301,18.2156266 20.0311394,18.1689498 19.6793044,18.0872653 C19.3391973,18.0055809 19.0225457,17.8888889 18.7293499,17.7371892 C18.4361541,17.5854896 18.1781417,17.4104515 17.9318572,17.2120751 C17.6855727,17.0136986 17.4627439,16.7919838 17.2633707,16.5469305 L16.0788596,22.5565703 C16.0554039,22.6265855 16.0319482,22.6966007 15.9850369,22.7549467 C15.9381256,22.8132927 15.8794864,22.8599696 15.7856637,22.8949772 C15.6918411,22.9299848 15.5745627,22.9649924 15.4103731,22.9766616 C15.2579112,22.9883308 15.0585381,23 14.8357092,23 C14.6246082,23 14.4369629,22.9883308 14.2962289,22.9766616 C14.1554949,22.9533232 14.0382166,22.9299848 13.9561217,22.8949772 C13.8740269,22.8599696 13.8153877,22.8132927 13.7919321,22.7549467 C13.7684764,22.6966007 13.7567486,22.6382547 13.7684764,22.5565703 L17.3102821,5.05276509 C17.3337377,4.90106545 17.4275604,4.79604262 17.5917501,4.7376966 C17.7559397,4.67935058 18.0374077,4.64434297 18.4361541,4.64434297 C18.6355272,4.64434297 18.7879891,4.65601218 18.9169952,4.66768138 C19.0342736,4.67935058 19.1398241,4.70268899 19.2101911,4.7376966 C19.2805581,4.77270421 19.3274694,4.81938102 19.3509251,4.86605784 C19.3743808,4.92440386 19.3743808,4.98274987 19.3626529,5.0644343 L18.8818117,7.4449518 C19.0108179,7.14155251 19.2336467,6.81481481 19.5502983,6.46473871 C19.8669498,6.11466261 20.2305126,5.78792491 20.6644424,5.49619482 C21.0983723,5.19279554 21.5792134,4.94774226 22.1069659,4.7493658 C22.6347184,4.55098935 23.1741988,4.45763572 23.7254069,4.45763572 C24.4290769,4.45763572 25.0271964,4.57432775 25.5080376,4.81938102 C25.9888788,5.0644343 26.3758973,5.37950279 26.6808209,5.78792491 C26.9740168,6.19634703 27.1968456,6.67478437 27.3258518,7.22323694 C27.454858,7.76002029 27.5134971,8.35514967 27.5134971,8.98528666 Z M25.0975634,9.1369863 C25.0975634,8.74023338 25.0623799,8.37848808 24.9920129,8.04008118 C24.9216459,7.70167428 24.8043676,7.42161339 24.6519058,7.17656012 C24.4994439,6.93150685 24.3000708,6.74479959 24.0537863,6.61643836 C23.8075018,6.48807712 23.5025781,6.4180619 23.1390153,6.4180619 C22.6347184,6.4180619 22.1186938,6.55809234 21.6026691,6.83815322 C21.0866444,7.1182141 20.5940754,7.50329782 20.1484178,8.00507357 C19.7027601,8.50684932 19.3040137,9.10197869 18.9521787,9.77879249 C18.6003437,10.4556063 18.3540592,11.2024353 18.1898696,12.0076104 L17.7324841,14.3064434 C18.1664139,14.9599188 18.6355272,15.4383562 19.1398241,15.7650939 C19.6441209,16.0918316 20.2070569,16.2435312 20.8403599,16.2435312 C21.3329289,16.2435312 21.7903144,16.1268392 22.1890608,15.8934551 C22.5995349,15.660071 22.9513699,15.3566717 23.2680214,14.9599188 C23.5846729,14.5748351 23.8544131,14.1314054 24.0772419,13.6412988 C24.3000708,13.1511923 24.4994439,12.6377473 24.6519058,12.1126332 C24.8043676,11.587519 24.9216459,11.0624049 24.9920129,10.5372907 C25.0623799,10.0238458 25.0975634,9.55707763 25.0975634,9.1369863 Z" id="Shape"></path>
                    <path d="M43.6040845,9.40537798 C43.6040845,10.093861 43.5337175,10.7940132 43.4047114,11.5058346 C43.2757052,12.217656 43.076332,12.906139 42.8065919,13.5712836 C42.5368517,14.2364282 42.2084723,14.854896 41.7979982,15.4383562 C41.387524,16.0218163 40.9066828,16.5352613 40.3554747,16.9670218 C39.8042665,17.3987823 39.1709635,17.7488584 38.4672935,18.0055809 C37.7636235,18.2623034 36.9778587,18.3906646 36.109999,18.3906646 C35.2186837,18.3906646 34.4446466,18.2856418 33.8113436,18.0755961 C33.1780406,17.8655505 32.6502881,17.550482 32.239814,17.1420599 C31.8293398,16.7336377 31.5244161,16.231862 31.3367708,15.6367326 C31.1373976,15.0416032 31.043575,14.3764587 31.043575,13.6179604 C31.043575,12.9294774 31.1022141,12.2293252 31.2312203,11.5175038 C31.3602265,10.8056824 31.5595996,10.1171994 31.8293398,9.463724 C32.09908,8.8102486 32.4391871,8.18011162 32.8379335,7.59665145 C33.2484076,7.01319127 33.7292488,6.49974632 34.280457,6.05631659 C34.8316652,5.62455606 35.4649682,5.27447996 36.1686382,5.01775748 C36.8723082,4.76103501 37.658073,4.63267377 38.5259327,4.63267377 C39.417248,4.63267377 40.191285,4.7376966 40.824588,4.95941147 C41.457891,5.18112633 41.9856435,5.49619482 42.4078455,5.90461695 C42.8300475,6.31303907 43.1115155,6.81481481 43.3108887,7.40994419 C43.498534,7.99340436 43.6040845,8.67021816 43.6040845,9.40537798 Z M41.1646952,9.54540842 C41.1646952,9.07864028 41.1177838,8.65854896 41.0239612,8.29680365 C40.9301385,7.92338914 40.7659488,7.60832065 40.5313922,7.35159817 C40.3085633,7.0948757 40.0036397,6.89649924 39.6400768,6.7564688 C39.276514,6.61643836 38.8308563,6.54642314 38.3031038,6.54642314 C37.7401678,6.54642314 37.235871,6.65144597 36.7784855,6.84982243 C36.3211,7.04819888 35.9106258,7.31659056 35.5587908,7.65499746 C35.195228,7.99340436 34.8903043,8.39015728 34.6205641,8.84525622 C34.350824,9.30035515 34.139723,9.79046169 33.9638055,10.3039066 C33.787888,10.8173516 33.6588818,11.3424658 33.576787,11.8909183 C33.4946921,12.4277017 33.4477808,12.964485 33.4477808,13.47793 C33.4477808,13.9446981 33.4946921,14.3647894 33.6002426,14.7265348 C33.7057931,15.0999493 33.8699828,15.4150178 34.0928116,15.6717402 C34.3156405,15.9284627 34.6205641,16.1268392 34.984127,16.2668696 C35.3476898,16.4069001 35.7933475,16.4769153 36.3093722,16.4769153 C36.8723082,16.4769153 37.3883328,16.3718924 37.8339905,16.173516 C38.291376,15.9751395 38.6901223,15.7067478 39.0536852,15.3566717 C39.417248,15.0065956 39.7221717,14.6098427 39.9919118,14.166413 C40.261652,13.7113141 40.472753,13.2212075 40.6486705,12.7077626 C40.824588,12.1943176 40.9535942,11.6575342 41.035689,11.1207509 C41.1295117,10.5956367 41.1646952,10.0705226 41.1646952,9.54540842 Z" id="Shape"></path>
                    <path d="M56.8096249,5.46118721 C56.8096249,5.49619482 56.7978971,5.56621005 56.7861692,5.67123288 C56.7744414,5.77625571 56.7509857,5.90461695 56.7392579,6.04464739 C56.7158022,6.18467783 56.6923466,6.32470827 56.6571631,6.47640791 C56.6219796,6.62810756 56.5750682,6.7564688 56.5164291,6.88483004 C56.4577899,7.01319127 56.3991507,7.1182141 56.3405116,7.19989853 C56.2818724,7.28158295 56.2115054,7.32825977 56.1411384,7.32825977 C56.0707714,7.32825977 55.9886766,7.31659056 55.8948539,7.28158295 C55.8010312,7.24657534 55.7072086,7.21156773 55.6016581,7.16489092 C55.4961076,7.1182141 55.3671014,7.08320649 55.2263674,7.04819888 C55.0856334,7.01319127 54.9214437,7.00152207 54.7337984,7.00152207 C54.4171469,7.00152207 54.0535841,7.14155251 53.6313821,7.40994419 C53.2209079,7.67833587 52.8104337,8.06341958 52.4116874,8.54185693 C52.0129411,9.02029427 51.6493782,9.59208524 51.3092711,10.2572298 C50.9808917,10.9223744 50.7346072,11.6341958 50.5704176,12.4043633 L49.4680012,17.9822425 C49.4445455,18.0522577 49.4210899,18.122273 49.3741785,18.1689498 C49.3272672,18.2156266 49.2569002,18.2623034 49.1630775,18.297311 C49.0692549,18.3323186 48.9519765,18.3673262 48.7877869,18.3789954 C48.635325,18.4023338 48.4476797,18.4023338 48.2248509,18.4023338 C47.9902942,18.4023338 47.8026489,18.3906646 47.6619149,18.3789954 C47.5211809,18.355657 47.4039025,18.3323186 47.3218077,18.297311 C47.2397129,18.2623034 47.1928015,18.2156266 47.1693459,18.1689498 C47.1458902,18.122273 47.1458902,18.0522577 47.157618,17.9822425 L49.6791022,5.4261796 C49.69083,5.35616438 49.7142857,5.29781837 49.761197,5.23947235 C49.8081084,5.18112633 49.8784754,5.13444952 49.972298,5.09944191 C50.0661207,5.0644343 50.183399,5.04109589 50.3124052,5.01775748 C50.4531392,5.00608828 50.6056011,4.99441908 50.7932464,4.99441908 C50.9926196,4.99441908 51.1450814,5.00608828 51.2740876,5.01775748 C51.4030937,5.02942669 51.4969164,5.05276509 51.5672834,5.09944191 C51.6376504,5.13444952 51.6845617,5.18112633 51.6962896,5.23947235 C51.7197452,5.29781837 51.7197452,5.35616438 51.7080174,5.4261796 L51.2506319,7.70167428 C51.4617329,7.31659056 51.7197452,6.95484526 52.0129411,6.60476915 C52.3061369,6.25469305 52.6227884,5.93962456 52.9746234,5.68290208 C53.3147306,5.4145104 53.6782934,5.20446474 54.0535841,5.05276509 C54.4288747,4.88939625 54.8041654,4.81938102 55.1677282,4.81938102 C55.3319179,4.81938102 55.4843797,4.83105023 55.6485694,4.85438864 C55.8127591,4.87772704 55.9652209,4.90106545 56.1059549,4.93607306 C56.2466889,4.97108067 56.3756951,5.00608828 56.4812456,5.05276509 C56.5867961,5.09944191 56.6688909,5.14611872 56.7275301,5.19279554 C56.7744414,5.25114155 56.8096249,5.33282598 56.8096249,5.46118721 Z" id="Path"></path>
                    <path d="M64.9252856,6.68645358 L63.5296734,13.5829528 L62.6735416,17.9355657 C62.6266303,18.2506342 62.2865231,18.3789954 61.9581438,18.4023338 L60.9730058,18.4023338 C60.7384491,18.414003 60.2810636,18.3089802 60.3397028,18.0055809 L61.1254676,14.0613902 C61.1489233,13.9096905 61.1723789,13.7696601 61.2075624,13.6412988 L62.6149024,6.56976154 L60.8674553,6.56976154 C60.7619048,6.56976154 60.6798099,6.53475393 60.6328986,6.47640791 C60.5742594,6.4180619 60.5625316,6.33637747 60.5625316,6.16133942 C60.5625316,6.03297818 60.5625316,5.88127854 60.5859873,5.70624049 C60.6094429,5.53120244 60.6563543,5.37950279 60.7149934,5.22780315 C60.7736326,5.0761035 60.8557274,4.94774226 60.9378223,4.84271943 C61.0316449,4.7376966 61.1254676,4.69101979 61.2544738,4.69101979 L63.0136488,4.69101979 L63.6117683,1.71537291 C63.6234961,1.64535769 63.6469518,1.58701167 63.7055909,1.52866565 C63.7525023,1.47031963 63.8345971,1.42364282 63.9166919,1.38863521 C64.0105146,1.3419584 64.1277929,1.31861999 64.2919826,1.29528158 C64.4561723,1.27194318 64.6320898,1.27194318 64.8549186,1.27194318 C65.0777474,1.27194318 65.2653928,1.28361238 65.4178546,1.29528158 C65.5703164,1.30695079 65.6875948,1.3419584 65.7579618,1.38863521 C65.8400566,1.43531202 65.886968,1.48198884 65.9104236,1.52866565 C65.9338793,1.58701167 65.9338793,1.64535769 65.9221515,1.71537291 L65.2888484,4.79604262 L65.3123041,4.79604262 L67.0480235,4.80771182 C67.153574,4.80771182 67.2356688,4.84271943 67.2825801,4.90106545 C67.3412193,4.95941147 67.3529471,5.04109589 67.3529471,5.21613394 C67.3529471,5.34449518 67.3529471,5.49619482 67.3294915,5.67123288 C67.3060358,5.84627093 67.2591245,5.99797057 67.2004853,6.14967022 C67.1418461,6.30136986 67.0714791,6.4180619 66.9893843,6.52308473 C66.8955616,6.62810756 66.801739,6.67478437 66.6727328,6.67478437 L64.9370134,6.67478437 L64.9252856,6.68645358 Z" id="Path"></path>
                    <g id="Group" transform="translate(70.928879, 0.000000)">
                        <path d="M2.47563034,5.51953323 C2.53426951,5.21613394 2.79228184,5.00608828 3.09720551,5.00608828 L4.18789402,5.00608828 C4.46936202,5.00608828 4.69219085,5.0761035 4.77428569,5.19279554 C4.85638052,5.32115677 4.80946919,5.47285642 4.76255785,5.7412481 L2.33489634,17.9472349 C2.31144067,18.0172501 2.28798501,18.0872653 2.24107367,18.1339422 C2.19416234,18.180619 2.12379534,18.2272958 2.02997267,18.2623034 C1.93615001,18.297311 1.81887167,18.3323186 1.65468201,18.3439878 C1.50222017,18.3673262 1.31457484,18.3673262 1.091746,18.3673262 C0.868917168,18.3673262 0.681271834,18.355657 0.52881,18.3439878 C0.376348166,18.3206494 0.259069833,18.297311 0.188702832,18.2623034 C0.106607999,18.2272958 0.059696665,18.180619 0.0245131648,18.1339422 C0.00105749808,18.0872653 -0.0106703353,18.0172501 0.0127853315,17.9472349 L2.21761801,6.90816844 L2.47563034,5.51953323 Z" id="Path"></path>
                        <path d="M5.88842986,1.3652968 C5.84151852,1.62201928 5.78287936,1.84373415 5.70078452,2.0187722 C5.61868969,2.19381025 5.51313919,2.33384069 5.38413302,2.43886352 C5.25512685,2.54388635 5.09093719,2.62557078 4.90329185,2.67224759 C4.70391869,2.7189244 4.48108985,2.74226281 4.19962185,2.74226281 C3.91815385,2.74226281 3.69532501,2.7189244 3.51940751,2.67224759 C3.34349001,2.62557078 3.22621168,2.54388635 3.14411684,2.43886352 C3.06202201,2.33384069 3.01511068,2.19381025 3.01511068,2.0187722 C3.00338284,1.84373415 3.02683851,1.62201928 3.07374984,1.3652968 C3.12066118,1.10857433 3.17930035,0.886859462 3.26139518,0.723490614 C3.34349001,0.560121766 3.44904051,0.408422121 3.57804668,0.291730086 C3.71878068,0.175038052 3.87124251,0.0933536276 4.05888785,0.0583460173 C4.24653318,0.0116692035 4.48108985,0 4.76255785,0 C5.04402585,0 5.26685469,0.0233384069 5.44277219,0.0583460173 C5.61868969,0.105022831 5.74769586,0.175038052 5.82979069,0.291730086 C5.91188552,0.408422121 5.95879686,0.548452562 5.97052469,0.723490614 C5.98225252,0.898528666 5.94706902,1.10857433 5.88842986,1.3652968 Z" id="Path"></path>
                    </g>
                    <path d="M98.8069963,17.9589041 C98.7952684,18.0289193 98.7718128,18.0989346 98.7249014,18.1456114 C98.6779901,18.1922882 98.6076231,18.238965 98.5138004,18.2739726 C98.4199778,18.3089802 98.2909716,18.3439878 98.1385098,18.355657 C97.9860479,18.3789954 97.7984026,18.3789954 97.5755738,18.3789954 C97.3527449,18.3789954 97.1650996,18.3673262 97.0243656,18.355657 C96.8836316,18.3323186 96.7663533,18.3089802 96.6842584,18.2739726 C96.6021636,18.238965 96.5552522,18.1922882 96.5200687,18.1456114 C96.4966131,18.0989346 96.4848852,18.0289193 96.5083409,17.9589041 L98.0564149,10.2222222 C98.1033263,9.95383054 98.1385098,9.69710807 98.1736933,9.463724 C98.2088768,9.21867073 98.2206046,8.98528666 98.2206046,8.74023338 C98.2206046,8.14510401 98.1033263,7.67833587 97.8804974,7.31659056 C97.6576686,6.96651446 97.2589223,6.79147641 96.6842584,6.79147641 C96.2151451,6.79147641 95.7343039,6.93150685 95.2417349,7.21156773 C94.7491659,7.49162861 94.2683247,7.88838153 93.8226671,8.37848808 C93.3770094,8.86859462 92.9782631,9.463724 92.6381559,10.1405378 C92.2980487,10.8173516 92.0400364,11.5641806 91.8875746,12.3576865 L90.7734304,17.9472349 C90.7499747,18.0172501 90.7265191,18.0872653 90.6796077,18.1339422 C90.6326964,18.180619 90.5623294,18.2272958 90.4685067,18.2623034 C90.3746841,18.297311 90.2456779,18.3323186 90.0932161,18.3439878 C89.9407542,18.3673262 89.7531089,18.3673262 89.5302801,18.3673262 C89.3074512,18.3673262 89.1198059,18.355657 88.9790719,18.3439878 C88.8383379,18.3206494 88.7210595,18.297311 88.6506925,18.2623034 C88.5803255,18.2272958 88.5216864,18.180619 88.4982307,18.1339422 C88.474775,18.0872653 88.4630472,18.0172501 88.474775,17.9472349 L90.0228491,10.210553 C90.0932161,9.93049214 90.1283996,9.66210046 90.1518552,9.39370878 C90.1753109,9.1253171 90.1870387,8.88026383 90.1870387,8.64687976 C90.1870387,8.08675799 90.0697604,7.63165906 89.8352037,7.29325216 C89.6006471,6.95484526 89.2019007,6.7798072 88.6506925,6.7798072 C88.1698514,6.7798072 87.6890102,6.91983765 87.1964412,7.19989853 C86.7038722,7.47995941 86.2347589,7.87671233 85.7891012,8.36681887 C85.3434435,8.85692542 84.9446972,9.45205479 84.60459,10.1288686 C84.2644829,10.8056824 84.0064705,11.5525114 83.8540087,12.3460173 L82.7398645,17.9355657 C82.7164089,18.0055809 82.6929532,18.0755961 82.6460419,18.122273 C82.5991305,18.1689498 82.5287635,18.2156266 82.4349409,18.2506342 C82.3411182,18.2856418 82.2238399,18.3206494 82.0596502,18.3323186 C81.9071884,18.355657 81.719543,18.355657 81.4967142,18.355657 C81.2621575,18.355657 81.0745122,18.3439878 80.9337782,18.3323186 C80.7930442,18.3206494 80.6757658,18.2856418 80.593671,18.2506342 C80.5115762,18.2156266 80.4646648,18.1689498 80.4412092,18.122273 C80.4177535,18.0755961 80.4177535,18.0055809 80.4294813,17.9355657 L82.915782,5.4261796 C82.9275099,5.35616438 82.9509655,5.29781837 82.9978769,5.23947235 C83.0447882,5.18112633 83.1034274,5.13444952 83.19725,5.09944191 C83.2910727,5.0644343 83.3966232,5.04109589 83.5373572,5.01775748 C83.6780912,5.00608828 83.830553,4.99441908 84.0181984,4.99441908 C84.2175715,4.99441908 84.3700334,5.00608828 84.4990395,5.01775748 C84.6280457,5.02942669 84.7218684,5.05276509 84.7922354,5.09944191 C84.8626024,5.13444952 84.9095137,5.18112633 84.9212415,5.23947235 C84.9446972,5.29781837 84.9446972,5.35616438 84.9329694,5.4261796 L84.4521282,7.81836631 C84.5928622,7.50329782 84.8274189,7.16489092 85.1440704,6.81481481 C85.4607219,6.46473871 85.8360125,6.13800101 86.2699424,5.84627093 C86.7038722,5.55454084 87.1612577,5.30948757 87.6772824,5.11111111 C88.1815792,4.91273465 88.7093317,4.81938102 89.2370842,4.81938102 C89.8000202,4.81938102 90.2808614,4.90106545 90.6796077,5.05276509 C91.0783541,5.20446474 91.4067334,5.4145104 91.6647457,5.68290208 C91.9227581,5.95129376 92.1104034,6.26636225 92.2276817,6.62810756 C92.3449601,6.98985287 92.4270549,7.39827499 92.4505106,7.83003551 C92.6381559,7.50329782 92.8961682,7.16489092 93.2128197,6.81481481 C93.5411991,6.46473871 93.9164897,6.13800101 94.3504196,5.84627093 C94.7843494,5.55454084 95.2417349,5.30948757 95.7460317,5.11111111 C96.2503286,4.91273465 96.7663533,4.81938102 97.2823779,4.81938102 C97.9039531,4.81938102 98.4317056,4.91273465 98.8539076,5.0877727 C99.2761096,5.26281076 99.6162168,5.50786403 99.8742291,5.81126332 C100.132241,6.11466261 100.319887,6.47640791 100.437165,6.88483004 C100.554443,7.29325216 100.601355,7.73668189 100.601355,8.21511923 C100.601355,8.54185693 100.577899,8.85692542 100.542716,9.17199391 C100.507532,9.4870624 100.448893,9.8138001 100.390254,10.1405378 L98.8069963,17.9589041 Z" id="Path"></path>
                    <path d="M116,7.81836631 C116,8.4601725 115.847538,9.03196347 115.554342,9.54540842 C115.261146,10.0588534 114.792033,10.4906139 114.15873,10.8523592 C113.525427,11.2141045 112.716207,11.4941654 111.731069,11.6925419 C110.745931,11.8909183 109.561419,11.9842719 108.177535,11.9842719 L106.699828,11.9842719 C106.629461,12.2876712 106.594278,12.5910705 106.570822,12.8711314 C106.547366,13.1628615 106.535638,13.4312532 106.535638,13.6763064 C106.535638,14.5981735 106.770195,15.3099949 107.227581,15.8001015 C107.684966,16.290208 108.435547,16.5352613 109.467597,16.5352613 C110.065716,16.5352613 110.605197,16.4885845 111.07431,16.4069001 C111.555151,16.3135464 111.965625,16.2201928 112.31746,16.1268392 C112.669295,16.0218163 112.950763,15.9284627 113.173592,15.8467783 C113.396421,15.7650939 113.548883,15.718417 113.630978,15.718417 C113.713072,15.718417 113.771712,15.7534247 113.818623,15.8117707 C113.865534,15.8701167 113.877262,15.9518011 113.877262,16.0684932 C113.877262,16.1618468 113.865534,16.2785388 113.853806,16.4069001 C113.830351,16.5352613 113.806895,16.6752917 113.771712,16.803653 C113.736528,16.9436834 113.689617,17.0720446 113.630978,17.1887367 C113.572338,17.3054287 113.501971,17.4104515 113.431604,17.492136 C113.314326,17.608828 113.126681,17.7138508 112.833485,17.8188737 C112.552017,17.9238965 112.21191,18.0289193 111.824891,18.1106038 C111.437873,18.2039574 111.003943,18.2739726 110.53483,18.3206494 C110.065716,18.3789954 109.608331,18.4023338 109.139217,18.4023338 C108.306541,18.4023338 107.579416,18.3089802 106.95784,18.122273 C106.336265,17.9355657 105.808513,17.6555048 105.398039,17.2704211 C104.987564,16.8853374 104.670913,16.4069001 104.47154,15.8351091 C104.260439,15.2633181 104.166616,14.5865043 104.166616,13.8046677 C104.166616,13.1978691 104.225255,12.5560629 104.342534,11.8675799 C104.459812,11.1790969 104.647457,10.4906139 104.893742,9.8138001 C105.151754,9.1369863 105.468406,8.48351091 105.867152,7.86504313 C106.265898,7.24657534 106.746739,6.69812278 107.297948,6.21968544 C107.849156,5.7529173 108.494187,5.36783359 109.221312,5.0761035 C109.948438,4.78437341 110.769386,4.64434297 111.684157,4.64434297 C112.469922,4.64434297 113.126681,4.7376966 113.677889,4.93607306 C114.217369,5.13444952 114.674755,5.37950279 115.014862,5.68290208 C115.366697,5.98630137 115.612981,6.32470827 115.777171,6.70979198 C115.917905,7.08320649 116,7.456621 116,7.81836631 Z M113.630978,8.02841197 C113.630978,7.54997463 113.443332,7.17656012 113.068042,6.88483004 C112.692751,6.59309995 112.164998,6.4414003 111.473056,6.4414003 C110.863209,6.4414003 110.335456,6.54642314 109.866343,6.7564688 C109.39723,6.96651446 108.986756,7.24657534 108.623193,7.59665145 C108.25963,7.94672755 107.954706,8.35514967 107.696694,8.83358701 C107.438682,9.30035515 107.227581,9.8021309 107.075119,10.3155758 L108.505914,10.3155758 C109.479325,10.3155758 110.300273,10.2572298 110.957032,10.1288686 C111.61379,10.0005074 112.141543,9.84880771 112.540289,9.63876205 C112.939035,9.42871639 113.220503,9.18366312 113.384693,8.90360223 C113.548883,8.63521055 113.630978,8.34348047 113.630978,8.02841197 Z" id="Shape"></path>
                </g>
            </g>
        </g>
    </g>
</svg>