<?xml version="1.0" encoding="UTF-8"?>
<svg width="100%" height="100%" viewBox="0 0 48 48" version="1.1" xmlns="http://www.w3.org/2000/svg" xmlns:xlink="http://www.w3.org/1999/xlink">
    <g id="05---Landings" stroke="none" stroke-width="1" fill="none" fill-rule="evenodd">
        <g id="009.0.0-Passive-Campaign-Page" transform="translate(-67.000000, -294.000000)" fill-rule="nonzero">
            <g id="Banner-Copy" transform="translate(67.000000, 129.000000)">
                <g id="left-arrow-active" transform="translate(0.000000, 165.000000)">
                    <rect id="Main-Action-BG" fill="#1E64FF" x="0" y="0" width="48" height="48" rx="24"></rect>
                    <path d="M16,23.5772946 C15.9993476,23.0479563 16.2262495,22.5439795 16.6227222,22.1941561 L25.5260325,14.3457053 C26.1396448,13.8297849 27.0520762,13.899062 27.5810984,14.501738 C28.1101206,15.104414 28.0622291,16.0200434 27.4732325,16.5640066 L19.6876261,23.4269013 C19.6443911,23.4648749 19.6195985,23.5196857 19.6195985,23.5772946 C19.6195985,23.6349035 19.6443911,23.6897143 19.6876261,23.7276879 L27.4732325,30.5905825 C27.8830601,30.9351625 28.0744775,31.4751344 27.9734138,32.0015514 C27.8723502,32.5279683 27.4946613,32.9582414 26.9864973,33.1258725 C26.4783334,33.2935036 25.9194195,33.1721934 25.5260325,32.8088838 L16.6259156,24.9628329 C16.2284832,24.6124105 16.0005041,24.1077506 16,23.5772946 Z" id="LeftArrow" fill="#FFFFFF"></path>
                </g>
            </g>
        </g>
    </g>
</svg>