<?xml version="1.0" encoding="UTF-8"?>
<svg width="72px" height="72px" viewBox="0 0 72 72" version="1.1" xmlns="http://www.w3.org/2000/svg" xmlns:xlink="http://www.w3.org/1999/xlink">
    <title>36BA6D92-A44B-40D0-863A-E4F66E7F8305</title>
    <g id="02---B2B" stroke="none" stroke-width="1" fill="none" fill-rule="evenodd" stroke-linecap="round" stroke-linejoin="round">
        <g id="005.0.0-Masspayout" transform="translate(-135.000000, -1572.000000)" stroke="#FF6B6B" stroke-width="3">
            <g id="Group-30" transform="translate(135.000000, 1166.000000)">
                <g id="Group-27-Copy" transform="translate(0.000000, 406.000000)">
                    <g id="icons/big/contact" transform="translate(3.000000, 2.000000)">
                        <path d="M15.1992497,38.1355606 C16.8600337,36.4742749 16.8600337,33.7813307 15.1992497,32.120045 L10.6854859,27.6084084 C9.88760899,26.8102082 8.80526159,26.3617568 7.67666459,26.3617568 C6.54806759,26.3617568 5.46572019,26.8102082 4.66784327,27.6084084 L2.19186729,30.0843844 C0.0539358174,32.2292813 0.624267039,35.1745798 1.38781324,38.1079079 C4.66784327,50.7088539 15.1992497,62.4784034 29.0404659,65.7605606 C31.9864565,66.4591411 34.9250345,67.0963738 37.0703708,64.9543794 L39.5463468,62.4784034 C41.2071308,60.8171177 41.2071308,58.1241735 39.5463468,56.4628879 L35.0347101,51.9555055 C34.2368332,51.1573053 33.1544858,50.7088539 32.0258888,50.7088539 C30.8972918,50.7088539 29.8149444,51.1573053 29.0170675,51.9555055 L26.2879634,54.6846096 C19.5207422,51.9340791 14.7807076,47.617922 12.4616371,40.8582833 L15.1992497,38.1355606 Z" id="Path"></path>
                        <path d="M50.335561,36.6631632 L50.335561,19.6461461 C44.4616616,19.6461461 39.6999253,24.4078824 39.6999253,30.2817818 L39.6999253,32.4089089 L50.335561,32.4089089" id="Path"></path>
                        <path d="M36.5092347,36.6631632 L24.8100355,36.6631632 L32.2549804,30.0924675 C34.3523278,28.2418669 35.9561816,26.9464464 35.3371876,23.9004004 C34.7889789,21.2280346 32.3075093,19.4039421 29.5933101,19.678159 C26.879111,19.9523759 24.8126409,22.2359491 24.8100355,24.963964" id="Path"></path>
                        <path d="M49.4855527,61.8738739 C59.2980754,56.3138003 65.9231486,45.7498867 65.9231486,33.632754 C65.9231486,15.7345701 51.4684554,1.22522523 33.6376878,1.22522523 C20.9241105,1.22522523 9.92688965,8.60160481 4.66188731,19.3233183" id="Path" transform="translate(35.292518, 31.549550) rotate(2.000000) translate(-35.292518, -31.549550) "></path>
                    </g>
                </g>
            </g>
        </g>
    </g>
</svg>