<?xml version="1.0" encoding="UTF-8"?>
<svg width="120px" height="120px" viewBox="0 0 120 120" version="1.1" xmlns="http://www.w3.org/2000/svg" xmlns:xlink="http://www.w3.org/1999/xlink">
    <title>416BEA26-5252-4855-BFD2-6A48D23A9540</title>
    <g id="02---B2B" stroke="none" stroke-width="1" fill="none" fill-rule="evenodd">
        <g id="006.0.0-Link-B2B" transform="translate(-135.000000, -2307.000000)">
            <g id="Group" transform="translate(135.000000, 2188.000000)">
                <g id="icons/big/support-copy" transform="translate(0.000000, 119.000000)">
                    <path d="M28.5869112,67.298048 C31.5177065,64.3663675 31.5177065,59.614113 28.5869112,56.6824324 L20.6214457,48.7207207 C19.2134276,47.3121321 17.3034028,46.5207472 15.311761,46.5207472 C13.3201193,46.5207472 11.4100945,47.3121321 10.0020764,48.7207207 L5.63270698,53.0900901 C1.85988674,56.8752024 2.8663536,62.0727878 4.21378807,67.2492492 C10.0020764,89.4862127 28.5869112,110.256006 53.0125869,116.048048 C58.2113938,117.280837 63.3971196,118.405366 67.1830073,114.625375 L71.5523767,110.256006 C74.483172,107.324325 74.483172,102.572071 71.5523767,99.6403904 L63.5906649,91.6861862 C62.1826468,90.2775975 60.272622,89.4862127 58.2809803,89.4862127 C56.2893385,89.4862127 54.3793137,90.2775975 52.9712956,91.6861862 L48.1552295,96.5022523 C36.2130744,91.6483749 27.8483075,84.0316271 23.7558301,72.1028529 L28.5869112,67.298048 Z" id="Path" stroke="#1E64FF" stroke-width="5" stroke-linecap="round" stroke-linejoin="round"></path>
                    <path d="M90.5921664,64.6996997 L90.5921664,34.6696697 C80.2264617,34.6696697 71.8233977,43.0727337 71.8233977,53.4384384 L71.8233977,57.1921922 L90.5921664,57.1921922" id="Path" stroke="#1E64FF" stroke-width="5" stroke-linecap="round" stroke-linejoin="round"></path>
                    <path d="M66.192767,64.6996997 L45.5471214,64.6996997 L58.6852595,53.1043544 C62.3864607,49.8385886 65.2167911,47.5525526 64.1244487,42.1771772 C63.1570216,37.4612375 58.7779576,34.2422508 53.9881944,34.726163 C49.1984312,35.2100752 45.5517193,39.2399102 45.5471214,44.0540541" id="Path" stroke="#1E64FF" stroke-width="5" stroke-linecap="round" stroke-linejoin="round"></path>
                    <path d="M89.0921518,109.189189 C106.408368,99.3772947 118.099674,80.7350942 118.099674,59.3519188 C118.099674,27.7668883 92.5913919,2.16216216 61.1253314,2.16216216 C38.6896068,2.16216216 19.2827464,15.1793026 9.99156584,34.0999734" id="Path" stroke="#1E64FF" stroke-width="5" stroke-linecap="round" transform="translate(64.045620, 55.675676) rotate(2.000000) translate(-64.045620, -55.675676) "></path>
                    <rect id="Rectangle" x="0" y="0" width="120" height="120"></rect>
                </g>
            </g>
        </g>
    </g>
</svg>