<?xml version="1.0" encoding="UTF-8"?>
<svg width="72px" height="72px" viewBox="0 0 72 72" version="1.1" xmlns="http://www.w3.org/2000/svg" xmlns:xlink="http://www.w3.org/1999/xlink">
    <title>A9D4D4C6-37B8-4F37-B91B-00A470B8229D</title>
    <g id="02---B2B" stroke="none" stroke-width="1" fill="none" fill-rule="evenodd" stroke-linecap="round" stroke-linejoin="round">
        <g id="005.0.0-Masspayout" transform="translate(-935.000000, -1572.000000)" stroke="#7DE6E1" stroke-width="2.83333333">
            <g id="Group-30" transform="translate(135.000000, 1166.000000)">
                <g id="Group-29-Copy" transform="translate(800.000000, 406.000000)">
                    <g id="check-badge" transform="translate(3.000000, 3.000000)">
                        <path d="M44.3333333,25.9166667 L32.8016667,41.2903333 C32.4240322,41.793748 31.8467141,42.1087411 31.2190204,42.1538481 C30.5913266,42.1989551 29.9749014,41.9697461 29.5291667,41.5255 L22.6101667,34.6036667" id="Path"></path>
                        <path d="M29.3166667,2.17616667 C30.211929,1.05741193 31.5671334,0.406184573 33,0.406184573 C34.4328666,0.406184573 35.788071,1.05741193 36.6833333,2.17616667 L41.0608333,7.62466667 C42.0700089,8.88020435 43.6500647,9.53402057 45.2513333,9.35866667 L52.1986667,8.60216667 C53.6193908,8.45073543 55.0323042,8.95055799 56.0417723,9.96167743 C57.0512405,10.9727969 57.5487531,12.3865252 57.395,13.807 L56.6385,20.7515 C56.4643547,22.3532056 57.1191767,23.9331105 58.3753333,24.942 L63.821,29.3166667 C64.9387865,30.2125297 65.5892828,31.5675136 65.5892828,33 C65.5892828,34.4324864 64.9387865,35.7874703 63.821,36.6833333 L58.3753333,41.0608333 C57.1192055,42.0684989 56.4642754,43.6475962 56.6385,45.2485 L57.395,52.1958333 C57.5503347,53.6174563 57.0524099,55.0327988 56.0411877,56.044021 C55.0299655,57.0552433 53.614623,57.553168 52.193,57.3978333 L45.2456667,56.6413333 C43.6441161,56.4682692 42.0647113,57.1228838 41.0551667,58.3781667 L36.6833333,63.8181667 C35.788071,64.9369214 34.4328666,65.5881488 33,65.5881488 C31.5671334,65.5881488 30.211929,64.9369214 29.3166667,63.8181667 L24.9448333,58.3725 C23.9352887,57.1172172 22.3558839,56.4626025 20.7543333,56.6356667 L13.807,57.3921667 C12.385377,57.5475014 10.9700345,57.0495766 9.95881231,56.0383544 C8.94759008,55.0271321 8.44966529,53.6117897 8.605,52.1901667 L9.3615,45.2428333 C9.5357246,43.6419295 8.88079454,42.0628323 7.62466667,41.0551667 L2.179,36.6833333 C1.0612135,35.7874703 0.410717197,34.4324864 0.410717197,33 C0.410717197,31.5675136 1.0612135,30.2125297 2.179,29.3166667 L7.62466667,24.942 C8.88082335,23.9331105 9.53564533,22.3532056 9.3615,20.7515 L8.605,13.807 C8.45094042,12.385433 8.94917014,10.9706023 9.95998014,9.95924176 C10.9707901,8.94788122 12.3853494,8.44888117 13.807,8.60216667 L20.7543333,9.35866667 C22.3556019,9.53402057 23.9356578,8.88020435 24.9448333,7.62466667 L29.3166667,2.17616667 Z" id="Path"></path>
                    </g>
                </g>
            </g>
        </g>
    </g>
</svg>