<?xml version="1.0" encoding="UTF-8"?>
<svg width="107px" height="29px" viewBox="0 0 107 29" version="1.1" xmlns="http://www.w3.org/2000/svg" xmlns:xlink="http://www.w3.org/1999/xlink">
    <title>649482B7-C13B-4239-994F-13616AD6B322</title>
    <g id="05---Campaigns" stroke="none" stroke-width="1" fill="none" fill-rule="evenodd">
        <g id="009.0.0-Milagron-Campaign-Detail" transform="translate(-285.000000, -602.000000)" fill="#000000" fill-rule="nonzero">
            <g id="Group-5" transform="translate(134.999895, 124.000000)">
                <g id="Group-4" transform="translate(0.000000, 21.000000)">
                    <g id="iyzico_milagron_logo" transform="translate(0.000000, 443.000000)">
                        <g id="Shape" transform="translate(150.000105, 14.000000)">
                            <path d="M107,28.8645076 L107,0.169075952 L103.462676,0.169075952 L103.462676,17.3522882 L97.4018429,0.169075952 L93.8645184,0.169075952 L93.8645184,28.8645076 L97.4018429,28.8645076 L97.53307,11.6812954 L103.855195,28.8645076 L107,28.8645076 Z M86.9721939,24.2241834 C86.6447069,24.7070921 86.1197986,24.9491255 85.397469,24.9491255 L84.1444247,24.9491255 C83.4441598,24.9491255 82.9262194,24.7186726 82.5871193,24.257767 C82.2480193,23.7968613 82.0796306,23.2189921 82.0796306,22.5218433 L82.0796306,6.4781567 C82.0796306,5.89333919 82.2155028,5.36063413 82.4860861,4.87772542 C82.7566693,4.39481671 83.2420934,4.11919974 83.9423582,4.05203259 L85.567019,4.05203259 C86.2208318,4.09719671 86.7016106,4.34965258 87.0058716,4.81055826 C87.3101326,5.27146394 87.4622693,5.82733009 87.4622693,6.47931475 L87.4622693,22.5230014 C87.4634244,23.173828 87.2996809,23.7401166 86.9721939,24.2241834 Z M86.1430246,29 C86.9559357,29 87.1696151,28.8147113 87.8350409,28.4429758 C88.5004667,28.0712403 89.0706657,27.5825413 89.5444768,26.9745627 C90.0182878,26.3665841 90.3794526,25.6752256 90.6279711,24.8981711 C90.8764896,24.1211165 91.0007489,23.3394298 91.0007489,22.5519527 L91.0007489,6.48163086 C91.0007489,5.6489897 90.8706831,4.83950962 90.6117129,4.05087453 C90.3515813,3.26339749 89.9683518,2.57088092 89.4608631,1.97448287 C88.9533743,1.37808482 88.3378845,0.899808322 87.6155549,0.539653382 C86.8920641,0.180656497 86.0803143,0 85.177983,0 L84.6368165,0 C83.7344852,0 82.9099611,0.169075952 82.1655669,0.506069803 C81.4211726,0.844221708 80.7778115,1.29933711 80.2354837,1.87373213 C79.6943172,2.44812715 79.2762487,3.13485345 78.9824394,3.93275298 C78.6886301,4.73181056 78.5423061,5.58182254 78.5423061,6.48163086 L78.5423061,22.5507947 C78.5423061,23.2931076 78.6607589,24.0481591 78.8976644,24.812475 C79.1345699,25.577949 79.4783151,26.2704656 79.9300614,26.8888667 C80.3818077,27.5084258 80.9403938,28.0144956 81.6058195,28.4082342 C82.2712453,28.8019727 83.0446721,28.9988419 83.9249387,28.9988419 L86.1430246,28.9988419 L86.1430246,29 Z M67.6678786,16.2382398 L67.6678786,4.21995048 L70.2064838,4.21995048 C70.9961688,4.21995048 71.5373353,4.45040332 71.8311446,4.91246706 C72.1237926,5.37453079 72.2712779,5.95355802 72.2712779,6.65070681 L72.2712779,11.8827969 L67.6678786,16.2382398 Z M67.6678786,28.8645076 L67.6678786,21.8084818 L70.5792615,19.0059899 L73.3547722,28.8633496 L77.1545508,28.8633496 L73.2026417,16.5972366 L75.2325968,14.0425685 C75.6158263,13.6604105 75.8086023,13.1983468 75.8086023,12.6586934 L75.8086023,6.65070681 C75.8086023,5.79606261 75.6843431,4.97384394 75.4358245,4.1863669 C75.187306,3.39888987 74.809883,2.70637329 74.3012329,2.10997524 C73.7937442,1.51357719 73.1550283,1.04109097 72.3885693,0.692516572 C71.620949,0.343942177 70.7186177,0.169075952 69.6804142,0.169075952 L64.1293929,0.169075952 L64.1293929,28.8645076 L67.6678786,28.8645076 Z M55.4138249,13.6395655 L55.4138249,17.6904401 L58.1219801,17.6904401 L58.1219801,24.8136331 L56.057186,24.8136331 L55.3127917,24.8136331 C54.6125269,24.8136331 54.0945864,24.5831803 53.7554863,24.1222746 C53.4163863,23.6613689 53.2479976,23.0834997 53.2479976,22.3863509 L53.2479976,6.4781567 C53.2479976,5.89333919 53.3838698,5.36063413 53.6544531,4.87772542 C53.9250364,4.39481671 54.4104604,4.11919974 55.1107252,4.05203259 L56.2278973,4.05203259 C56.88171,4.09719671 57.3624889,4.35081064 57.6667499,4.81171632 C57.9710109,5.272622 58.1243027,5.82964619 58.1243027,6.48278891 L58.1243027,9.18337194 L61.5304001,9.18337194 L61.5304001,6.48163086 C61.5304001,5.6489897 61.4003343,4.83950962 61.141364,4.05087453 C60.8812325,3.26339749 60.498003,2.57088092 59.9905142,1.97448287 C59.4830255,1.37808482 58.8675357,0.899808322 58.1452061,0.539653382 C57.4228766,0.179498443 57.2614556,0.107699066 56.3637696,0 L55.2802752,0 C54.377944,0 53.5534199,0.169075952 52.8090256,0.506069803 C52.0646313,0.844221708 51.7847576,1.21364108 51.2435911,1.7880361 C50.7024246,2.36243112 50.3505503,3.10358598 50.1519677,3.93275298 C49.9545464,4.76076192 49.8430615,5.58182254 49.8430615,6.48163086 L49.8430615,22.4164603 C49.8430615,23.1147672 49.9557077,23.8454996 50.1821615,24.6109736 C50.407454,25.3764476 50.7523606,26.0735964 51.2145586,26.703578 C51.6767566,27.3335596 52.2411491,27.85121 52.9077362,28.256529 C53.573162,28.6618481 53.6904535,28.8645076 54.57072,28.8645076 L56.8050641,28.8645076 L61.5315614,28.8645076 L61.5315614,13.6395655 L55.4138249,13.6395655 Z M41.464271,7.52387988 L42.9437691,19.219072 L40.0021924,19.2086495 L41.464271,7.52387988 Z M48.4100154,28.8645076 L43.8054549,0.169075952 L39.0197313,0.169075952 L34.4151707,28.8645076 L37.7875904,28.8645076 L38.7015347,22.7372414 L44.2537173,22.7372414 L45.1676616,28.8645076 L48.4100154,28.8645076 Z M33.0007055,28.8645076 L33.0007055,24.8136331 L27.7527839,24.8136331 L27.7527839,0.169075952 L24.2154594,0.169075952 L24.2154594,28.8645076 L33.0007055,28.8645076 Z M21.8754368,28.8645076 L21.8754368,0.169075952 L18.4693395,0.169075952 L18.4693395,28.8645076 L21.8754368,28.8645076 Z M16.1304782,28.8645076 L16.1304782,0.169075952 L12.1785691,0.169075952 L8.08149732,17.6568565 L3.95190909,0.169075952 L0,0.169075952 L0,28.8645076 L3.2748703,28.8645076 L3.2748703,13.5712403 L7.06651979,28.8645076 L9.09763615,28.8645076 L12.8556079,13.6048239 L12.8556079,28.8645076 L16.1304782,28.8645076 Z"></path>
                        </g>
                    </g>
                </g>
            </g>
        </g>
    </g>
</svg>