<?xml version="1.0" encoding="UTF-8"?>
<svg width="72px" height="72px" viewBox="0 0 72 72" version="1.1" xmlns="http://www.w3.org/2000/svg" xmlns:xlink="http://www.w3.org/1999/xlink">
    <title>D0AFB78E-E995-488F-85CA-4DC540575CA1</title>
    <g id="02---B2B" stroke="none" stroke-width="1" fill="none" fill-rule="evenodd" stroke-linecap="round" stroke-linejoin="round">
        <g id="005.0.0-EFT/Havale" transform="translate(-135.000000, -7308.000000)" stroke="#1E64FF" stroke-width="3">
            <g id="Group-30" transform="translate(135.000000, 7308.000000)">
                <g id="official-building-3" transform="translate(3.000000, 3.000000)">
                    <path d="M3.25,65.4756667 L5.76033333,57.9333333 C5.95293701,57.355059 6.49382766,56.9647961 7.10333333,56.9643333 L58.8966667,56.9643333 C59.5061723,56.9647961 60.047063,57.355059 60.2396667,57.9333333 L62.75,65.4643333" id="Path"></path>
                    <rect id="Rectangle" x="8.91666667" y="25.809" width="48.1666667" height="31.1666667"></rect>
                    <line x1="65.5833333" y1="65.4756667" x2="0.416666667" y2="65.4756667" id="Path"></line>
                    <line x1="17.4223333" y1="25.809" x2="17.4223333" y2="56.9756667" id="Path"></line>
                    <line x1="25.9223333" y1="25.809" x2="25.9223333" y2="56.9756667" id="Path"></line>
                    <line x1="40.089" y1="25.809" x2="40.089" y2="56.9756667" id="Path"></line>
                    <line x1="48.589" y1="25.809" x2="48.589" y2="56.9756667" id="Path"></line>
                    <path d="M62.3816667,18.4111667 C62.5949861,17.7709067 62.3270499,17.0690559 61.7413333,16.7338333 L33.7026667,0.7 C33.2643485,0.446936874 32.7243182,0.446936874 32.286,0.7 L4.236,16.7225 C3.65028345,17.0577226 3.38234719,17.7595733 3.59566667,18.3998333 L5.76033333,24.84 C5.95293701,25.4182743 6.49382766,25.8085372 7.10333333,25.809 L58.8966667,25.809 C59.5061723,25.8085372 60.047063,25.4182743 60.2396667,24.84 L62.3816667,18.4111667 Z" id="Path"></path>
                    <line x1="62.2768333" y1="17.309" x2="3.709" y2="17.309" id="Path"></line>
                </g>
            </g>
        </g>
    </g>
</svg>