<?xml version="1.0" encoding="UTF-8"?>
<svg width="72px" height="72px" viewBox="0 0 72 72" version="1.1" xmlns="http://www.w3.org/2000/svg" xmlns:xlink="http://www.w3.org/1999/xlink">
    <title>4AD03F50-2F63-4ED9-A705-6C2E578743C6</title>
    <g id="02---B2B" stroke="none" stroke-width="1" fill="none" fill-rule="evenodd" stroke-linecap="round" stroke-linejoin="round">
        <g id="005.0.0-EFT/Havale" transform="translate(-735.000000, -7744.000000)" stroke="#FA7355" stroke-width="3">
            <g id="Group-30" transform="translate(135.000000, 7308.000000)">
                <g id="Group-28-Copy" transform="translate(600.000000, 436.000000)">
                    <g id="user-network" transform="translate(3.000000, 3.000000)">
                        <line x1="47.1666667" y1="18.89" x2="55.9726667" y2="10.1463333" id="Path"></line>
                        <circle id="Oval" cx="59.9166667" cy="6.08333333" r="5.66666667"></circle>
                        <line x1="49.8923333" y1="49.9405" x2="55.8848333" y2="55.9698333" id="Path"></line>
                        <circle id="Oval" cx="59.945" cy="59.9166667" r="5.66666667"></circle>
                        <line x1="18.8333333" y1="18.89" x2="10.0301667" y2="10.1463333" id="Path"></line>
                        <circle id="Oval" cx="6.08333333" cy="6.08333333" r="5.66666667"></circle>
                        <line x1="16.1105" y1="49.9405" x2="10.1151667" y2="55.9698333" id="Path"></line>
                        <circle id="Oval" cx="6.055" cy="59.9166667" r="5.66666667"></circle>
                        <line x1="45.75" y1="31.5833333" x2="54.25" y2="31.5833333" id="Path"></line>
                        <circle id="Oval" cx="59.9166667" cy="31.5833333" r="5.66666667"></circle>
                        <line x1="20.25" y1="31.5833333" x2="11.75" y2="31.5833333" id="Path"></line>
                        <circle id="Oval" cx="6.08333333" cy="31.5833333" r="5.66666667"></circle>
                        <path d="M20.2783333,45.75 C20.2783333,38.7083695 25.9867029,33.0000003 33.0283333,33.0000003 C40.0699638,33.0000003 45.7783333,38.7083695 45.7783333,45.75 L20.2783333,45.75 Z" id="Path"></path>
                        <circle id="Oval" cx="33.0283333" cy="22.375" r="7.79166667"></circle>
                    </g>
                </g>
            </g>
        </g>
    </g>
</svg>