<?xml version="1.0" encoding="UTF-8"?>
<svg width="70px" height="48px" viewBox="0 0 70 48" version="1.1" xmlns="http://www.w3.org/2000/svg" xmlns:xlink="http://www.w3.org/1999/xlink">
    <title>1761C97F-4917-463C-8DBD-C1499EBF32F6</title>
    <defs>
        <linearGradient x1="90.2554899%" y1="50%" x2="0%" y2="50%" id="linearGradient-1">
            <stop stop-color="#1E64FF" offset="0%"></stop>
            <stop stop-color="#1E64FF" stop-opacity="0" offset="100%"></stop>
        </linearGradient>
    </defs>
    <g id="02---B2B" stroke="none" stroke-width="1" fill="none" fill-rule="evenodd">
        <g id="003.1.0-Sanal-Pos" transform="translate(-135.000000, -2552.000000)" fill="url(#linearGradient-1)">
            <g id="Group" transform="translate(135.000000, 2542.000000)">
                <g id="Group-3" transform="translate(0.000000, 10.000000)">
                    <path d="M6.3,0 C2.82072,0 0,2.68586667 0,6 L0,42 C0,45.3141333 2.82072,48 6.3,48 L53.86192,48 C56.21112,48 58.36488,46.7557333 59.4496,44.7706667 L69.2888,26.7712 C69.75472,25.9178667 69.9916,24.9850667 70,24.0512 L70,23.9488 C69.9916,23.0149333 69.75472,22.0821333 69.2888,21.2293333 L59.4496,3.22933333 C58.36488,1.2448 56.21112,0 53.86192,0 L6.3,0 Z" id="Fill-1"></path>
                </g>
            </g>
        </g>
    </g>
</svg>