<?xml version="1.0" encoding="UTF-8"?>
<svg width="72px" height="72px" viewBox="0 0 72 72" version="1.1" xmlns="http://www.w3.org/2000/svg" xmlns:xlink="http://www.w3.org/1999/xlink">
    <title>CA08918F-0FC1-47EB-B864-C1F16F6A43F0</title>
    <g id="02---B2B" stroke="none" stroke-width="1" fill="none" fill-rule="evenodd" stroke-linecap="round" stroke-linejoin="round">
        <g id="005.0.0-Masspayout" transform="translate(-935.000000, -1166.000000)" stroke="#FFB900" stroke-width="3">
            <g id="Group-30" transform="translate(135.000000, 1166.000000)">
                <g id="Group-29" transform="translate(800.000000, 0.000000)">
                    <g id="cursor-double-click-2" transform="translate(3.000000, 3.000000)">
                        <path d="M49.2608696,64.0996522 C49.1086463,64.6983877 48.600151,65.1393222 47.9858935,65.2052297 C47.3716359,65.2711372 46.7811712,64.9481168 46.5053913,64.3953043 L30.5490435,32.5269565 C30.263833,31.9576806 30.3751865,31.2697401 30.8254198,30.8195068 C31.2756531,30.3692735 31.9635937,30.25792 32.5328696,30.5431304 L64.410087,46.4817391 C64.9651082,46.7565593 65.2899763,47.3482269 65.2239734,47.964034 C65.1579705,48.579841 64.7150909,49.0892206 64.1144348,49.2401739 L52.2173913,52.2173913 L49.2608696,64.0996522 Z" id="Path"></path>
                        <path d="M28.5652174,56.6521739 C13.0532196,56.6521739 0.47826087,44.0772151 0.47826087,28.5652174 C0.47826087,13.0532196 13.0532196,0.47826087 28.5652174,0.47826087 C44.0772151,0.47826087 56.6521739,13.0532196 56.6521739,28.5652174" id="Path"></path>
                        <path d="M24.3373913,44.2643478 C16.7336109,42.2194956 11.6874248,35.020511 12.3586396,27.1752343 C13.0298544,19.3299575 19.2255911,13.0927931 27.0662206,12.3693113 C34.9068501,11.6458295 42.1393032,16.6439286 44.2347826,24.233913" id="Path"></path>
                    </g>
                </g>
            </g>
        </g>
    </g>
</svg>