<?xml version="1.0" encoding="UTF-8"?>
<svg width="370px" height="168px" viewBox="0 0 370 168" version="1.1" xmlns="http://www.w3.org/2000/svg" xmlns:xlink="http://www.w3.org/1999/xlink">
    <title>5FD3EB56-763C-4D14-A2A3-FBCC628548E9</title>
    <defs>
        <linearGradient x1="90.2554899%" y1="50%" x2="0%" y2="50%" id="linearGradient-1">
            <stop stop-color="#1E64FF" offset="0%"></stop>
            <stop stop-color="#1E64FF" stop-opacity="0" offset="100%"></stop>
        </linearGradient>
    </defs>
    <g id="05---Landings" stroke="none" stroke-width="1" fill="none" fill-rule="evenodd">
        <g id="004.0.0-ShopList-LP" transform="translate(-535.000000, -222.000000)">
            <g id="Group-4" transform="translate(535.000000, 222.000000)">
                <g id="Brand/1--Logo/3--Subbrands/1--PWI/1--TR/3--OneLine" transform="translate(22.000000, -0.000000)">
                    <g id="iyzico-ile-Ode_OneLine_TR" transform="translate(-0.000000, 37.241905)">
                        <g id="Group-3" transform="translate(-0.000000, 5.729524)" fill="url(#linearGradient-1)">
                            <path d="M4.28571429,0 C1.91885714,0 0,1.92359213 0,4.29714286 L0,30.08 C0,32.4535507 1.91885714,34.3771429 4.28571429,34.3771429 L36.6407619,34.3771429 C38.2388571,34.3771429 39.704,33.4860109 40.4419048,32.0643251 L47.1352381,19.1732785 C47.4521905,18.5621293 47.6133333,17.8940668 47.6190476,17.2252404 L47.6190476,17.1519025 C47.6133333,16.4830761 47.4521905,15.8150136 47.1352381,15.2042463 L40.4419048,2.31281778 C39.704,0.891513905 38.2388571,0 36.6407619,0 L4.28571429,0 Z" id="Fill-1"></path>
                        </g>
                        <g id="Group-21" transform="translate(60.669252, 0.000000)" fill="#1E64FF">
                            <path d="M30.95203,12.2035158 C31.7835933,10.5989245 33.7558349,9.97302201 35.3588254,10.8084681 C36.9623602,11.6455513 37.5846721,13.6250293 36.748483,15.2326219 L36.748483,15.2326219 L21.8426575,44.0729747 C21.28157,45.1512513 20.2061976,45.7847934 19.077492,45.8322681 C18.522663,45.8595525 17.9555891,45.7452311 17.4293315,45.4661125 C15.8260689,44.6317577 15.2043012,42.6522798 16.0380413,41.0444143 L16.0380413,41.0444143 L20.2530003,32.8809435 L11.1240359,15.2326219 C10.2902958,13.6250293 10.9164172,11.6455513 12.5177751,10.8084681 C14.1188608,9.97302201 16.094912,10.5989245 16.9251146,12.2035158 L16.9251146,12.2035158 L23.9381642,25.7600068 Z M90.9454539,10.0015341 C94.4817745,10.0015341 97.8061227,11.3821211 100.307615,13.8906422 C101.57945,15.1716414 101.57945,17.2471602 100.307615,18.5284322 C99.0284336,19.8056116 96.9579609,19.8056116 95.6823167,18.5284322 C94.4148358,17.2569825 92.7375597,16.5606865 90.9454539,16.5606865 C89.158246,16.5606865 87.4782488,17.2569825 86.2143053,18.5284322 C84.9490013,19.7916966 84.2537643,21.4792322 84.2537643,23.2734496 C84.2537643,25.06603 84.9490013,26.7516557 86.2143053,28.0206498 C87.4782488,29.2844599 89.158246,29.9908511 90.9454539,29.9908511 C92.7375597,29.9908511 94.4148358,29.2844599 95.6823167,28.0206498 C96.9579609,26.7382864 99.0284336,26.7382864 100.307615,28.0206498 C101.57945,29.3008304 101.57945,31.3777135 100.307615,32.6527101 C97.8061227,35.1617769 94.4817745,36.5445466 90.9454539,36.5445466 C87.413487,36.5445466 84.0907714,35.1617769 81.5911837,32.6527101 C79.091324,30.1518286 77.7136392,26.8165924 77.7136392,23.2734496 C77.7136392,19.726487 79.091324,16.3991633 81.5911837,13.8906422 C84.0907714,11.3821211 87.413487,10.0015341 90.9454539,10.0015341 Z M117.378253,10.0014523 C124.675656,10.0014523 130.612245,15.9546197 130.612245,23.2733678 C130.612245,30.5907516 124.675656,36.5447376 117.378253,36.5447376 C110.083844,36.5447376 104.148071,30.5907516 104.148071,23.2733678 C104.148071,15.9546197 110.083844,10.0014523 117.378253,10.0014523 Z M3.61087834,10.439584 C5.4163175,10.439584 6.87998853,11.9074808 6.87998853,13.7131576 L6.87998853,13.7131576 L6.87998853,32.8869461 C6.87998853,34.6988983 5.4163175,36.1629753 3.61087834,36.1629753 C1.80543917,36.1629753 0.341223921,34.6988983 0.341223921,32.8869461 L0.341223921,32.8869461 L0.341223921,13.7131576 C0.341223921,11.9074808 1.80543917,10.439584 3.61087834,10.439584 Z M57.4578825,10.4379281 C57.530175,10.4379548 57.5999419,10.4379833 57.66705,10.4380136 L58.6397884,10.4389385 C58.6631465,10.4389972 58.6829134,10.4390582 58.6989559,10.4391215 L58.9625884,10.4391096 C59.6729058,10.4606624 60.3780713,10.7121743 60.9635991,11.2067647 C62.3448213,12.3644388 62.5255012,14.4355921 61.3674079,15.8208174 L61.3674079,15.8208174 L49.8272911,29.6070425 L58.8580244,29.6070425 C60.6648241,29.6070425 62.130672,31.0787591 62.130672,32.8868915 C62.130672,34.6991165 60.6648241,36.1629207 58.8580244,36.1629207 L58.8580244,36.1629207 L42.817779,36.1629207 C42.0760115,36.1629207 41.3282577,35.9154519 40.7160138,35.3959583 C39.3347916,34.2350101 39.152479,32.1693137 40.3141097,30.7791772 L40.3141097,30.7791772 L51.8523217,16.9975904 L44.3092051,16.9975904 C42.501589,16.9975904 41.0400949,15.5258738 41.0400949,13.7133759 C41.0400949,11.9074263 42.501589,10.4395294 44.3092051,10.4395294 L44.3092051,10.4395294 L46.0450687,10.4390478 C46.126584,10.4390266 46.2103687,10.4390049 46.2962897,10.4389828 L50.7955864,10.4380083 C50.9152155,10.4379879 51.0351161,10.4379681 51.1551551,10.4379487 Z M70.1610531,10.439584 C71.9700297,10.439584 73.4301633,11.9074808 73.4301633,13.7131576 L73.4301633,13.7131576 L73.4301633,32.8869461 C73.4301633,34.6988983 71.9700297,36.1629753 70.1610531,36.1629753 C68.3572466,36.1629753 66.8957525,34.6988983 66.8957525,32.8869461 L66.8957525,32.8869461 L66.8957525,13.7131576 C66.8957525,11.9074808 68.3572466,10.439584 70.1610531,10.439584 Z M117.378253,16.5606046 C113.688196,16.5606046 110.688196,19.5711574 110.688196,23.2733678 C110.688196,26.9744868 113.688196,29.9907692 117.378253,29.9907692 C121.070764,29.9907692 124.075113,26.9744868 124.075113,23.2733678 C124.075113,19.5711574 121.070764,16.5606046 117.378253,16.5606046 Z M3.61087834,4.4408921e-15 C5.6043444,4.4408921e-15 7.22311721,1.62232612 7.22311721,3.62363155 C7.22311721,5.62084434 5.6043444,7.24617174 3.61087834,7.24617174 C1.61741227,7.24617174 -4.88498131e-15,5.62084434 -4.88498131e-15,3.62363155 C-4.88498131e-15,1.62232612 1.61741227,4.4408921e-15 3.61087834,4.4408921e-15 Z M70.1610531,4.4408921e-15 C72.1583287,4.4408921e-15 73.7754689,1.62232612 73.7754689,3.62363155 C73.7754689,5.62084434 72.1583287,7.24617174 70.1610531,7.24617174 C68.1654102,7.24617174 66.54827,5.62084434 66.54827,3.62363155 C66.54827,1.62232612 68.1654102,4.4408921e-15 70.1610531,4.4408921e-15 Z" id="Combined-Shape"></path>
                        </g>
                        <path d="M260.962126,8.23779108 C267.629018,8.23779108 274.218859,13.8397047 274.218859,21.9364053 C274.218859,30.033106 267.629018,35.6321803 260.962126,35.6321803 C254.296173,35.6321803 247.706333,30.033106 247.706333,21.9364053 C247.706333,13.8397047 254.296173,8.23779108 260.962126,8.23779108 Z M294.258532,7.96947845 C295.362633,7.96947845 296.315449,8.89130035 296.315449,10.0033545 L296.315449,33.5609203 C296.315449,34.6748673 295.362633,35.5947964 294.258532,35.5947964 C293.153491,35.5947964 292.239201,34.6748673 292.239201,33.5609203 L292.239201,31.4891871 C291.973277,33.2154737 289.610031,35.6317071 285.991397,35.6317071 C281.763864,35.6317071 276.698153,32.3324554 276.698153,25.3903982 C276.698153,18.5590732 281.80145,15.1831608 285.991397,15.1831608 C288.810379,15.1831608 291.248799,16.6425544 292.239201,18.8657162 L292.239201,17.3315547 C292.239201,17.2170368 292.239201,17.0627689 292.277727,16.948251 L292.277727,10.0033545 C292.277727,8.89130035 293.192957,7.96947845 294.258532,7.96947845 Z M205.980686,15.2995715 C206.817923,15.2995715 207.541462,16.0283219 207.541462,16.9113402 L207.541462,33.9442241 C207.541462,34.8669924 206.817923,35.5947964 205.980686,35.5947964 C205.104922,35.5947964 204.380444,34.8669924 204.380444,33.9442241 L204.380444,16.9113402 C204.380444,16.0283219 205.104922,15.2995715 205.980686,15.2995715 Z M213.370365,7.96966773 C214.209482,7.96966773 214.933021,8.70031097 214.933021,9.54357926 L214.933021,33.9444134 C214.933021,34.7886281 214.209482,35.5552356 213.370365,35.5552356 C212.493662,35.5552356 211.771063,34.7886281 211.771063,33.9444134 L211.771063,9.54357926 C211.771063,8.70031097 212.493662,7.96966773 213.370365,7.96966773 Z M228.114393,15.18335 C232.456565,15.18335 237.673561,18.6368697 237.673561,24.8530158 C237.673561,26.0786414 236.950022,26.6559632 235.656109,26.6559632 L221.638252,26.5793024 C221.980288,30.8760903 225.256885,32.90902 228.532542,32.90902 C230.284069,32.90902 231.69356,32.4102519 232.949887,31.4496264 C233.52214,31.067269 233.865116,30.8760903 234.283265,30.8760903 C235.008683,30.8760903 235.464419,31.3748585 235.464419,32.0648052 C235.464419,32.4869126 235.274607,32.90902 234.626241,33.4844488 C233.103051,34.8264853 230.857262,35.5552356 228.45549,35.5552356 C223.57959,35.5552356 218.362594,32.3326447 218.362594,25.4274982 C218.362594,18.5223518 223.771281,15.18335 228.114393,15.18335 Z M309.611742,15.1831608 C313.953914,15.1831608 319.172789,18.6366804 319.172789,24.7364157 C319.172789,26.3103273 318.296086,26.9245597 316.658257,26.9245597 L303.897665,26.8848097 C304.315814,30.4528473 307.09721,32.2188839 310.144529,32.2188839 C311.707185,32.2188839 312.7737,31.8355801 313.953914,31.1068297 C314.60134,30.7613831 315.020429,30.4925973 315.553216,30.4925973 C316.42992,30.4925973 316.963647,31.1068297 316.963647,31.950098 C316.963647,32.4498126 316.772896,32.9864379 315.934718,33.6754382 C314.487641,34.8669924 312.391258,35.5550463 309.991365,35.5550463 C305.041232,35.5550463 299.746244,32.3722054 299.746244,25.4273089 C299.746244,18.5221625 305.26957,15.1831608 309.611742,15.1831608 Z M286.639763,18.6735911 C283.859307,18.6735911 280.734936,20.8626816 280.734936,25.3903982 C280.734936,29.9550256 283.859307,32.1412767 286.639763,32.1412767 C289.230408,32.1412767 292.429952,30.1462043 292.429952,25.3903982 C292.429952,20.5938957 289.230408,18.6735911 286.639763,18.6735911 Z M260.962126,12.1522217 C256.314564,12.1522217 252.010918,16.1054559 252.010918,21.9364053 C252.010918,27.7673548 256.314564,31.680839 260.962126,31.680839 C265.609688,31.680839 269.914273,27.7673548 269.914273,21.9364053 C269.914273,16.1054559 265.647274,12.1522217 260.962126,12.1522217 Z M228.114393,17.9857265 C225.294471,17.9857265 221.980288,19.9022454 221.638252,24.1990333 L234.588655,24.1990333 C234.246618,19.9022454 230.970022,17.9857265 228.114393,17.9857265 Z M309.611742,18.7133412 C307.09721,18.7133412 304.240641,20.3251099 303.897665,23.9698082 L315.248766,23.9698082 C314.90673,20.3251099 312.1648,18.7133412 309.611742,18.7133412 Z M205.980686,7.58617467 C206.817923,7.58617467 207.579988,8.31492505 207.579988,9.19794337 C207.579988,10.0800153 206.817923,10.8097121 205.980686,10.8097121 C205.104922,10.8097121 204.342857,10.0800153 204.342857,9.19794337 C204.342857,8.31492505 205.104922,7.58617467 205.980686,7.58617467 Z M265.647274,1.25503746 C266.866014,1.25503746 267.856416,2.25257369 267.856416,3.44412788 C267.856416,4.63284278 266.866014,5.63037902 265.647274,5.63037902 C264.428534,5.63037902 263.438132,4.63284278 263.438132,3.44412788 C263.438132,2.25257369 264.428534,1.25503746 265.647274,1.25503746 Z M256.277917,1.25503746 C257.495718,1.25503746 258.48518,2.25257369 258.48518,3.44412788 C258.48518,4.63284278 257.495718,5.63037902 256.277917,5.63037902 C255.058238,5.63037902 254.067835,4.63284278 254.067835,3.44412788 C254.067835,2.25257369 255.058238,1.25503746 256.277917,1.25503746 Z" id="Combined-Shape" fill="#495057"></path>
                    </g>
                </g>
                <text id="Title-Copy" font-family="MarkPro-Medium, Mark Pro" font-size="30" font-weight="400" line-spacing="46" fill="#495057">
                    <tspan x="53.3175" y="126.32">Geçerli Mağazalar</tspan>
                </text>
            </g>
        </g>
    </g>
</svg>