<?xml version="1.0" encoding="UTF-8"?>
<svg width="192px" height="54px" viewBox="0 0 192 54" version="1.1" xmlns="http://www.w3.org/2000/svg" xmlns:xlink="http://www.w3.org/1999/xlink">
    <title>CC2CEE26-4ADB-487C-BF23-3841AB2492B9</title>
    <defs>
        <linearGradient x1="90.2554899%" y1="50%" x2="0%" y2="50%" id="linearGradient-1">
            <stop stop-color="#1E64FF" offset="0%"></stop>
            <stop stop-color="#1E64FF" stop-opacity="0" offset="100%"></stop>
        </linearGradient>
    </defs>
    <g id="Campaign-Web" stroke="none" stroke-width="1" fill="none" fill-rule="evenodd">
        <g id="009.0.0-Dk-Dukkan-Campaign-Detail" transform="translate(-135.000000, -592.000000)">
            <g id="pwi_dkdukkan-_logo" transform="translate(135.000000, 592.000000)">
                <rect id="Rectangle" fill="#D8D8D8" opacity="0" x="0" y="0" width="192" height="54"></rect>
                <g id="Group-20" transform="translate(0.000000, 0.500000)">
                    <g id="dk-logo" transform="translate(165.000000, 0.000000)" fill="#85080F">
                        <path d="M22.3692851,39.3282267 L23.5256092,39.3282267 L22.9471372,37.9728621 M24.1146215,40.7088691 L23.7915948,39.9499371 L22.0983394,39.9499371 L21.7753127,40.7088691 L20.9103947,40.7088691 L22.5360686,37.1687914 L23.369366,37.1687914 L25,40.7088691 L24.1146215,40.7088691 Z M19.5717867,38.4537397 C19.5717867,38.2545275 19.5060653,38.1022597 19.3740026,37.9963342 C19.2419398,37.8898069 19.0491158,37.8368441 18.7955305,37.8368441 L18.1079362,37.8368441 L18.1079362,39.0706352 L18.7955305,39.0706352 C19.0491158,39.0706352 19.2419398,39.0164688 19.3740026,38.9087378 C19.5060653,38.8010067 19.5717867,38.6487389 19.5717867,38.4537397 Z M13.7318848,39.3282267 L14.888209,39.3282267 L14.3103569,37.9728621 L13.7318848,39.3282267 Z M15.4772213,40.7088691 L15.1541945,39.9499371 L13.4609392,39.9499371 L13.1379124,40.7088691 L12.2729944,40.7088691 L13.8986683,37.1687914 L14.7325857,37.1687914 L16.3632198,40.7088691 L15.4772213,40.7088691 Z M9.0532672,40.7088691 L9.0532672,37.1687914 L9.89772482,37.1687914 L9.89772482,40.0414182 L11.726143,40.0414182 L11.726143,40.7088691 L9.0532672,40.7088691 Z M7.24592948,36.8552279 C7.1175868,36.8552279 7.0121846,36.814904 6.93096291,36.7336543 C6.8491212,36.6530065 6.80820035,36.5500903 6.80820035,36.4249056 C6.80820035,36.3033321 6.8491212,36.2022214 6.93096291,36.1215736 C7.01280462,36.0403239 7.1175868,36 7.24592948,36 C7.37427216,36 7.47967436,36.0403239 7.56089605,36.1215736 C7.64273776,36.2022214 7.6830386,36.3033321 7.6830386,36.4249056 C7.6830386,36.5494884 7.64211775,36.6524047 7.56089605,36.7336543 C7.47967436,36.814904 7.37427216,36.8552279 7.24592948,36.8552279 Z M2.84383761,40.0366034 L3.61513371,40.0366034 C3.97970132,40.0366034 4.27048738,39.9379001 4.48749191,39.7404935 C4.70449644,39.5430869 4.81299871,39.2758658 4.81299871,38.9388302 C4.81299871,38.6017946 4.70449644,38.3345735 4.48749191,38.1371669 C4.27048738,37.9397604 3.97970132,37.8410571 3.61513371,37.8410571 L2.84383761,37.8410571 L2.84383761,40.0366034 Z M2,40.7088691 L2,37.1687914 L3.65667457,37.1687914 C4.05286284,37.1687914 4.40255014,37.242217 4.70635648,37.3884664 C5.01016282,37.5353176 5.24638775,37.7417519 5.41503127,38.0083712 C5.58305478,38.2743886 5.66799655,38.5849428 5.66799655,38.9388302 C5.66799655,39.2927176 5.58367479,39.60267 5.41503127,39.8692893 C5.24638775,40.1353067 5.01016282,40.341741 4.70635648,40.4885922 C4.40255014,40.6354435 4.05224283,40.7088691 3.65667457,40.7088691 L2,40.7088691 L2,40.7088691 Z M6.82370067,40.7088691 L6.82370067,37.1687914 L7.66753828,37.1687914 L7.66753828,40.7088691 L6.82370067,40.7088691 Z M5.39891093,45.8281994 L4.23204658,44.4373256 L3.74223636,44.9332494 L3.74223636,45.8281994 L2.90397887,45.8281994 L2.90397887,42.2881217 L3.74285637,42.2881217 L3.74285637,43.9420036 L5.35799008,42.2881217 L6.29544964,42.2881217 L4.78447811,43.8661706 L6.38411149,45.8281994 L5.39891093,45.8281994 Z M8.91562433,45.1354708 C9.13138883,45.1354708 9.32545288,45.0897303 9.4990565,44.9982492 C9.67266013,44.9067681 9.80906297,44.779176 9.90826504,44.6160748 C10.0068471,44.4523718 10.0564481,44.2664004 10.0564481,44.0581605 C10.0564481,43.8499207 10.0068471,43.6639492 9.90826504,43.5002462 C9.80906297,43.3365432 9.67266013,43.209553 9.4990565,43.1180719 C9.32545288,43.0265908 9.13076882,42.9808502 8.91562433,42.9808502 C8.70047984,42.9808502 8.50579577,43.0265908 8.33219215,43.1180719 C8.15858853,43.209553 8.02218568,43.3365432 7.92298361,43.5002462 C7.82440155,43.6633474 7.77480052,43.8493188 7.77480052,44.0581605 C7.77480052,44.2664004 7.82440155,44.4523718 7.92298361,44.6160748 C8.02218568,44.779176 8.15796851,44.9067681 8.33219215,44.9982492 C8.50579577,45.0897303 8.70047984,45.1354708 8.91562433,45.1354708 Z M8.91562433,45.833616 C8.53741643,45.833616 8.1957893,45.7565793 7.89198296,45.6031077 C7.58817662,45.4496362 7.35009165,45.2377852 7.17834807,44.9681567 C7.00660449,44.6985282 6.92042269,44.3951961 6.92042269,44.0587624 C6.92042269,43.7223286 7.00660449,43.4189966 7.17834807,43.1493681 C7.35009165,42.8797396 7.58817662,42.6678886 7.89198296,42.514417 C8.1957893,42.3609455 8.53679642,42.2839087 8.91562433,42.2839087 C9.29445223,42.2839087 9.63483934,42.3603436 9.93678564,42.514417 C10.2387319,42.6684905 10.4768169,42.8797396 10.6504205,43.1493681 C10.8240242,43.4189966 10.910826,43.7223286 10.910826,44.0587624 C10.910826,44.3951961 10.8240242,44.6985282 10.6504205,44.9681567 C10.4768169,45.2377852 10.2387319,45.4496362 9.93678564,45.6031077 C9.63421932,45.7565793 9.29445223,45.833616 8.91562433,45.833616 Z M11.8383653,44.0587624 C11.8383653,43.7187175 11.9245471,43.4135799 12.0962907,43.1439514 C12.2680343,42.8743229 12.5042592,42.6636757 12.8049655,42.5114078 C13.1050518,42.3597418 13.4429588,42.2833069 13.8180666,42.2833069 C14.1342732,42.2833069 14.4194792,42.3374733 14.6749245,42.4452044 C14.9303699,42.5529354 15.1448943,42.7082125 15.318498,42.9104339 L14.7766066,43.4003392 C14.5304615,43.1204793 14.2247951,42.9808502 13.8596075,42.9808502 C13.6339228,42.9808502 13.4324186,43.0265908 13.2550949,43.1180719 C13.0783912,43.209553 12.9401283,43.3365432 12.8409262,43.5002462 C12.7417242,43.6633474 12.6921231,43.8493188 12.6921231,44.0581605 C12.6921231,44.2664004 12.7417242,44.4523718 12.8409262,44.6160748 C12.9401283,44.779176 13.0777712,44.9067681 13.2550949,44.9982492 C13.4324186,45.0897303 13.6339228,45.1354708 13.8596075,45.1354708 C14.2241751,45.1354708 14.5298415,45.0042677 14.7766066,44.7418614 L15.318498,45.2010724 C15.1448943,45.4069049 14.9297498,45.5633857 14.6724445,45.6711167 C14.4411796,45.7680144 14.1857343,45.821579 13.9061085,45.8312086 L13.8441072,46.0803742 C13.9966304,46.097226 14.1107127,46.1435684 14.1851143,46.2194014 C14.2595159,46.2952344 14.2973366,46.3891229 14.2973366,46.4998632 C14.2973366,46.6551403 14.2278952,46.7773158 14.0890123,46.8663895 C13.9501294,46.9554632 13.7641255,47 13.5316207,47 C13.4417188,47 13.3530569,46.9909723 13.2656351,46.9723149 C13.1788333,46.9536576 13.1056718,46.9277781 13.0467705,46.8940745 L13.1720132,46.5552334 C13.2829955,46.6057887 13.3958378,46.6310664 13.5105402,46.6310664 C13.690964,46.6310664 13.7814859,46.5768999 13.7814859,46.4691689 C13.7814859,46.3716693 13.6965441,46.3223177 13.5260405,46.3223177 L13.3487168,46.3223177 L13.4782995,45.8101439 C13.2364945,45.777644 13.0120498,45.7090332 12.8043455,45.6037096 C12.5042592,45.4520436 12.2680343,45.2407944 12.0956707,44.9711659 C11.9239271,44.703343 11.8383653,44.3982054 11.8383653,44.0587624 Z M17.3136996,44.447557 L18.4700237,44.447557 L17.8921717,43.0921924 L17.3136996,44.447557 Z M19.059036,45.8281994 L18.7360093,45.0698692 L17.0427539,45.0698692 L16.7197272,45.8281994 L15.8548091,45.8281994 L17.4804831,42.2881217 L18.3144005,42.2881217 L19.9450345,45.8281994 L19.059036,45.8281994 Z M23.1170207,45.8281994 L21.9501564,44.4373256 L21.4603461,44.9332494 L21.4603461,45.8281994 L20.6214686,45.8281994 L20.6214686,42.2881217 L21.4603461,42.2881217 L21.4603461,43.9420036 L23.0754798,42.2881217 L24.0129394,42.2881217 L22.5019679,43.8661706 L24.1016013,45.8281994 L23.1170207,45.8281994 Z M17.2640986,37.1693932 L18.8426515,37.1693932 C19.1656782,37.1693932 19.4459241,37.2217541 19.6840091,37.325874 C19.922094,37.4305958 20.1049978,37.5786508 20.2333405,37.7706407 C20.3616832,37.9626306 20.4261645,38.1901297 20.4261645,38.4537397 C20.4261645,38.7167478 20.3610632,38.943645 20.2308605,39.1338294 C20.1006578,39.3240138 19.9158939,39.4702632 19.6759489,39.5713739 L20.493746,40.7094709 L19.587287,40.7094709 L18.8835724,39.7236417 L18.8420315,39.7236417 L18.1073162,39.7236417 L18.1073162,40.7094709 L17.2634785,40.7094709 L17.2634785,37.1693932 L17.2640986,37.1693932 Z" id="Shape"></path>
                        <polyline id="Path" points="1 27.0001568 14 17 27 26.9995297 27 33 14 22.6662748 1 33"></polyline>
                        <path d="M17.7247249,5.1928844 L17.7247249,2.40038695 L9.27527509,2.40038695 L9.27527509,5.1928844 C9.27527509,5.67979793 9.32784727,6.17380556 9.43299163,6.67361746 C9.53813599,7.17342935 9.74536819,7.62680712 10.0552995,8.0324609 C10.3652309,8.43875961 10.7943666,8.77282743 11.3439293,9.03530929 C11.8928807,9.29779115 12.6117747,9.42870963 13.5,9.42870963 C14.3882253,9.42870963 15.1101759,9.29779115 15.6652403,9.03530929 C16.2203047,8.77282743 16.6500517,8.43553501 16.95387,8.02343204 C17.2576883,7.61068415 17.4624753,7.15472672 17.5676197,6.65491482 C17.672764,6.15510292 17.7247249,5.66754447 17.7247249,5.1928844 M7,5.28704251 L7,0 L20,0 L20,5.28704251 C20,7.20180577 19.4553278,8.77476219 18.3659833,10.0065567 C17.7858554,10.6650185 17.0840779,11.1616058 16.2612621,11.4969635 C15.4384463,11.8323212 14.5178219,12 13.4993887,12 C12.4693407,12 11.5432145,11.8323212 10.7203988,11.4969635 C9.897583,11.1616058 9.19580551,10.6643736 8.61567761,10.0065567 C8.08262014,9.40871715 7.68038183,8.71027033 7.40774005,7.91186113 C7.13632089,7.11280701 7,6.2376525 7,5.28704251 Z" id="Shape"></path>
                        <rect id="Rectangle" fill-rule="nonzero" x="0" y="14" width="26" height="4"></rect>
                        <path d="M8.40773725,49.1108101 C8.4290757,49.2081385 8.42503869,49.2745585 8.39504953,49.3080974 C8.36563709,49.3422938 8.32180677,49.3561039 8.26471202,49.3508429 C8.21742142,49.3482124 8.17186096,49.3238803 8.12918408,49.277189 C8.0865072,49.2311553 8.06516875,49.1824911 8.06516875,49.1305388 C8.06516875,49.0983152 8.07727976,49.0674069 8.10092506,49.039129 C8.12457036,49.0108512 8.14994581,48.9976987 8.17589797,49.0003292 L8.31142591,49.0121664 C8.36390694,49.0266342 8.39620296,49.0595154 8.40773725,49.1108101 M10.4937141,49.1108101 C10.5150526,49.2081385 10.5110156,49.2745585 10.4816031,49.3080974 C10.451614,49.3422938 10.4083604,49.3561039 10.3512656,49.3508429 C10.303975,49.3482124 10.2584146,49.3238803 10.2157377,49.277189 C10.1724841,49.2311553 10.1511456,49.1824911 10.1511456,49.1305388 C10.1511456,49.0983152 10.1632566,49.0674069 10.1869019,49.039129 C10.211124,49.0108512 10.2359227,48.9976987 10.2618748,49.0003292 L10.3974028,49.0121664 C10.4498838,49.0266342 10.4821798,49.0595154 10.4937141,49.1108101 Z M15.1968221,52.4824497 L15.1131984,52.7369503 C15.0785956,52.8323058 15.0364954,52.9131936 14.9874746,52.9796136 C14.9770938,52.9934238 14.9563321,53 14.9246128,53 C14.8934702,53 14.859444,52.9940814 14.8236877,52.9829018 C14.7879314,52.9717222 14.7700532,52.9533087 14.7700532,52.9276613 C14.7700532,52.9118783 14.7769738,52.891492 14.790815,52.865187 C14.802926,52.8461159 14.8144603,52.8270448 14.8248411,52.8079737 L14.9084647,52.6146322 C14.936147,52.539663 14.9546019,52.473243 14.9632526,52.4160296 C14.9667129,52.3890671 14.9834376,52.3719688 15.0134268,52.3653926 C15.0289981,52.3607892 15.0457228,52.3588163 15.0630243,52.3588163 C15.1068546,52.3588163 15.1466479,52.3680231 15.1835576,52.3857789 C15.2100865,52.3963009 15.2147002,52.4285245 15.1968221,52.4824497 Z M18.998525,51.8734896 C19.0077524,51.9274148 18.9737263,51.9576655 18.8952931,51.9629265 C18.8428121,51.965557 18.7891776,51.9399097 18.7343897,51.8853269 C18.6888292,51.8392932 18.6530729,51.764324 18.6271208,51.6617346 C18.6034755,51.5670367 18.5890576,51.4322237 18.5844439,51.2586109 C18.5798302,51.0632965 18.5717562,50.9284836 18.5596452,50.8554873 L18.4062391,51.4013154 C18.3629855,51.5341555 18.3370333,51.6104399 18.3278059,51.6288534 C18.2897427,51.7130293 18.2424521,51.7511715 18.1853574,51.7426224 C18.0711679,51.7130293 17.9829305,51.6393754 17.921222,51.5229759 C17.880852,51.4473491 17.8427889,51.3263462 17.8070325,51.1606249 C17.7689694,50.978463 17.7366734,50.8568025 17.7107212,50.7943282 C17.6086427,51.3612003 17.4990669,51.7847104 17.3819939,52.0642007 C17.3652691,52.1049734 17.3156717,52.1023429 17.232048,52.0563092 C17.1628423,52.018167 17.1288161,51.9635842 17.1288161,51.8932184 C17.1288161,51.8688863 17.1536149,51.7820799 17.203789,51.6327991 L17.4535065,50.6923964 C17.5036806,50.497082 17.555585,50.1538022 17.6109496,49.6625568 C17.6155633,49.6572958 17.6276743,49.6283604 17.6467059,49.5770657 C17.6588169,49.5389235 17.6801553,49.5198524 17.7107212,49.5198524 C17.7914613,49.5198524 17.8474026,49.5376082 17.8785452,49.5731199 C17.8785452,49.6520348 17.8900795,49.7782987 17.9125713,49.9538844 C17.9350632,50.1288124 17.9465975,50.2616525 17.9465975,50.3510894 L18.0071525,50.8114264 C18.0331047,50.9850392 18.080972,51.1277437 18.1501778,51.2388822 C18.3785568,50.5141803 18.5238889,49.9413895 18.5855973,49.5211676 C18.5948248,49.4777644 18.6305811,49.4560628 18.6928662,49.4560628 C18.7811036,49.4560628 18.8312778,49.4882864 18.8428121,49.5533912 C18.8595368,49.6507196 18.8676108,49.763831 18.8676108,49.8914101 L18.8606902,50.1564327 C18.8583833,50.2702017 18.8583833,50.3622691 18.8606902,50.4332925 C18.8802985,51.0054256 18.9270124,51.4854913 18.998525,51.8734896 Z M16.5030807,50.8318128 C16.4961602,50.7311963 16.4805889,50.6187425 16.4569436,50.4937939 L16.3888912,50.1682699 C16.3173786,50.393835 16.2556702,50.6187425 16.2031891,50.8443076 C16.2412523,50.8357585 16.3416006,50.8318128 16.5030807,50.8318128 Z M17.0244308,51.6091247 C17.0388486,51.6525279 17.0457692,51.6906701 17.0457692,51.7228937 C17.0457692,51.7768189 17.0255842,51.8248254 16.9852142,51.8655981 C16.9448442,51.9063708 16.9177386,51.9254419 16.9033207,51.9228114 C16.7868243,51.8984793 16.7130049,51.7912866 16.6818623,51.6012332 C16.6484128,51.3947392 16.6091962,51.2224416 16.5642125,51.0843405 L16.3214156,51.1086726 C16.2285646,51.1224827 16.1558985,51.1547063 16.1034175,51.206001 C16.0774653,51.2901769 16.0428624,51.4394576 15.9996088,51.6538431 C15.9592388,51.851788 15.9200222,52.0030416 15.8819591,52.105631 C15.8629275,52.1542952 15.8225575,52.1681053 15.760849,52.1464037 C15.6824158,52.1168106 15.6408923,52.0760379 15.6357019,52.0240856 C15.6287813,51.9208386 15.6547335,51.7827375 15.7141351,51.6091247 C15.7856477,51.4111798 15.8248643,51.2697905 15.8317849,51.1856146 C15.8340917,51.1612825 15.8190972,51.1336623 15.7856477,51.1040692 C15.7521983,51.0744761 15.7354735,51.0514593 15.7354735,51.0350187 C15.7354735,51.0212086 15.740664,51.0073985 15.7516216,50.9922731 C15.7620024,50.9778054 15.7873779,50.9653105 15.8265945,50.9561038 C15.8658111,50.9462394 15.8877262,50.9324293 15.8929166,50.9133582 C15.9355935,50.7778876 16.0036459,50.5253599 16.0964969,50.1564327 C16.1749301,49.8361696 16.2452893,49.5908758 16.3069978,49.4192359 C16.3214156,49.3810936 16.3508281,49.3620225 16.3963885,49.3620225 C16.429838,49.3620225 16.4592504,49.3745174 16.4857793,49.3988495 C16.5521015,49.4639543 16.5953551,49.5612827 16.6143867,49.6914923 L16.6536033,50.0255654 C16.7724065,50.6660915 16.8958234,51.1941638 17.0244308,51.6091247 Z M15.4217408,49.3416362 C15.4217408,49.3955614 15.3871379,49.4429103 15.3185089,49.483683 C15.2994773,49.494205 15.2792923,49.4961779 15.2579538,49.4876288 C15.2245044,49.4771068 15.2066262,49.4711882 15.2043194,49.4711882 C15.1899015,49.4711882 15.1760603,49.4790797 15.1616425,49.4955203 C15.0330351,49.6421705 14.9690198,49.8210443 14.9690198,50.0327993 C14.9690198,50.1117142 14.9799774,50.1847105 15.0013158,50.2524458 C15.0105432,50.2820389 15.1010874,50.4924787 15.2729484,50.8831075 C15.3871379,51.1435267 15.4442326,51.3651461 15.4442326,51.5466504 C15.4442326,51.6959311 15.4125133,51.8399508 15.3479213,51.9780519 C15.3265829,52.0240856 15.2729484,52.0839294 15.1870179,52.1569257 C15.1178122,52.214139 15.0561037,52.2424168 15.0013158,52.2424168 C14.9799774,52.2424168 14.9597923,52.2384711 14.9407608,52.2305796 C14.8692481,52.1950679 14.8334918,52.1503494 14.8334918,52.0964243 C14.8334918,52.0642007 14.85137,52.0247432 14.8871263,51.9780519 C14.8963537,51.9642418 14.9188456,51.9563503 14.9546019,51.9537198 C14.9903582,51.9510893 15.0140035,51.9346487 15.0261145,51.9050556 C15.0762887,51.7860256 15.1010874,51.6637075 15.1010874,51.5387589 C15.1010874,51.3625156 15.0243844,51.1066997 14.8709783,50.7713114 C14.7175722,50.435923 14.6408691,50.1682699 14.6408691,49.9670369 C14.6408691,49.8013156 14.6697049,49.6533501 14.7267996,49.5231405 C14.790815,49.3738598 14.8825126,49.266667 15.0018925,49.2015622 C15.0566804,49.1719691 15.1103149,49.1568438 15.1627959,49.1568438 C15.2625675,49.1568438 15.3375404,49.1877521 15.3877146,49.2502264 C15.4096298,49.2817924 15.4217408,49.3120431 15.4217408,49.3416362 Z M13.9222827,50.8318128 C13.9153621,50.7311963 13.8997908,50.6187425 13.8755688,50.4937939 L13.8075165,50.1682699 C13.7360039,50.393835 13.6742954,50.6187425 13.6218144,50.8443076 C13.6604542,50.8357585 13.7602259,50.8318128 13.9222827,50.8318128 Z M14.4436327,51.6091247 C14.4580506,51.6525279 14.4649712,51.6906701 14.4649712,51.7228937 C14.4649712,51.7768189 14.4447862,51.8248254 14.4044161,51.8655981 C14.3640461,51.9063708 14.3363638,51.9254419 14.3225227,51.9228114 C14.2060263,51.8984793 14.1322068,51.7912866 14.1010642,51.6012332 C14.0676148,51.3947392 14.0283982,51.2224416 13.9834144,51.0843405 L13.7406176,51.1086726 C13.6477665,51.1224827 13.5751005,51.1547063 13.5226194,51.206001 C13.4966673,51.2901769 13.4620644,51.4394576 13.4188108,51.6538431 C13.3784408,51.851788 13.3392242,52.0030416 13.301161,52.105631 C13.2821294,52.1542952 13.2417594,52.1681053 13.1800509,52.1464037 C13.1016178,52.1168106 13.0600943,52.0760379 13.0549039,52.0240856 C13.0479833,51.9208386 13.0739355,51.7827375 13.1333371,51.6091247 C13.2048497,51.4111798 13.2440663,51.2697905 13.2509868,51.1856146 C13.2532937,51.1612825 13.2377224,51.1336623 13.204273,51.1040692 C13.1708235,51.0744761 13.1540988,51.0514593 13.1540988,51.0350187 C13.1540988,51.0212086 13.1592892,51.0073985 13.1702468,50.9922731 C13.1812044,50.9778054 13.2060031,50.9653105 13.2452197,50.9561038 C13.2844363,50.9462394 13.3063515,50.9324293 13.3109652,50.9133582 C13.3542188,50.7778876 13.4216944,50.5253599 13.5145454,50.1564327 C13.5929786,49.8361696 13.6633378,49.5908758 13.7250463,49.4192359 C13.7394642,49.3810936 13.7688766,49.3620225 13.8138603,49.3620225 C13.8473098,49.3620225 13.8767222,49.3745174 13.9032511,49.3988495 C13.9695733,49.4639543 14.0128269,49.5612827 14.0318585,49.6914923 L14.0710751,50.0255654 C14.1916084,50.6660915 14.3150254,51.1941638 14.4436327,51.6091247 Z M12.9303335,49.3942461 C12.8640113,49.700699 12.7411711,50.099877 12.5623896,50.5911223 C12.3530421,51.163913 12.2186676,51.5584876 12.1586893,51.7761612 C12.1465783,51.8195644 12.1408112,51.8734896 12.1408112,51.9385944 C12.143118,52.0280313 12.143118,52.0852446 12.1408112,52.1095767 C12.1338906,52.2049323 12.0894836,52.2522812 12.0087435,52.2522812 C11.9683735,52.2575422 11.9251199,52.2424168 11.878406,52.2055899 C11.8322688,52.1694205 11.8103537,52.1306207 11.8126605,52.089848 C11.8195811,51.8919031 11.8639881,51.6650227 11.9447282,51.4098645 L12.1661866,50.7581589 C11.9972092,50.2425814 11.8530305,49.8651051 11.7342273,49.6263875 C11.7273068,49.6125774 11.7232698,49.5994249 11.7232698,49.5856148 C11.7232698,49.5560217 11.7382643,49.5277439 11.7682535,49.5020965 C11.7976659,49.4764492 11.8270784,49.4632967 11.8553374,49.4632967 C11.8599511,49.4632967 11.9055116,49.4777644 11.9908653,49.5080151 C12.050267,49.6112621 12.1125521,49.7441022 12.1765675,49.9071931 L12.3374709,50.322154 L12.4799194,49.8381425 C12.5347073,49.6507196 12.5952623,49.4961779 12.6621612,49.3738598 C12.6811928,49.3357176 12.7146422,49.3166465 12.7625095,49.3166465 C12.8288317,49.3173041 12.884773,49.3429514 12.9303335,49.3942461 Z M10.4954443,49.7447599 C10.500058,49.8236748 10.5023648,49.9045626 10.5023648,49.9893961 C10.5023648,50.1735309 10.4856401,50.451706 10.4521907,50.8239213 C10.4187412,51.195479 10.4020165,51.4762846 10.4020165,51.6669956 L10.4054768,51.8748049 C10.3841383,51.9504317 10.3374245,51.9872586 10.2664886,51.9846281 C10.1644101,51.9787095 10.1084687,51.9287301 10.0986646,51.8340322 C10.0894372,51.7386767 10.0842467,51.6387178 10.0842467,51.5328403 C10.0842467,51.3480478 10.103855,51.0725033 10.1430716,50.7062065 C10.1822882,50.3399098 10.2018965,50.0656805 10.2018965,49.8841762 C10.2018965,49.8138104 10.1995897,49.7447599 10.1949759,49.6763669 C10.2186212,49.6250722 10.2589913,49.5994249 10.316086,49.5994249 C10.3610698,49.5994249 10.4066302,49.6138926 10.451614,49.6441434 C10.4608414,49.6362519 10.4683387,49.6323061 10.4729524,49.6323061 C10.479873,49.6323061 10.4833333,49.6461162 10.4833333,49.6730788 C10.4810264,49.7053024 10.4810264,49.7243735 10.4833333,49.7302921 C10.4873703,49.7368684 10.4908306,49.7421294 10.4954443,49.7447599 Z M9.86394173,49.3942461 C9.79761955,49.700699 9.67477933,50.099877 9.49657451,50.5911223 C9.28722709,51.163913 9.15227586,51.5584876 9.09287425,51.7761612 C9.08076325,51.8195644 9.0749961,51.8734896 9.0749961,51.9385944 C9.07730296,52.0280313 9.07730296,52.0852446 9.0749961,52.1095767 C9.06807552,52.2049323 9.02424521,52.2522812 8.94292845,52.2522812 C8.90255842,52.2575422 8.85930482,52.2424168 8.81259094,52.2055899 C8.76587705,52.1694205 8.74396189,52.1306207 8.74626875,52.089848 C8.75318933,51.8919031 8.79759635,51.6650227 8.87833641,51.4098645 L9.09979483,50.7581589 C8.93081744,50.2425814 8.78663878,49.8651051 8.66783556,49.6263875 C8.66091498,49.6125774 8.6574547,49.5994249 8.6574547,49.5856148 C8.6574547,49.5560217 8.67187256,49.5277439 8.70186172,49.5020965 C8.73185089,49.4764492 8.76068662,49.4632967 8.78894564,49.4632967 C8.79355935,49.4632967 8.83911981,49.4777644 8.92447358,49.5080151 C8.98387519,49.6112621 9.04558365,49.7441022 9.11017569,49.9071931 L9.27107908,50.322154 L9.41410431,49.8381425 C9.4688922,49.6507196 9.52944724,49.4961779 9.59634614,49.3738598 C9.61537772,49.3357176 9.64882717,49.3166465 9.69611777,49.3166465 C9.76243996,49.3173041 9.81838128,49.3429514 9.86394173,49.3942461 Z M8.41119754,49.7447599 C8.41581126,49.8236748 8.41811812,49.9045626 8.41811812,49.9893961 C8.41811812,50.1735309 8.40139339,50.451706 8.36794394,50.8239213 C8.33449449,51.195479 8.31776977,51.4762846 8.31776977,51.6669956 L8.32123006,51.8748049 C8.29989162,51.9504317 8.25317773,51.9872586 8.18224183,51.9846281 C8.08016334,51.9787095 8.02422202,51.9287301 8.01441787,51.8340322 C8.00519043,51.7386767 8,51.6387178 8,51.5328403 C8,51.3480478 8.0196083,51.0725033 8.05882489,50.7062065 C8.09804149,50.3399098 8.11764979,50.0656805 8.11764979,49.8841762 C8.11764979,49.8138104 8.11534293,49.7447599 8.11072921,49.6763669 C8.13437451,49.6250722 8.17474454,49.5994249 8.23183929,49.5994249 C8.27682303,49.5994249 8.32238349,49.6138926 8.36736723,49.6441434 C8.37659466,49.6362519 8.38409195,49.6323061 8.38870567,49.6323061 C8.39562625,49.6323061 8.39908653,49.6461162 8.39908653,49.6730788 C8.39677968,49.7053024 8.39677968,49.7243735 8.39908653,49.7302921 C8.40254682,49.7368684 8.40600711,49.7421294 8.41119754,49.7447599 Z" id="Shape"></path>
                    </g>
                    <rect id="Rectangle" fill="#C1C1C1" fill-rule="nonzero" x="140" y="3" width="1" height="48"></rect>
                    <g id="Brand/1--Logo/3--Subbrands/1--PWI/1--TR/1--Colored" transform="translate(0.000000, 6.000000)">
                        <g id="Group" transform="translate(0.000000, 0.976190)">
                            <g id="Group-21" transform="translate(54.588172, 0.000000)" fill="#1E64FF">
                                <path d="M14.5531438,5.71786239 C14.9441314,4.96604362 15.8714475,4.67278188 16.6251477,5.06422366 C17.3791038,5.45643247 17.6717048,6.38390147 17.2785422,7.13712647 L17.2785422,7.13712647 L10.2700642,20.6500494 C10.0062499,21.1552676 9.50062725,21.4521088 8.96992814,21.4743527 C8.70905651,21.4871366 8.44242755,21.4335722 8.19498972,21.3027933 C7.44116157,20.9118629 7.14881647,19.9843939 7.54082758,19.231041 L7.54082758,19.231041 L9.5226331,15.4061103 L5.23034172,7.13712647 C4.83833061,6.38390147 5.13272277,5.45643247 5.88565534,5.06422366 C6.63845997,4.67278188 7.56756724,4.96604362 7.95791512,5.71786239 L7.95791512,5.71786239 L11.2553376,12.0696508 Z M42.7610812,4.68614101 C44.423802,4.68614101 45.9868567,5.3330043 47.163018,6.50835234 C47.7610141,7.10855454 47.7610141,8.08102273 47.163018,8.68135277 C46.5615675,9.27976524 45.5880648,9.27976524 44.9882775,8.68135277 C44.3923285,8.08562492 43.6037004,7.75938083 42.7610812,7.75938083 C41.920765,7.75938083 41.1308575,8.08562492 40.5365717,8.68135277 C39.9416462,9.27324547 39.6147571,10.0639272 39.6147571,10.9045938 C39.6147571,11.7444933 39.9416462,12.5342802 40.5365717,13.1288575 C41.1308575,13.7210059 41.920765,14.05198 42.7610812,14.05198 C43.6037004,14.05198 44.3923285,13.7210059 44.9882775,13.1288575 C45.5880648,12.5280161 46.5615675,12.5280161 47.163018,13.1288575 C47.7610141,13.7286762 47.7610141,14.7017836 47.163018,15.2991733 C45.9868567,16.474777 44.423802,17.122663 42.7610812,17.122663 C41.1004075,17.122663 39.5381204,16.474777 38.3628547,15.2991733 C37.1874611,14.1274047 36.539696,12.5647058 36.539696,10.9045938 C36.539696,9.24269204 37.1874611,7.68370038 38.3628547,6.50835234 C39.5381204,5.3330043 41.1004075,4.68614101 42.7610812,4.68614101 Z M55.189356,4.68610266 C58.6204767,4.68610266 61.4117647,7.47541296 61.4117647,10.9045554 C61.4117647,14.3330587 58.6204767,17.1227525 55.189356,17.1227525 C51.7596426,17.1227525 48.9687384,14.3330587 48.9687384,10.9045554 C48.9687384,7.47541296 51.7596426,4.68610266 55.189356,4.68610266 Z M1.69777658,4.89138588 C2.54666487,4.89138588 3.23485931,5.57915752 3.23485931,6.42519334 L3.23485931,6.42519334 L3.23485931,15.4089227 C3.23485931,16.2578988 2.54666487,16.9438807 1.69777658,16.9438807 C0.848888291,16.9438807 0.160437968,16.2578988 0.160437968,15.4089227 L0.160437968,15.4089227 L0.160437968,6.42519334 C0.160437968,5.57915752 0.848888291,4.89138588 1.69777658,4.89138588 Z M27.4928263,4.89094019 C27.5204952,4.89097863 27.5440311,4.8910197 27.5631668,4.89106351 L27.6230425,4.89136031 C27.990361,4.87883213 28.3612618,4.99593228 28.6640981,5.25084244 C29.3135264,5.79326159 29.3984792,6.76368437 28.8539625,7.41272091 L28.8539625,7.41272091 L23.4279862,13.8721494 L27.6740909,13.8721494 C28.5236189,13.8721494 29.2128369,14.5617108 29.2128369,15.4088972 C29.2128369,16.2580011 28.5236189,16.9438552 27.6740909,16.9438552 L27.6740909,16.9438552 L20.132227,16.9438552 C19.78346,16.9438552 19.4318782,16.8279056 19.144011,16.5845009 C18.4945827,16.0405477 18.4088623,15.0726817 18.9550422,14.421344 L18.9550422,14.421344 L24.3801229,7.96408877 L20.8334715,7.96408877 C19.9835596,7.96408877 19.2963887,7.27452739 19.2963887,6.42529561 C19.2963887,5.57913195 19.9835596,4.89136031 20.8334715,4.89136031 L20.8334715,4.89136031 L22.0504812,4.89103322 C22.1227132,4.89101546 22.1972215,4.89099741 22.2737391,4.89097919 Z M32.9885922,4.89138588 C33.8391437,4.89138588 34.525675,5.57915752 34.525675,6.42519334 L34.525675,6.42519334 L34.525675,15.4089227 C34.525675,16.2578988 33.8391437,16.9438807 32.9885922,16.9438807 C32.1404716,16.9438807 31.4533007,16.2578988 31.4533007,15.4089227 L31.4533007,15.4089227 L31.4533007,6.42519334 C31.4533007,5.57915752 32.1404716,4.89138588 32.9885922,4.89138588 Z M55.189356,7.75934248 C53.4543486,7.75934248 52.0437994,9.16991353 52.0437994,10.9045554 C52.0437994,12.638686 53.4543486,14.0519416 55.189356,14.0519416 C56.9255148,14.0519416 58.338111,12.638686 58.338111,10.9045554 C58.338111,9.16991353 56.9255148,7.75934248 55.189356,7.75934248 Z M1.69777658,0 C2.63507208,0 3.39619287,0.760128284 3.39619287,1.69782438 C3.39619287,2.63360289 2.63507208,3.3951374 1.69777658,3.3951374 C0.760481085,3.3951374 0,2.63360289 0,1.69782438 C0,0.760128284 0.760481085,0 1.69777658,0 Z M32.9885922,0 C33.9276789,0 34.688032,0.760128284 34.688032,1.69782438 C34.688032,2.63360289 33.9276789,3.3951374 32.9885922,3.3951374 C32.0502732,3.3951374 31.2899201,2.63360289 31.2899201,1.69782438 C31.2899201,0.760128284 32.0502732,0 32.9885922,0 Z" id="Combined-Shape"></path>
                            </g>
                            <path d="M78.3147993,26.2045719 C80.956255,26.2045719 83.5671822,28.4316182 83.5671822,31.6504694 C83.5671822,34.8693206 80.956255,37.0952381 78.3147993,37.0952381 C75.6737159,37.0952381 73.0627886,34.8693206 73.0627886,31.6504694 C73.0627886,28.4316182 75.6737159,26.2045719 78.3147993,26.2045719 Z M91.5069997,26.097904 C91.9444501,26.097904 92.3219604,26.4643752 92.3219604,26.9064734 L92.3219604,36.2718067 C92.3219604,36.7146574 91.9444501,37.0803761 91.5069997,37.0803761 C91.069177,37.0803761 90.7069309,36.7146574 90.7069309,36.2718067 L90.7069309,35.4481871 C90.6015705,36.134474 89.6652405,37.09505 88.2315202,37.09505 C86.5565506,37.09505 84.549491,35.7834292 84.549491,33.0236076 C84.549491,30.3078077 86.5714425,28.9657104 88.2315202,28.9657104 C89.3484147,28.9657104 90.3145286,29.5458938 90.7069309,30.429714 L90.7069309,29.8198066 C90.7069309,29.7742798 90.7069309,29.7129505 90.7221951,29.6674238 L90.7221951,26.9064734 C90.7221951,26.4643752 91.0848135,26.097904 91.5069997,26.097904 Z M55.237151,29.0119896 C55.5688687,29.0119896 55.8555384,29.3017051 55.8555384,29.6527499 L55.8555384,36.4241894 C55.8555384,36.7910369 55.5688687,37.0803761 55.237151,37.0803761 C54.8901691,37.0803761 54.6031272,36.7910369 54.6031272,36.4241894 L54.6031272,29.6527499 C54.6031272,29.3017051 54.8901691,29.0119896 55.237151,29.0119896 Z M58.1649785,26.0979792 C58.4974408,26.0979792 58.7841104,26.3884472 58.7841104,26.7236893 L58.7841104,36.4242647 C58.7841104,36.7598831 58.4974408,37.0646487 58.1649785,37.0646487 C57.8176243,37.0646487 57.531327,36.7598831 57.531327,36.4242647 L57.531327,26.7236893 C57.531327,26.3884472 57.8176243,26.0979792 58.1649785,26.0979792 Z M64.006635,28.9657857 C65.727025,28.9657857 67.7940246,30.3387358 67.7940246,32.8099707 C67.7940246,33.2972194 67.507355,33.5267342 66.9947004,33.5267342 L61.4407559,33.4962577 C61.5762724,35.2044499 62.8744762,36.012643 64.1723077,36.012643 C64.8662716,36.012643 65.4247189,35.8143573 65.9224816,35.4324597 C66.1492112,35.2804532 66.2851,35.2044499 66.4507727,35.2044499 C66.7381869,35.2044499 66.9187515,35.4027356 66.9187515,35.6770247 C66.9187515,35.8448339 66.8435473,36.012643 66.5866615,36.2414054 C65.9831662,36.7749332 65.0933735,37.0646487 64.1417793,37.0646487 C62.2099239,37.0646487 60.1429244,35.7835045 60.1429244,33.0383568 C60.1429244,30.2932091 62.2858728,28.9657857 64.006635,28.9657857 Z M97.5900171,28.9657104 C99.3104071,28.9657104 101.378151,30.3386605 101.378151,32.7636163 C101.378151,33.3893263 101.030797,33.633515 100.381881,33.633515 L95.3260718,33.6177124 C95.4917445,35.0361892 96.5937472,35.7382788 97.8011102,35.7382788 C98.4202421,35.7382788 98.8428006,35.585896 99.3104071,35.2961806 C99.5669205,35.1588479 99.7329655,35.0519919 99.9440586,35.0519919 C100.291413,35.0519919 100.502878,35.2961806 100.502878,35.6314227 C100.502878,35.8300847 100.427302,36.0434206 100.095212,36.3173334 C99.5218725,36.7910369 98.6912752,37.0645734 97.7404256,37.0645734 C95.7791587,37.0645734 93.6812584,35.7992319 93.6812584,33.0382815 C93.6812584,30.2931338 95.8696272,28.9657104 97.5900171,28.9657104 Z M88.4884059,30.3533344 C87.3867756,30.3533344 86.1488841,31.2236095 86.1488841,33.0236076 C86.1488841,34.8382797 87.3867756,35.707426 88.4884059,35.707426 C89.514832,35.707426 90.7825074,34.914283 90.7825074,33.0236076 C90.7825074,31.1167534 89.514832,30.3533344 88.4884059,30.3533344 Z M78.3147993,27.7607576 C76.4734124,27.7607576 74.7682867,29.3323698 74.7682867,31.6504694 C74.7682867,33.968569 76.4734124,35.5243785 78.3147993,35.5243785 C80.1561862,35.5243785 81.8616842,33.968569 81.8616842,31.6504694 C81.8616842,29.3323698 80.1710781,27.7607576 78.3147993,27.7607576 Z M64.006635,30.0798732 C62.8893682,30.0798732 61.5762724,30.8417871 61.4407559,32.5499794 L66.5717696,32.5499794 C66.4362531,30.8417871 65.1380493,30.0798732 64.006635,30.0798732 Z M97.5900171,30.3691371 C96.5937472,30.3691371 95.4619606,31.0098973 95.3260718,32.4588507 L99.823434,32.4588507 C99.6879175,31.0098973 98.6015513,30.3691371 97.5900171,30.3691371 Z M55.237151,25.9455212 C55.5688687,25.9455212 55.8708026,26.2352366 55.8708026,26.5862814 C55.8708026,26.93695 55.5688687,27.2270416 55.237151,27.2270416 C54.8901691,27.2270416 54.5882353,26.93695 54.5882353,26.5862814 C54.5882353,26.2352366 54.8901691,25.9455212 55.237151,25.9455212 Z M80.1710781,23.4285714 C80.6539488,23.4285714 81.0463511,23.8251429 81.0463511,24.2988465 C81.0463511,24.7714212 80.6539488,25.1679927 80.1710781,25.1679927 C79.6882073,25.1679927 79.295805,24.7714212 79.295805,24.2988465 C79.295805,23.8251429 79.6882073,23.4285714 80.1710781,23.4285714 Z M76.4588928,23.4285714 C76.9413912,23.4285714 77.3334212,23.8251429 77.3334212,24.2988465 C77.3334212,24.7714212 76.9413912,25.1679927 76.4588928,25.1679927 C75.9756497,25.1679927 75.5832474,24.7714212 75.5832474,24.2988465 C75.5832474,23.8251429 75.9756497,23.4285714 76.4588928,23.4285714 Z" id="Combined-Shape" fill="#495057"></path>
                            <g id="Group-3" fill="url(#linearGradient-1)">
                                <path d="M4.82521008,0 C2.16040739,0 0,2.18493122 0,4.88095238 L0,34.1666667 C0,36.8626878 2.16040739,39.047619 4.82521008,39.047619 L34.4296578,39.047619 C36.228925,39.047619 37.8785035,38.035418 38.7092975,36.420582 L46.2452034,21.7781587 C46.6020545,21.0839788 46.7834824,20.3251534 46.789916,19.5654603 L46.789916,19.4821587 C46.7834824,18.7224656 46.6020545,17.9636402 46.2452034,17.2698942 L38.7092975,2.62703704 C37.8785035,1.01263492 36.228925,0 34.4296578,0 L4.82521008,0 Z" id="Fill-1"></path>
                            </g>
                        </g>
                    </g>
                </g>
            </g>
        </g>
    </g>
</svg>