<?xml version="1.0" encoding="UTF-8"?>
<svg width="235px" height="55px" viewBox="0 0 235 55" version="1.1" xmlns="http://www.w3.org/2000/svg" xmlns:xlink="http://www.w3.org/1999/xlink">
    <title>B2C82CB5-8A26-4BB6-A2B3-1576D6E6974C</title>
    <defs>
        <linearGradient x1="90.2554899%" y1="50%" x2="0%" y2="50%" id="linearGradient-1">
            <stop stop-color="#1E64FF" offset="0%"></stop>
            <stop stop-color="#1E64FF" stop-opacity="0" offset="100%"></stop>
        </linearGradient>
    </defs>
    <g id="Campaigns" stroke="none" stroke-width="1" fill="none" fill-rule="evenodd">
        <g id="009.0.0-Guzel-Kelimeler-Dukkani-Campaign-Detail" transform="translate(-135.000000, -592.000000)">
            <g id="pwi_guzelkelimelerdukkani_logo" transform="translate(135.000000, 592.000000)">
                <rect id="Rectangle" fill="#D8D8D8" opacity="0" x="0" y="0.5" width="192" height="54"></rect>
                <g id="Group-20">
                    <rect id="Rectangle" fill="#C1C1C1" fill-rule="nonzero" x="140" y="4" width="1" height="48"></rect>
                    <g id="Brand/1--Logo/3--Subbrands/1--PWI/1--TR/1--Colored" transform="translate(0.000000, 7.000000)">
                        <g id="Group" transform="translate(0.000000, 0.976190)">
                            <g id="Group-21" transform="translate(54.588172, 0.000000)" fill="#1E64FF">
                                <path d="M14.5531438,5.71786239 C14.9441314,4.96604362 15.8714475,4.67278188 16.6251477,5.06422366 C17.3791038,5.45643247 17.6717048,6.38390147 17.2785422,7.13712647 L17.2785422,7.13712647 L10.2700642,20.6500494 C10.0062499,21.1552676 9.50062725,21.4521088 8.96992814,21.4743527 C8.70905651,21.4871366 8.44242755,21.4335722 8.19498972,21.3027933 C7.44116157,20.9118629 7.14881647,19.9843939 7.54082758,19.231041 L7.54082758,19.231041 L9.5226331,15.4061103 L5.23034172,7.13712647 C4.83833061,6.38390147 5.13272277,5.45643247 5.88565534,5.06422366 C6.63845997,4.67278188 7.56756724,4.96604362 7.95791512,5.71786239 L7.95791512,5.71786239 L11.2553376,12.0696508 Z M42.7610812,4.68614101 C44.423802,4.68614101 45.9868567,5.3330043 47.163018,6.50835234 C47.7610141,7.10855454 47.7610141,8.08102273 47.163018,8.68135277 C46.5615675,9.27976524 45.5880648,9.27976524 44.9882775,8.68135277 C44.3923285,8.08562492 43.6037004,7.75938083 42.7610812,7.75938083 C41.920765,7.75938083 41.1308575,8.08562492 40.5365717,8.68135277 C39.9416462,9.27324547 39.6147571,10.0639272 39.6147571,10.9045938 C39.6147571,11.7444933 39.9416462,12.5342802 40.5365717,13.1288575 C41.1308575,13.7210059 41.920765,14.05198 42.7610812,14.05198 C43.6037004,14.05198 44.3923285,13.7210059 44.9882775,13.1288575 C45.5880648,12.5280161 46.5615675,12.5280161 47.163018,13.1288575 C47.7610141,13.7286762 47.7610141,14.7017836 47.163018,15.2991733 C45.9868567,16.474777 44.423802,17.122663 42.7610812,17.122663 C41.1004075,17.122663 39.5381204,16.474777 38.3628547,15.2991733 C37.1874611,14.1274047 36.539696,12.5647058 36.539696,10.9045938 C36.539696,9.24269204 37.1874611,7.68370038 38.3628547,6.50835234 C39.5381204,5.3330043 41.1004075,4.68614101 42.7610812,4.68614101 Z M55.189356,4.68610266 C58.6204767,4.68610266 61.4117647,7.47541296 61.4117647,10.9045554 C61.4117647,14.3330587 58.6204767,17.1227525 55.189356,17.1227525 C51.7596426,17.1227525 48.9687384,14.3330587 48.9687384,10.9045554 C48.9687384,7.47541296 51.7596426,4.68610266 55.189356,4.68610266 Z M1.69777658,4.89138588 C2.54666487,4.89138588 3.23485931,5.57915752 3.23485931,6.42519334 L3.23485931,6.42519334 L3.23485931,15.4089227 C3.23485931,16.2578988 2.54666487,16.9438807 1.69777658,16.9438807 C0.848888291,16.9438807 0.160437968,16.2578988 0.160437968,15.4089227 L0.160437968,15.4089227 L0.160437968,6.42519334 C0.160437968,5.57915752 0.848888291,4.89138588 1.69777658,4.89138588 Z M27.4928263,4.89094019 C27.5204952,4.89097863 27.5440311,4.8910197 27.5631668,4.89106351 L27.6230425,4.89136031 C27.990361,4.87883213 28.3612618,4.99593228 28.6640981,5.25084244 C29.3135264,5.79326159 29.3984792,6.76368437 28.8539625,7.41272091 L28.8539625,7.41272091 L23.4279862,13.8721494 L27.6740909,13.8721494 C28.5236189,13.8721494 29.2128369,14.5617108 29.2128369,15.4088972 C29.2128369,16.2580011 28.5236189,16.9438552 27.6740909,16.9438552 L27.6740909,16.9438552 L20.132227,16.9438552 C19.78346,16.9438552 19.4318782,16.8279056 19.144011,16.5845009 C18.4945827,16.0405477 18.4088623,15.0726817 18.9550422,14.421344 L18.9550422,14.421344 L24.3801229,7.96408877 L20.8334715,7.96408877 C19.9835596,7.96408877 19.2963887,7.27452739 19.2963887,6.42529561 C19.2963887,5.57913195 19.9835596,4.89136031 20.8334715,4.89136031 L20.8334715,4.89136031 L22.0504812,4.89103322 C22.1227132,4.89101546 22.1972215,4.89099741 22.2737391,4.89097919 Z M32.9885922,4.89138588 C33.8391437,4.89138588 34.525675,5.57915752 34.525675,6.42519334 L34.525675,6.42519334 L34.525675,15.4089227 C34.525675,16.2578988 33.8391437,16.9438807 32.9885922,16.9438807 C32.1404716,16.9438807 31.4533007,16.2578988 31.4533007,15.4089227 L31.4533007,15.4089227 L31.4533007,6.42519334 C31.4533007,5.57915752 32.1404716,4.89138588 32.9885922,4.89138588 Z M55.189356,7.75934248 C53.4543486,7.75934248 52.0437994,9.16991353 52.0437994,10.9045554 C52.0437994,12.638686 53.4543486,14.0519416 55.189356,14.0519416 C56.9255148,14.0519416 58.338111,12.638686 58.338111,10.9045554 C58.338111,9.16991353 56.9255148,7.75934248 55.189356,7.75934248 Z M1.69777658,0 C2.63507208,0 3.39619287,0.760128284 3.39619287,1.69782438 C3.39619287,2.63360289 2.63507208,3.3951374 1.69777658,3.3951374 C0.760481085,3.3951374 0,2.63360289 0,1.69782438 C0,0.760128284 0.760481085,0 1.69777658,0 Z M32.9885922,0 C33.9276789,0 34.688032,0.760128284 34.688032,1.69782438 C34.688032,2.63360289 33.9276789,3.3951374 32.9885922,3.3951374 C32.0502732,3.3951374 31.2899201,2.63360289 31.2899201,1.69782438 C31.2899201,0.760128284 32.0502732,0 32.9885922,0 Z" id="Combined-Shape"></path>
                            </g>
                            <path d="M78.3147993,26.2045719 C80.956255,26.2045719 83.5671822,28.4316182 83.5671822,31.6504694 C83.5671822,34.8693206 80.956255,37.0952381 78.3147993,37.0952381 C75.6737159,37.0952381 73.0627886,34.8693206 73.0627886,31.6504694 C73.0627886,28.4316182 75.6737159,26.2045719 78.3147993,26.2045719 Z M91.5069997,26.097904 C91.9444501,26.097904 92.3219604,26.4643752 92.3219604,26.9064734 L92.3219604,36.2718067 C92.3219604,36.7146574 91.9444501,37.0803761 91.5069997,37.0803761 C91.069177,37.0803761 90.7069309,36.7146574 90.7069309,36.2718067 L90.7069309,35.4481871 C90.6015705,36.134474 89.6652405,37.09505 88.2315202,37.09505 C86.5565506,37.09505 84.549491,35.7834292 84.549491,33.0236076 C84.549491,30.3078077 86.5714425,28.9657104 88.2315202,28.9657104 C89.3484147,28.9657104 90.3145286,29.5458938 90.7069309,30.429714 L90.7069309,29.8198066 C90.7069309,29.7742798 90.7069309,29.7129505 90.7221951,29.6674238 L90.7221951,26.9064734 C90.7221951,26.4643752 91.0848135,26.097904 91.5069997,26.097904 Z M55.237151,29.0119896 C55.5688687,29.0119896 55.8555384,29.3017051 55.8555384,29.6527499 L55.8555384,36.4241894 C55.8555384,36.7910369 55.5688687,37.0803761 55.237151,37.0803761 C54.8901691,37.0803761 54.6031272,36.7910369 54.6031272,36.4241894 L54.6031272,29.6527499 C54.6031272,29.3017051 54.8901691,29.0119896 55.237151,29.0119896 Z M58.1649785,26.0979792 C58.4974408,26.0979792 58.7841104,26.3884472 58.7841104,26.7236893 L58.7841104,36.4242647 C58.7841104,36.7598831 58.4974408,37.0646487 58.1649785,37.0646487 C57.8176243,37.0646487 57.531327,36.7598831 57.531327,36.4242647 L57.531327,26.7236893 C57.531327,26.3884472 57.8176243,26.0979792 58.1649785,26.0979792 Z M64.006635,28.9657857 C65.727025,28.9657857 67.7940246,30.3387358 67.7940246,32.8099707 C67.7940246,33.2972194 67.507355,33.5267342 66.9947004,33.5267342 L61.4407559,33.4962577 C61.5762724,35.2044499 62.8744762,36.012643 64.1723077,36.012643 C64.8662716,36.012643 65.4247189,35.8143573 65.9224816,35.4324597 C66.1492112,35.2804532 66.2851,35.2044499 66.4507727,35.2044499 C66.7381869,35.2044499 66.9187515,35.4027356 66.9187515,35.6770247 C66.9187515,35.8448339 66.8435473,36.012643 66.5866615,36.2414054 C65.9831662,36.7749332 65.0933735,37.0646487 64.1417793,37.0646487 C62.2099239,37.0646487 60.1429244,35.7835045 60.1429244,33.0383568 C60.1429244,30.2932091 62.2858728,28.9657857 64.006635,28.9657857 Z M97.5900171,28.9657104 C99.3104071,28.9657104 101.378151,30.3386605 101.378151,32.7636163 C101.378151,33.3893263 101.030797,33.633515 100.381881,33.633515 L95.3260718,33.6177124 C95.4917445,35.0361892 96.5937472,35.7382788 97.8011102,35.7382788 C98.4202421,35.7382788 98.8428006,35.585896 99.3104071,35.2961806 C99.5669205,35.1588479 99.7329655,35.0519919 99.9440586,35.0519919 C100.291413,35.0519919 100.502878,35.2961806 100.502878,35.6314227 C100.502878,35.8300847 100.427302,36.0434206 100.095212,36.3173334 C99.5218725,36.7910369 98.6912752,37.0645734 97.7404256,37.0645734 C95.7791587,37.0645734 93.6812584,35.7992319 93.6812584,33.0382815 C93.6812584,30.2931338 95.8696272,28.9657104 97.5900171,28.9657104 Z M88.4884059,30.3533344 C87.3867756,30.3533344 86.1488841,31.2236095 86.1488841,33.0236076 C86.1488841,34.8382797 87.3867756,35.707426 88.4884059,35.707426 C89.514832,35.707426 90.7825074,34.914283 90.7825074,33.0236076 C90.7825074,31.1167534 89.514832,30.3533344 88.4884059,30.3533344 Z M78.3147993,27.7607576 C76.4734124,27.7607576 74.7682867,29.3323698 74.7682867,31.6504694 C74.7682867,33.968569 76.4734124,35.5243785 78.3147993,35.5243785 C80.1561862,35.5243785 81.8616842,33.968569 81.8616842,31.6504694 C81.8616842,29.3323698 80.1710781,27.7607576 78.3147993,27.7607576 Z M64.006635,30.0798732 C62.8893682,30.0798732 61.5762724,30.8417871 61.4407559,32.5499794 L66.5717696,32.5499794 C66.4362531,30.8417871 65.1380493,30.0798732 64.006635,30.0798732 Z M97.5900171,30.3691371 C96.5937472,30.3691371 95.4619606,31.0098973 95.3260718,32.4588507 L99.823434,32.4588507 C99.6879175,31.0098973 98.6015513,30.3691371 97.5900171,30.3691371 Z M55.237151,25.9455212 C55.5688687,25.9455212 55.8708026,26.2352366 55.8708026,26.5862814 C55.8708026,26.93695 55.5688687,27.2270416 55.237151,27.2270416 C54.8901691,27.2270416 54.5882353,26.93695 54.5882353,26.5862814 C54.5882353,26.2352366 54.8901691,25.9455212 55.237151,25.9455212 Z M80.1710781,23.4285714 C80.6539488,23.4285714 81.0463511,23.8251429 81.0463511,24.2988465 C81.0463511,24.7714212 80.6539488,25.1679927 80.1710781,25.1679927 C79.6882073,25.1679927 79.295805,24.7714212 79.295805,24.2988465 C79.295805,23.8251429 79.6882073,23.4285714 80.1710781,23.4285714 Z M76.4588928,23.4285714 C76.9413912,23.4285714 77.3334212,23.8251429 77.3334212,24.2988465 C77.3334212,24.7714212 76.9413912,25.1679927 76.4588928,25.1679927 C75.9756497,25.1679927 75.5832474,24.7714212 75.5832474,24.2988465 C75.5832474,23.8251429 75.9756497,23.4285714 76.4588928,23.4285714 Z" id="Combined-Shape" fill="#495057"></path>
                            <g id="Group-3" fill="url(#linearGradient-1)">
                                <path d="M4.82521008,0 C2.16040739,0 0,2.18493122 0,4.88095238 L0,34.1666667 C0,36.8626878 2.16040739,39.047619 4.82521008,39.047619 L34.4296578,39.047619 C36.228925,39.047619 37.8785035,38.035418 38.7092975,36.420582 L46.2452034,21.7781587 C46.6020545,21.0839788 46.7834824,20.3251534 46.789916,19.5654603 L46.789916,19.4821587 C46.7834824,18.7224656 46.6020545,17.9636402 46.2452034,17.2698942 L38.7092975,2.62703704 C37.8785035,1.01263492 36.228925,0 34.4296578,0 L4.82521008,0 Z" id="Fill-1"></path>
                            </g>
                        </g>
                    </g>
                    <g id="guzel-kelimeler-dukkani-logo" transform="translate(165.000000, 0.000000)" fill="#000000" fill-rule="nonzero">
                        <path d="M33.6373749,13.1527166 L33.6373749,12.6857562 C34.3381535,12.6857562 34.8053393,12.5301028 34.9610679,12.2187959 C35.1946607,11.907489 35.272525,11.2070485 35.272525,10.195301 L35.272525,3.50220264 C35.272525,2.49045521 35.1946607,1.79001468 34.9610679,1.47870778 C34.727475,1.16740088 34.2602892,1.01174743 33.5595106,1.01174743 L33.5595106,0.544787078 L36.7519466,0 L36.7519466,10.195301 C36.7519466,11.2070485 36.8298109,11.907489 37.0634038,12.2187959 C37.2969967,12.5301028 37.7641824,12.6857562 38.4649611,12.6857562 L38.4649611,13.1527166 L33.6373749,13.1527166 M27.8754171,9.02790015 L27.7975528,9.33920705 L27.7975528,9.65051395 C27.7975528,10.5066079 28.0311457,11.2070485 28.4983315,11.7518355 C28.9655172,12.2966226 29.6662959,12.5301028 30.6006674,12.5301028 C31.4571746,12.5301028 32.2358176,12.2187959 32.9365962,11.5183554 L33.3259177,11.9853157 C32.4694105,12.9192364 31.3793103,13.3861968 30.0556174,13.3861968 C28.8876529,13.3861968 27.9532814,12.9970631 27.2525028,12.2966226 C26.5517241,11.5183554 26.1624027,10.5844347 26.1624027,9.4948605 C26.1624027,8.40528634 26.5517241,7.47136564 27.4082314,6.69309838 C28.1868743,5.99265786 29.1212458,5.60352423 30.1334816,5.60352423 C30.9899889,5.60352423 31.6907675,5.83700441 32.2358176,6.38179148 C32.8587319,6.92657856 33.0923248,7.54919236 33.0923248,8.24963289 C33.0923248,8.48311307 33.0923248,8.71659325 33.0144605,8.95007342 L27.8754171,8.95007342 L27.8754171,9.02790015 Z M31.5350389,8.24963289 C31.6129032,8.09397944 31.6129032,8.01615272 31.6129032,7.86049927 C31.6129032,7.47136564 31.4571746,7.23788546 31.2235818,7.00440529 C30.9121246,6.69309838 30.5228031,6.61527166 29.9777531,6.61527166 C29.5105673,6.61527166 29.1212458,6.77092511 28.7319244,7.08223201 C28.3426029,7.39353891 28.10901,7.86049927 27.9532814,8.32745962 L31.5350389,8.32745962 L31.5350389,8.24963289 Z M24.9944383,6.38179148 L20.945495,12.4522761 L22.269188,12.4522761 C23.2035595,12.4522761 23.8264739,12.3744493 24.137931,12.1409692 C24.3715239,11.9853157 24.6051168,11.6740088 24.6829811,11.2070485 L24.7608454,10.8179148 L25.2280311,10.8179148 L25.0723026,13.1527166 L18.9210234,13.1527166 L18.9210234,12.763583 L22.9699666,6.69309838 L21.9577308,6.69309838 C21.0233593,6.69309838 20.4004449,6.77092511 20.0889878,7.00440529 C19.8553949,7.16005874 19.621802,7.47136564 19.5439377,7.93832599 L19.4660734,8.32745962 L18.9988877,8.32745962 L19.1546162,5.99265786 L25.0723026,5.99265786 L25.0723026,6.38179148 L24.9944383,6.38179148 Z M14.5606229,2.72393539 C14.7942158,2.72393539 14.9499444,2.80176211 15.105673,2.95741557 C15.2614016,3.11306902 15.3392659,3.34654919 15.3392659,3.58002937 C15.3392659,3.81350954 15.2614016,3.969163 15.105673,4.20264317 C14.9499444,4.35829662 14.7163515,4.43612335 14.4827586,4.43612335 C14.2491657,4.43612335 14.0934372,4.35829662 13.9377086,4.20264317 C13.78198,4.04698972 13.7041157,3.81350954 13.7041157,3.58002937 C13.7041157,3.34654919 13.78198,3.19089574 13.9377086,3.03524229 C14.0934372,2.87958884 14.32703,2.72393539 14.5606229,2.72393539 Z M15.4171301,13.4640235 C15.3392659,13.3861968 15.3392659,13.1527166 15.2614016,12.9192364 C15.1835373,12.6857562 15.1835373,12.3744493 15.105673,12.0631424 C14.2491657,12.9970631 13.3147942,13.3861968 12.3025584,13.3861968 C10.5116796,13.3861968 9.65517241,12.2966226 9.65517241,10.195301 L9.65517241,8.8722467 C9.65517241,7.86049927 9.57730812,7.16005874 9.34371524,6.84875184 C9.11012236,6.53744493 8.6429366,6.38179148 7.94215795,6.38179148 L7.94215795,6.07048458 L11.134594,6.07048458 L11.134594,10.195301 C11.134594,11.6740088 11.679644,12.4522761 12.7697442,12.4522761 C13.3147942,12.4522761 13.78198,12.2966226 14.2491657,11.907489 C14.7942158,11.5183554 15.105673,10.9735683 15.105673,10.3509545 L15.105673,8.95007342 C15.105673,7.93832599 15.0278087,7.23788546 14.7942158,6.92657856 C14.5606229,6.61527166 14.0934372,6.45961821 13.3926585,6.45961821 L13.3926585,6.07048458 L16.5850945,6.07048458 L16.5850945,10.0396476 C16.5850945,11.051395 16.6629588,11.7518355 16.8965517,12.0631424 C17.1301446,12.3744493 17.5973304,12.5301028 18.298109,12.5301028 L18.298109,12.9970631 L15.4171301,13.4640235 Z M6.22914349,43.0381791 C6.22914349,42.0264317 6.1512792,41.3259912 5.91768632,41.0146843 C5.68409344,40.7033774 5.29477197,40.5477239 4.59399333,40.5477239 L4.59399333,40.0807636 L7.70856507,39.5359765 L7.70856507,49.4977974 C7.70856507,50.5095448 7.78642937,51.2099853 8.02002225,51.5212922 C8.25361513,51.8325991 8.6429366,51.9882526 9.34371524,51.9882526 L9.34371524,52.4552129 L6.54060067,53 C6.46273637,52.7665198 6.30700779,52.3773862 6.22914349,51.6769457 C5.52836485,52.5330396 4.67185762,53 3.6596218,53 C2.64738598,53 1.79087875,52.6108664 1.09010011,51.8325991 C0.389321468,51.0543319 0,50.1982379 0,49.1086637 C0,48.0190896 0.389321468,47.0851689 1.09010011,46.3847283 C1.79087875,45.6064611 2.64738598,45.2173275 3.6596218,45.2173275 C4.67185762,45.2173275 5.52836485,45.6064611 6.22914349,46.4625551 L6.22914349,43.0381791 Z M6.22914349,47.7077827 C5.83982202,46.6182085 5.13904338,46.0734214 4.12680756,46.0734214 C3.34816463,46.0734214 2.72525028,46.3847283 2.33592881,46.9295154 C1.94660734,47.4743025 1.71301446,48.2525698 1.71301446,49.1086637 C1.71301446,49.9647577 1.86874305,50.743025 2.25806452,51.287812 C2.64738598,51.9104258 3.27030033,52.143906 4.04894327,52.143906 C5.06117909,52.143906 5.76195773,51.5991189 6.1512792,50.4317181 L6.1512792,47.7077827 L6.22914349,47.7077827 Z M41.89099,48.7973568 C39.9443826,49.2643172 39.0100111,49.9647577 39.0100111,50.8986784 C39.0100111,51.2099853 39.0878754,51.5212922 39.243604,51.6769457 C39.3993326,51.9104258 39.7107898,51.9882526 39.9443826,51.9882526 C40.4894327,51.9882526 41.1123471,51.6769457 41.8131257,50.9765051 L41.8131257,48.7973568 L41.89099,48.7973568 Z M45.862069,52.6108664 L43.2925473,52.6108664 C42.43604,52.6108664 42.1245829,52.4552129 41.9688543,51.5991189 C41.0344828,52.4552129 40.1779755,52.8443465 39.3993326,52.8443465 C38.8542825,52.8443465 38.3870968,52.6886931 38.0756396,52.3773862 C37.6863181,52.0660793 37.5305895,51.5991189 37.5305895,51.0543319 C37.5305895,49.5756241 39.0100111,48.5638767 41.9688543,48.0190896 C41.9688543,47.318649 41.89099,46.773862 41.8131257,46.4625551 C41.6573971,45.9955947 41.1902113,45.7621145 40.567297,45.7621145 C40.2558398,45.7621145 40.0222469,45.8399413 39.7886541,45.9955947 C39.4771969,46.2290749 39.3993326,46.4625551 39.3993326,46.773862 C39.3993326,47.2408223 39.1657397,47.5521292 38.6985539,47.5521292 C38.2313682,47.5521292 37.9977753,47.318649 37.9977753,46.773862 C37.9977753,46.3069016 38.3092325,45.917768 38.8542825,45.5286344 C39.3993326,45.2173275 40.0222469,45.061674 40.6451613,45.061674 C41.6573971,45.061674 42.3581758,45.2951542 42.8253615,45.7621145 C43.2925473,46.2290749 43.5261402,46.9295154 43.5261402,47.9412628 L43.5261402,51.287812 C43.5261402,51.8325991 44.0711902,52.143906 44.6162403,52.143906 L44.8498331,52.143906 C45.5506118,52.143906 46.0177976,51.9882526 46.1735261,51.6769457 C46.407119,51.3656388 46.4849833,50.6651982 46.4849833,49.6534508 L46.4849833,48.5638767 C46.4849833,47.5521292 46.407119,46.8516887 46.1735261,46.5403818 C45.9399333,46.2290749 45.4727475,46.0734214 44.7719689,46.0734214 L44.7719689,45.6064611 L47.5750834,45.061674 C47.730812,45.3729809 47.8086763,45.8399413 47.9644049,46.6182085 C48.7430478,45.6064611 49.7552836,45.061674 50.9232481,45.061674 C51.8576196,45.061674 52.5583982,45.3729809 53.025584,45.9955947 C53.4927697,46.5403818 53.6484983,47.318649 53.6484983,48.2525698 L53.6484983,49.7312775 C53.6484983,50.743025 53.7263626,51.4434655 53.9599555,51.7547724 C54.1935484,52.0660793 54.5828699,52.2217327 55.2836485,52.2217327 C55.9844271,52.2217327 56.4516129,52.0660793 56.6073415,51.7547724 C56.8409344,51.4434655 56.9187987,50.743025 56.9187987,49.7312775 L56.9187987,48.6417034 C56.9187987,47.6299559 56.8409344,46.9295154 56.6073415,46.6182085 C56.3737486,46.3069016 55.9065628,46.1512482 55.2057842,46.1512482 L55.2057842,45.6842878 L58.3982202,45.1395007 L58.3982202,49.7312775 C58.3982202,50.743025 58.4760845,51.4434655 58.7096774,51.7547724 C58.9432703,52.0660793 59.4104561,52.2217327 60.1112347,52.2217327 L60.1112347,52.6886931 L50.4560623,52.6886931 L50.4560623,52.2217327 C51.1568409,52.2217327 51.6240267,52.0660793 51.7797553,51.7547724 C52.0133482,51.4434655 52.0912125,50.743025 52.0912125,49.7312775 L52.0912125,48.4860499 C52.0912125,47.0073421 51.4682981,46.2290749 50.3003337,46.2290749 C49.6774194,46.2290749 49.1323693,46.4625551 48.5873192,46.8516887 C48.0422692,47.2408223 47.8086763,47.7856094 47.8086763,48.3303965 L47.8086763,49.7312775 C47.8086763,50.6651982 47.8086763,51.2099853 47.8865406,51.4434655 C48.0422692,51.9882526 48.5094549,52.2217327 49.2880979,52.2217327 L49.2880979,52.6886931 L45.862069,52.6886931 L45.862069,52.6108664 Z M42.9032258,43.9720999 L40.6451613,42.3377386 L38.3870968,43.9720999 L38.0756396,43.7386197 L40.567297,41.0146843 L43.1368187,43.7386197 L42.9032258,43.9720999 Z M16.3515017,52.6108664 C16.2736374,52.5330396 16.1179088,51.9882526 16.0400445,51.5991189 C15.1835373,52.5330396 14.2491657,52.9221733 13.3147942,52.9221733 C11.6017798,52.9221733 10.7452725,51.8325991 10.7452725,49.7312775 L10.7452725,48.4082232 C10.7452725,47.3964758 10.6674082,46.6960352 10.4338154,46.3847283 C10.2002225,46.0734214 9.810901,45.917768 9.11012236,45.917768 L9.11012236,45.5286344 L12.2246941,45.5286344 L12.2246941,49.7312775 C12.2246941,51.2099853 12.7697442,51.9882526 13.78198,51.9882526 C14.2491657,51.9882526 14.7942158,51.8325991 15.1835373,51.4434655 C15.7285873,51.0543319 15.9621802,50.5095448 15.9621802,49.886931 L15.9621802,48.4860499 C15.9621802,47.4743025 15.8843159,46.773862 15.650723,46.4625551 C15.4171301,46.1512482 14.9499444,45.9955947 14.2491657,45.9955947 L14.2491657,45.6064611 L17.3637375,45.6064611 L17.3637375,49.5756241 C17.3637375,50.5873715 17.4416018,51.4434655 17.6751947,51.7547724 C17.8309232,51.9882526 18.1423804,52.143906 18.9988877,52.2217327 C19.621802,52.2217327 20.0111235,52.0660793 20.1668521,51.7547724 C20.4004449,51.4434655 20.4783092,50.743025 20.4783092,49.7312775 L20.4783092,43.0381791 C20.4783092,42.0264317 20.4004449,41.3259912 20.1668521,41.0146843 C19.9332592,40.7033774 19.4660734,40.5477239 18.7652948,40.5477239 L18.7652948,40.0807636 L21.9577308,39.5359765 L21.9577308,48.5638767 L23.7486096,47.0851689 C23.9822024,46.8516887 24.137931,46.6960352 24.137931,46.4625551 C24.137931,46.0734214 23.8264739,45.917768 23.1256952,45.917768 L23.1256952,45.5286344 L27.4082314,45.5286344 L27.4082314,45.917768 C27.0967742,45.917768 26.8631813,45.9955947 26.6295884,46.0734214 C26.0066741,46.2290749 25.5394883,46.4625551 25.2280311,46.6960352 L23.4371524,48.174743 L26.8631813,51.5991189 C27.1746385,51.9104258 27.56396,52.0660793 28.0311457,52.143906 C28.6540601,52.143906 29.0433815,51.9882526 29.2769744,51.6769457 C29.5105673,51.3656388 29.5884316,50.6651982 29.5884316,49.6534508 L29.5884316,42.9603524 C29.5884316,41.948605 29.5105673,41.2481645 29.2769744,40.9368576 C29.0433815,40.6255507 28.5761958,40.4698972 27.8754171,40.4698972 L27.8754171,40.0029369 L31.0678532,39.4581498 L31.0678532,48.4860499 L32.8587319,47.0073421 C33.0923248,46.773862 33.2480534,46.6182085 33.2480534,46.3847283 C33.2480534,45.9955947 32.9365962,45.8399413 32.2358176,45.8399413 L32.2358176,45.4508076 L36.5183537,45.4508076 L36.5183537,45.8399413 C36.2068966,45.8399413 35.9733037,45.917768 35.7397108,45.9955947 C35.1167964,46.1512482 34.6496107,46.3847283 34.3381535,46.6182085 L32.5472747,48.0969163 L35.9733037,51.5212922 C36.2847608,51.8325991 36.7519466,52.0660793 37.2191324,52.0660793 L37.2191324,52.5330396 L34.8832036,52.5330396 L31.3793103,49.1086637 L31.2235818,49.2643172 L31.2235818,49.7312775 C31.2235818,50.743025 31.3014461,51.4434655 31.5350389,51.7547724 C31.7686318,52.0660793 32.2358176,52.2217327 32.9365962,52.2217327 L32.9365962,52.6886931 L25.9288098,52.6886931 L22.4249166,49.2643172 L22.269188,49.4199706 L22.269188,49.7312775 C22.269188,50.743025 22.3470523,51.4434655 22.5806452,51.7547724 C22.814238,52.0660793 23.2814238,52.2217327 23.9822024,52.2217327 L23.9822024,52.6886931 L16.3515017,52.6886931 L16.3515017,52.6108664 Z M15.5728587,42.2599119 C15.8064516,42.2599119 15.9621802,42.3377386 16.1179088,42.4933921 C16.2736374,42.6490455 16.3515017,42.8825257 16.3515017,43.1160059 C16.3515017,43.349486 16.2736374,43.5051395 16.1179088,43.7386197 C15.9621802,43.8942731 15.7285873,43.9720999 15.4949944,43.9720999 C15.2614016,43.9720999 15.105673,43.8942731 14.9499444,43.7386197 C14.7942158,43.5829662 14.7163515,43.349486 14.7163515,43.1160059 C14.7163515,42.8825257 14.7942158,42.7268722 14.9499444,42.5712188 C15.105673,42.3377386 15.3392659,42.2599119 15.5728587,42.2599119 Z M12.0689655,42.2599119 C12.3025584,42.2599119 12.458287,42.3377386 12.6140156,42.4933921 C12.7697442,42.6490455 12.8476085,42.8825257 12.8476085,43.1160059 C12.8476085,43.349486 12.7697442,43.5829662 12.6140156,43.7386197 C12.458287,43.8942731 12.2246941,43.9720999 11.9911012,43.9720999 C11.7575083,43.9720999 11.6017798,43.8942731 11.4460512,43.7386197 C11.2903226,43.5829662 11.2124583,43.349486 11.2124583,43.1160059 C11.2124583,42.8825257 11.2903226,42.7268722 11.4460512,42.5712188 C11.6017798,42.3377386 11.8353726,42.2599119 12.0689655,42.2599119 Z M7.86429366,31.9867841 C8.17575083,32.298091 8.6429366,32.5315712 9.11012236,32.5315712 L9.11012236,32.9985316 L6.77419355,32.9985316 L3.34816463,29.5741557 L3.19243604,29.7298091 L3.19243604,30.1189427 C3.19243604,31.1306902 3.27030033,31.8311307 3.50389321,32.1424376 C3.7374861,32.4537445 4.12680756,32.6093979 4.82758621,32.6093979 L4.82758621,33.0763583 L0.0778642937,33.0763583 L0.0778642937,32.6093979 C0.778642937,32.6093979 1.2458287,32.4537445 1.40155729,32.1424376 C1.63515017,31.8311307 1.71301446,31.1306902 1.71301446,30.1189427 L1.71301446,23.2701909 C1.71301446,22.2584435 1.63515017,21.5580029 1.40155729,21.246696 C1.2458287,20.9353891 0.778642937,20.7797357 0.0778642937,20.7797357 L0.0778642937,20.3127753 L3.19243604,19.7679883 L3.19243604,28.7958884 L4.9054505,27.3171806 C5.13904338,27.0837004 5.29477197,26.928047 5.29477197,26.6945668 C5.29477197,26.3054332 4.98331479,26.1497797 4.28253615,26.1497797 L4.28253615,25.7606461 L8.40934372,25.7606461 L8.40934372,26.1497797 C8.09788654,26.1497797 7.86429366,26.2276065 7.63070078,26.3054332 C7.00778643,26.4610866 6.54060067,26.6945668 6.22914349,26.928047 L4.43826474,28.4067548 L7.86429366,31.9867841 Z M70,26.7723935 C70,27.4728341 69.6885428,27.784141 69.1434928,27.784141 C68.9877642,27.784141 68.7541713,27.7063142 68.5984427,27.5506608 C68.4427141,27.3950073 68.3648498,27.2393539 68.3648498,27.0058737 C68.3648498,26.5389134 68.131257,26.3054332 67.6640712,26.3054332 C67.352614,26.3054332 67.0411568,26.5389134 66.6518354,26.928047 C66.2625139,27.4728341 66.028921,28.0954479 66.028921,28.7958884 L66.028921,29.9632893 C66.028921,30.9750367 66.1067853,31.6754772 66.3403782,31.9867841 C66.5739711,32.298091 67.0411568,32.4537445 67.7419355,32.4537445 L67.7419355,32.9207048 L62.9143493,32.9207048 L62.9143493,32.4537445 C63.6151279,32.4537445 64.0823137,32.298091 64.2380423,31.9867841 C64.4716352,31.6754772 64.5494994,30.9750367 64.5494994,29.9632893 L64.5494994,28.8737151 C64.5494994,27.8619677 64.4716352,27.1615272 64.2380423,26.8502203 C64.0044494,26.5389134 63.5372636,26.3832599 62.836485,26.3832599 L62.836485,25.9162996 L65.6395996,25.3715125 C65.7953281,25.6828194 65.8731924,26.1497797 66.028921,26.928047 C66.2625139,26.5389134 66.5739711,26.1497797 66.9632925,25.8384728 C67.352614,25.5271659 67.8197998,25.3715125 68.2091212,25.3715125 C68.7541713,25.3715125 69.1434928,25.5271659 69.4549499,25.8384728 C69.8442714,26.2276065 70,26.5389134 70,26.7723935 Z M56.9187987,28.8737151 L56.8409344,29.185022 L56.8409344,29.4963289 C56.8409344,30.3524229 57.0745273,31.0528634 57.541713,31.5976505 C58.0088988,32.1424376 58.7096774,32.3759178 59.6440489,32.3759178 C60.5005562,32.3759178 61.2791991,32.0646109 61.9799778,31.3641703 L62.3692992,31.8311307 C61.512792,32.7650514 60.4226919,33.2320117 59.0989989,33.2320117 C57.9310345,33.2320117 56.996663,32.8428781 56.2958843,32.1424376 C55.5951057,31.3641703 55.2057842,30.4302496 55.2057842,29.3406755 C55.2057842,28.2511013 55.5951057,27.3171806 56.4516129,26.5389134 C57.2302558,25.8384728 58.1646274,25.4493392 59.1768632,25.4493392 C60.0333704,25.4493392 60.7341491,25.6828194 61.2791991,26.2276065 C61.9021135,26.7723935 62.1357063,27.3950073 62.1357063,28.0954479 C62.1357063,28.328928 62.1357063,28.5624082 62.057842,28.7958884 L56.9187987,28.7958884 L56.9187987,28.8737151 Z M60.5005562,28.0954479 C60.5784205,27.9397944 60.5784205,27.8619677 60.5784205,27.7063142 C60.5784205,27.3171806 60.4226919,27.0837004 60.189099,26.8502203 C59.8776418,26.5389134 59.4883204,26.4610866 58.9432703,26.4610866 C58.4760845,26.4610866 58.0867631,26.6167401 57.6974416,26.928047 C57.3081201,27.2393539 57.0745273,27.7063142 56.9187987,28.1732746 L60.5005562,28.1732746 L60.5005562,28.0954479 Z M50.0667408,32.9207048 L50.0667408,32.4537445 C50.7675195,32.4537445 51.2347052,32.298091 51.3904338,31.9867841 C51.6240267,31.6754772 51.701891,30.9750367 51.701891,29.9632893 L51.701891,23.2701909 C51.701891,22.2584435 51.6240267,21.5580029 51.3904338,21.246696 C51.1568409,20.9353891 50.6896552,20.7797357 49.9888765,20.7797357 L49.9888765,20.3127753 L53.1813126,19.7679883 L53.1813126,29.9632893 C53.1813126,30.9750367 53.2591769,31.6754772 53.4927697,31.9867841 C53.7263626,32.298091 54.1935484,32.4537445 54.894327,32.4537445 L54.894327,32.9207048 L50.0667408,32.9207048 Z M40.567297,28.0954479 L43.0589544,28.0954479 C43.2925473,27.5506608 43.6040044,27.0837004 44.0711902,26.6167401 C44.8498331,25.9162996 45.7842047,25.5271659 46.7964405,25.5271659 C47.6529477,25.5271659 48.3537264,25.7606461 48.8987764,26.3054332 C49.5216908,26.8502203 49.7552836,27.4728341 49.7552836,28.1732746 C49.7552836,28.4067548 49.7552836,28.6402349 49.6774194,28.8737151 L44.538376,28.8737151 L44.4605117,29.185022 L44.4605117,29.4963289 C44.4605117,30.3524229 44.6941046,31.0528634 45.1612903,31.5976505 C45.6284761,32.1424376 46.3292547,32.3759178 47.2636263,32.3759178 C48.1201335,32.3759178 48.8987764,32.0646109 49.5995551,31.3641703 L49.9888765,31.8311307 C49.1323693,32.7650514 48.0422692,33.2320117 46.7185762,33.2320117 C45.5506118,33.2320117 44.6162403,32.8428781 43.9154616,32.1424376 C43.214683,31.3641703 42.8253615,30.4302496 42.8253615,29.3406755 C42.8253615,29.185022 42.8253615,28.9515419 42.8253615,28.7958884 L40.567297,28.7958884 L40.567297,29.9632893 C40.567297,30.9750367 40.6451613,31.6754772 40.8787542,31.9867841 C41.1123471,32.298091 41.5795328,32.4537445 42.2803115,32.4537445 L42.2803115,32.9207048 L37.7641824,32.9207048 L37.7641824,32.4537445 C38.4649611,32.4537445 38.8542825,32.2202643 39.0100111,31.6754772 C39.0878754,31.5198238 39.0878754,30.9750367 39.0878754,29.9632893 L39.0878754,28.7180617 C39.0878754,27.2393539 38.6206897,26.4610866 37.6084538,26.4610866 C37.1412681,26.4610866 36.6740823,26.6167401 36.2068966,27.0058737 C35.6618465,27.4728341 35.3503893,27.9397944 35.3503893,28.5624082 L35.3503893,29.9632893 C35.3503893,30.9750367 35.3503893,31.5198238 35.4282536,31.6754772 C35.5839822,32.2202643 35.9733037,32.4537445 36.6740823,32.4537445 L36.6740823,32.9207048 L32.5472747,32.9207048 L32.5472747,32.4537445 C33.2480534,32.4537445 33.6373749,32.2202643 33.7931034,31.6754772 C33.8709677,31.5198238 33.8709677,30.9750367 33.8709677,29.9632893 L33.8709677,28.7180617 C33.8709677,27.2393539 33.3259177,26.4610866 32.3136819,26.4610866 C31.8464961,26.4610866 31.3793103,26.6167401 30.9121246,27.0058737 C30.3670745,27.4728341 30.1334816,27.9397944 30.1334816,28.5624082 L30.1334816,29.9632893 C30.1334816,30.89721 30.1334816,31.5198238 30.2113459,31.6754772 C30.3670745,32.2202643 30.756396,32.4537445 31.4571746,32.4537445 L31.4571746,32.9207048 L16.5850945,32.9207048 L16.5850945,32.4537445 C17.2858732,32.4537445 17.753059,32.298091 17.9087875,31.9867841 C18.1423804,31.6754772 18.2202447,30.9750367 18.2202447,29.9632893 L18.2202447,23.2701909 C18.2202447,22.2584435 18.1423804,21.5580029 17.9087875,21.246696 C17.6751947,20.9353891 17.2080089,20.7797357 16.5072303,20.7797357 L16.5072303,20.3127753 L19.6996663,19.7679883 L19.6996663,29.9632893 C19.6996663,30.9750367 19.7775306,31.6754772 20.0111235,31.9867841 C20.2447164,32.298091 20.7119021,32.4537445 21.4126808,32.4537445 L21.8020022,32.4537445 C22.5027809,32.4537445 22.9699666,32.298091 23.1256952,31.9867841 C23.3592881,31.6754772 23.4371524,30.9750367 23.4371524,29.9632893 L23.4371524,28.8737151 C23.4371524,27.8619677 23.3592881,27.1615272 23.1256952,26.8502203 C22.8921023,26.5389134 22.4249166,26.3832599 21.7241379,26.3832599 L21.7241379,25.9162996 L24.916574,25.3715125 L24.916574,29.8854626 C24.916574,30.89721 24.9944383,31.5976505 25.2280311,31.9089574 C25.461624,32.2202643 25.9288098,32.3759178 26.6295884,32.3759178 L26.9410456,32.3759178 C27.6418242,32.3759178 28.10901,32.2202643 28.2647386,31.9089574 C28.4983315,31.5976505 28.5761958,30.89721 28.5761958,29.8854626 L28.5761958,28.7958884 C28.5761958,27.784141 28.4983315,27.0837004 28.2647386,26.7723935 C28.0311457,26.4610866 27.56396,26.3054332 26.8631813,26.3054332 L26.8631813,25.8384728 L29.6662959,25.2936858 C29.8220245,25.6049927 29.8998888,26.071953 30.0556174,26.8502203 C30.8342603,25.8384728 31.7686318,25.2936858 32.7808676,25.2936858 C33.948832,25.2936858 34.727475,25.8384728 35.0389321,26.8502203 C35.272525,26.4610866 35.6618465,26.1497797 36.2847608,25.7606461 C36.8298109,25.3715125 37.4527253,25.215859 38.0756396,25.215859 C39.6329255,25.5271659 40.4115684,26.3832599 40.567297,28.0954479 Z M48.1979978,28.0954479 C48.2758621,27.9397944 48.2758621,27.8619677 48.2758621,27.7063142 C48.2758621,27.3171806 48.1201335,27.0837004 47.8865406,26.8502203 C47.5750834,26.5389134 47.185762,26.4610866 46.6407119,26.4610866 C46.1735261,26.4610866 45.7842047,26.6167401 45.3948832,26.928047 C45.0055617,27.2393539 44.7719689,27.7063142 44.6162403,28.1732746 L48.1979978,28.1732746 L48.1979978,28.0954479 Z M25.2280311,22.4919236 C25.2280311,22.7254038 25.1501669,22.958884 24.916574,23.1923642 C24.7608454,23.3480176 24.5272525,23.5036711 24.2936596,23.5036711 C24.0600667,23.5036711 23.8264739,23.4258443 23.6707453,23.1923642 C23.5150167,23.0367107 23.3592881,22.8032305 23.3592881,22.4919236 C23.3592881,22.2584435 23.4371524,22.0249633 23.6707453,21.8693098 C23.8264739,21.7136564 24.0600667,21.5580029 24.2936596,21.5580029 C24.5272525,21.5580029 24.7608454,21.6358297 24.916574,21.8693098 C25.0723026,21.9471366 25.2280311,22.1806167 25.2280311,22.4919236 Z M10.9010011,28.8737151 L10.8231368,29.185022 L10.8231368,29.4963289 C10.8231368,30.3524229 11.0567297,31.0528634 11.5239155,31.5976505 C11.9911012,32.1424376 12.6918799,32.3759178 13.6262514,32.3759178 C14.4827586,32.3759178 15.2614016,32.0646109 15.9621802,31.3641703 L16.3515017,31.8311307 C15.4949944,32.7650514 14.4048943,33.2320117 13.0812013,33.2320117 C11.9132369,33.2320117 10.9788654,32.8428781 10.2780868,32.1424376 C9.57730812,31.3641703 9.18798665,30.4302496 9.18798665,29.3406755 C9.18798665,28.2511013 9.57730812,27.3171806 10.4338154,26.5389134 C11.2124583,25.8384728 12.1468298,25.4493392 13.1590656,25.4493392 C14.0155729,25.4493392 14.7163515,25.6828194 15.2614016,26.2276065 C15.8843159,26.7723935 16.1179088,27.3950073 16.1179088,28.0954479 C16.1179088,28.328928 16.1179088,28.5624082 16.0400445,28.7958884 L10.9010011,28.7958884 L10.9010011,28.8737151 Z M14.5606229,28.0954479 C14.6384872,27.9397944 14.6384872,27.8619677 14.6384872,27.7063142 C14.6384872,27.3171806 14.4827586,27.0837004 14.2491657,26.8502203 C13.9377086,26.5389134 13.5483871,26.4610866 13.003337,26.4610866 C12.5361513,26.4610866 12.1468298,26.6167401 11.7575083,26.928047 C11.3681869,27.2393539 11.134594,27.7063142 10.9788654,28.1732746 L14.5606229,28.1732746 L14.5606229,28.0954479 Z M5.29477197,8.56093979 C5.29477197,7.31571219 4.82758621,6.38179148 3.7374861,6.38179148 C2.72525028,6.38179148 2.18020022,7.31571219 2.18020022,8.56093979 C2.18020022,9.8061674 2.72525028,10.7400881 3.7374861,10.7400881 C4.74972191,10.7400881 5.29477197,9.8061674 5.29477197,8.56093979 Z M5.60622914,6.30396476 C5.29477197,3.26872247 7.94215795,1.24522761 10.6674082,2.25697504 C10.9788654,2.33480176 11.8353726,2.80176211 11.8353726,3.58002937 C11.8353726,4.04698972 11.4460512,4.43612335 10.9788654,4.43612335 C10.5116796,4.43612335 10.2780868,4.12481645 10.0444939,3.58002937 C9.34371524,1.94566814 5.76195773,2.95741557 6.30700779,6.84875184 C6.69632925,7.31571219 6.92992214,7.93832599 6.92992214,8.56093979 C6.92992214,10.1174743 5.52836485,11.2848752 4.20467186,11.4405286 C3.19243604,11.5961821 1.79087875,11.7518355 1.79087875,12.3744493 C1.79087875,12.9192364 3.03670745,13.1527166 3.7374861,13.1527166 C6.69632925,13.3861968 7.63070078,14.6314244 7.63070078,15.9544787 C7.63070078,17.7444934 5.91768632,18.8340675 3.89321468,18.8340675 C0.311457175,18.8340675 -1.09010011,16.1879589 1.47942158,14.8649046 L1.86874305,15.0983847 C0.0778642937,17.0440529 2.18020022,18.0558003 3.89321468,18.0558003 C5.21690768,18.0558003 6.54060067,17.4331865 6.54060067,16.4214391 C6.54060067,15.4096916 5.45050056,15.0983847 3.6596218,14.9427313 C1.94660734,14.7870778 0.622914349,14.2422907 0.622914349,12.9970631 C0.622914349,12.2187959 1.32369299,11.6740088 2.4137931,11.2848752 C1.32369299,10.7400881 0.622914349,9.8061674 0.622914349,8.71659325 C0.622914349,7.16005874 2.02447164,5.83700441 3.81535039,5.83700441 C4.59399333,5.68135095 5.06117909,5.91483113 5.60622914,6.30396476 Z" id="Shape"></path>
                    </g>
                </g>
            </g>
        </g>
    </g>
</svg>