<?xml version="1.0" encoding="UTF-8"?>
<svg width="295px" height="52px" viewBox="0 0 295 52" version="1.1" xmlns="http://www.w3.org/2000/svg" xmlns:xlink="http://www.w3.org/1999/xlink">
    <title>9F2865C3-7370-4693-9F94-F07CD4CE615F</title>
    <defs>
        <linearGradient x1="90.2554899%" y1="50%" x2="0%" y2="50%" id="linearGradient-1">
            <stop stop-color="#1E64FF" offset="0%"></stop>
            <stop stop-color="#1E64FF" stop-opacity="0" offset="100%"></stop>
        </linearGradient>
    </defs>
    <g id="05---Campaigns" stroke="none" stroke-width="1" fill="none" fill-rule="evenodd">
        <g id="009.0.0-Flavus-Campaign-Detail_T" transform="translate(-47.000000, -1220.000000)">
            <g id="pwi_suwen-_logo" transform="translate(47.000000, 1220.000000)">
                <rect id="Rectangle" fill="#D8D8D8" opacity="0" x="19" y="0" width="231" height="48"></rect>
                <g id="flavus-logo" transform="translate(165.000000, 16.000000)" fill-rule="nonzero">
                    <g id="XMLID_00000062881872895245551920000004458217390556651911_" fill="#181818">
                        <path d="M30.3512471,5.21685129 C30.3512471,5.21685129 30.3537776,5.21685129 30.3537776,5.21685129 C30.3563082,5.21685129 30.3563082,5.21685129 30.3588388,5.21685129 L30.3512471,5.21685129 Z" id="XMLID_00000032632467125281037730000001074573890790781090_"></path>
                        <path d="M16.4356472,0.76773728 C13.5912874,-0.407356724 7.831712,-1.03424273 3.77520961,5.06710929 C3.75243449,5.10010329 2.9553052,4.37423529 2.65922861,4.66610529 C2.19866502,5.11786929 2.38592714,7.1558833 2.38592714,7.1558833 C2.38592714,7.1558833 -0.554594242,10.8816673 0.0932314664,16.2140053 C0.72587376,21.4346713 4.1623867,24.8914274 7.29270077,24.9574154 C8.51496568,24.9827954 9.6461301,23.4904514 10.4964013,22.3229713 C11.1644716,21.4067533 11.7034828,20.7544873 11.7034828,20.7544873 C11.7034828,20.7544873 13.2445995,25.2340574 14.1556044,24.9904094 C14.6515959,24.8584334 13.9708728,23.4295394 13.411617,22.1123173 C12.9409312,21.0057493 12.5765292,19.8585733 12.5765292,19.8585733 C12.5765292,19.8585733 15.1273429,17.6809693 16.1749986,17.0718493 C17.0303309,16.5744013 19.7608151,15.6251893 20.8084707,12.5313673 C21.8080455,9.58221131 21.8105761,2.99102529 16.4356472,0.76773728" id="XMLID_00000060726510971034268950000007119357850753273502_"></path>
                        <path d="M126.922828,19.2291493 C126.922828,20.0819173 127.611143,20.7722533 128.461414,20.7722533 C129.311685,20.7722533 130,20.0819173 130,19.2291493 C130,19.2291493 129.977225,13.7826013 129.977225,13.5541813 C129.977225,11.2674433 127.95277,9.41216531 125.452567,9.41216531 C124.230302,9.41216531 123.121913,9.85631531 122.3096,10.5771073 C121.494757,9.85631531 120.388898,9.41216531 119.166633,9.41216531 C116.668962,9.41216531 114.641976,11.2674433 114.641976,13.5541813 C114.641976,13.8079813 114.611609,19.1834653 114.611609,19.1834653 C114.611609,20.0362333 115.299924,20.7265693 116.150195,20.7265693 C117.000466,20.7265693 117.688781,20.0362333 117.688781,19.1834653 L117.691312,13.9627993 C117.691312,13.1100313 118.379626,12.4196953 119.229898,12.4196953 C120.080169,12.4196953 120.768484,13.1100313 120.768484,13.9627993 L120.771014,19.1834653 C120.771014,20.0362333 121.459329,20.7265693 122.3096,20.7265693 C123.159872,20.7265693 123.848186,20.0362333 123.848186,19.1834653 L123.848186,13.9627993 C123.848186,13.1100313 124.536501,12.4196953 125.386772,12.4196953 C126.237044,12.4196953 126.925358,13.1100313 126.925358,13.9627993 L126.922828,19.2291493 Z" id="XMLID_00000004523277645077970270000016476745834049380279_"></path>
                        <path d="M126.922828,19.2291493 C126.922828,20.0819173 127.611143,20.7722533 128.461414,20.7722533 C129.311685,20.7722533 130,20.0819173 130,19.2291493 C130,19.2291493 129.977225,13.7826013 129.977225,13.5541813 C129.977225,11.2674433 127.95277,9.41216531 125.452567,9.41216531 C124.230302,9.41216531 123.121913,9.85631531 122.3096,10.5771073 C121.494757,9.85631531 120.388898,9.41216531 119.166633,9.41216531 C116.668962,9.41216531 114.641976,11.2674433 114.641976,13.5541813 C114.641976,13.8079813 114.611609,19.1834653 114.611609,19.1834653 C114.611609,20.0362333 115.299924,20.7265693 116.150195,20.7265693 C117.000466,20.7265693 117.688781,20.0362333 117.688781,19.1834653 L117.691312,13.9627993 C117.691312,13.1100313 118.379626,12.4196953 119.229898,12.4196953 C120.080169,12.4196953 120.768484,13.1100313 120.768484,13.9627993 L120.771014,19.1834653 C120.771014,20.0362333 121.459329,20.7265693 122.3096,20.7265693 C123.159872,20.7265693 123.848186,20.0362333 123.848186,19.1834653 L123.848186,13.9627993 C123.848186,13.1100313 124.536501,12.4196953 125.386772,12.4196953 C126.237044,12.4196953 126.925358,13.1100313 126.925358,13.9627993 L126.922828,19.2291493 Z" id="XMLID_00000050652564316924981110000017529983582918283174_"></path>
                        <path d="M62.815919,9.73956731 C62.0491565,9.37155731 61.1305599,9.69388331 60.7636274,10.4628973 L58.3393421,15.5287453 L55.9150569,10.4628973 C55.5481243,9.69388331 54.6295277,9.37155731 53.8627653,9.73956731 C53.0960028,10.1075773 52.7746205,11.0288713 53.1415531,11.7978853 L56.9348762,19.7265973 C57.1929943,20.2646533 57.7218833,20.5844413 58.281139,20.5996693 C58.3013836,20.5996693 58.3190976,20.5996693 58.3393421,20.5996693 C58.3595867,20.5996693 58.3773007,20.5996693 58.3975452,20.5996693 C58.9542704,20.5844413 59.48569,20.2646533 59.743808,19.7265973 L63.5371312,11.7978853 C63.9065943,11.0314093 63.5826815,10.1101153 62.815919,9.73956731" id="XMLID_00000008864179645797356990000004001680425004116140_"></path>
                        <path d="M113.23751,15.1226653 C113.23751,18.2926273 110.674043,20.8636213 107.513362,20.8636213 C104.352681,20.8636213 101.789215,18.2926273 101.789215,15.1226653 C101.789215,11.9527033 104.352681,9.38170931 107.513362,9.38170931 C110.676574,9.38170931 113.23751,11.9527033 113.23751,15.1226653 M107.515893,12.5465953 C106.096244,12.5465953 104.947365,13.6988473 104.947365,15.1226653 C104.947365,16.5464833 106.096244,17.6987353 107.515893,17.6987353 C108.935542,17.6987353 110.084421,16.5464833 110.084421,15.1226653 C110.08189,13.6988473 108.933012,12.5465953 107.515893,12.5465953 Z" id="XMLID_00000013174848796433044260000011484625466245214083_"></path>
                        <path d="M51.5624779,15.4627573 L51.5624779,16.7825173 L51.5624779,19.0819453 C51.5624779,19.9347133 50.8741631,20.6250493 50.0238918,20.6250493 C49.5329614,20.6250493 49.0951729,20.3915533 48.8142798,20.0311573 C47.9488251,20.5565233 46.9365974,20.8610833 45.8509833,20.8610833 C42.6903024,20.8610833 40.1268358,18.2900893 40.1268358,15.1201273 C40.1268358,11.9501653 42.6903024,9.37917131 45.8509833,9.37917131 C47.1263901,9.37917131 48.3056354,9.79794131 49.2571294,10.5060433 C49.353291,9.96037331 49.829038,9.54414131 50.4009466,9.54414131 C51.0437112,9.54414131 51.5624779,10.0669693 51.5624779,10.7090833 L51.5624779,12.1430533 L51.5624779,14.7774973 C51.5700696,14.8917073 51.5726002,15.0033793 51.5726002,15.1175893 C51.5726002,15.2368753 51.567539,15.3510853 51.5624779,15.4627573 M45.8484527,12.5465953 C44.4288034,12.5465953 43.279925,13.6988473 43.279925,15.1226653 C43.279925,16.5464833 44.4288034,17.6987353 45.8484527,17.6987353 C47.268102,17.6987353 48.4169804,16.5464833 48.4169804,15.1226653 C48.4169804,13.6988473 47.268102,12.5465953 45.8484527,12.5465953 Z" id="XMLID_00000122712431314238607290000003033656579947340721_"></path>
                        <path d="M89.5260766,19.5971593 C89.5260766,20.3966293 88.8782509,21.0463573 88.0811216,21.0463573 C87.2839923,21.0463573 86.6361666,20.3966293 86.6361666,19.5971593 C86.6361666,18.7976893 87.2839923,18.1479613 88.0811216,18.1479613 C88.8807815,18.1479613 89.5260766,18.7951513 89.5260766,19.5971593" id="XMLID_00000171688583726912744630000014573010415487482045_"></path>
                        <path d="M84.4067352,10.5009673 C84.6395476,10.7573053 84.7812594,11.0999353 84.7812594,11.4755593 C84.7812594,12.2750293 84.1334337,12.9247573 83.3363044,12.9247573 C83.1363895,12.9247573 82.9465968,12.8841493 82.7745181,12.8105473 C82.7745181,12.8105473 82.076081,12.4171573 81.2435237,12.3714733 C80.5299032,12.3334033 80.0313811,12.4932973 80.0161977,12.8460793 C80.008606,12.9780553 80.084523,13.1658673 80.3628857,13.2572353 C81.2840128,13.5541813 81.9166551,13.7293033 82.8200683,14.1100033 C84.4851828,14.8130293 85.1785588,15.7723933 85.2013339,17.2444333 C85.2317007,19.1834653 83.5843002,20.8534693 80.777899,20.7468733 C79.1887016,20.6859613 77.7892968,20.0920693 76.9972287,19.1073253 L76.6302961,18.5616553 C76.5240122,18.3611533 76.4658091,18.1301953 76.4658091,17.8865473 C76.4658091,17.0870773 77.1136348,16.4373493 77.9107641,16.4373493 C78.1106791,16.4373493 78.3004718,16.4779573 78.4725505,16.5515593 C78.4725505,16.5515593 78.9508281,16.7723653 79.31523,17.0616973 C79.679632,17.3510293 80.5147198,17.8230973 81.1524232,17.8230973 C81.7901267,17.8230973 82.3367296,17.3662573 81.9267774,17.0616973 C81.6863733,16.8840373 80.8588772,16.6048573 80.0744008,16.2850693 C79.5176756,16.0591873 78.8976861,15.7393993 78.8976861,15.7393993 C77.6906046,15.1277413 76.8884142,14.0389393 76.8884142,12.7953193 C76.8884142,10.8842053 78.7914022,9.24973331 81.1321787,9.33348731 C83.4805469,9.41977931 84.4067352,10.5009673 84.4067352,10.5009673" id="XMLID_00000025409952266853130970000016644729607064958085_"></path>
                        <path d="M100.334138,19.0997113 C100.615031,18.8154553 100.787109,18.4246033 100.787109,17.9931433 C100.787109,17.1226093 100.083611,16.4170453 99.215626,16.4170453 C98.7803681,16.4170453 98.3855993,16.5947053 98.099645,16.8840373 L97.8086295,17.1429133 C97.3708411,17.4906193 96.8166464,17.6987353 96.214371,17.6987353 C94.7947217,17.6987353 93.6458433,16.5464833 93.6458433,15.1226653 C93.6458433,13.6988473 94.7947217,12.5465953 96.214371,12.5465953 C96.8242381,12.5465953 97.3860245,12.7597873 97.8263435,13.1176453 L98.0616865,13.3054573 C98.3476408,13.6176313 98.7601236,13.8105193 99.215626,13.8105193 C100.083611,13.8105193 100.787109,13.1049553 100.787109,12.2344213 C100.787109,11.7877333 100.602378,11.3867293 100.306301,11.0999353 L100.012755,10.8258313 C99.0030582,9.92737931 97.6745094,9.38170931 96.2169015,9.38170931 C93.0562206,9.38170931 90.4927541,11.9527033 90.4927541,15.1226653 C90.4927541,18.2926273 93.0562206,20.8636213 96.2169015,20.8636213 C97.7301819,20.8636213 99.104281,20.2748053 100.129161,19.3129033 L100.334138,19.0997113 Z" id="XMLID_00000072995239814790299230000007808217281875814561_"></path>
                        <path d="M72.2701254,11.0872453 C72.2701254,10.2344773 72.9584403,9.54414131 73.8087115,9.54414131 C74.6589827,9.54414131 75.3472976,10.2344773 75.3472976,11.0872453 C75.3472976,11.0872453 75.3675421,14.3206573 75.3675421,15.3866173 C75.3675421,18.3839953 72.9457874,20.8128613 69.9571852,20.8128613 C66.968583,20.8128613 64.5468283,18.3839953 64.5468283,15.3866173 C64.5468283,14.6632873 64.5518895,11.0872453 64.5518895,11.0872453 C64.5518895,10.2344773 65.2402043,9.54414131 66.0904755,9.54414131 C66.9407468,9.54414131 67.6290616,10.2344773 67.6290616,11.0872453 L67.6467756,15.3866173 C67.6467756,16.6683073 68.6817784,17.7063493 69.9597158,17.7063493 C71.2376532,17.7063493 72.272656,16.6683073 72.272656,15.3866173 L72.2701254,11.0872453 Z" id="XMLID_00000011751160053001860050000007648499012389707960_"></path>
                        <path d="M29.999498,10.6659373 L29.3871002,10.6659373 L29.3972225,9.29795531 C29.3972225,8.7700513 29.8248887,8.3411293 30.3512471,8.3411293 L30.3512471,8.3411293 C31.2116406,8.3411293 31.9100777,7.6406413 31.9100777,6.7777213 C31.9100777,5.9148013 31.2141712,5.21685129 30.3537776,5.21431329 C28.1192851,5.21685129 26.3099281,7.0340593 26.3099281,9.27511331 L26.3099281,10.6633993 L25.9708318,10.6633993 C25.1205606,10.6633993 24.4322458,11.3537353 24.4322458,12.2065033 C24.4322458,13.0592713 25.1205606,13.7496073 25.9708318,13.7496073 L26.3099281,13.7496073 L26.3099281,19.0971733 C26.3099281,19.9499413 26.9982429,20.6402773 27.8485142,20.6402773 C28.6987854,20.6402773 29.3871002,19.9499413 29.3871002,19.0971733 L29.3871002,13.7521453 L29.999498,13.7521453 C30.8497692,13.7521453 31.538084,13.0618093 31.538084,12.2090413 C31.538084,11.3562733 30.8472386,10.6659373 29.999498,10.6659373" id="XMLID_00000168084029570452724860000013334028829567841456_"></path>
                        <path d="M36.4144908,15.1911913 L36.4246131,16.5591733 C36.4246131,17.0870773 36.8522793,17.5159993 37.3786377,17.5159993 L37.3786377,17.5159993 C38.2390312,17.5159993 38.9374683,18.2164873 38.9374683,19.0794073 C38.9374683,19.9423273 38.2415618,20.6402773 37.3811682,20.6428153 C35.1466757,20.6402773 33.3373187,18.8230693 33.3373187,16.5820153 L33.3373187,15.1937293 L33.3373187,12.1049833 L33.3373187,6.7574173 C33.3373187,5.9046493 34.0256335,5.21431329 34.8759048,5.21431329 C35.726176,5.21431329 36.4144908,5.9046493 36.4144908,6.7574173 L36.4144908,12.1049833 L36.4144908,15.1911913 L36.4144908,15.1911913 Z" id="XMLID_00000109012507961612112410000005809607627499130248_"></path>
                    </g>
                    <g id="XMLID_00000162313360161893343090000005411653387836021392_" transform="translate(2.773006, 3.128038)" fill="#EFDA4D">
                        <path d="M10.7448954,6.0074856 L15.0392713,2.02282559 L15.5428546,1.52791558 C15.5428546,1.52791558 16.1324772,3.31720559 15.2746142,5.6090196 C14.0371659,8.91095761 11.4205574,9.01755361 10.2969847,10.8449136 C9.17341194,12.6697356 9.08484202,14.0427936 9.08484202,14.0427936 C9.08484202,14.0427936 9.02410836,15.3067176 9.267043,16.2813096 C9.32018495,16.4945016 9.70736204,17.8700976 10.1932313,19.0832616 C10.6537949,20.2355136 11.2181118,21.2380236 11.0991751,21.3395436 C10.9220352,21.4892856 10.6158364,20.9233116 10.1932313,19.9664856 C8.75080689,16.6924656 7.94608589,12.6240516 6.46823349,11.3804316 C4.91699459,10.0733616 2.1333685,9.12668761 1.11354912,7.2460296 C0.0962603144,5.3679096 -0.19728571,2.19794759 0.124096575,1.98475559 C0.44547886,1.76902558 3.2822469,4.29433559 3.95284774,4.80447359 C4.620918,5.3146116 5.49396436,6.1572276 5.49396436,6.1572276 C5.49396436,6.1572276 5.48384209,7.0201476 5.99248649,8.1216396 C6.50113089,9.22313161 8.46738314,11.7915876 8.53064737,13.4235216 C8.53064737,13.4235216 9.68205634,9.73834561 10.1628645,8.37543961 C10.7777928,6.6242196 10.7448954,6.0074856 10.7448954,6.0074856" id="XMLID_00000166647348095648174830000015659735537139868578_"></path>
                        <path d="M10.6639172,5.6064816 L14.0017379,2.60148959 C14.0017379,2.60148959 13.7942313,0.944175582 13.5791329,1.02539158 C13.3640345,1.10660758 9.75797342,3.86287559 9.75797342,3.86287559 C9.75797342,3.86287559 10.1375588,4.45169159 10.3197598,4.81716359 C10.5044913,5.1851736 10.6639172,5.6064816 10.6639172,5.6064816" id="XMLID_00000141413453208193461200000017320788543828156816_"></path>
                        <path d="M9.60613927,3.60146159 L10.3020458,3.03041159 C10.3020458,3.03041159 8.86721307,-0.0126504208 7.91571906,3.95792714e-05 C7.19197628,0.0101915793 5.65339022,3.14208359 5.65339022,3.14208359 L6.3037465,3.68013959 C6.3037465,3.68013959 7.36405498,2.02536359 7.93343305,2.03551559 C8.54583079,2.04312959 9.60613927,3.60146159 9.60613927,3.60146159" id="XMLID_00000082358511607365719850000003088928728798094994_"></path>
                        <path d="M6.15444292,4.00500359 C6.15444292,4.00500359 2.34593631,1.07868958 2.2649581,1.29441958 C2.18397988,1.51014958 1.97141207,2.68524359 1.97141207,2.68524359 C1.97141207,2.68524359 3.00894543,3.53293559 3.52518154,3.94409159 C4.04141766,4.35524759 5.54963688,5.7562236 5.54963688,5.7562236 C5.54963688,5.7562236 5.6711042,5.1471036 5.76726583,4.87553759 C5.89126372,4.52275559 6.15444292,4.00500359 6.15444292,4.00500359" id="XMLID_00000073721837311282537530000014380164325240375700_"></path>
                        <path d="M7.86004654,2.41367759 C7.39948295,2.48981759 5.55216745,5.1014196 5.84571348,6.6572136 C5.94693624,7.1978076 6.18734032,7.8475356 6.58717024,8.55309961 C7.33621872,9.88301161 8.41171062,11.3728176 8.54583079,12.4032456 C8.79635713,11.5454016 9.39357146,9.72057961 9.76050399,8.58609361 C10.494369,6.3247356 10.6360809,6.1318476 9.96548009,4.87046159 C9.29740983,3.61161359 8.34085468,2.33499959 7.86004654,2.41367759" id="XMLID_00000079444669224926644000000012194057429457478308_"></path>
                    </g>
                </g>
                <rect id="Rectangle" fill="#C1C1C1" fill-rule="nonzero" x="140" y="4" width="1" height="48"></rect>
                <g id="Brand/1--Logo/3--Subbrands/1--PWI/1--TR/1--Colored" transform="translate(0.000000, 8.000000)">
                    <g id="Group" transform="translate(0.000000, 0.976190)">
                        <g id="Group-21" transform="translate(54.588172, 0.000000)" fill="#1E64FF">
                            <path d="M14.5531438,5.71786239 C14.9441314,4.96604362 15.8714475,4.67278188 16.6251477,5.06422366 C17.3791038,5.45643247 17.6717048,6.38390147 17.2785422,7.13712647 L17.2785422,7.13712647 L10.2700642,20.6500494 C10.0062499,21.1552676 9.50062725,21.4521088 8.96992814,21.4743527 C8.70905651,21.4871366 8.44242755,21.4335722 8.19498972,21.3027933 C7.44116157,20.9118629 7.14881647,19.9843939 7.54082758,19.231041 L7.54082758,19.231041 L9.5226331,15.4061103 L5.23034172,7.13712647 C4.83833061,6.38390147 5.13272277,5.45643247 5.88565534,5.06422366 C6.63845997,4.67278188 7.56756724,4.96604362 7.95791512,5.71786239 L7.95791512,5.71786239 L11.2553376,12.0696508 Z M42.7610812,4.68614101 C44.423802,4.68614101 45.9868567,5.3330043 47.163018,6.50835234 C47.7610141,7.10855454 47.7610141,8.08102273 47.163018,8.68135277 C46.5615675,9.27976524 45.5880648,9.27976524 44.9882775,8.68135277 C44.3923285,8.08562492 43.6037004,7.75938083 42.7610812,7.75938083 C41.920765,7.75938083 41.1308575,8.08562492 40.5365717,8.68135277 C39.9416462,9.27324547 39.6147571,10.0639272 39.6147571,10.9045938 C39.6147571,11.7444933 39.9416462,12.5342802 40.5365717,13.1288575 C41.1308575,13.7210059 41.920765,14.05198 42.7610812,14.05198 C43.6037004,14.05198 44.3923285,13.7210059 44.9882775,13.1288575 C45.5880648,12.5280161 46.5615675,12.5280161 47.163018,13.1288575 C47.7610141,13.7286762 47.7610141,14.7017836 47.163018,15.2991733 C45.9868567,16.474777 44.423802,17.122663 42.7610812,17.122663 C41.1004075,17.122663 39.5381204,16.474777 38.3628547,15.2991733 C37.1874611,14.1274047 36.539696,12.5647058 36.539696,10.9045938 C36.539696,9.24269204 37.1874611,7.68370038 38.3628547,6.50835234 C39.5381204,5.3330043 41.1004075,4.68614101 42.7610812,4.68614101 Z M55.189356,4.68610266 C58.6204767,4.68610266 61.4117647,7.47541296 61.4117647,10.9045554 C61.4117647,14.3330587 58.6204767,17.1227525 55.189356,17.1227525 C51.7596426,17.1227525 48.9687384,14.3330587 48.9687384,10.9045554 C48.9687384,7.47541296 51.7596426,4.68610266 55.189356,4.68610266 Z M1.69777658,4.89138588 C2.54666487,4.89138588 3.23485931,5.57915752 3.23485931,6.42519334 L3.23485931,6.42519334 L3.23485931,15.4089227 C3.23485931,16.2578988 2.54666487,16.9438807 1.69777658,16.9438807 C0.848888291,16.9438807 0.160437968,16.2578988 0.160437968,15.4089227 L0.160437968,15.4089227 L0.160437968,6.42519334 C0.160437968,5.57915752 0.848888291,4.89138588 1.69777658,4.89138588 Z M27.4928263,4.89094019 C27.5204952,4.89097863 27.5440311,4.8910197 27.5631668,4.89106351 L27.6230425,4.89136031 C27.990361,4.87883213 28.3612618,4.99593228 28.6640981,5.25084244 C29.3135264,5.79326159 29.3984792,6.76368437 28.8539625,7.41272091 L28.8539625,7.41272091 L23.4279862,13.8721494 L27.6740909,13.8721494 C28.5236189,13.8721494 29.2128369,14.5617108 29.2128369,15.4088972 C29.2128369,16.2580011 28.5236189,16.9438552 27.6740909,16.9438552 L27.6740909,16.9438552 L20.132227,16.9438552 C19.78346,16.9438552 19.4318782,16.8279056 19.144011,16.5845009 C18.4945827,16.0405477 18.4088623,15.0726817 18.9550422,14.421344 L18.9550422,14.421344 L24.3801229,7.96408877 L20.8334715,7.96408877 C19.9835596,7.96408877 19.2963887,7.27452739 19.2963887,6.42529561 C19.2963887,5.57913195 19.9835596,4.89136031 20.8334715,4.89136031 L20.8334715,4.89136031 L22.0504812,4.89103322 C22.1227132,4.89101546 22.1972215,4.89099741 22.2737391,4.89097919 Z M32.9885922,4.89138588 C33.8391437,4.89138588 34.525675,5.57915752 34.525675,6.42519334 L34.525675,6.42519334 L34.525675,15.4089227 C34.525675,16.2578988 33.8391437,16.9438807 32.9885922,16.9438807 C32.1404716,16.9438807 31.4533007,16.2578988 31.4533007,15.4089227 L31.4533007,15.4089227 L31.4533007,6.42519334 C31.4533007,5.57915752 32.1404716,4.89138588 32.9885922,4.89138588 Z M55.189356,7.75934248 C53.4543486,7.75934248 52.0437994,9.16991353 52.0437994,10.9045554 C52.0437994,12.638686 53.4543486,14.0519416 55.189356,14.0519416 C56.9255148,14.0519416 58.338111,12.638686 58.338111,10.9045554 C58.338111,9.16991353 56.9255148,7.75934248 55.189356,7.75934248 Z M1.69777658,0 C2.63507208,0 3.39619287,0.760128284 3.39619287,1.69782438 C3.39619287,2.63360289 2.63507208,3.3951374 1.69777658,3.3951374 C0.760481085,3.3951374 0,2.63360289 0,1.69782438 C0,0.760128284 0.760481085,0 1.69777658,0 Z M32.9885922,0 C33.9276789,0 34.688032,0.760128284 34.688032,1.69782438 C34.688032,2.63360289 33.9276789,3.3951374 32.9885922,3.3951374 C32.0502732,3.3951374 31.2899201,2.63360289 31.2899201,1.69782438 C31.2899201,0.760128284 32.0502732,0 32.9885922,0 Z" id="Combined-Shape"></path>
                        </g>
                        <path d="M78.3147993,26.2045719 C80.956255,26.2045719 83.5671822,28.4316182 83.5671822,31.6504694 C83.5671822,34.8693206 80.956255,37.0952381 78.3147993,37.0952381 C75.6737159,37.0952381 73.0627886,34.8693206 73.0627886,31.6504694 C73.0627886,28.4316182 75.6737159,26.2045719 78.3147993,26.2045719 Z M91.5069997,26.097904 C91.9444501,26.097904 92.3219604,26.4643752 92.3219604,26.9064734 L92.3219604,36.2718067 C92.3219604,36.7146574 91.9444501,37.0803761 91.5069997,37.0803761 C91.069177,37.0803761 90.7069309,36.7146574 90.7069309,36.2718067 L90.7069309,35.4481871 C90.6015705,36.134474 89.6652405,37.09505 88.2315202,37.09505 C86.5565506,37.09505 84.549491,35.7834292 84.549491,33.0236076 C84.549491,30.3078077 86.5714425,28.9657104 88.2315202,28.9657104 C89.3484147,28.9657104 90.3145286,29.5458938 90.7069309,30.429714 L90.7069309,29.8198066 C90.7069309,29.7742798 90.7069309,29.7129505 90.7221951,29.6674238 L90.7221951,26.9064734 C90.7221951,26.4643752 91.0848135,26.097904 91.5069997,26.097904 Z M55.237151,29.0119896 C55.5688687,29.0119896 55.8555384,29.3017051 55.8555384,29.6527499 L55.8555384,36.4241894 C55.8555384,36.7910369 55.5688687,37.0803761 55.237151,37.0803761 C54.8901691,37.0803761 54.6031272,36.7910369 54.6031272,36.4241894 L54.6031272,29.6527499 C54.6031272,29.3017051 54.8901691,29.0119896 55.237151,29.0119896 Z M58.1649785,26.0979792 C58.4974408,26.0979792 58.7841104,26.3884472 58.7841104,26.7236893 L58.7841104,36.4242647 C58.7841104,36.7598831 58.4974408,37.0646487 58.1649785,37.0646487 C57.8176243,37.0646487 57.531327,36.7598831 57.531327,36.4242647 L57.531327,26.7236893 C57.531327,26.3884472 57.8176243,26.0979792 58.1649785,26.0979792 Z M64.006635,28.9657857 C65.727025,28.9657857 67.7940246,30.3387358 67.7940246,32.8099707 C67.7940246,33.2972194 67.507355,33.5267342 66.9947004,33.5267342 L61.4407559,33.4962577 C61.5762724,35.2044499 62.8744762,36.012643 64.1723077,36.012643 C64.8662716,36.012643 65.4247189,35.8143573 65.9224816,35.4324597 C66.1492112,35.2804532 66.2851,35.2044499 66.4507727,35.2044499 C66.7381869,35.2044499 66.9187515,35.4027356 66.9187515,35.6770247 C66.9187515,35.8448339 66.8435473,36.012643 66.5866615,36.2414054 C65.9831662,36.7749332 65.0933735,37.0646487 64.1417793,37.0646487 C62.2099239,37.0646487 60.1429244,35.7835045 60.1429244,33.0383568 C60.1429244,30.2932091 62.2858728,28.9657857 64.006635,28.9657857 Z M97.5900171,28.9657104 C99.3104071,28.9657104 101.378151,30.3386605 101.378151,32.7636163 C101.378151,33.3893263 101.030797,33.633515 100.381881,33.633515 L95.3260718,33.6177124 C95.4917445,35.0361892 96.5937472,35.7382788 97.8011102,35.7382788 C98.4202421,35.7382788 98.8428006,35.585896 99.3104071,35.2961806 C99.5669205,35.1588479 99.7329655,35.0519919 99.9440586,35.0519919 C100.291413,35.0519919 100.502878,35.2961806 100.502878,35.6314227 C100.502878,35.8300847 100.427302,36.0434206 100.095212,36.3173334 C99.5218725,36.7910369 98.6912752,37.0645734 97.7404256,37.0645734 C95.7791587,37.0645734 93.6812584,35.7992319 93.6812584,33.0382815 C93.6812584,30.2931338 95.8696272,28.9657104 97.5900171,28.9657104 Z M88.4884059,30.3533344 C87.3867756,30.3533344 86.1488841,31.2236095 86.1488841,33.0236076 C86.1488841,34.8382797 87.3867756,35.707426 88.4884059,35.707426 C89.514832,35.707426 90.7825074,34.914283 90.7825074,33.0236076 C90.7825074,31.1167534 89.514832,30.3533344 88.4884059,30.3533344 Z M78.3147993,27.7607576 C76.4734124,27.7607576 74.7682867,29.3323698 74.7682867,31.6504694 C74.7682867,33.968569 76.4734124,35.5243785 78.3147993,35.5243785 C80.1561862,35.5243785 81.8616842,33.968569 81.8616842,31.6504694 C81.8616842,29.3323698 80.1710781,27.7607576 78.3147993,27.7607576 Z M64.006635,30.0798732 C62.8893682,30.0798732 61.5762724,30.8417871 61.4407559,32.5499794 L66.5717696,32.5499794 C66.4362531,30.8417871 65.1380493,30.0798732 64.006635,30.0798732 Z M97.5900171,30.3691371 C96.5937472,30.3691371 95.4619606,31.0098973 95.3260718,32.4588507 L99.823434,32.4588507 C99.6879175,31.0098973 98.6015513,30.3691371 97.5900171,30.3691371 Z M55.237151,25.9455212 C55.5688687,25.9455212 55.8708026,26.2352366 55.8708026,26.5862814 C55.8708026,26.93695 55.5688687,27.2270416 55.237151,27.2270416 C54.8901691,27.2270416 54.5882353,26.93695 54.5882353,26.5862814 C54.5882353,26.2352366 54.8901691,25.9455212 55.237151,25.9455212 Z M80.1710781,23.4285714 C80.6539488,23.4285714 81.0463511,23.8251429 81.0463511,24.2988465 C81.0463511,24.7714212 80.6539488,25.1679927 80.1710781,25.1679927 C79.6882073,25.1679927 79.295805,24.7714212 79.295805,24.2988465 C79.295805,23.8251429 79.6882073,23.4285714 80.1710781,23.4285714 Z M76.4588928,23.4285714 C76.9413912,23.4285714 77.3334212,23.8251429 77.3334212,24.2988465 C77.3334212,24.7714212 76.9413912,25.1679927 76.4588928,25.1679927 C75.9756497,25.1679927 75.5832474,24.7714212 75.5832474,24.2988465 C75.5832474,23.8251429 75.9756497,23.4285714 76.4588928,23.4285714 Z" id="Combined-Shape" fill="#495057"></path>
                        <g id="Group-3" fill="url(#linearGradient-1)">
                            <path d="M4.82521008,0 C2.16040739,0 0,2.18493122 0,4.88095238 L0,34.1666667 C0,36.8626878 2.16040739,39.047619 4.82521008,39.047619 L34.4296578,39.047619 C36.228925,39.047619 37.8785035,38.035418 38.7092975,36.420582 L46.2452034,21.7781587 C46.6020545,21.0839788 46.7834824,20.3251534 46.789916,19.5654603 L46.789916,19.4821587 C46.7834824,18.7224656 46.6020545,17.9636402 46.2452034,17.2698942 L38.7092975,2.62703704 C37.8785035,1.01263492 36.228925,0 34.4296578,0 L4.82521008,0 Z" id="Fill-1"></path>
                        </g>
                    </g>
                </g>
            </g>
        </g>
    </g>
</svg>