<?xml version="1.0" encoding="UTF-8"?>
<svg width="281px" height="52px" viewBox="0 0 281 52" version="1.1" xmlns="http://www.w3.org/2000/svg" xmlns:xlink="http://www.w3.org/1999/xlink">
    <title>BAFBFBFF-E933-456B-ADE0-D77701F8E646</title>
    <defs>
        <linearGradient x1="90.2554899%" y1="50%" x2="0%" y2="50%" id="linearGradient-1">
            <stop stop-color="#1E64FF" offset="0%"></stop>
            <stop stop-color="#1E64FF" stop-opacity="0" offset="100%"></stop>
        </linearGradient>
    </defs>
    <g id="Campaigns" stroke="none" stroke-width="1" fill="none" fill-rule="evenodd">
        <g id="009.0.0-Suwen-Campaign-Detail_T2" transform="translate(-47.000000, -1220.000000)">
            <g id="pwi_suwen-_logo" transform="translate(47.000000, 1220.000000)">
                <rect id="Rectangle" fill="#D8D8D8" opacity="0" x="19" y="0" width="231" height="48"></rect>
                <rect id="Rectangle" fill="#D3B9B4" fill-rule="nonzero" x="140" y="4" width="1" height="48"></rect>
                <g id="Brand/1--Logo/3--Subbrands/1--PWI/1--TR/1--Colored" transform="translate(0.000000, 8.000000)">
                    <g id="Group" transform="translate(0.000000, 0.976190)">
                        <g id="Group-21" transform="translate(54.588172, 0.000000)" fill="#1E64FF">
                            <path d="M14.5531438,5.71786239 C14.9441314,4.96604362 15.8714475,4.67278188 16.6251477,5.06422366 C17.3791038,5.45643247 17.6717048,6.38390147 17.2785422,7.13712647 L17.2785422,7.13712647 L10.2700642,20.6500494 C10.0062499,21.1552676 9.50062725,21.4521088 8.96992814,21.4743527 C8.70905651,21.4871366 8.44242755,21.4335722 8.19498972,21.3027933 C7.44116157,20.9118629 7.14881647,19.9843939 7.54082758,19.231041 L7.54082758,19.231041 L9.5226331,15.4061103 L5.23034172,7.13712647 C4.83833061,6.38390147 5.13272277,5.45643247 5.88565534,5.06422366 C6.63845997,4.67278188 7.56756724,4.96604362 7.95791512,5.71786239 L7.95791512,5.71786239 L11.2553376,12.0696508 Z M42.7610812,4.68614101 C44.423802,4.68614101 45.9868567,5.3330043 47.163018,6.50835234 C47.7610141,7.10855454 47.7610141,8.08102273 47.163018,8.68135277 C46.5615675,9.27976524 45.5880648,9.27976524 44.9882775,8.68135277 C44.3923285,8.08562492 43.6037004,7.75938083 42.7610812,7.75938083 C41.920765,7.75938083 41.1308575,8.08562492 40.5365717,8.68135277 C39.9416462,9.27324547 39.6147571,10.0639272 39.6147571,10.9045938 C39.6147571,11.7444933 39.9416462,12.5342802 40.5365717,13.1288575 C41.1308575,13.7210059 41.920765,14.05198 42.7610812,14.05198 C43.6037004,14.05198 44.3923285,13.7210059 44.9882775,13.1288575 C45.5880648,12.5280161 46.5615675,12.5280161 47.163018,13.1288575 C47.7610141,13.7286762 47.7610141,14.7017836 47.163018,15.2991733 C45.9868567,16.474777 44.423802,17.122663 42.7610812,17.122663 C41.1004075,17.122663 39.5381204,16.474777 38.3628547,15.2991733 C37.1874611,14.1274047 36.539696,12.5647058 36.539696,10.9045938 C36.539696,9.24269204 37.1874611,7.68370038 38.3628547,6.50835234 C39.5381204,5.3330043 41.1004075,4.68614101 42.7610812,4.68614101 Z M55.189356,4.68610266 C58.6204767,4.68610266 61.4117647,7.47541296 61.4117647,10.9045554 C61.4117647,14.3330587 58.6204767,17.1227525 55.189356,17.1227525 C51.7596426,17.1227525 48.9687384,14.3330587 48.9687384,10.9045554 C48.9687384,7.47541296 51.7596426,4.68610266 55.189356,4.68610266 Z M1.69777658,4.89138588 C2.54666487,4.89138588 3.23485931,5.57915752 3.23485931,6.42519334 L3.23485931,6.42519334 L3.23485931,15.4089227 C3.23485931,16.2578988 2.54666487,16.9438807 1.69777658,16.9438807 C0.848888291,16.9438807 0.160437968,16.2578988 0.160437968,15.4089227 L0.160437968,15.4089227 L0.160437968,6.42519334 C0.160437968,5.57915752 0.848888291,4.89138588 1.69777658,4.89138588 Z M27.4928263,4.89094019 C27.5204952,4.89097863 27.5440311,4.8910197 27.5631668,4.89106351 L27.6230425,4.89136031 C27.990361,4.87883213 28.3612618,4.99593228 28.6640981,5.25084244 C29.3135264,5.79326159 29.3984792,6.76368437 28.8539625,7.41272091 L28.8539625,7.41272091 L23.4279862,13.8721494 L27.6740909,13.8721494 C28.5236189,13.8721494 29.2128369,14.5617108 29.2128369,15.4088972 C29.2128369,16.2580011 28.5236189,16.9438552 27.6740909,16.9438552 L27.6740909,16.9438552 L20.132227,16.9438552 C19.78346,16.9438552 19.4318782,16.8279056 19.144011,16.5845009 C18.4945827,16.0405477 18.4088623,15.0726817 18.9550422,14.421344 L18.9550422,14.421344 L24.3801229,7.96408877 L20.8334715,7.96408877 C19.9835596,7.96408877 19.2963887,7.27452739 19.2963887,6.42529561 C19.2963887,5.57913195 19.9835596,4.89136031 20.8334715,4.89136031 L20.8334715,4.89136031 L22.0504812,4.89103322 C22.1227132,4.89101546 22.1972215,4.89099741 22.2737391,4.89097919 Z M32.9885922,4.89138588 C33.8391437,4.89138588 34.525675,5.57915752 34.525675,6.42519334 L34.525675,6.42519334 L34.525675,15.4089227 C34.525675,16.2578988 33.8391437,16.9438807 32.9885922,16.9438807 C32.1404716,16.9438807 31.4533007,16.2578988 31.4533007,15.4089227 L31.4533007,15.4089227 L31.4533007,6.42519334 C31.4533007,5.57915752 32.1404716,4.89138588 32.9885922,4.89138588 Z M55.189356,7.75934248 C53.4543486,7.75934248 52.0437994,9.16991353 52.0437994,10.9045554 C52.0437994,12.638686 53.4543486,14.0519416 55.189356,14.0519416 C56.9255148,14.0519416 58.338111,12.638686 58.338111,10.9045554 C58.338111,9.16991353 56.9255148,7.75934248 55.189356,7.75934248 Z M1.69777658,0 C2.63507208,0 3.39619287,0.760128284 3.39619287,1.69782438 C3.39619287,2.63360289 2.63507208,3.3951374 1.69777658,3.3951374 C0.760481085,3.3951374 0,2.63360289 0,1.69782438 C0,0.760128284 0.760481085,0 1.69777658,0 Z M32.9885922,0 C33.9276789,0 34.688032,0.760128284 34.688032,1.69782438 C34.688032,2.63360289 33.9276789,3.3951374 32.9885922,3.3951374 C32.0502732,3.3951374 31.2899201,2.63360289 31.2899201,1.69782438 C31.2899201,0.760128284 32.0502732,0 32.9885922,0 Z" id="Combined-Shape"></path>
                        </g>
                        <path d="M78.3147993,26.2045719 C80.956255,26.2045719 83.5671822,28.4316182 83.5671822,31.6504694 C83.5671822,34.8693206 80.956255,37.0952381 78.3147993,37.0952381 C75.6737159,37.0952381 73.0627886,34.8693206 73.0627886,31.6504694 C73.0627886,28.4316182 75.6737159,26.2045719 78.3147993,26.2045719 Z M91.5069997,26.097904 C91.9444501,26.097904 92.3219604,26.4643752 92.3219604,26.9064734 L92.3219604,36.2718067 C92.3219604,36.7146574 91.9444501,37.0803761 91.5069997,37.0803761 C91.069177,37.0803761 90.7069309,36.7146574 90.7069309,36.2718067 L90.7069309,35.4481871 C90.6015705,36.134474 89.6652405,37.09505 88.2315202,37.09505 C86.5565506,37.09505 84.549491,35.7834292 84.549491,33.0236076 C84.549491,30.3078077 86.5714425,28.9657104 88.2315202,28.9657104 C89.3484147,28.9657104 90.3145286,29.5458938 90.7069309,30.429714 L90.7069309,29.8198066 C90.7069309,29.7742798 90.7069309,29.7129505 90.7221951,29.6674238 L90.7221951,26.9064734 C90.7221951,26.4643752 91.0848135,26.097904 91.5069997,26.097904 Z M55.237151,29.0119896 C55.5688687,29.0119896 55.8555384,29.3017051 55.8555384,29.6527499 L55.8555384,36.4241894 C55.8555384,36.7910369 55.5688687,37.0803761 55.237151,37.0803761 C54.8901691,37.0803761 54.6031272,36.7910369 54.6031272,36.4241894 L54.6031272,29.6527499 C54.6031272,29.3017051 54.8901691,29.0119896 55.237151,29.0119896 Z M58.1649785,26.0979792 C58.4974408,26.0979792 58.7841104,26.3884472 58.7841104,26.7236893 L58.7841104,36.4242647 C58.7841104,36.7598831 58.4974408,37.0646487 58.1649785,37.0646487 C57.8176243,37.0646487 57.531327,36.7598831 57.531327,36.4242647 L57.531327,26.7236893 C57.531327,26.3884472 57.8176243,26.0979792 58.1649785,26.0979792 Z M64.006635,28.9657857 C65.727025,28.9657857 67.7940246,30.3387358 67.7940246,32.8099707 C67.7940246,33.2972194 67.507355,33.5267342 66.9947004,33.5267342 L61.4407559,33.4962577 C61.5762724,35.2044499 62.8744762,36.012643 64.1723077,36.012643 C64.8662716,36.012643 65.4247189,35.8143573 65.9224816,35.4324597 C66.1492112,35.2804532 66.2851,35.2044499 66.4507727,35.2044499 C66.7381869,35.2044499 66.9187515,35.4027356 66.9187515,35.6770247 C66.9187515,35.8448339 66.8435473,36.012643 66.5866615,36.2414054 C65.9831662,36.7749332 65.0933735,37.0646487 64.1417793,37.0646487 C62.2099239,37.0646487 60.1429244,35.7835045 60.1429244,33.0383568 C60.1429244,30.2932091 62.2858728,28.9657857 64.006635,28.9657857 Z M97.5900171,28.9657104 C99.3104071,28.9657104 101.378151,30.3386605 101.378151,32.7636163 C101.378151,33.3893263 101.030797,33.633515 100.381881,33.633515 L95.3260718,33.6177124 C95.4917445,35.0361892 96.5937472,35.7382788 97.8011102,35.7382788 C98.4202421,35.7382788 98.8428006,35.585896 99.3104071,35.2961806 C99.5669205,35.1588479 99.7329655,35.0519919 99.9440586,35.0519919 C100.291413,35.0519919 100.502878,35.2961806 100.502878,35.6314227 C100.502878,35.8300847 100.427302,36.0434206 100.095212,36.3173334 C99.5218725,36.7910369 98.6912752,37.0645734 97.7404256,37.0645734 C95.7791587,37.0645734 93.6812584,35.7992319 93.6812584,33.0382815 C93.6812584,30.2931338 95.8696272,28.9657104 97.5900171,28.9657104 Z M88.4884059,30.3533344 C87.3867756,30.3533344 86.1488841,31.2236095 86.1488841,33.0236076 C86.1488841,34.8382797 87.3867756,35.707426 88.4884059,35.707426 C89.514832,35.707426 90.7825074,34.914283 90.7825074,33.0236076 C90.7825074,31.1167534 89.514832,30.3533344 88.4884059,30.3533344 Z M78.3147993,27.7607576 C76.4734124,27.7607576 74.7682867,29.3323698 74.7682867,31.6504694 C74.7682867,33.968569 76.4734124,35.5243785 78.3147993,35.5243785 C80.1561862,35.5243785 81.8616842,33.968569 81.8616842,31.6504694 C81.8616842,29.3323698 80.1710781,27.7607576 78.3147993,27.7607576 Z M64.006635,30.0798732 C62.8893682,30.0798732 61.5762724,30.8417871 61.4407559,32.5499794 L66.5717696,32.5499794 C66.4362531,30.8417871 65.1380493,30.0798732 64.006635,30.0798732 Z M97.5900171,30.3691371 C96.5937472,30.3691371 95.4619606,31.0098973 95.3260718,32.4588507 L99.823434,32.4588507 C99.6879175,31.0098973 98.6015513,30.3691371 97.5900171,30.3691371 Z M55.237151,25.9455212 C55.5688687,25.9455212 55.8708026,26.2352366 55.8708026,26.5862814 C55.8708026,26.93695 55.5688687,27.2270416 55.237151,27.2270416 C54.8901691,27.2270416 54.5882353,26.93695 54.5882353,26.5862814 C54.5882353,26.2352366 54.8901691,25.9455212 55.237151,25.9455212 Z M80.1710781,23.4285714 C80.6539488,23.4285714 81.0463511,23.8251429 81.0463511,24.2988465 C81.0463511,24.7714212 80.6539488,25.1679927 80.1710781,25.1679927 C79.6882073,25.1679927 79.295805,24.7714212 79.295805,24.2988465 C79.295805,23.8251429 79.6882073,23.4285714 80.1710781,23.4285714 Z M76.4588928,23.4285714 C76.9413912,23.4285714 77.3334212,23.8251429 77.3334212,24.2988465 C77.3334212,24.7714212 76.9413912,25.1679927 76.4588928,25.1679927 C75.9756497,25.1679927 75.5832474,24.7714212 75.5832474,24.2988465 C75.5832474,23.8251429 75.9756497,23.4285714 76.4588928,23.4285714 Z" id="Combined-Shape" fill="#495057"></path>
                        <g id="Group-3" fill="url(#linearGradient-1)">
                            <path d="M4.82521008,0 C2.16040739,0 0,2.18493122 0,4.88095238 L0,34.1666667 C0,36.8626878 2.16040739,39.047619 4.82521008,39.047619 L34.4296578,39.047619 C36.228925,39.047619 37.8785035,38.035418 38.7092975,36.420582 L46.2452034,21.7781587 C46.6020545,21.0839788 46.7834824,20.3251534 46.789916,19.5654603 L46.789916,19.4821587 C46.7834824,18.7224656 46.6020545,17.9636402 46.2452034,17.2698942 L38.7092975,2.62703704 C37.8785035,1.01263492 36.228925,0 34.4296578,0 L4.82521008,0 Z" id="Fill-1"></path>
                        </g>
                    </g>
                </g>
                <g id="suwen-logo" transform="translate(165.000000, 16.000000)" fill="#EB8F9B" fill-rule="nonzero">
                    <path d="M6.53454914,12.3767027 C4.41904762,11.1085016 2.43282675,9.91075622 2.43282675,7.53875059 C2.43282675,5.17848755 4.05471125,3.66369187 6.58156028,3.66369187 C7.95663627,3.66369187 9.69604863,4.05119775 10.1779129,5.46031 L11.0593718,7.97322687 L11.0593718,2.7242837 L10.6010132,2.64208549 C10.2131712,2.58337248 9.86058764,2.48943166 9.44924012,2.38374824 C8.6147923,2.184124 7.76859169,1.96101456 6.5698075,1.96101456 C3.02046606,1.96101456 0.552380952,4.25082198 0.552380952,7.53875059 C0.552380952,10.9558478 3.05572442,12.4706435 5.47679838,13.9384688 C7.56879433,15.2066698 9.5550152,16.4044152 9.5550152,18.7881635 C9.5550152,21.3480507 7.8508612,23.0624706 5.31225937,23.0624706 C3.3260385,23.0624706 1.56312057,22.2757163 1.0224924,21.1366839 L0,18.9525599 L0,19.8097698 L0,23.790512 L0.423100304,23.8727102 C0.916717325,23.966651 1.38682877,24.0958196 1.79817629,24.2132457 C2.77365755,24.4833255 3.79614995,24.765148 5.2064843,24.765148 C8.90861196,24.765148 11.482513,22.2992015 11.482513,18.7646783 C11.4942249,15.3593236 8.96737589,13.8445279 6.53454914,12.3767027" id="Path"></path>
                    <path d="M34.0478217,2.39549084 L34.08308,2.94739314 C34.1771023,4.20385157 34.1771023,6.61108502 34.1771023,8.37247534 L34.1771023,15.3593236 C34.1771023,19.8802255 31.5209726,22.9215594 27.5837893,22.9215594 C23.6818642,22.9215594 20.9552178,19.8097698 20.9552178,15.3593236 L20.9552178,8.37247534 C20.9552178,6.35274777 20.9904762,3.7928605 21.0492401,2.94739314 L21.0962513,2.39549084 L18.9454914,2.39549084 L18.9925025,2.94739314 C19.0630193,3.7928605 19.0865248,6.34100517 19.0865248,8.37247534 L19.0865248,15.3240958 C19.0865248,20.9957727 22.4243161,24.6477219 27.595542,24.6477219 C32.7432624,24.6477219 36.0693009,20.9840301 36.0693009,15.3240958 L36.0693009,8.36073274 C36.0693009,6.66979803 36.1045593,4.26256458 36.1633232,2.92390794 L36.1868288,2.38374824 L34.0478217,2.38374824 L34.0478217,2.39549084 Z" id="Path"></path>
                    <path d="M88.0283688,22.5457961 C87.1469098,22.6045092 85.101925,22.639737 82.7043566,22.639737 L79.9777102,22.639737 L79.9777102,13.2339126 L82.6103343,13.2339126 C84.7845998,13.2339126 86.3242148,13.2691404 87.3232016,13.3278535 L87.8873354,13.3630813 L87.8873354,11.4372945 L87.3232016,11.4725223 C86.3359676,11.5312353 84.7963526,11.5664631 82.6103343,11.5664631 L79.9777102,11.5664631 L79.9777102,4.06294035 L82.4457953,4.06294035 C84.6788247,4.06294035 86.7825735,4.06294035 87.7463019,4.15688116 L88.3339412,4.21559418 L88.3339412,2.26632222 L87.7698075,2.30155002 C86.8413374,2.36026303 84.8551165,2.39549084 82.4457953,2.39549084 L77.9327254,2.39549084 L77.9797366,2.94739314 C78.0385005,3.83983091 78.1090172,6.22357915 78.1090172,8.33724753 L78.1090172,18.3419446 C78.1090172,19.7040864 78.0385005,22.1113199 77.9797366,23.7787694 L77.956231,24.3071865 L82.7043566,24.3071865 C85.1136778,24.3071865 87.1469098,24.3424143 88.0283688,24.4011273 L88.5925025,24.4363551 L88.5925025,22.5105683 L88.0283688,22.5457961 Z" id="Path"></path>
                    <path d="M115.964742,24.1310474 C115.870719,22.3813997 115.870719,21.2658525 115.870719,19.9859089 L115.870719,8.36073274 C115.870719,6.66979803 115.905978,4.26256458 115.964742,2.92390794 L115.988247,2.38374824 L113.908004,2.38374824 L113.919757,2.91216534 C113.955015,4.15688116 113.990274,6.58759981 113.990274,8.36073274 L113.990274,20.3969 L100.780142,4.3447628 C99.945694,3.33489901 99.5578521,2.86519493 99.0642351,2.12541099 L98.899696,1.89055895 L97.8419453,1.89055895 L97.8654509,2.43071865 C97.912462,3.91028652 97.9594732,6.17660874 97.9594732,8.20807891 L97.9594732,19.363551 C97.9594732,20.866604 97.9242148,22.874589 97.8654509,23.7435416 L97.8301925,24.2954439 L99.945694,24.2954439 L99.9104357,23.7435416 C99.8399189,22.874589 99.8164134,20.8783466 99.8164134,19.3870362 L99.8516717,6.17660874 L112.756231,21.8882104 C113.778723,23.1329263 114.06079,23.5204321 114.730699,24.4480977 L114.895238,24.6712071 L116,24.6712071 L115.964742,24.1310474 Z" id="Path"></path>
                    <path d="M70.587234,2.43071865 L70.3756839,2.99436355 C70.1288754,3.68717708 69.7762918,4.63832785 68.88308,6.63457022 L62.4895643,21.3363081 L58.4113475,9.59370597 L59.8569402,7.44480977 C60.9264438,5.94175669 61.6903749,4.86143729 62.1134752,4.06294035 C62.3602837,3.54626585 62.454306,3.08830437 62.454306,3.08830437 C62.4778116,2.95913574 62.4895643,2.82996712 62.4895643,2.7007985 C62.4895643,1.20948802 61.2790274,0 59.7864235,0 C58.8109422,0 57.9647416,0.516674495 57.4828774,1.27994364 C57.0010132,0.516674495 56.1548126,0 55.1793313,0 C53.6867275,0 52.4761905,1.20948802 52.4761905,2.7007985 C52.4761905,2.94739314 52.5114488,3.17050258 52.5702128,3.39361202 C52.6877406,4.05119775 52.9815603,4.52090183 53.4164134,5.19023016 C53.6162107,5.50728041 53.9217832,5.9769845 54.3096251,6.65805543 L56.4016211,9.65241898 L52.3234043,21.3128229 L45.8006079,6.61108502 C45.2247214,5.29591357 44.5900709,3.7928605 44.2609929,2.79473931 L44.143465,2.43071865 L41.6871327,2.43071865 L42.1454914,3.20573039 C42.7448835,4.20385157 43.3677812,5.50728041 44.1317123,7.31564115 L51.7240122,24.6829497 L51.8650456,25 L52.7935157,25 L57.3771023,12.130108 L61.8549139,24.8121184 L61.9254306,25 L62.9244174,25 L70.5519757,7.40958196 C71.0926039,6.22357915 71.4921986,5.36636919 71.8212766,4.68529826 L71.8330294,4.65007046 C72.126849,4.03945514 72.3266464,3.60497886 72.5264438,3.14701738 L72.843769,2.43071865 L70.587234,2.43071865 Z" id="Path"></path>
                </g>
            </g>
        </g>
    </g>
</svg>