<?xml version="1.0" encoding="UTF-8"?>
<svg width="287px" height="52px" viewBox="0 0 287 52" version="1.1" xmlns="http://www.w3.org/2000/svg" xmlns:xlink="http://www.w3.org/1999/xlink">
    <title>9D85E1FF-5723-411F-9360-A6EBE65FA253</title>
    <defs>
        <linearGradient x1="90.2554899%" y1="50%" x2="0%" y2="50%" id="linearGradient-1">
            <stop stop-color="#1E64FF" offset="0%"></stop>
            <stop stop-color="#1E64FF" stop-opacity="0" offset="100%"></stop>
        </linearGradient>
    </defs>
    <g id="Campaigns" stroke="none" stroke-width="1" fill="none" fill-rule="evenodd">
        <g id="009.0.0-Kolay-Mama-Campaign-Detail" transform="translate(-136.000000, -592.000000)">
            <g id="Group" transform="translate(135.000000, 141.000000)">
                <g id="pwi_suwen-_logo" transform="translate(1.000000, 451.000000)">
                    <rect id="Rectangle" fill="#D8D8D8" opacity="0" x="19" y="0" width="231" height="48"></rect>
                    <rect id="Rectangle" fill="#D4C9B6" fill-rule="nonzero" x="140" y="4" width="1" height="48"></rect>
                    <g id="Brand/1--Logo/3--Subbrands/1--PWI/1--TR/1--Colored" transform="translate(0.000000, 8.000000)">
                        <g id="Group" transform="translate(0.000000, 0.976190)">
                            <g id="Group-21" transform="translate(54.588172, 0.000000)" fill="#1E64FF">
                                <path d="M14.5531438,5.71786239 C14.9441314,4.96604362 15.8714475,4.67278188 16.6251477,5.06422366 C17.3791038,5.45643247 17.6717048,6.38390147 17.2785422,7.13712647 L17.2785422,7.13712647 L10.2700642,20.6500494 C10.0062499,21.1552676 9.50062725,21.4521088 8.96992814,21.4743527 C8.70905651,21.4871366 8.44242755,21.4335722 8.19498972,21.3027933 C7.44116157,20.9118629 7.14881647,19.9843939 7.54082758,19.231041 L7.54082758,19.231041 L9.5226331,15.4061103 L5.23034172,7.13712647 C4.83833061,6.38390147 5.13272277,5.45643247 5.88565534,5.06422366 C6.63845997,4.67278188 7.56756724,4.96604362 7.95791512,5.71786239 L7.95791512,5.71786239 L11.2553376,12.0696508 Z M42.7610812,4.68614101 C44.423802,4.68614101 45.9868567,5.3330043 47.163018,6.50835234 C47.7610141,7.10855454 47.7610141,8.08102273 47.163018,8.68135277 C46.5615675,9.27976524 45.5880648,9.27976524 44.9882775,8.68135277 C44.3923285,8.08562492 43.6037004,7.75938083 42.7610812,7.75938083 C41.920765,7.75938083 41.1308575,8.08562492 40.5365717,8.68135277 C39.9416462,9.27324547 39.6147571,10.0639272 39.6147571,10.9045938 C39.6147571,11.7444933 39.9416462,12.5342802 40.5365717,13.1288575 C41.1308575,13.7210059 41.920765,14.05198 42.7610812,14.05198 C43.6037004,14.05198 44.3923285,13.7210059 44.9882775,13.1288575 C45.5880648,12.5280161 46.5615675,12.5280161 47.163018,13.1288575 C47.7610141,13.7286762 47.7610141,14.7017836 47.163018,15.2991733 C45.9868567,16.474777 44.423802,17.122663 42.7610812,17.122663 C41.1004075,17.122663 39.5381204,16.474777 38.3628547,15.2991733 C37.1874611,14.1274047 36.539696,12.5647058 36.539696,10.9045938 C36.539696,9.24269204 37.1874611,7.68370038 38.3628547,6.50835234 C39.5381204,5.3330043 41.1004075,4.68614101 42.7610812,4.68614101 Z M55.189356,4.68610266 C58.6204767,4.68610266 61.4117647,7.47541296 61.4117647,10.9045554 C61.4117647,14.3330587 58.6204767,17.1227525 55.189356,17.1227525 C51.7596426,17.1227525 48.9687384,14.3330587 48.9687384,10.9045554 C48.9687384,7.47541296 51.7596426,4.68610266 55.189356,4.68610266 Z M1.69777658,4.89138588 C2.54666487,4.89138588 3.23485931,5.57915752 3.23485931,6.42519334 L3.23485931,6.42519334 L3.23485931,15.4089227 C3.23485931,16.2578988 2.54666487,16.9438807 1.69777658,16.9438807 C0.848888291,16.9438807 0.160437968,16.2578988 0.160437968,15.4089227 L0.160437968,15.4089227 L0.160437968,6.42519334 C0.160437968,5.57915752 0.848888291,4.89138588 1.69777658,4.89138588 Z M27.4928263,4.89094019 C27.5204952,4.89097863 27.5440311,4.8910197 27.5631668,4.89106351 L27.6230425,4.89136031 C27.990361,4.87883213 28.3612618,4.99593228 28.6640981,5.25084244 C29.3135264,5.79326159 29.3984792,6.76368437 28.8539625,7.41272091 L28.8539625,7.41272091 L23.4279862,13.8721494 L27.6740909,13.8721494 C28.5236189,13.8721494 29.2128369,14.5617108 29.2128369,15.4088972 C29.2128369,16.2580011 28.5236189,16.9438552 27.6740909,16.9438552 L27.6740909,16.9438552 L20.132227,16.9438552 C19.78346,16.9438552 19.4318782,16.8279056 19.144011,16.5845009 C18.4945827,16.0405477 18.4088623,15.0726817 18.9550422,14.421344 L18.9550422,14.421344 L24.3801229,7.96408877 L20.8334715,7.96408877 C19.9835596,7.96408877 19.2963887,7.27452739 19.2963887,6.42529561 C19.2963887,5.57913195 19.9835596,4.89136031 20.8334715,4.89136031 L20.8334715,4.89136031 L22.0504812,4.89103322 C22.1227132,4.89101546 22.1972215,4.89099741 22.2737391,4.89097919 Z M32.9885922,4.89138588 C33.8391437,4.89138588 34.525675,5.57915752 34.525675,6.42519334 L34.525675,6.42519334 L34.525675,15.4089227 C34.525675,16.2578988 33.8391437,16.9438807 32.9885922,16.9438807 C32.1404716,16.9438807 31.4533007,16.2578988 31.4533007,15.4089227 L31.4533007,15.4089227 L31.4533007,6.42519334 C31.4533007,5.57915752 32.1404716,4.89138588 32.9885922,4.89138588 Z M55.189356,7.75934248 C53.4543486,7.75934248 52.0437994,9.16991353 52.0437994,10.9045554 C52.0437994,12.638686 53.4543486,14.0519416 55.189356,14.0519416 C56.9255148,14.0519416 58.338111,12.638686 58.338111,10.9045554 C58.338111,9.16991353 56.9255148,7.75934248 55.189356,7.75934248 Z M1.69777658,0 C2.63507208,0 3.39619287,0.760128284 3.39619287,1.69782438 C3.39619287,2.63360289 2.63507208,3.3951374 1.69777658,3.3951374 C0.760481085,3.3951374 0,2.63360289 0,1.69782438 C0,0.760128284 0.760481085,0 1.69777658,0 Z M32.9885922,0 C33.9276789,0 34.688032,0.760128284 34.688032,1.69782438 C34.688032,2.63360289 33.9276789,3.3951374 32.9885922,3.3951374 C32.0502732,3.3951374 31.2899201,2.63360289 31.2899201,1.69782438 C31.2899201,0.760128284 32.0502732,0 32.9885922,0 Z" id="Combined-Shape"></path>
                            </g>
                            <path d="M78.3147993,26.2045719 C80.956255,26.2045719 83.5671822,28.4316182 83.5671822,31.6504694 C83.5671822,34.8693206 80.956255,37.0952381 78.3147993,37.0952381 C75.6737159,37.0952381 73.0627886,34.8693206 73.0627886,31.6504694 C73.0627886,28.4316182 75.6737159,26.2045719 78.3147993,26.2045719 Z M91.5069997,26.097904 C91.9444501,26.097904 92.3219604,26.4643752 92.3219604,26.9064734 L92.3219604,36.2718067 C92.3219604,36.7146574 91.9444501,37.0803761 91.5069997,37.0803761 C91.069177,37.0803761 90.7069309,36.7146574 90.7069309,36.2718067 L90.7069309,35.4481871 C90.6015705,36.134474 89.6652405,37.09505 88.2315202,37.09505 C86.5565506,37.09505 84.549491,35.7834292 84.549491,33.0236076 C84.549491,30.3078077 86.5714425,28.9657104 88.2315202,28.9657104 C89.3484147,28.9657104 90.3145286,29.5458938 90.7069309,30.429714 L90.7069309,29.8198066 C90.7069309,29.7742798 90.7069309,29.7129505 90.7221951,29.6674238 L90.7221951,26.9064734 C90.7221951,26.4643752 91.0848135,26.097904 91.5069997,26.097904 Z M55.237151,29.0119896 C55.5688687,29.0119896 55.8555384,29.3017051 55.8555384,29.6527499 L55.8555384,36.4241894 C55.8555384,36.7910369 55.5688687,37.0803761 55.237151,37.0803761 C54.8901691,37.0803761 54.6031272,36.7910369 54.6031272,36.4241894 L54.6031272,29.6527499 C54.6031272,29.3017051 54.8901691,29.0119896 55.237151,29.0119896 Z M58.1649785,26.0979792 C58.4974408,26.0979792 58.7841104,26.3884472 58.7841104,26.7236893 L58.7841104,36.4242647 C58.7841104,36.7598831 58.4974408,37.0646487 58.1649785,37.0646487 C57.8176243,37.0646487 57.531327,36.7598831 57.531327,36.4242647 L57.531327,26.7236893 C57.531327,26.3884472 57.8176243,26.0979792 58.1649785,26.0979792 Z M64.006635,28.9657857 C65.727025,28.9657857 67.7940246,30.3387358 67.7940246,32.8099707 C67.7940246,33.2972194 67.507355,33.5267342 66.9947004,33.5267342 L61.4407559,33.4962577 C61.5762724,35.2044499 62.8744762,36.012643 64.1723077,36.012643 C64.8662716,36.012643 65.4247189,35.8143573 65.9224816,35.4324597 C66.1492112,35.2804532 66.2851,35.2044499 66.4507727,35.2044499 C66.7381869,35.2044499 66.9187515,35.4027356 66.9187515,35.6770247 C66.9187515,35.8448339 66.8435473,36.012643 66.5866615,36.2414054 C65.9831662,36.7749332 65.0933735,37.0646487 64.1417793,37.0646487 C62.2099239,37.0646487 60.1429244,35.7835045 60.1429244,33.0383568 C60.1429244,30.2932091 62.2858728,28.9657857 64.006635,28.9657857 Z M97.5900171,28.9657104 C99.3104071,28.9657104 101.378151,30.3386605 101.378151,32.7636163 C101.378151,33.3893263 101.030797,33.633515 100.381881,33.633515 L95.3260718,33.6177124 C95.4917445,35.0361892 96.5937472,35.7382788 97.8011102,35.7382788 C98.4202421,35.7382788 98.8428006,35.585896 99.3104071,35.2961806 C99.5669205,35.1588479 99.7329655,35.0519919 99.9440586,35.0519919 C100.291413,35.0519919 100.502878,35.2961806 100.502878,35.6314227 C100.502878,35.8300847 100.427302,36.0434206 100.095212,36.3173334 C99.5218725,36.7910369 98.6912752,37.0645734 97.7404256,37.0645734 C95.7791587,37.0645734 93.6812584,35.7992319 93.6812584,33.0382815 C93.6812584,30.2931338 95.8696272,28.9657104 97.5900171,28.9657104 Z M88.4884059,30.3533344 C87.3867756,30.3533344 86.1488841,31.2236095 86.1488841,33.0236076 C86.1488841,34.8382797 87.3867756,35.707426 88.4884059,35.707426 C89.514832,35.707426 90.7825074,34.914283 90.7825074,33.0236076 C90.7825074,31.1167534 89.514832,30.3533344 88.4884059,30.3533344 Z M78.3147993,27.7607576 C76.4734124,27.7607576 74.7682867,29.3323698 74.7682867,31.6504694 C74.7682867,33.968569 76.4734124,35.5243785 78.3147993,35.5243785 C80.1561862,35.5243785 81.8616842,33.968569 81.8616842,31.6504694 C81.8616842,29.3323698 80.1710781,27.7607576 78.3147993,27.7607576 Z M64.006635,30.0798732 C62.8893682,30.0798732 61.5762724,30.8417871 61.4407559,32.5499794 L66.5717696,32.5499794 C66.4362531,30.8417871 65.1380493,30.0798732 64.006635,30.0798732 Z M97.5900171,30.3691371 C96.5937472,30.3691371 95.4619606,31.0098973 95.3260718,32.4588507 L99.823434,32.4588507 C99.6879175,31.0098973 98.6015513,30.3691371 97.5900171,30.3691371 Z M55.237151,25.9455212 C55.5688687,25.9455212 55.8708026,26.2352366 55.8708026,26.5862814 C55.8708026,26.93695 55.5688687,27.2270416 55.237151,27.2270416 C54.8901691,27.2270416 54.5882353,26.93695 54.5882353,26.5862814 C54.5882353,26.2352366 54.8901691,25.9455212 55.237151,25.9455212 Z M80.1710781,23.4285714 C80.6539488,23.4285714 81.0463511,23.8251429 81.0463511,24.2988465 C81.0463511,24.7714212 80.6539488,25.1679927 80.1710781,25.1679927 C79.6882073,25.1679927 79.295805,24.7714212 79.295805,24.2988465 C79.295805,23.8251429 79.6882073,23.4285714 80.1710781,23.4285714 Z M76.4588928,23.4285714 C76.9413912,23.4285714 77.3334212,23.8251429 77.3334212,24.2988465 C77.3334212,24.7714212 76.9413912,25.1679927 76.4588928,25.1679927 C75.9756497,25.1679927 75.5832474,24.7714212 75.5832474,24.2988465 C75.5832474,23.8251429 75.9756497,23.4285714 76.4588928,23.4285714 Z" id="Combined-Shape" fill="#495057"></path>
                            <g id="Group-3" fill="url(#linearGradient-1)">
                                <path d="M4.82521008,0 C2.16040739,0 0,2.18493122 0,4.88095238 L0,34.1666667 C0,36.8626878 2.16040739,39.047619 4.82521008,39.047619 L34.4296578,39.047619 C36.228925,39.047619 37.8785035,38.035418 38.7092975,36.420582 L46.2452034,21.7781587 C46.6020545,21.0839788 46.7834824,20.3251534 46.789916,19.5654603 L46.789916,19.4821587 C46.7834824,18.7224656 46.6020545,17.9636402 46.2452034,17.2698942 L38.7092975,2.62703704 C37.8785035,1.01263492 36.228925,0 34.4296578,0 L4.82521008,0 Z" id="Fill-1"></path>
                            </g>
                        </g>
                    </g>
                    <g id="kolaymama-logo" transform="translate(165.000000, 8.000000)" fill-rule="nonzero">
                        <path d="M121.863869,40.3495624 C120.752595,40.3495624 119.663546,40.3719912 118.552272,40.3719912 C118.330017,40.3719912 118.352242,40.2374179 118.352242,40.1028446 C118.352242,39.3402626 118.352242,38.5552516 118.352242,37.7926696 C118.352242,36.4245077 118.352242,35.0563457 118.352242,33.6881838 C118.352242,33.2396061 118.307791,32.7910284 118.152213,32.3648796 C117.707703,31.1761488 116.174145,30.8397155 115.285125,31.7817287 C114.729488,32.3648796 114.551684,33.0826039 114.551684,33.8676149 C114.551684,35.9086433 114.551684,37.9721007 114.551684,40.0131291 C114.551684,40.3271335 114.462782,40.3944201 114.173851,40.3944201 C113.24038,40.3719912 112.284685,40.3719912 111.351214,40.3944201 C111.062283,40.3944201 110.995606,40.3271335 110.995606,40.035558 C111.017832,38.0169584 110.995606,35.9983589 110.995606,33.9573304 C110.995606,33.5311816 110.995606,33.0826039 110.884479,32.6564551 C110.706675,31.9835886 110.373293,31.4452954 109.639852,31.3107221 C108.839734,31.1537199 108.150744,31.3555799 107.661784,32.0508753 C107.239499,32.6340263 107.150597,33.3293217 107.150597,34.0246171 C107.150597,36.0207877 107.150597,38.0169584 107.150597,40.0131291 C107.150597,40.2822757 107.106146,40.3944201 106.817215,40.3719912 C105.861519,40.3495624 104.883598,40.3495624 103.927902,40.3719912 C103.705647,40.3719912 103.616745,40.3271335 103.616745,40.0804158 C103.616745,36.4245077 103.616745,32.7461707 103.616745,29.0902626 C103.616745,28.8435449 103.683422,28.7762582 103.927902,28.7762582 C104.883598,28.7986871 105.861519,28.7986871 106.817215,28.7762582 C107.106146,28.7762582 107.150597,28.8884026 107.150597,29.1351204 C107.128372,29.6061269 107.150597,30.0771335 107.150597,30.6378556 C108.084068,29.3145514 109.262019,28.5519694 110.817803,28.5295405 C112.418037,28.4846827 113.573763,29.1351204 114.262753,30.6602845 C114.462782,30.4135667 114.618361,30.1892779 114.796164,29.9649891 C116.107468,28.3949672 118.396693,28.237965 119.819124,28.8435449 C120.819271,29.2472648 121.352683,30.0547046 121.641614,31.0640044 C121.752741,31.4677243 121.841643,31.8938731 121.930545,32.297593 C121.930545,32.4097374 121.930545,32.499453 121.930545,32.6115974 C121.797192,32.7461707 121.863869,32.9031729 121.863869,33.0377462 C121.863869,35.4824945 121.863869,37.9272429 121.863869,40.3495624 Z" id="Path" fill="#2C2B29"></path>
                        <path d="M4.04656948,0.022428884 C4.04656948,0.157002188 4.06879496,0.291575492 4.06879496,0.448577681 C4.06879496,4.23905908 4.06879496,8.02954048 4.06879496,11.8200219 C4.06879496,11.9321663 4.02434399,12.0667396 4.13547142,12.2013129 C4.37995176,11.999453 4.49107919,11.7303063 4.64665759,11.4835886 C5.7134809,9.84628009 6.78030421,8.18654267 7.82490204,6.52680525 C7.91380398,6.39223195 8.00270592,6.28008753 8.18050981,6.28008753 C9.5807154,6.28008753 11.0031465,6.28008753 12.4033521,6.28008753 C12.4700285,6.28008753 12.5589305,6.28008753 12.6256069,6.36980306 C12.1810972,6.95295405 11.714362,7.55853392 11.2698523,8.16411379 C10.2697055,9.48741794 9.2695586,10.833151 8.24718626,12.1564551 C8.11383335,12.3358862 8.15828432,12.4480306 8.26941175,12.6274617 C9.78074477,14.7133479 11.2698523,16.821663 12.7811853,18.9075492 C12.8478618,18.9972648 12.9589892,19.1094092 12.9145383,19.1991247 C12.8700873,19.3112691 12.7145089,19.2439825 12.6033815,19.2439825 C11.2476268,19.2439825 9.91409769,19.2439825 8.55834306,19.2439825 C8.35831369,19.2439825 8.22496078,19.2215536 8.09160787,19.0196937 C6.89143164,17.0908096 5.64680444,15.1843545 4.42440273,13.2778993 C4.33550079,13.143326 4.26882433,12.9863239 4.06879496,12.8741794 C4.06879496,13.1657549 4.06879496,13.4124726 4.06879496,13.6591904 C4.06879496,15.4086433 4.06879496,17.1356674 4.06879496,18.8851204 C4.06879496,19.1991247 3.97989302,19.2664114 3.69096171,19.2664114 C2.51301097,19.2439825 1.33506023,19.2439825 0.157109489,19.2439825 C0.157109489,12.8293217 0.157109489,6.43708972 0.157109489,0.022428884 C1.44618766,0.022428884 2.73526582,0.022428884 4.04656948,0.022428884 Z" id="Path" fill="#FD7B05"></path>
                        <path d="M26.1164767,40.9775711 C25.6052906,40.8429978 25.0941044,40.7308534 24.6273692,40.4841357 C23.6494478,39.9458425 23.1160362,39.1159737 22.8937813,38.0393873 C22.649301,36.8282276 22.7826539,35.6843545 23.427193,34.6526258 C24.0495066,33.6881838 25.0052024,33.1947484 26.0942512,32.9256018 C27.4722314,32.5891685 28.8946624,32.4770241 30.294868,32.297593 C30.6282503,32.2527352 30.7171523,32.1630197 30.6949268,31.8265864 C30.6282503,30.9294311 30.0059367,30.2565646 29.1169173,30.1444201 C27.4944568,29.9425602 25.9831238,30.3462801 24.5606927,31.1537199 C24.0272811,31.4452954 24.0272811,31.4677243 24.0272811,30.8397155 C24.0272811,30.166849 24.0272811,29.4715536 24.0050556,28.7986871 C24.0050556,28.5519694 24.071732,28.3949672 24.3162124,28.3052516 C26.1609277,27.5650985 28.0723195,27.2286652 30.0503877,27.4305252 C31.4728188,27.5875274 32.7396714,28.1033917 33.5842399,29.3818381 C34.1621025,30.2565646 34.4288084,31.2434354 34.4510338,32.2751641 C34.4954848,34.9666302 34.4732593,37.6805252 34.4732593,40.3719912 C34.4732593,40.6411379 34.3843574,40.7084245 34.139877,40.6859956 C33.1175047,40.6859956 32.0729069,40.6859956 31.0505345,40.6859956 C30.7393777,40.6859956 30.6504758,40.5738512 30.6727013,40.2822757 C30.6949268,39.833698 30.6727013,39.3851204 30.6727013,38.8243982 C30.4059955,39.1608315 30.2281916,39.4075492 30.0281622,39.6318381 C29.3613976,40.3495624 28.5612801,40.79814 27.5833588,40.9327133 C27.5389078,40.9327133 27.4944568,40.9775711 27.4500059,41 C27.0499471,40.9775711 26.5832119,40.9775711 26.1164767,40.9775711 Z M30.7616032,35.2133479 C30.7616032,35.1460613 30.7616032,35.0563457 30.7616032,34.9890591 C30.7616032,34.5180525 30.7616032,34.5180525 30.294868,34.5853392 C29.7614564,34.6526258 29.2058192,34.6974836 28.6724076,34.7871991 C28.2501233,34.8544858 27.8278391,34.9217724 27.4277804,35.1012035 C26.8276923,35.3703501 26.449859,35.9535011 26.449859,36.6487965 C26.449859,37.2768053 26.8499178,37.8375274 27.4944568,38.0618162 C28.2501233,38.3085339 28.9613389,38.2188184 29.6281035,37.7702407 C30.4948974,37.1198031 30.7838287,36.2450766 30.7616032,35.2133479 Z" id="Shape" fill="#FC7C07"></path>
                        <path d="M63.7442239,40.9775711 C63.1441358,40.8429978 62.5440477,40.7308534 62.010636,40.3719912 C60.7215579,39.5196937 60.2992737,38.286105 60.3437246,36.8057987 C60.4104011,34.5629103 61.7439302,33.4190372 63.5886455,32.9256018 C64.9444002,32.5667396 66.3446058,32.4770241 67.7225859,32.297593 C68.3448995,32.2303063 68.3448995,32.2078775 68.233772,31.6022976 C67.9892917,30.3911379 67.0335958,30.0771335 66.0556744,30.0771335 C64.5665669,30.0547046 63.1885868,30.4808534 61.9217341,31.2658643 C61.6550283,31.4228665 61.6105773,31.4004376 61.6105773,31.1088621 C61.6105773,30.3014223 61.6105773,29.4939825 61.6105773,28.6865427 C61.6105773,28.4846827 61.6772538,28.3949672 61.8550576,28.3276805 C63.9664788,27.4978118 66.1223509,27.0940919 68.3671249,27.5650985 C70.1896148,27.9463895 71.389791,29.0902626 71.8343007,30.9967177 C72.0121046,31.7368709 72.0565556,32.499453 72.0565556,33.2396061 C72.0565556,35.5722101 72.0565556,37.9272429 72.0565556,40.2598468 C72.0565556,40.5738512 71.9898791,40.6859956 71.6564968,40.6859956 C70.65635,40.6635667 69.6562031,40.6635667 68.6560563,40.6859956 C68.3448995,40.6859956 68.2559975,40.5738512 68.278223,40.2822757 C68.3004485,39.833698 68.278223,39.3626915 68.278223,38.869256 C68.0115172,39.0262582 67.9226152,39.2729759 67.7892623,39.452407 C67.1002723,40.2822757 66.2557038,40.79814 65.1888805,40.9327133 C65.1444295,40.9327133 65.0999786,40.9775711 65.0555276,41 C64.6110179,40.9775711 64.1887336,40.9775711 63.7442239,40.9775711 Z M68.322674,35.2133479 C68.322674,35.0563457 68.322674,34.8993435 68.322674,34.7647702 C68.322674,34.5853392 68.2559975,34.5404814 68.0781936,34.5629103 C67.3447526,34.6526258 66.6113116,34.7199125 65.900096,34.8320569 C65.5889392,34.8769147 65.255557,34.9442013 64.9666256,35.1012035 C64.388763,35.392779 64.0553807,35.8189278 64.0331552,36.5142232 C64.0109298,37.1646608 64.2331846,37.6805252 64.8110472,37.9721007 C65.6111647,38.3533917 66.4112822,38.286105 67.1447232,37.7926696 C68.0337427,37.1422319 68.3004485,36.2226477 68.322674,35.2133479 Z" id="Shape" fill="#FC7C07"></path>
                        <path d="M34.27323,0.022428884 C34.27323,0.538293217 34.2954554,1.07658643 34.2954554,1.59245077 C34.2954554,7.17724289 34.2954554,12.7844639 34.2954554,18.369256 C34.2954554,19.2439825 34.2954554,19.2439825 33.406436,19.2439825 C32.4951911,19.2439825 31.6061717,19.2215536 30.6949268,19.2439825 C30.4059955,19.2439825 30.294868,19.1766958 30.3170935,18.8626915 C30.339319,16.5300875 30.3170935,14.1750547 30.3170935,11.8424508 C30.3170935,8.02954048 30.3170935,4.23905908 30.3170935,0.426148796 C30.3170935,0.291575492 30.3170935,0.134573304 30.294868,0 C31.6283972,0.022428884 32.9619263,0.022428884 34.27323,0.022428884 Z" id="Path" fill="#FC7C07"></path>
                        <path d="M0.157109489,0.022428884 C0.157109489,6.43708972 0.157109489,12.8293217 0.157109489,19.2439825 C0.134884003,19.2439825 0.112658517,19.2439825 0.0904330316,19.2439825 C0.0904330316,12.963895 0.0904330316,6.66137856 0.0904330316,0.381291028 C0.0904330316,0.269146608 0.00153108901,0.11214442 0.157109489,0.022428884 Z" id="Path" fill="#FEA545"></path>
                        <path d="M0.068207546,27.6996718 C0.0904330316,27.6996718 0.112658517,27.6996718 0.134884003,27.6996718 C0.134884003,31.8714442 0.134884003,36.0207877 0.134884003,40.1925602 C0.134884003,40.5289934 0.223785945,40.618709 0.55716823,40.618709 C1.71289348,40.5962801 2.86861874,40.618709 4.02434399,40.618709 C3.97989302,40.7308534 3.86876559,40.7084245 3.80208913,40.7084245 C2.55746194,40.7084245 1.31283474,40.7084245 0.068207546,40.6859956 C0.068207546,36.357221 0.068207546,32.0284464 0.068207546,27.6996718 Z" id="Path" fill="#FEA545"></path>
                        <path d="M121.863869,40.3495624 C121.863869,37.904814 121.863869,35.4824945 121.863869,33.0377462 C121.863869,32.880744 121.797192,32.7237418 121.930545,32.6115974 C121.930545,35.190919 121.930545,37.7926696 121.930545,40.3719912 C121.90832,40.3719912 121.886094,40.3495624 121.863869,40.3495624 Z" id="Path" fill="#2E2C2A"></path>
                        <path d="M41.7409931,29.583698 C42.2299538,28.8884026 42.8078164,28.2828228 43.5857084,27.9239606 C45.2303944,27.1389497 46.8528548,27.071663 48.4086388,28.1258206 C48.875374,28.4398249 49.1643053,28.8884026 49.4310112,29.3818381 C49.4754621,29.4715536 49.5199131,29.583698 49.6310405,29.6734136 C49.8755209,29.3818381 50.0977757,29.0678337 50.3644816,28.7986871 C51.2312755,27.9015317 52.2980988,27.4305252 53.5649515,27.3856674 C54.5428729,27.3408096 55.4985688,27.4305252 56.3653627,27.9912473 C57.2766076,28.5968271 57.6988918,29.5164114 57.9655977,30.5257112 C58.165627,31.3555799 58.1434015,32.2078775 58.1434015,33.0377462 C58.1434015,35.4376368 58.1434015,37.8599562 58.1434015,40.2598468 C58.1434015,40.5738512 58.0544996,40.6859956 57.7433428,40.6859956 C56.7209705,40.6635667 55.6763726,40.6635667 54.6540003,40.6859956 C54.2983925,40.6859956 54.1428141,40.618709 54.1650396,40.1925602 C54.1872651,37.7926696 54.1650396,35.392779 54.1650396,33.0153173 C54.1650396,32.4770241 54.0539122,31.9835886 53.8538828,31.4901532 C53.3649221,30.2341357 51.5646578,30.1444201 50.7867658,30.95186 C50.1866777,31.5798687 49.8977464,32.3424508 49.8977464,33.1947484 C49.8755209,35.5273523 49.8755209,37.8823851 49.8977464,40.2149891 C49.8977464,40.5514223 49.8088444,40.6859956 49.4532367,40.6635667 C48.4086388,40.6411379 47.3418155,40.6635667 46.2972177,40.6635667 C46.0082864,40.6635667 45.897159,40.5962801 45.9193844,40.2822757 C45.9416099,37.8823851 45.9416099,35.4824945 45.9193844,33.1050328 C45.9193844,32.3648796 45.808257,31.6471554 45.3415218,31.0191466 C44.8081102,30.3014223 43.1856497,30.3014223 42.6077871,30.8845733 C42.007699,31.4901532 41.6965422,32.1854486 41.6743167,32.9928884 C41.6520912,35.392779 41.6520912,37.7926696 41.6520912,40.1701313 C41.6520912,40.5514223 41.5631893,40.6859956 41.1631305,40.6635667 C40.1407582,40.6411379 39.0961603,40.6411379 38.073788,40.6635667 C37.7181802,40.6635667 37.6292783,40.5514223 37.6292783,40.2149891 C37.6515038,36.1329322 37.6515038,32.0733042 37.6292783,27.9912473 C37.6292783,27.6996718 37.7181802,27.654814 37.9848861,27.654814 C39.0961603,27.654814 40.1852091,27.6772429 41.2964834,27.654814 C41.5631893,27.654814 41.6520912,27.7445295 41.6520912,28.0136761 C41.6298657,28.5295405 41.6520912,29.0229759 41.6520912,29.5388403 C41.6743167,29.5612691 41.7187677,29.5612691 41.7409931,29.583698 Z" id="Path" fill="#FD7C07"></path>
                        <path d="M4.04656948,40.618709 C2.89084422,40.618709 1.73511897,40.5962801 0.579393716,40.618709 C0.246011431,40.618709 0.157109489,40.5289934 0.157109489,40.1925602 C0.157109489,36.0207877 0.157109489,31.8714442 0.157109489,27.6996718 C1.3795112,27.6996718 2.6241384,27.6996718 3.84654011,27.6772429 C4.04656948,27.6772429 4.06879496,27.7445295 4.06879496,27.9239606 C4.04656948,28.4173961 4.06879496,28.8884026 4.06879496,29.3818381 C4.06879496,29.4491247 4.04656948,29.5388403 4.15769691,29.6061269 C4.60220662,29.0229759 5.11339279,28.4846827 5.73570639,28.0809628 C7.2692649,27.0940919 9.51403895,27.1165208 10.8920191,28.1482495 C11.4254307,28.5519694 11.7365875,29.0902626 12.0477443,29.6958425 C12.2255482,29.583698 12.2922247,29.404267 12.4033521,29.2472648 C13.3368225,28.0585339 14.5369987,27.4080963 16.0483317,27.3632385 C17.0040276,27.3408096 17.937498,27.4080963 18.7820665,27.9463895 C19.6266349,28.4846827 20.0711446,29.2921225 20.3378505,30.2117068 C20.5823308,31.0864333 20.6490073,32.0060175 20.6490073,32.9031729 C20.6490073,35.3479212 20.6490073,37.7926696 20.6490073,40.2374179 C20.6490073,40.5514223 20.5601053,40.6635667 20.2489485,40.6635667 C19.1598997,40.6411379 18.0930764,40.6411379 17.0040276,40.6635667 C16.6928708,40.6635667 16.6261944,40.5289934 16.6261944,40.2598468 C16.6261944,37.9721007 16.6261944,35.6843545 16.6261944,33.3741794 C16.6261944,32.8134573 16.6039689,32.2527352 16.4039395,31.714442 C16.1816846,31.0415755 15.7371749,30.5705689 15.0259594,30.4359956 C14.2258419,30.3014223 13.5368518,30.4808534 13.0034402,31.1761488 C12.492254,31.8265864 12.3144501,32.5891685 12.3144501,33.3966083 C12.3144501,35.6619256 12.3144501,37.9272429 12.3144501,40.1925602 C12.3144501,40.5289934 12.2477737,40.6635667 11.8699404,40.6635667 C10.8475681,40.6411379 9.84742123,40.6411379 8.82504889,40.6635667 C8.44721564,40.6635667 8.33608821,40.5738512 8.33608821,40.1701313 C8.35831369,37.8599562 8.35831369,35.5497812 8.33608821,33.262035 C8.33608821,32.6564551 8.29163724,32.0733042 8.06938238,31.4901532 C7.53597072,30.1219912 5.58012799,30.0995624 4.7800105,31.0640044 C4.20214788,31.7592998 4.04656948,32.5891685 4.04656948,33.463895 C4.02434399,35.6843545 4.04656948,37.9272429 4.04656948,40.1477024 C4.06879496,40.3271335 4.04656948,40.4617068 4.04656948,40.618709 Z" id="Path" fill="#FD7B07"></path>
                        <path d="M50.4978345,21.8681619 C51.1201481,22.1597374 51.6980107,22.3391685 52.3425498,22.3167396 C53.2537947,22.2718818 53.9205593,21.845733 54.320618,21.0158643 C54.5206474,20.5672867 54.6762258,20.0962801 54.9207061,19.6701313 C55.2096374,19.154267 54.8540297,18.750547 54.6984513,18.3468271 C53.8761083,16.2160832 53.0093144,14.1077681 52.1425204,11.999453 C51.4090794,10.2051422 50.6756384,8.41083151 49.9421973,6.61652079 C49.8532954,6.39223195 49.8755209,6.28008753 50.1644522,6.28008753 C51.4313049,6.28008753 52.6981576,6.28008753 53.9650102,6.28008753 C54.1650396,6.28008753 54.276167,6.34737418 54.3428435,6.57166302 C54.9873826,8.74726477 55.6541472,10.9228665 56.3209117,13.0984683 C56.5431666,13.8610503 56.8543234,14.6236324 56.9209998,15.4310722 C56.9209998,15.4983589 56.9209998,15.5880744 57.0099018,15.5656455 C57.0543527,15.5656455 57.1210292,15.4983589 57.1432547,15.4310722 C57.387735,14.4890591 57.6988918,13.5919037 57.9655977,12.6498906 C58.3656564,11.3714442 58.7434897,10.0929978 59.1213229,8.81455142 C59.3435778,8.07439825 59.5880581,7.33424508 59.7880875,6.5940919 C59.8547639,6.3249453 59.9881169,6.28008753 60.2103717,6.28008753 C61.2994205,6.28008753 62.3884693,6.30251641 63.4775181,6.28008753 C63.7886749,6.28008753 63.8109004,6.39223195 63.7219984,6.63894967 C63.4108416,7.46881838 63.0996848,8.29868709 62.788528,9.1285558 C61.9884106,11.2817287 61.2105186,13.4573304 60.3659501,15.5880744 C59.6102836,17.5393873 58.9657445,19.535558 58.0989506,21.4420131 C57.5433134,22.6756018 56.8098724,23.7521882 55.6763726,24.5371991 C54.8984806,25.0754923 54.0316867,25.3670678 53.0759908,25.3670678 C52.2980988,25.3894967 51.5424323,25.3446389 50.7867658,25.142779 C50.5867364,25.0754923 50.4978345,24.9857768 50.4978345,24.7390591 C50.52006,23.8194748 50.4978345,22.8774617 50.4978345,21.8681619 Z" id="Path" fill="#FD7B07"></path>
                        <path d="M20.6934582,19.5804158 C19.0932233,19.6252735 17.5818902,19.2888403 16.2483611,18.3243982 C14.9815084,17.3823851 14.2258419,16.1039387 13.9369106,14.5339168 C13.7146557,13.3003282 13.6924302,12.0891685 13.9813616,10.8780088 C14.4258713,8.92669584 15.5371456,7.49124726 17.3374099,6.66137856 C19.1821252,5.80908096 21.1157425,5.74179431 23.0715852,6.21280088 C25.1163299,6.70623632 26.5609864,7.96225383 27.3388784,9.95842451 C27.7611627,11.0574398 27.8278391,12.2237418 27.7389372,13.3900438 C27.6500352,14.511488 27.3833294,15.6105033 26.7832413,16.5749453 C25.8053199,18.1449672 24.3828888,19.0421225 22.5826245,19.4234136 C21.9158599,19.535558 21.3157718,19.5579869 20.6934582,19.5804158 Z M23.6716733,12.6947484 C23.6716733,12.5377462 23.6938988,12.3358862 23.6716733,12.1340263 C23.5160949,10.5640044 23.0049087,9.17341357 21.0268405,9.06126915 C19.8933407,8.99398249 18.9376449,9.35284464 18.3375567,10.4070022 C18.0264,10.9452954 17.893047,11.5284464 17.8485961,12.1564551 C17.7819196,13.0536105 17.7819196,13.928337 18.0930764,14.7582057 C18.5598116,16.0142232 19.5821839,16.6198031 20.9157131,16.5300875 C22.3159187,16.440372 23.0049087,15.9020788 23.427193,14.5563457 C23.6272223,13.9507659 23.7161243,13.3676149 23.6716733,12.6947484 Z" id="Shape" fill="#FD7B07"></path>
                        <path d="M37.9848861,10.04814 C37.9848861,9.08369803 37.9848861,8.16411379 37.9848861,7.24452954 C37.9848861,7.06509847 38.0960135,7.0202407 38.2293664,6.95295405 C39.3184152,6.4595186 40.4741405,6.21280088 41.6298657,6.05579869 C42.696689,5.92122538 43.7635123,5.92122538 44.8081102,6.19037199 C46.4527961,6.5940919 47.5862959,7.53610503 48.0752565,9.21827133 C48.2975114,9.93599562 48.3864133,10.6537199 48.3864133,11.416302 C48.3864133,13.9059081 48.3864133,16.4179431 48.3864133,18.9075492 C48.3864133,19.1991247 48.3197369,19.3112691 48.0085801,19.2888403 C46.9862078,19.2664114 45.9860609,19.2664114 44.9636886,19.2888403 C44.6969827,19.2888403 44.6080808,19.1991247 44.6303063,18.9299781 C44.6525318,18.4589716 44.6303063,17.987965 44.6303063,17.4721007 C44.3858259,17.6291028 44.296924,17.8758206 44.1413456,18.0552516 C43.3412281,19.0196937 42.3410812,19.535558 41.0964541,19.5804158 C40.2741111,19.6028446 39.4517681,19.5804158 38.6961016,19.1991247 C37.3847979,18.5262582 36.7624844,17.3823851 36.7180334,15.9245077 C36.6291314,13.6143326 37.7848567,12.0891685 40.0518562,11.5508753 C41.2964834,11.2368709 42.5633361,11.1247265 43.8524143,10.9901532 C44.7414337,10.8780088 44.8970121,10.6537199 44.4969534,9.8238512 C44.1191201,9.01641138 43.4079046,8.76969365 42.5855616,8.74726477 C40.9853266,8.702407 39.5184446,9.1285558 38.1626899,10.0032823 C38.118239,9.98085339 38.0960135,9.98085339 37.9848861,10.04814 Z M44.6747572,13.7489059 C44.6747572,13.6143326 44.6747572,13.4573304 44.6747572,13.3227571 C44.6747572,13.1881838 44.6303063,13.0984683 44.4747279,13.1208972 C43.519032,13.3003282 42.5411106,13.2778993 41.6076402,13.5694748 C41.0297776,13.7489059 40.5630424,14.0853392 40.4296895,14.7806346 C40.3185621,15.4310722 40.4296895,16.0142232 40.9631011,16.4179431 C41.6520912,16.9562363 42.8967184,16.8665208 43.6301594,16.2609409 C44.4302769,15.6329322 44.6747572,14.7357768 44.6747572,13.7489059 Z" id="Shape" fill="#FD7B07"></path>
                        <path d="M101.32752,34.7199125 C101.305295,36.2899344 100.838559,37.8823851 99.5050303,39.1384026 C98.4604325,40.1028446 97.1935798,40.5289934 95.8155997,40.6411379 C94.2375902,40.7757112 92.7040317,40.5738512 91.3260516,39.6766958 C89.7258167,38.6225383 89.0146011,37.0300875 88.9034737,35.1684902 C88.8145717,33.6881838 89.0146011,32.2527352 89.8813951,30.9967177 C90.9482184,29.4266958 92.5040024,28.7314004 94.3264922,28.5519694 C95.6600213,28.4398249 96.971325,28.5071116 98.1937267,29.0902626 C99.7717362,29.8304158 100.749658,31.0864333 101.149716,32.8134573 C101.283069,33.3741794 101.349746,33.9349015 101.32752,34.7199125 Z M92.4817769,34.7199125 C92.5262278,35.0339168 92.5262278,35.4600656 92.6151298,35.8413567 C92.8151592,36.7609409 93.2596689,37.5459519 94.2153648,37.7926696 C95.6600213,38.1739606 97.0602269,37.8150985 97.5047366,36.1329322 C97.7714425,35.1236324 97.7936679,34.0694748 97.5269621,33.0601751 C97.2158053,31.8714442 96.4379133,31.3107221 95.1932861,31.2658643 C94.0375609,31.2210066 93.126316,31.8490153 92.7262572,32.9480306 C92.5484533,33.4863239 92.5262278,34.047046 92.4817769,34.7199125 Z" id="Shape" fill="#2D2B2A"></path>
                        <path d="M87.2587877,32.0733042 C86.814278,31.8265864 86.4364448,31.5574398 85.9919351,31.4452954 C84.613955,31.0864333 83.3026513,31.1537199 82.2580535,32.2751641 C81.4357105,33.1723195 81.3245831,34.2937637 81.5246124,35.4376368 C81.8802202,37.5683807 83.7693865,38.2412473 85.6807783,37.8150985 C86.1475135,37.702954 86.5697977,37.523523 86.9698564,37.2768053 C87.2365623,37.0973742 87.2587877,37.2095186 87.2365623,37.4562363 C87.2365623,38.1963895 87.2143368,38.9365427 87.2365623,39.6766958 C87.2365623,39.9458425 87.1254348,40.0579869 86.90318,40.1477024 C86.125288,40.4841357 85.302945,40.618709 84.4583766,40.6635667 C82.8136906,40.7757112 81.2579066,40.5289934 79.9243775,39.4748359 C78.1907896,38.106674 77.6351525,36.2450766 77.8351818,34.1143326 C78.1241131,30.8172867 80.4577891,28.6416849 83.747161,28.5295405 C84.7917588,28.5071116 85.8585821,28.5071116 86.858729,28.8884026 C87.1254348,28.9781182 87.2365623,29.1126915 87.2143368,29.4266958 C87.2365623,30.2789934 87.2587877,31.1537199 87.2587877,32.0733042 Z" id="Path" fill="#2E2C2A"></path>
                        <path d="M75.7459862,37.904814 C76.5905546,37.904814 77.1461918,38.4655361 77.1684173,39.2729759 C77.1684173,40.1028446 76.5683291,40.6859956 75.7015352,40.6859956 C74.9014177,40.6859956 74.2791041,40.0579869 74.2791041,39.2729759 C74.2791041,38.4655361 74.8791922,37.904814 75.7459862,37.904814 Z" id="Path" fill="#2E2C2A"></path>
                        <path d="M65.7000667,9.03884026 C65.6333902,7.37910284 67.0780468,6.19037199 68.4560269,6.19037199 C70.0340364,6.19037199 71.2786636,7.4463895 71.2786636,9.01641138 C71.2786636,10.5864333 70.0340364,11.8648796 68.4782524,11.8648796 C67.0113703,11.8424508 65.6556157,10.631291 65.7000667,9.03884026 Z M70.9230558,9.01641138 C70.9230558,7.62582057 69.834007,6.52680525 68.4560269,6.52680525 C67.1002723,6.52680525 66.033449,7.64824945 66.033449,9.01641138 C66.033449,10.3845733 67.1224977,11.4835886 68.4782524,11.4835886 C69.834007,11.5060175 70.9230558,10.4070022 70.9230558,9.01641138 Z" id="Shape" fill="#F48620"></path>
                        <path d="M68.8783111,9.15098468 C69.2339189,9.50984683 69.5895267,10.1602845 69.789556,10.7658643 C69.4561737,10.833151 69.1894679,10.833151 69.056115,10.4070022 C68.9672131,10.1378556 68.8560856,9.86870897 68.6782817,9.62199125 C68.5893798,9.50984683 68.5004779,9.37527352 68.3448995,9.30798687 C68.0337427,9.17341357 67.8781643,9.2631291 67.8781643,9.59956236 C67.8781643,9.91356674 67.8781643,10.25 67.8781643,10.5640044 C67.8781643,10.7658643 67.7892623,10.7882932 67.6336839,10.7882932 C67.45588,10.7882932 67.4114291,10.7210066 67.4114291,10.5640044 C67.4114291,9.50984683 67.4114291,8.47811816 67.4114291,7.42396061 C67.4114291,7.33424508 67.3892036,7.22210066 67.5225565,7.22210066 C68.0559681,7.22210066 68.5893798,7.13238512 69.100566,7.33424508 C69.4561737,7.46881838 69.6784286,7.71553611 69.7006541,8.11925602 C69.7228796,8.54540481 69.5006247,8.83698031 69.1450169,9.03884026 C69.056115,9.08369803 68.9894385,9.10612691 68.8783111,9.15098468 Z M67.8781643,8.20897155 C67.8781643,8.85940919 67.8781643,8.85940919 68.322674,8.85940919 C68.9005366,8.85940919 69.1672424,8.65754923 69.1450169,8.18654267 C69.1450169,7.78282276 68.8783111,7.67067834 68.2559975,7.62582057 C67.6559094,7.5809628 67.9448407,8.0071116 67.8781643,8.20897155 Z" id="Shape" fill="#F88011"></path>
                    </g>
                </g>
            </g>
        </g>
    </g>
</svg>