<svg xmlns="http://www.w3.org/2000/svg" width="64" height="64" viewBox="0 0 64 64">
    <g fill="none" fill-rule="evenodd">
        <g fill="#1e64ff" fill-rule="nonzero">
            <path d="M32 0C14.327 0 0 14.327 0 32c0 17.673 14.327 32 32 32 17.673 0 32-14.327 32-32C63.98 14.335 49.665.02 32 0zm0 50.667c-2.21 0-4-1.791-4-4 0-2.21 1.79-4 4-4s4 1.79 4 4c0 2.209-1.79 4-4 4zm4.267-16.214c-.973.425-1.6 1.385-1.6 2.446 0 1.472-1.194 2.666-2.667 2.666-1.473 0-2.667-1.194-2.667-2.666 0-3.182 1.885-6.061 4.8-7.334 2.442-1.065 3.723-3.77 3-6.334-.722-2.564-3.225-4.202-5.864-3.837-2.639.365-4.604 2.622-4.602 5.286 0 1.473-1.194 2.667-2.667 2.667-1.473 0-2.667-1.194-2.667-2.667 0-5.327 3.93-9.838 9.208-10.567 5.278-.728 10.283 2.549 11.727 7.677 1.443 5.128-1.119 10.535-6.001 12.666v-.003z"/>
        </g>
    </g>
</svg>
