<?xml version="1.0" encoding="UTF-8"?>
<svg width="72px" height="72px" viewBox="0 0 72 72" version="1.1" xmlns="http://www.w3.org/2000/svg" xmlns:xlink="http://www.w3.org/1999/xlink">
    <title>B3E52B44-D28F-4202-A50A-173124E4ABCE</title>
    <g id="04---Merchant" stroke="none" stroke-width="1" fill="none" fill-rule="evenodd">
        <g id="006.0.2-Success" transform="translate(-935.000000, -774.000000)">
            <g id="Group-29" transform="translate(935.000000, 774.000000)">
                <g id="startup-launch" transform="translate(1.000000, 1.000000)">
                    <line x1="22.9364622" y1="33.5616438" x2="41.3494223" y2="33.5616438" id="Path" stroke="#FFB900" stroke-width="3" stroke-linecap="round" stroke-linejoin="round"></line>
                    <path d="M38.1465158,57.5759381 C38.1465158,61.7784395 32.1429422,65.080405 32.1429422,65.080405 C32.1429422,65.080405 26.1393687,61.7784395 26.1393687,57.5759381 C26.1393687,53.3734366 30.2368076,53.0732579 32.1429422,53.0732579 C34.0490768,53.0732579 38.1465158,53.3734366 38.1465158,57.5759381 Z" id="Path" stroke="#FFB900" stroke-width="3" stroke-linecap="round" stroke-linejoin="round"></path>
                    <line x1="32.1429422" y1="6.54556284" x2="32.1429422" y2="3.54377606" id="Path" stroke="#FFB900" stroke-width="3" stroke-linecap="round" stroke-linejoin="round"></line>
                    <line x1="56.1572365" y1="0.541989279" x2="56.1572365" y2="6.54556284" id="Path" stroke="#FFB900" stroke-width="3" stroke-linecap="round" stroke-linejoin="round"></line>
                    <line x1="59.1590232" y1="3.54377606" x2="53.1554497" y2="3.54377606" id="Path" stroke="#FFB900" stroke-width="3" stroke-linecap="round" stroke-linejoin="round"></line>
                    <path d="M7.69873521,20.9091742 C11.1834259,20.9091742 13.506553,19.5585189 15.4650032,16.0468151 L13.6821382,15.0608368 C12.1558977,17.8431867 10.3730327,18.8966978 7.86081385,18.8966978 L4.713787,18.8966978 L4.713787,15.0338236 L11.5886225,11.8327706 L11.5886225,10.0499056 L4.713787,13.2509587 L4.713787,10.6441939 L11.5886225,7.44314086 L11.5886225,5.64676931 L4.713787,8.84782237 L4.713787,2 L2.63377784,2 L2.63377784,9.82029419 L0,11.0493905 L0,12.8322555 L2.63377784,11.6166657 L2.63377784,14.2234305 L0,15.4390202 L0,17.2218852 L2.63377784,16.0062955 L2.63377784,20.9091742 L7.69873521,20.9091742 Z" id="₺" fill="#FFB900" fill-rule="nonzero"></path>
                    <path d="M60.6987352,48.9091742 C64.1834259,48.9091742 66.506553,47.5585189 68.4650032,44.0468151 L66.6821382,43.0608368 C65.1558977,45.8431867 63.3730327,46.8966978 60.8608138,46.8966978 L57.713787,46.8966978 L57.713787,43.0338236 L64.5886225,39.8327706 L64.5886225,38.0499056 L57.713787,41.2509587 L57.713787,38.6441939 L64.5886225,35.4431409 L64.5886225,33.6467693 L57.713787,36.8478224 L57.713787,30 L55.6337778,30 L55.6337778,37.8202942 L53,39.0493905 L53,40.8322555 L55.6337778,39.6166657 L55.6337778,42.2234305 L53,43.4390202 L53,45.2218852 L55.6337778,44.0062955 L55.6337778,48.9091742 L60.6987352,48.9091742 Z" id="₺-copy" fill="#FFB900" fill-rule="nonzero"></path>
                    <path d="M41.1483026,14.0500298 L32.1429422,6.54556284 L23.1375819,14.0500298 C20.4966926,16.2304358 19.3313273,19.7265317 20.1357951,23.0553901 L26.1393687,45.5687909 L38.1465158,45.5687909 L44.1500893,23.0553901 C44.9545571,19.7265317 43.7891918,16.2304358 41.1483026,14.0500298 L41.1483026,14.0500298 Z" id="Path" stroke="#FFB900" stroke-width="3" stroke-linecap="round" stroke-linejoin="round"></path>
                    <path d="M22.9364622,33.5616438 L20.3789398,34.8854318 C18.3860292,35.9164669 17.1344072,37.9727856 17.1340083,40.2166051 L17.1340083,48.7686957 C17.1342941,49.3218525 17.4388163,49.8300143 17.9264784,50.091105 C18.4141404,50.3521956 19.0058844,50.3238879 19.4663967,50.017439 L26.1393687,45.5687909" id="Path" stroke="#FFB900" stroke-width="3" stroke-linecap="round" stroke-linejoin="round"></path>
                    <path d="M41.3494223,33.5616438 L43.9069446,34.8854318 C45.8998553,35.9164669 47.1514772,37.9727856 47.1518761,40.2166051 L47.1518761,48.7686957 C47.1515904,49.3218525 46.8470681,49.8300143 46.3594061,50.091105 C45.8717441,50.3521956 45.2800001,50.3238879 44.8194878,50.017439 L38.1465158,45.5687909" id="Path" stroke="#FFB900" stroke-width="3" stroke-linecap="round" stroke-linejoin="round"></path>
                    <circle id="Oval" stroke="#FFB900" stroke-width="3" stroke-linecap="round" stroke-linejoin="round" cx="32.1429422" cy="21.5544967" r="4.50268017"></circle>
                    <path d="M18.6349017,56.0750447 C15.7862061,56.0750447 12.6313282,57.7290292 12.6313282,60.5777248 C12.6313282,60.8088624 12.6013103,61.8534842 12.6313282,62.0786182 L11.1304348,62.0786182 C9.12472682,62.0269288 7.18575628,62.8009655 5.76703569,64.2196861 C4.3483151,65.6384067 3.57427845,67.5773772 3.62596784,69.5830852" id="Path" stroke="#FFB900" stroke-width="3" stroke-linecap="round" stroke-linejoin="round"></path>
                    <path d="M44.1500893,56.0750447 C46.998785,56.0750447 50.1536629,57.7290292 50.1536629,60.5777248 C50.1536629,60.8088624 50.1836808,61.8534842 50.1536629,62.0786182 L51.6545563,62.0786182 C53.6602642,62.0269288 55.5992348,62.8009655 57.0179554,64.2196861 C58.436676,65.6384067 59.2107126,67.5773772 59.1590232,69.5830852" id="Path" stroke="#FFB900" stroke-width="3" stroke-linecap="round" stroke-linejoin="round"></path>
                </g>
            </g>
        </g>
    </g>
</svg>