<?xml version="1.0" encoding="UTF-8"?>
<svg width="72px" height="72px" viewBox="0 0 72 72" version="1.1" xmlns="http://www.w3.org/2000/svg" xmlns:xlink="http://www.w3.org/1999/xlink">
    <title>486D6A96-B42D-47F7-AFBB-14D30669833B</title>
    <g id="02---B2B" stroke="none" stroke-width="1" fill="none" fill-rule="evenodd" stroke-linecap="round" stroke-linejoin="round">
        <g id="005.0.0-Abonelik" transform="translate(-935.000000, -7084.000000)" stroke="#7DE6E1" stroke-width="2.83333333">
            <g id="Group-30" transform="translate(135.000000, 6822.000000)">
                <g id="Group-29-Copy" transform="translate(800.000000, 262.000000)">
                    <g id="car" transform="translate(3.000000, 12.000000)">
                        <path d="M12.0135,17.6801667 L53.9865,17.6801667 C60.2457272,17.6801667 65.3198333,22.7542728 65.3198333,29.0135 L65.3198333,34.4988333 C65.3198333,37.6284469 62.7827802,40.1655 59.6531667,40.1655 L6.36666667,40.1655 C3.23705308,40.1655 0.7,37.6284469 0.7,34.4988333 L0.7,29.0021667 C0.706237508,22.7551015 5.7664413,17.6910959 12.0135,17.6801667 Z" id="Path"></path>
                        <circle id="Oval" cx="10.526" cy="30.3225" r="4.21316667"></circle>
                        <circle id="Oval" cx="55.474" cy="30.3225" r="4.21316667"></circle>
                        <path d="M10.526,17.6801667 L12.5518333,5.51666667 C13.0056748,2.80925307 15.3486449,0.825634238 18.0938333,0.824666667 L47.9061667,0.824666667 C50.6513551,0.825634238 52.9943252,2.80925307 53.4481667,5.51666667 L55.474,17.6773333" id="Path"></path>
                        <path d="M14.7391667,40.1541667 L14.7391667,44.3701667 C14.7391667,46.6970344 12.8528677,48.5833333 10.526,48.5833333 C8.1991323,48.5833333 6.31283333,46.6970344 6.31283333,44.3701667 L6.31283333,40.1541667" id="Path"></path>
                        <path d="M59.6871667,40.1541667 L59.6871667,44.3701667 C59.6871667,46.6970344 57.8008677,48.5833333 55.474,48.5833333 C53.1471323,48.5833333 51.2608333,46.6970344 51.2608333,44.3701667 L51.2608333,40.1541667" id="Path"></path>
                        <path d="M54.3973333,11.2201667 L59.2621667,8.41233333 C61.2792026,7.24889948 63.8574828,7.94088071 65.0209167,9.95791667 C66.1843505,11.9749526 65.4923693,14.5532328 63.4753333,15.7166667 L58.5,18.584" id="Path"></path>
                        <path d="M11.6026667,11.2201667 L6.73783333,8.41233333 C4.72079738,7.24889948 2.14251718,7.94088071 0.979083333,9.95791667 C-0.184350516,11.9749526 0.507630713,14.5532328 2.52466667,15.7166667 L7.5,18.584" id="Path"></path>
                    </g>
                </g>
            </g>
        </g>
    </g>
</svg>