<?xml version="1.0" encoding="UTF-8"?>
<svg width="100%" height="100%" viewBox="0 0 48 48" version="1.1" xmlns="http://www.w3.org/2000/svg" xmlns:xlink="http://www.w3.org/1999/xlink">
    <g id="05---Landings" stroke="none" stroke-width="1" fill="none" fill-rule="evenodd">
        <g id="009.0.0-Passive-Campaign-Page" transform="translate(-1325.000000, -294.000000)" fill-rule="nonzero">
            <g id="Banner-Copy" transform="translate(67.000000, 129.000000)">
                <g id="righ-arrow-passive" transform="translate(1258.000000, 165.000000)">
                    <rect id="Main-Action-BG" fill="#1E64FF" x="0" y="0" width="48" height="48" rx="24"></rect>
                    <path d="M18,23.5772946 C17.9993476,23.0479563 18.2262495,22.5439795 18.6227222,22.1941561 L27.5260325,14.3457053 C28.1396448,13.8297849 29.0520762,13.899062 29.5810984,14.501738 C30.1101206,15.104414 30.0622291,16.0200434 29.4732325,16.5640066 L21.6876261,23.4269013 C21.6443911,23.4648749 21.6195985,23.5196857 21.6195985,23.5772946 C21.6195985,23.6349035 21.6443911,23.6897143 21.6876261,23.7276879 L29.4732325,30.5905825 C29.8830601,30.9351625 30.0744775,31.4751344 29.9734138,32.0015514 C29.8723502,32.5279683 29.4946613,32.9582414 28.9864973,33.1258725 C28.4783334,33.2935036 27.9194195,33.1721934 27.5260325,32.8088838 L18.6259156,24.9628329 C18.2284832,24.6124105 18.0005041,24.1077506 18,23.5772946 Z" id="RightArrow" fill="#FFFFFF" transform="translate(24.000000, 23.600000) rotate(180.000000) translate(-24.000000, -23.600000) "></path>
                </g>
            </g>
        </g>
    </g>
</svg>