<?xml version="1.0" encoding="UTF-8"?>
<svg width="120px" height="120px" viewBox="0 0 120 120" version="1.1" xmlns="http://www.w3.org/2000/svg" xmlns:xlink="http://www.w3.org/1999/xlink">
    <title>2773A73C-E331-478C-853C-B7F930E25EC2</title>
    <g id="02---B2B" stroke="none" stroke-width="1" fill="none" fill-rule="evenodd">
        <g id="006.0.0-Link-B2B_AlicilarIcin" transform="translate(-535.000000, -2306.000000)">
            <g id="Group-Copy" transform="translate(135.000000, 2188.000000)">
                <g id="Group-16" transform="translate(0.000000, 118.000000)">
                    <g id="icons/big/trust_card" transform="translate(400.000000, 0.000000)">
                        <path d="M87.4877207,55.8900915 C96.9913553,55.9764787 106.406881,57.7220341 115.309907,61.0480911 L115.309907,61.0480911 L115.432121,61.0974578 C118.25226,62.3240521 120.074572,65.1083826 120.069999,68.18 L120.069999,68.18 L120.069999,85.145 C120.069999,99.622249 108.801705,113.507069 93.9025274,119.172155 L93.9025274,119.172155 L91.1411445,120.220779 C88.7719985,121.124653 86.1530015,121.124653 83.7874726,120.222155 L83.7874726,120.222155 L81.0199378,119.171191 C66.1849436,113.519228 55.069999,99.6607416 55.069999,85.145 L55.069999,85.145 L55.069999,68.1811044 C55.0686411,65.1055379 56.8929756,62.3225566 59.7138317,61.0970437 L59.7138317,61.0970437 L59.8271045,61.051091 C68.6568901,57.7180077 78.0060261,55.9708323 87.4436127,55.8900915 L87.4436127,55.8900915 Z M87.463,60.889 L86.6018019,60.9026843 C78.0537715,61.0764752 69.5958208,62.7079506 61.5928955,65.728909 L61.67,65.699 L61.5344825,65.7647598 C60.6948712,66.2013543 60.1419916,67.0448136 60.0765328,67.9897502 L60.0765328,67.9897502 L60.0699995,68.18 L60.0699995,85.145 C60.0699995,97.4271895 69.7850459,109.540236 82.7975274,114.497845 L82.7975274,114.497845 L85.5661445,115.549221 C86.7874484,116.015172 88.1375516,116.015172 89.3624726,115.547845 L89.3624726,115.547845 L92.1264898,114.498218 C105.210585,109.523277 115.069999,97.3744824 115.069999,85.145 L115.069999,85.145 L115.069999,68.1762808 C115.071612,67.0940339 114.430319,66.1141953 113.437879,65.6825422 L113.473,65.699 L112.722741,65.4246268 C104.892763,62.6028704 96.6552574,61.0757097 88.3341335,60.9031942 L88.3341335,60.9031942 L87.463,60.889 Z M90.07,0.9 C95.4992399,0.9 99.9179317,5.22667079 100.066158,10.6200952 L100.07,10.9 L100.07,48.4 C100.07,49.7807119 98.9507119,50.9 97.57,50.9 C96.2445166,50.9 95.1599613,49.8684641 95.0753177,48.5643757 L95.07,48.4 L95.07,25.9 L5.07,25.9 L5.07,60.9 C5.07,63.5887547 7.19230671,65.7818181 9.85311038,65.8953805 L10.07,65.9 L47.57,65.9 C48.9507119,65.9 50.07,67.0192881 50.07,68.4 C50.07,69.7254834 49.0384641,70.8100387 47.7343757,70.8946823 L47.57,70.9 L10.07,70.9 C4.64076009,70.9 0.222068282,66.5733292 0.0738417975,61.1799048 L0.07,60.9 L0.07,10.9 C0.07,5.47076009 4.39667079,1.05206828 9.79009516,0.903841798 L10.07,0.9 L90.07,0.9 Z M27.57,45.9 C28.9507119,45.9 30.07,47.0192881 30.07,48.4 C30.07,49.7254834 29.0384641,50.8100387 27.7343757,50.8946823 L27.57,50.9 L12.57,50.9 C11.1892881,50.9 10.07,49.7807119 10.07,48.4 C10.07,47.0745166 11.1015359,45.9899613 12.4056243,45.9053177 L12.57,45.9 L27.57,45.9 Z M87.57,35.9 C88.9507119,35.9 90.07,37.0192881 90.07,38.4 C90.07,39.7254834 89.0384641,40.8100387 87.7343757,40.8946823 L87.57,40.9 L72.57,40.9 C71.1892881,40.9 70.07,39.7807119 70.07,38.4 C70.07,37.0745166 71.1015359,35.9899613 72.4056243,35.9053177 L72.57,35.9 L87.57,35.9 Z M37.57,35.9 C38.9507119,35.9 40.07,37.0192881 40.07,38.4 C40.07,39.7254834 39.0384641,40.8100387 37.7343757,40.8946823 L37.57,40.9 L12.57,40.9 C11.1892881,40.9 10.07,39.7807119 10.07,38.4 C10.07,37.0745166 11.1015359,35.9899613 12.4056243,35.9053177 L12.57,35.9 L37.57,35.9 Z M90.07,5.9 L10.07,5.9 C7.3812453,5.9 5.18818189,8.02230671 5.07461951,10.6831104 L5.07,10.9 L5.07,20.9 L95.07,20.9 L95.07,10.9 C95.07,8.2112453 92.9476933,6.01818189 90.2868896,5.90461951 L90.07,5.9 Z" id="Combined-Shape" fill="#5EADA9" fill-rule="nonzero"></path>
                        <rect id="Rectangle" x="0" y="1" width="120" height="120"></rect>
                        <polyline id="Path-7" stroke="#5EADA9" stroke-width="5" stroke-linecap="round" stroke-linejoin="round" points="75.2170333 83.5755654 85.07 95.4 101.971658 76.0599601"></polyline>
                    </g>
                </g>
            </g>
        </g>
    </g>
</svg>