<?xml version="1.0" encoding="UTF-8"?>
<svg width="120px" height="120px" viewBox="0 0 120 120" version="1.1" xmlns="http://www.w3.org/2000/svg" xmlns:xlink="http://www.w3.org/1999/xlink">
    <title>DC7C6064-E956-497E-ACBA-E6F2CFE75220</title>
    <g id="02---B2B" stroke="none" stroke-width="1" fill="none" fill-rule="evenodd">
        <g id="006.0.0-Link-B2B" transform="translate(-535.000000, -2307.000000)">
            <g id="Group" transform="translate(135.000000, 2188.000000)">
                <g id="Group-16" transform="translate(0.000000, 119.000000)">
                    <g id="icons/big/trust" transform="translate(400.000000, 0.000000)">
                        <path d="M102.5,15 C109.127417,15 114.550193,20.1576797 114.973412,26.6781216 L115,27.5 L115,85 L117.5,85 C118.825483,85 119.910039,86.0315359 119.994682,87.3356243 L120,87.5 L120,97.5 C120,101.642136 116.642136,105 112.5,105 L112.5,105 L7.5,105 C3.35786438,105 0,101.642136 0,97.5 L0,97.5 L0,87.5 C0,86.1192881 1.11928813,85 2.5,85 L2.5,85 L5,85 L5,27.5 C5,20.872583 10.1576797,15.4498066 16.6781216,15.0265884 L17.5,15 L102.5,15 Z M45,90 L5,90 L5,97.5 C5,98.7272994 5.8843758,99.7480419 7.05062184,99.9597217 L7.05062184,99.9597217 L7.5,100 L112.5,100 C113.880712,100 115,98.8807119 115,97.5 L115,97.5 L115,90 L75,90 L75,92.5 C75,93.7272994 74.1156242,94.7480419 72.9493782,94.9597217 L72.9493782,94.9597217 L72.5,95 L47.5,95 C46.1192881,95 45,93.8807119 45,92.5 L45,92.5 L45,90 Z M102.5,20 L17.5,20 C13.6015194,20 10.3977566,22.9744404 10.0343329,26.7776999 L10,27.5 L10,85 L47.5,85 C48.8254834,85 49.9100387,86.0315359 49.9946823,87.3356243 L50,87.5 L50,90 L70,90 L70,87.5 C70,86.2727006 70.8843758,85.2519581 72.0506218,85.0402783 L72.0506218,85.0402783 L72.5,85 L110,85 L110,27.5 C110,23.6015194 107.02556,20.3977566 103.2223,20.0343329 L102.5,20 Z M60,30 L60.930255,30.0342049 C67.4349044,30.5141002 72.5,35.9433239 72.5,42.5 L72.5,42.5 L72.5011254,45.4271621 C75.4135184,46.4570708 77.5,49.2348735 77.5,52.5 L77.5,52.5 L77.5,67.5 C77.5,71.6421356 74.1421356,75 70,75 L70,75 L50,75 C45.8578644,75 42.5,71.6421356 42.5,67.5 L42.5,67.5 L42.5,52.5 C42.5,49.2345009 44.5869577,46.4564369 47.4998716,45.4268097 L47.5,42.5 C47.5,35.5964406 53.0964406,30 60,30 L60,30 Z M70,50 L50,50 C48.6192881,50 47.5,51.1192881 47.5,52.5 L47.5,52.5 L47.5,67.5 C47.5,68.8807119 48.6192881,70 50,70 L50,70 L70,70 C71.3807119,70 72.5,68.8807119 72.5,67.5 L72.5,67.5 L72.5,52.5 C72.5,51.1192881 71.3807119,50 70,50 L70,50 Z M60,56.35 L60.5088528,56.3842331 C62.3392306,56.6325452 63.75,58.2015212 63.75,60.1 C63.75,62.1710678 62.0710678,63.85 60,63.85 C57.9289322,63.85 56.25,62.1710678 56.25,60.1 C56.25,58.2015212 57.6607694,56.6325452 59.4911472,56.3842331 L60,56.35 Z M60,35 C55.8578644,35 52.5,38.3578644 52.5,42.5 L52.5,42.5 L52.5,45 L67.5,45 L67.5,42.5 C67.5,38.7980672 64.8071789,35.6938993 61.3176526,35.1060143 L61.3176526,35.1060143 L60.6544929,35.025742 Z" id="Combined-Shape" fill="#5EADA9" fill-rule="nonzero"></path>
                        <rect id="Rectangle" x="0" y="0" width="120" height="120"></rect>
                    </g>
                </g>
            </g>
        </g>
    </g>
</svg>