<?xml version="1.0" encoding="UTF-8"?>
<svg width="72px" height="72px" viewBox="0 0 72 72" version="1.1" xmlns="http://www.w3.org/2000/svg" xmlns:xlink="http://www.w3.org/1999/xlink">
    <title>3033B83B-BE94-4102-B2E5-4AF713FBFE3D</title>
    <g id="02---B2B" stroke="none" stroke-width="1" fill="none" fill-rule="evenodd" stroke-linecap="round" stroke-linejoin="round">
        <g id="005.0.0-Masspayout" transform="translate(-535.000000, -1166.000000)" stroke="#37B24D" stroke-width="3">
            <g id="Group-30" transform="translate(135.000000, 1166.000000)">
                <g id="Group-28" transform="translate(400.000000, 0.000000)">
                    <g id="password-lock-2" transform="translate(3.000000, 12.000000)">
                        <path d="M29.4583333,12.4583333 C29.849535,12.4583333 30.1666667,12.775465 30.1666667,13.1666667 C30.1666667,13.5578684 29.849535,13.875 29.4583333,13.875 C29.0671316,13.875 28.75,13.5578684 28.75,13.1666667 C28.75,12.775465 29.0671316,12.4583333 29.4583333,12.4583333" id="Path"></path>
                        <path d="M16,12.4583333 C16.3912017,12.4583333 16.7083333,12.775465 16.7083333,13.1666667 C16.7083333,13.5578684 16.3912017,13.875 16,13.875 C15.6087983,13.875 15.2916667,13.5578684 15.2916667,13.1666667 C15.2916667,12.775465 15.6087983,12.4583333 16,12.4583333" id="Path"></path>
                        <rect id="Rectangle" x="40.0833333" y="25.9195" width="25.5" height="22.6638333" rx="2.83333333"></rect>
                        <circle id="Oval" cx="52.8333333" cy="37.4285" r="3.54166667"></circle>
                        <path d="M59.9166667,21.6666667 C59.9166667,17.7546498 56.7453502,14.5833335 52.8333333,14.5833335 C48.9213164,14.5833335 45.75,17.7546498 45.75,21.6666667 L45.75,25.9166667 L59.9166667,25.9166667 L59.9166667,21.6666667 Z" id="Path"></path>
                        <path d="M34.4166667,25.9166667 L6.08333333,25.9166667 C2.95371975,25.9166667 0.416666667,23.3796136 0.416666667,20.25 L0.416666667,6.08333333 C0.416666667,2.95371975 2.95371975,0.416666667 6.08333333,0.416666667 L59.9166667,0.416666667 C63.0462802,0.416666667 65.5833333,2.95371975 65.5833333,6.08333333 L65.5833333,20.25" id="Path"></path>
                    </g>
                </g>
            </g>
        </g>
    </g>
</svg>