<?xml version="1.0" encoding="UTF-8"?>
<svg width="72px" height="72px" viewBox="0 0 72 72" version="1.1" xmlns="http://www.w3.org/2000/svg" xmlns:xlink="http://www.w3.org/1999/xlink">
    <title>7925201A-75F7-431B-89D7-2EC95B3B103D</title>
    <g id="02---B2B" stroke="none" stroke-width="1" fill="none" fill-rule="evenodd" stroke-linecap="round" stroke-linejoin="round">
        <g id="003.1.0-Sanal-Pos" transform="translate(-535.000000, -2840.000000)" stroke="#37B24D" stroke-width="3">
            <g id="Group-30" transform="translate(135.000000, 2840.000000)">
                <g id="Group-28" transform="translate(400.000000, 0.000000)">
                    <g id="credit-card-lock" transform="translate(2.000000, 2.000000)">
                        <path d="M32.5397436,35.4602564 L6.25512821,35.4602564 C3.02921882,35.4602564 0.414102564,32.8451402 0.414102564,29.6192308 L0.414102564,6.25512821 C0.414102564,3.02921882 3.02921882,0.414102564 6.25512821,0.414102564 L44.2217949,0.414102564 C47.4477043,0.414102564 50.0628205,3.02921882 50.0628205,6.25512821 L50.0628205,17.9371795" id="Path"></path>
                        <line x1="0.414102564" y1="9.16103846" x2="50.0628205" y2="9.16103846" id="Path"></line>
                        <line x1="23.7782051" y1="15.0020641" x2="9.17564103" y2="15.0020641" id="Path"></line>
                        <line x1="44.2217949" y1="15.0020641" x2="38.3807692" y2="15.0020641" id="Path"></line>
                        <line x1="17.9371795" y1="20.8430897" x2="9.17564103" y2="20.8430897" id="Path"></line>
                        <rect id="Rectangle" x="41.3012821" y="44.2101128" width="26.2846154" height="23.3611821" rx="2.92051282"></rect>
                        <circle id="Oval" cx="54.4435897" cy="56.0732359" r="3.65064103"></circle>
                        <path d="M61.7448718,39.8410256 C61.7448718,37.2325288 60.3532554,34.8221782 58.0942308,33.5179297 C55.8352063,32.2136813 53.0519732,32.2136813 50.7929487,33.5179297 C48.5339241,34.8221782 47.1423077,37.2325288 47.1423077,39.8410256 L47.1423077,44.2217949 L61.7448718,44.2217949 L61.7448718,39.8410256 Z" id="Path"></path>
                    </g>
                </g>
            </g>
        </g>
    </g>
</svg>