<?xml version="1.0" encoding="UTF-8"?>
<svg width="72px" height="72px" viewBox="0 0 72 72" version="1.1" xmlns="http://www.w3.org/2000/svg" xmlns:xlink="http://www.w3.org/1999/xlink">
    <title>80799E0F-C787-4F75-81E6-077F5B7835B3</title>
    <g id="02---B2B" stroke="none" stroke-width="1" fill="none" fill-rule="evenodd" stroke-linecap="round" stroke-linejoin="round">
        <g id="005.0.0-Abonelik" transform="translate(-135.000000, -7084.000000)" stroke="#FF6B6B" stroke-width="3">
            <g id="Group-30" transform="translate(135.000000, 6822.000000)">
                <g id="Group-27-Copy" transform="translate(0.000000, 262.000000)">
                    <g id="room-service-bring-plate" transform="translate(3.000000, 3.000000)">
                        <path d="M17.0653333,54.3491667 C17.0653333,54.3491667 19.1166667,42.4123333 13.28,35.8333333 C12.9636046,35.477184 12.9722187,34.9381903 13.2998333,34.5923333 C15.3143333,32.388 20.42,34.6518333 25.5568333,44.0698333 C26.897,46.5263333 29.6963333,46.3988333 32.1301667,45.0105 C36.7541667,42.3726667 42.8968333,35.4933333 47.1468333,34.4166667 C52.7256667,33 54.6495,36.4 53.5756667,37.4738333 L29.2316667,61.8065 L17.0653333,54.3491667 Z" id="Path"></path>
                        <polyline id="Path" points="25.4576667 65.5833333 29.2316667 61.8065 17.0653333 54.3491667 6.85683333 65.5833333"></polyline>
                        <line x1="65.4671667" y1="31.5833333" x2="0.532833333" y2="31.5833333" id="Path"></line>
                        <path d="M59.7268333,31.5833333 C59.7523333,31.1101667 59.8005,30.6455 59.8005,30.1666667 C59.8005,15.3010022 47.7494978,3.25 32.8838333,3.25 C18.0181688,3.25 5.96716667,15.3010022 5.96716667,30.1666667 C5.96716667,30.6455 6.0125,31.1101667 6.038,31.5833333" id="Path"></path>
                        <line x1="31.4671667" y1="3.25" x2="31.4671667" y2="0.416666667" id="Path"></line>
                    </g>
                </g>
            </g>
        </g>
    </g>
</svg>