<?xml version="1.0" encoding="UTF-8"?>
<svg width="120px" height="120px" viewBox="0 0 120 120" version="1.1" xmlns="http://www.w3.org/2000/svg" xmlns:xlink="http://www.w3.org/1999/xlink">
    <title>D5F3E7B2-9705-4A09-B370-8FA77018564E</title>
    <g id="02---B2B" stroke="none" stroke-width="1" fill="none" fill-rule="evenodd" stroke-linecap="round" stroke-linejoin="round">
        <g id="003.1.0-Sanal-Pos" transform="translate(-135.000000, -1102.000000)" stroke="#1E64FF" stroke-width="4">
            <g id="Group-3" transform="translate(135.000000, 952.000000)">
                <g id="Group-16" transform="translate(0.000000, 150.000000)">
                    <g id="shopping-basket-rating" transform="translate(2.000000, 2.000000)">
                        <path d="M83,30.5 L87.96,30.5 L93.11,16.935 C93.5662612,16.054165 94.4755098,15.5011547 95.4675,15.5011547 C96.4594902,15.5011547 97.3687388,16.054165 97.825,16.935 L102.96,30.5 L112.96,30.5 C113.995506,30.4562281 114.946528,31.0687755 115.33493,32.0296776 C115.723333,32.9905797 115.465075,34.0919248 114.69,34.78 L106,40.85 L110.81,51.895 C111.241655,52.9322283 110.963977,54.1292107 110.119748,54.8704572 C109.275519,55.6117037 108.052674,55.7322053 107.08,55.17 L95.455,48.63 L83.835,55.17 C82.8623265,55.7322053 81.6394809,55.6117037 80.7952521,54.8704572 C79.9510233,54.1292107 79.6733451,52.9322283 80.105,51.895 L84.91,40.85" id="Path"></path>
                        <path d="M33,30.5 L28.04,30.5 L22.89,16.955 C22.4337388,16.074165 21.5244902,15.5211547 20.5325,15.5211547 C19.5405098,15.5211547 18.6312612,16.074165 18.175,16.955 L13.04,30.5 L3.04,30.5 C2.00449386,30.4562281 1.05347152,31.0687755 0.665069509,32.0296776 C0.276667498,32.9905797 0.53492487,34.0919248 1.31,34.78 L10,40.85 L5.19,51.895 C4.75834506,52.9322283 5.03602325,54.1292107 5.88025205,54.8704572 C6.72448085,55.6117037 7.94732648,55.7322053 8.92,55.17 L20.545,48.63 L32.165,55.17 C33.1376735,55.7322053 34.3605191,55.6117037 35.2047479,54.8704572 C36.0489767,54.1292107 36.3266549,52.9322283 35.895,51.895 L31.08,40.85" id="Path"></path>
                        <path d="M60.36,1.955 L65.5,15.5 L75.5,15.5 C76.5345761,15.4584872 77.483554,16.0718323 77.8706084,17.0321759 C78.2576628,17.9925196 77.9992194,19.0925006 77.225,19.78 L68.55,25.85 L73.355,36.895 C73.7866549,37.9322283 73.5089767,39.1292107 72.6647479,39.8704572 C71.8205191,40.6117037 70.5976735,40.7322053 69.625,40.17 L58,33.63 L46.385,40.17 C45.4123265,40.7322053 44.1894809,40.6117037 43.3452521,39.8704572 C42.5010233,39.1292107 42.2233451,37.9322283 42.655,36.895 L47.46,25.85 L38.785,19.8 C37.9958803,19.1170515 37.7260033,18.0091855 38.1126196,17.0398268 C38.4992359,16.070468 39.457472,15.4524193 40.5,15.5 L50.5,15.5 L55.65,1.955 C56.1046964,1.07374945 57.0133592,0.520102876 58.005,0.520102876 C58.9966408,0.520102876 59.9053036,1.07374945 60.36,1.955 Z" id="Path"></path>
                        <line x1="34.495" y1="75.48" x2="45.285" y2="58.02" id="Path"></line>
                        <line x1="81.505" y1="75.48" x2="70.715" y2="58.02" id="Path"></line>
                        <path d="M84.79,107.725 C83.7522611,112.272083 79.7089965,115.497982 75.045,115.5 L40.955,115.5 C36.2969634,115.5 32.2557292,112.284136 31.21,107.745 L25.5,85.5 L90.5,85.5 L84.79,107.725 Z" id="Path"></path>
                        <rect id="Rectangle" x="20.5" y="75.48" width="75" height="10" rx="2.5"></rect>
                        <line x1="50.5" y1="95.52" x2="50.5" y2="105.52" id="Path"></line>
                        <line x1="65.5" y1="95.52" x2="65.5" y2="105.52" id="Path"></line>
                    </g>
                </g>
            </g>
        </g>
    </g>
</svg>