<?xml version="1.0" encoding="UTF-8"?>
<svg width="32px" height="32px" viewBox="0 0 32 32" version="1.1" xmlns="http://www.w3.org/2000/svg" xmlns:xlink="http://www.w3.org/1999/xlink">
    <title>758426A9-CF5E-4AB2-A9AE-CAAE77EEC1AD</title>
    <g id="05---Landings" stroke="none" stroke-width="1" fill="none" fill-rule="evenodd">
        <g id="009.0.0-Campaign-Page-Empty-State_M" transform="translate(-8.000000, -504.000000)" fill="#868E96" fill-rule="nonzero">
            <g id="Group" transform="translate(8.000000, 293.000000)">
                <g id="facebook" transform="translate(0.000000, 211.000000)">
                    <path d="M16,0 C24.836556,0 32,7.163444 32,16 C32,24.836556 24.836556,32 16,32 C7.163444,32 0,24.836556 0,16 C0,7.163444 7.163444,0 16,0 Z M16,2 C8.2680135,2 2,8.2680135 2,16 C2,23.7319865 8.2680135,30 16,30 C23.7319865,30 30,23.7319865 30,16 C30,8.2680135 23.7319865,2 16,2 Z" id="Oval"></path>
                    <path d="M20.6144,12.4 L17.2,12.4 L17.2,10.88 C17.1692835,10.6509941 17.2419998,10.4201889 17.3984382,10.2501471 C17.5548766,10.0801054 17.7788326,9.98844067 18.0096,10 C18.344,10 20.4,10.008 20.4,10.008 L20.4,6.8 L16.9368,6.8 C13.7952,6.8 13.2,9.1792 13.2,10.684 L13.2,12.4 L10.8,12.4 L10.8,15.6 L13.2,15.6 L13.2,25.2 L17.2,25.2 L17.2,15.6 L20.2808,15.6 L20.6144,12.4 Z" id="Path"></path>
                </g>
            </g>
        </g>
    </g>
</svg>