<?xml version="1.0" encoding="UTF-8"?>
<svg width="32px" height="32px" viewBox="0 0 32 32" version="1.1" xmlns="http://www.w3.org/2000/svg" xmlns:xlink="http://www.w3.org/1999/xlink">
    <title>A3676A31-326E-41CF-80AA-F3435E46A918</title>
    <g id="05---Landings" stroke="none" stroke-width="1" fill="none" fill-rule="evenodd">
        <g id="009.0.0-Campaign-Page-Empty-State_M" transform="translate(-200.000000, -504.000000)" fill="#868E96" fill-rule="nonzero">
            <g id="Group" transform="translate(8.000000, 293.000000)">
                <g id="Social-Media-Icons" transform="translate(0.000000, 211.000000)">
                    <g id="Instagram" transform="translate(192.000000, 0.000000)">
                        <path d="M16,0 C24.836556,0 32,7.163444 32,16 C32,24.836556 24.836556,32 16,32 C7.163444,32 0,24.836556 0,16 C0,7.163444 7.163444,0 16,0 Z M16,2 C8.2680135,2 2,8.2680135 2,16 C2,23.7319865 8.2680135,30 16,30 C23.7319865,30 30,23.7319865 30,16 C30,8.2680135 23.7319865,2 16,2 Z" id="Oval"></path>
                        <path d="M13.4496813,18.8878776 L13.4496813,13.1108224 L19.5408699,15.9941501 L13.4496813,18.8878776 Z M21.3919385,9.63210964 C18.8397075,9.45531407 13.1539183,9.45661404 10.6055118,9.63210964 C7.84548181,9.82450481 7.52167229,11.5248622 7.5,15.99935 C7.52167229,20.466038 7.84420697,22.1741952 10.6067867,22.3678904 C13.1551931,22.543386 18.8409824,22.5446859 21.3932133,22.3678904 C24.1532433,22.1741952 24.4783277,20.4738378 24.5,15.99935 C24.4770529,11.532662 24.1545182,9.82450481 21.3919385,9.63210964 L21.3919385,9.63210964 Z" id="Fill-1"></path>
                    </g>
                </g>
            </g>
        </g>
    </g>
</svg>