<?xml version="1.0" encoding="UTF-8"?>
<svg width="32px" height="32px" viewBox="0 0 32 32" version="1.1" xmlns="http://www.w3.org/2000/svg" xmlns:xlink="http://www.w3.org/1999/xlink">
    <title>C95B8655-7D05-4155-8052-26A65AC1E5C4</title>
    <g id="05---Landings" stroke="none" stroke-width="1" fill="none" fill-rule="evenodd">
        <g id="009.0.0-Campaign-Page-Empty-State_M" transform="translate(-152.000000, -504.000000)" fill="#868E96" fill-rule="nonzero">
            <g id="Group" transform="translate(8.000000, 293.000000)">
                <g id="Social-Media-Icons" transform="translate(0.000000, 211.000000)">
                    <g id="Instagram" transform="translate(144.000000, 0.000000)">
                        <path d="M16,0 C24.836556,0 32,7.163444 32,16 C32,24.836556 24.836556,32 16,32 C7.163444,32 0,24.836556 0,16 C0,7.163444 7.163444,0 16,0 Z M16,2 C8.2680135,2 2,8.2680135 2,16 C2,23.7319865 8.2680135,30 16,30 C23.7319865,30 30,23.7319865 30,16 C30,8.2680135 23.7319865,2 16,2 Z" id="Oval"></path>
                        <path d="M20.5361667,10.4438333 C19.97375,10.4438333 19.5161667,10.9 19.5161667,11.4638333 C19.5161667,12.02625 19.9723333,12.4838333 20.5361667,12.4838333 C21.0985833,12.4838333 21.5575833,12.0276667 21.5575833,11.4638333 C21.5575833,10.9 21.1,10.4438333 20.5361667,10.4438333 M16,18.8333333 C14.4345833,18.8333333 13.1666667,17.5654167 13.1666667,16 C13.1666667,14.436 14.4345833,13.1666667 16,13.1666667 C17.5625833,13.1666667 18.83475,14.4345833 18.83475,16 C18.83475,17.5654167 17.5625833,18.8333333 16,18.8333333 M16,11.63525 C13.59025,11.63525 11.63525,13.5888333 11.63525,16 C11.63525,18.4111667 13.59025,20.36475 16,20.36475 C18.40975,20.36475 20.36475,18.4111667 20.36475,16 C20.36475,13.59025 18.40975,11.63525 16,11.63525 M16,7.5 C13.6908333,7.5 13.40325,7.50991667 12.4951667,7.55241667 C9.40683333,7.69408333 7.69266667,9.40683333 7.551,12.4951667 C7.50991667,13.40325 7.5,13.69225 7.5,16 C7.5,18.3091667 7.50991667,18.5981667 7.551,19.5048333 C7.69266667,22.59175 9.40683333,24.3073333 12.4951667,24.449 C13.40325,24.4900833 13.6908333,24.5 16,24.5 C18.3091667,24.5 18.5981667,24.4900833 19.5048333,24.449 C22.5889167,24.3073333 24.3101667,22.5945833 24.449,19.5048333 C24.4900833,18.5981667 24.5,18.3091667 24.5,16 C24.5,13.69225 24.4900833,13.40325 24.449,12.4951667 C24.3101667,9.41108333 22.5945833,7.69266667 19.5048333,7.55241667 C18.5981667,7.50991667 18.3091667,7.5 16,7.5 M16,9.03283333 C18.2680833,9.03283333 18.5386667,9.04133333 19.4354167,9.08241667 C21.7403333,9.18725 22.81275,10.2795 22.9204167,12.566 C22.9600833,13.46275 22.9685833,13.7305 22.9685833,16 C22.9685833,18.2680833 22.9600833,18.5386667 22.9204167,19.434 C22.81275,21.7190833 21.74175,22.81275 19.4354167,22.919 C18.5386667,22.9586667 18.2695,22.9685833 16,22.9685833 C13.7305,22.9685833 13.4613333,22.9600833 12.566,22.919 C10.2568333,22.8113333 9.18725,21.71625 9.081,19.434 C9.04133333,18.5386667 9.03141667,18.2680833 9.03141667,16 C9.03141667,13.7305 9.04133333,13.4613333 9.081,12.566 C9.18583333,10.2780833 10.2596667,9.18583333 12.566,9.081 C13.4613333,9.03991667 13.7305,9.03283333 16,9.03283333" id="Fill-1"></path>
                    </g>
                </g>
            </g>
        </g>
    </g>
</svg>