<?xml version="1.0" encoding="UTF-8"?>
<svg width="32px" height="32px" viewBox="0 0 32 32" version="1.1" xmlns="http://www.w3.org/2000/svg" xmlns:xlink="http://www.w3.org/1999/xlink">
    <title>C42A31BB-EF8F-48DB-882B-E814E17F639C</title>
    <g id="05---Landings" stroke="none" stroke-width="1" fill="none" fill-rule="evenodd">
        <g id="009.0.0-Campaign-Page-Empty-State_M" transform="translate(-56.000000, -504.000000)" fill="#868E96" fill-rule="nonzero">
            <g id="Group" transform="translate(8.000000, 293.000000)">
                <g id="Social-Media-Icons" transform="translate(0.000000, 211.000000)">
                    <g id="Icons/Social-Media/Rounded/Linkedin" transform="translate(48.000000, 0.000000)">
                        <path d="M16,0 C24.836556,0 32,7.163444 32,16 C32,24.836556 24.836556,32 16,32 C7.163444,32 0,24.836556 0,16 C0,7.163444 7.163444,0 16,0 Z M16,2 C8.2680135,2 2,8.2680135 2,16 C2,23.7319865 8.2680135,30 16,30 C23.7319865,30 30,23.7319865 30,16 C30,8.2680135 23.7319865,2 16,2 Z" id="Oval"></path>
                        <path d="M12.4,22.8 L8.4,22.8 L8.4,12.4 L12.4,12.4 L12.4,22.8 Z M19.6,15.6 C18.7163444,15.6 18,16.3163444 18,17.2 L18,22.8 L14,22.8 L14,12.4 L18,12.4 L18,13.588 C18.8930398,12.8311135 20.0214738,12.4083042 21.192,12.392 C23.5616,12.392 25.2,14.152 25.2,17.476 L25.2,22.8 L21.2,22.8 L21.2,17.2 C21.2,16.3163444 20.4836556,15.6 19.6,15.6 Z M12.4,8.8 C12.4,9.9045695 11.5045695,10.8 10.4,10.8 C9.2954305,10.8 8.4,9.9045695 8.4,8.8 C8.4,7.6954305 9.2954305,6.8 10.4,6.8 C10.930433,6.8 11.4391408,7.01071368 11.8142136,7.38578644 C12.1892863,7.76085919 12.4,8.26956702 12.4,8.8 Z" id="Shape"></path>
                    </g>
                </g>
            </g>
        </g>
    </g>
</svg>