<?xml version="1.0" encoding="UTF-8"?>
<svg width="32px" height="32px" viewBox="0 0 32 32" version="1.1" xmlns="http://www.w3.org/2000/svg" xmlns:xlink="http://www.w3.org/1999/xlink">
    <title>F6323303-4974-41CC-AEF3-5FE60A023800</title>
    <g id="05---Landings" stroke="none" stroke-width="1" fill="none" fill-rule="evenodd">
        <g id="009.0.0-Campaign-Page-Empty-State_M" transform="translate(-104.000000, -504.000000)" fill="#868E96" fill-rule="nonzero">
            <g id="Group" transform="translate(8.000000, 293.000000)">
                <g id="Social-Media-Icons" transform="translate(0.000000, 211.000000)">
                    <g id="twitter" transform="translate(96.000000, 0.000000)">
                        <path d="M16,0 C24.836556,0 32,7.163444 32,16 C32,24.836556 24.836556,32 16,32 C7.163444,32 0,24.836556 0,16 C0,7.163444 7.163444,0 16,0 Z M16,2 C8.2680135,2 2,8.2680135 2,16 C2,23.7319865 8.2680135,30 16,30 C23.7319865,30 30,23.7319865 30,16 C30,8.2680135 23.7319865,2 16,2 Z" id="Oval"></path>
                        <path d="M25.6,12.2357333 L24,11.8357333 L24.8,10.2357333 L22.8288,10.7957333 C21.7828036,9.81990044 20.2566965,9.55953234 18.9463161,10.1333454 C17.6359357,10.7071585 16.7922726,12.0052444 16.8,13.4357333 L16.8,14.2357333 C13.9688,14.8197333 11.4928,13.2757333 9.2,10.6357333 C8.8,12.7690667 9.2,14.3690667 10.4,15.4357333 L8,15.0357333 C8.324,16.6909333 9.0896,17.9957333 11.2,18.2357333 L9.2,19.0357333 C10,20.6357333 11.2528,20.8837333 13.2,21.0357333 C11.6855357,22.1178416 9.86082319,22.6792916 8,22.6357333 C18.204,27.1709333 24,20.5045333 24,14.6357333 L24,13.5733333 L25.6,12.2357333 Z" id="Path"></path>
                    </g>
                </g>
            </g>
        </g>
    </g>
</svg>