<?xml version="1.0" encoding="UTF-8"?>
<svg width="120px" height="120px" viewBox="0 0 120 120" version="1.1" xmlns="http://www.w3.org/2000/svg" xmlns:xlink="http://www.w3.org/1999/xlink">
    <title>4417FE45-BEAA-42B5-8814-79A3DA5FE95B</title>
    <g id="02---B2B" stroke="none" stroke-width="1" fill="none" fill-rule="evenodd">
        <g id="006.0.0-Link-B2B_AlicilarIcin" transform="translate(-135.000000, -2307.000000)">
            <g id="Group-Copy" transform="translate(135.000000, 2188.000000)">
                <g id="Group-16" transform="translate(0.000000, 118.000000)">
                    <g id="icons/big/click" transform="translate(0.000000, 1.000000)">
                        <path d="M43.5076929,42.8882873 C44.803665,41.5937402 46.7002144,41.1024747 48.4616407,41.6045074 L48.4616407,41.6045074 L103.504693,57.2676939 C105.22467,57.7570955 106.557078,59.1189465 107.00741,60.8478133 C107.457743,62.57668 106.958783,64.4145139 105.693573,65.6813677 L105.693573,65.6813677 L96.411753,74.9473999 L118.52192,97.0226296 C120.341137,98.840395 120.481077,101.70016 118.941527,103.678444 L118.941527,103.678444 L118.52165,104.153538 L104.140909,118.518463 C103.19378,119.466946 101.907756,120 100.566616,120 C99.2254763,120 97.9394529,119.466946 96.9945779,118.520718 L96.9945779,118.520718 L74.8852195,96.4351334 L66.3237212,104.992796 C65.2158796,106.096766 63.6687588,106.616358 62.139808,106.427651 L62.139808,106.427651 L61.4869895,106.30305 C59.7562195,105.853213 58.3928694,104.52227 57.9029938,102.804411 L57.9029938,102.804411 L42.2227896,47.8378029 C41.7199145,46.0772982 42.2117208,44.1828343 43.5076929,42.8882873 Z M47.0774766,46.4541455 L62.7565167,101.424364 L73.1058116,91.0914925 C74.0916505,90.107218 75.6895613,90.1074127 76.6751598,91.0919274 L76.6751598,91.0919274 L100.566616,114.957115 L114.951597,100.587949 L91.0581824,76.7359371 C90.0718803,75.751344 90.0716269,74.154419 91.0576165,73.1695137 L91.0576165,73.1695137 L102.121648,62.1176509 L47.0774766,46.4541455 Z M99.2593397,37.4128422 C99.6192153,38.7581978 98.8191253,40.14024 97.4722887,40.4997199 C96.1254521,40.8591997 94.7418885,40.0599895 94.3820129,38.7146339 C88.6790298,17.3946541 68.4503594,3.26219249 46.4456478,5.22460074 C24.4409361,7.187009 7.03847157,24.6754633 5.2066102,46.6674101 C3.37474883,68.659357 17.6444742,88.7802081 39.0219206,94.3482735 C40.3709025,94.6996354 41.1793198,96.0768338 40.8275711,97.4243323 C40.4758225,98.7718308 39.0971079,99.5793592 37.748126,99.2279973 C13.9954078,93.041258 -1.85984261,70.6847567 0.175558913,46.2492602 C2.21096044,21.8137637 21.5470322,2.38214784 45.9967118,0.201694227 C70.4463914,-1.97875939 92.9226918,13.7239758 99.2593397,37.4128422 Z M74.9391681,32.5820155 C75.7617385,33.7063253 75.5161269,35.2838503 74.3905794,36.1055161 C73.2650318,36.927182 71.6857702,36.6818405 70.8631999,35.5575307 C64.9587271,27.4871489 54.839082,23.6628476 45.0654397,25.8083342 C35.2917974,27.9538208 27.7097422,35.663957 25.7366945,45.4635932 C23.7636469,55.2632294 27.7721829,65.3018728 35.9555559,71.0548575 C37.0956069,71.8563237 37.369369,73.429218 36.5670206,74.5680154 C35.7646722,75.7068128 34.1900464,75.9802738 33.0499953,75.1788077 C23.2299477,68.2752259 18.4197045,56.228854 20.7873617,44.4692905 C23.1550188,32.7097271 32.2534851,23.4575635 43.9818559,20.8829796 C55.7102267,18.3083957 67.8538008,22.8975573 74.9391681,32.5820155 Z" id="Combined-Shape" fill="#1E64FF" fill-rule="nonzero"></path>
                        <rect id="Rectangle" x="0" y="0" width="120" height="120"></rect>
                    </g>
                </g>
            </g>
        </g>
    </g>
</svg>