<?xml version="1.0" encoding="UTF-8"?>
<svg width="120px" height="120px" viewBox="0 0 120 120" version="1.1" xmlns="http://www.w3.org/2000/svg" xmlns:xlink="http://www.w3.org/1999/xlink">
    <title>B5CABA17-F7A4-4C54-97C2-7CC590C416B5</title>
    <g id="02---B2B" stroke="none" stroke-width="1" fill="none" fill-rule="evenodd">
        <g id="003.1.0-Sanal-Pos" transform="translate(-935.000000, -1102.000000)">
            <g id="Group-3" transform="translate(135.000000, 952.000000)">
                <g id="Group-16" transform="translate(0.000000, 150.000000)">
                    <g id="Group-13" transform="translate(800.000000, 0.000000)">
                        <rect id="Rectangle" x="0" y="0" width="120" height="120"></rect>
                        <g id="shipment-check" transform="translate(3.000000, 3.000000)" stroke="#FA7355" stroke-linecap="round" stroke-linejoin="round" stroke-width="4.91666667">
                            <circle id="Oval" cx="84.0416667" cy="84.0416667" r="29.5"></circle>
                            <path d="M97.1888333,75.467 L82.9059167,94.50925 C82.2631021,95.3631484 81.2822223,95.8970977 80.2161437,95.9734482 C79.1500651,96.0497986 78.1031056,95.6610792 77.3451667,94.9075 L69.9701667,87.5325" id="Path"></path>
                            <path d="M39.7916667,74.2083333 L5.375,74.2083333 C2.65959998,74.2083333 0.458333333,72.0070667 0.458333333,69.2916667 L0.458333333,22.1605 C0.458333333,20.8566255 0.976798907,19.6062559 1.89891667,18.6844167 L18.6844167,1.89891667 C19.6062559,0.976798907 20.8566255,0.458333333 22.1605,0.458333333 L47.5895,0.458333333 C48.8933745,0.458333333 50.1437441,0.976798907 51.0655833,1.89891667 L67.8510833,18.6844167 C68.7732011,19.6062559 69.2916667,20.8566255 69.2916667,22.1605 L69.2916667,39.7916667" id="Path"></path>
                            <line x1="68.8491667" y1="20.125" x2="0.900833333" y2="20.125" id="Path"></line>
                            <line x1="34.875" y1="0.458333333" x2="34.875" y2="20.125" id="Path"></line>
                        </g>
                    </g>
                </g>
            </g>
        </g>
    </g>
</svg>