<?xml version="1.0" encoding="UTF-8"?>
<svg width="72px" height="72px" viewBox="0 0 72 72" version="1.1" xmlns="http://www.w3.org/2000/svg" xmlns:xlink="http://www.w3.org/1999/xlink">
    <title>418B86FC-5C3A-4DDA-B822-37247610DB96</title>
    <g id="02---B2B" stroke="none" stroke-width="1" fill="none" fill-rule="evenodd" stroke-linecap="round" stroke-linejoin="round">
        <g id="005.0.0-Abonelik" transform="translate(-535.000000, -7084.000000)" stroke="#4B438B" stroke-width="3">
            <g id="Group-30" transform="translate(135.000000, 6822.000000)">
                <g id="Group-28-Copy" transform="translate(400.000000, 262.000000)">
                    <g id="fitness-dumbbell-lift" transform="translate(3.000000, 3.000000)">
                        <rect id="Rectangle" x="0.416666667" y="0.416666667" width="11.3333333" height="36.8333333" rx="2.83333333"></rect>
                        <rect id="Rectangle" x="54.25" y="0.416666667" width="11.3333333" height="36.8333333" rx="2.83333333"></rect>
                        <path d="M17.4166617,30.1666667 L17.4166617,31.5833333 C17.4145388,33.1834561 18.0910347,34.7094331 19.2781667,35.7823333 C21.4538911,37.7568387 22.4556429,40.7149526 21.9273333,43.6051667 L17.4166617,65.5833333" id="Path"></path>
                        <path d="M11.75,23.0833333 L20.25,23.0833333 C21.8148068,23.0833333 23.0833333,21.8148068 23.0833333,20.25 L23.0833333,11.75 C23.0833333,10.1851932 24.3518599,8.91666667 25.9166667,8.91666667 L42.9166667,8.91666667 C44.4814735,8.91666667 45.75,10.1851932 45.75,11.75 L45.75,28.0388333 C45.7494877,30.3043635 44.8496436,32.4770336 43.2481667,34.0795 C41.2647824,36.0617943 40.380573,38.8912647 40.8823333,41.6501667 L45.75,65.5833333" id="Path"></path>
                        <line x1="11.75" y1="14.5833333" x2="23.089" y2="14.5833333" id="Path"></line>
                        <line x1="45.7556667" y1="14.5833333" x2="54.25" y2="14.5833333" id="Path"></line>
                        <line x1="45.75" y1="23.0833333" x2="54.25" y2="23.0833333" id="Path"></line>
                        <line x1="28.75" y1="8.92233333" x2="28.75" y2="18.839" id="Path"></line>
                        <line x1="34.4166667" y1="8.92233333" x2="34.4166667" y2="18.839" id="Path"></line>
                        <line x1="40.0833333" y1="8.92233333" x2="40.0833333" y2="18.839" id="Path"></line>
                    </g>
                </g>
            </g>
        </g>
    </g>
</svg>