<?xml version="1.0" encoding="UTF-8"?>
<svg width="120px" height="120px" viewBox="0 0 120 120" version="1.1" xmlns="http://www.w3.org/2000/svg" xmlns:xlink="http://www.w3.org/1999/xlink">
    <title>5E12A769-D73D-4C08-AB03-6439F29C3488</title>
    <g id="05---Landings" stroke="none" stroke-width="1" fill="none" fill-rule="evenodd" stroke-linecap="round" stroke-linejoin="round">
        <g id="004.0.0-KadınGirisimci" transform="translate(-735.000000, -1582.000000)" stroke="#5EADA9" stroke-width="5">
            <g id="Avantajlar" transform="translate(135.000000, 1424.000000)">
                <g id="Card-02" transform="translate(600.000000, 158.000000)">
                    <g id="study-owl" transform="translate(17.000000, 7.000000)">
                        <path d="M44.295,24.0504311 L71.965,13.3762037 C72.4488582,13.1905232 72.7684087,12.724664 72.7684087,12.204948 C72.7684087,11.685232 72.4488582,11.2193728 71.965,11.0336923 L44.295,0.334384423 C43.139595,-0.111461474 41.860405,-0.111461474 40.705,0.334384423 L10,12.2024399 L40.705,24.0504311 C41.860405,24.496277 43.139595,24.496277 44.295,24.0504311 Z" id="Path"></path>
                        <line x1="65" y1="32.2667773" x2="65" y2="16.0598088" id="Path"></line>
                        <line x1="20" y1="16.0598088" x2="20" y2="32.2667773" id="Path"></line>
                        <line x1="10" y1="12.2024399" x2="10" y2="29.7587351" id="Path"></line>
                        <ellipse id="Oval" cx="57.5" cy="42.2989459" rx="12.5" ry="12.5402108"></ellipse>
                        <ellipse id="Oval" cx="27.5" cy="42.2989459" rx="12.5" ry="12.5402108"></ellipse>
                        <path d="M27.5,39.7909037 C26.1192881,39.7909037 25,40.9137925 25,42.2989459" id="Path"></path>
                        <path d="M30,42.2989459 C30,40.9137925 28.8807119,39.7909037 27.5,39.7909037" id="Path"></path>
                        <path d="M27.5,44.8069881 C28.8807119,44.8069881 30,43.6840993 30,42.2989459" id="Path"></path>
                        <path d="M25,42.2989459 C25,43.6840993 26.1192881,44.8069881 27.5,44.8069881" id="Path"></path>
                        <path d="M57.5,39.7909037 C56.1192881,39.7909037 55,40.9137925 55,42.2989459" id="Path"></path>
                        <path d="M60,42.2989459 C60,40.9137925 58.8807119,39.7909037 57.5,39.7909037" id="Path"></path>
                        <path d="M57.5,44.8069881 C58.8807119,44.8069881 60,43.6840993 60,42.2989459" id="Path"></path>
                        <path d="M55,42.2989459 C55,43.6840993 56.1192881,44.8069881 57.5,44.8069881" id="Path"></path>
                        <polyline id="Path" points="31.755 54.0867441 42.5 64.8713254 53.25 54.081728"></polyline>
                        <path d="M70,61.1092621 L70,77.4115362 C70,92.648224 57.6878306,105 42.5,105 C27.3121694,105 15,92.648224 15,77.4115362 L15,61.1092621" id="Path"></path>
                        <path d="M67.5,49.8230724 L70,49.8230724 C78.2842712,49.8230724 85,56.5604047 85,64.8713254 L85,74.903494 C85,81.5552354 82.366079,87.9345388 77.6776695,92.6380302 C72.9892601,97.3415217 66.6304122,99.9839157 60,99.9839157 L58.31,99.9839157" id="Path"></path>
                        <path d="M17.5,49.8230724 L15,49.8230724 C6.71572875,49.8230724 -2.22044605e-15,56.5604047 -2.22044605e-15,64.8713254 L-2.22044605e-15,74.903494 C-2.22044605e-15,88.7550284 11.1928813,99.9839157 25,99.9839157 L26.69,99.9839157" id="Path"></path>
                    </g>
                </g>
            </g>
        </g>
    </g>
</svg>