<?xml version="1.0" encoding="UTF-8"?>
<svg width="72px" height="72px" viewBox="0 0 72 72" version="1.1" xmlns="http://www.w3.org/2000/svg" xmlns:xlink="http://www.w3.org/1999/xlink">
    <title>594FCE74-1187-4E54-A813-58C70405E040</title>
    <g id="02---B2B" stroke="none" stroke-width="1" fill="none" fill-rule="evenodd" stroke-linecap="round" stroke-linejoin="round">
        <g id="005.0.0-Masspayout" transform="translate(-135.000000, -1166.000000)" stroke="#1E64FF" stroke-width="3">
            <g id="Group-30" transform="translate(135.000000, 1166.000000)">
                <g id="time-stopwatch-quarter" transform="translate(6.000000, 2.000000)">
                    <line x1="20.1285714" y1="1.62228571" x2="26.6047619" y2="1.62228571" id="Path"></line>
                    <line x1="23.3666667" y1="1.62228571" x2="23.3666667" y2="11.3365714" id="Path"></line>
                    <line x1="49.2714286" y1="11.3365714" x2="54.1285714" y2="16.1937143" id="Path"></line>
                    <line x1="51.7" y1="13.7651429" x2="45.411619" y2="20.0535238" id="Path"></line>
                    <line x1="0.7" y1="43.7175238" x2="7.17619048" y2="43.7175238" id="Path"></line>
                    <line x1="7.17619048" y1="27.5270476" x2="12.0333333" y2="32.3841905" id="Path"></line>
                    <line x1="23.3666667" y1="66.3841905" x2="23.3666667" y2="59.908" id="Path"></line>
                    <line x1="7.17619048" y1="59.908" x2="12.0333333" y2="55.0508571" id="Path"></line>
                    <line x1="39.5571429" y1="59.908" x2="34.7" y2="55.0508571" id="Path"></line>
                    <line x1="39.5571429" y1="27.5270476" x2="34.7" y2="32.3841905" id="Path"></line>
                    <path d="M23.3666667,43.7142857 L55.747619,43.7142857 C55.696043,25.8521866 41.2287657,11.3849094 23.3666667,11.3333333 L23.3666667,43.7142857 Z" id="Path"></path>
                </g>
            </g>
        </g>
    </g>
</svg>