<?xml version="1.0" encoding="UTF-8"?>
<svg width="120px" height="120px" viewBox="0 0 120 120" version="1.1" xmlns="http://www.w3.org/2000/svg" xmlns:xlink="http://www.w3.org/1999/xlink">
    <title>61700DB0-503E-44BD-8FE2-2D2187BE92B2</title>
    <g id="05---Landings" stroke="none" stroke-width="1" fill="none" fill-rule="evenodd" stroke-linecap="round" stroke-linejoin="round">
        <g id="004.0.0-KadınGirisimci" transform="translate(-135.000000, -1979.000000)" stroke="#FFB900" stroke-width="5">
            <g id="Avantajlar" transform="translate(135.000000, 1424.000000)">
                <g id="icons/big/trends_hashtag_mobile_phone" transform="translate(0.000000, 555.000000)">
                    <path d="M59.4885847,102.728261 C60.1190348,102.728261 60.6301156,103.23924 60.6301156,103.869565 L60.6301156,103.869565 C60.6301156,104.49989 60.1190348,105.01087 59.4885847,105.01087 L59.4885847,105.01087 C58.8581346,105.01087 58.3470538,104.49989 58.3470538,103.869565 L58.3470538,103.869565 C58.3470538,103.23924 58.8581346,102.728261 59.4885847,102.728261" id="Path"></path>
                    <line x1="59.4885847" y1="102.728261" x2="59.4885847" y2="102.728261" id="Path"></line>
                    <rect id="Rectangle" x="29.8087809" y="8" width="59.3596075" height="105" rx="9.13224731"></rect>
                    <line x1="89.1683884" y1="94.7391304" x2="29.8087809" y2="94.7391304" id="Path"></line>
                    <line x1="89.1683884" y1="26.2608696" x2="29.8087809" y2="26.2608696" id="Path"></line>
                    <line x1="52.6393992" y1="17.1304348" x2="66.3377702" y2="17.1304348" id="Path"></line>
                    <line x1="57.2055229" y1="46.8043478" x2="52.6393992" y2="71.9130435" id="Path"></line>
                    <line x1="70.9038938" y1="46.8043478" x2="66.3377702" y2="71.9130435" id="Path"></line>
                    <line x1="50.3563374" y1="53.6521739" x2="75.4700175" y2="53.6521739" id="Path"></line>
                    <line x1="48.0732756" y1="62.7826087" x2="73.1869557" y2="62.7826087" id="Path"></line>
                    <path d="M98.3006358,48.9317391 C103.519108,54.2143269 104.030159,62.539697 99.4969602,68.4206522 L98.309768,69.9545652" id="Path"></path>
                    <path d="M100.606528,37.673913 L101.410166,38.2719565 C108.06578,43.2203451 111.991894,51.0216119 112,59.3141448 C112.008081,67.6066778 108.097203,75.4155906 101.451261,80.3769565 L100.515206,81.0754348" id="Path"></path>
                    <path d="M20.6765336,48.9317391 C15.4580619,54.2143269 14.9470101,62.539697 19.4802092,68.4206522 L20.6674014,69.9545652" id="Path"></path>
                    <path d="M18.3934718,37.673913 L17.589834,38.2719565 C10.9342198,43.2203451 7.00810617,51.0216119 7,59.3141448 C6.9919189,67.6066778 10.9027968,75.4155906 17.5487389,80.3769565 L18.4847943,81.0754348" id="Path"></path>
                </g>
            </g>
        </g>
    </g>
</svg>