<?xml version="1.0" encoding="UTF-8"?>
<svg width="72px" height="72px" viewBox="0 0 72 72" version="1.1" xmlns="http://www.w3.org/2000/svg" xmlns:xlink="http://www.w3.org/1999/xlink">
    <title>B59DADBF-EC08-4CA9-9EFA-CEF9C541365F</title>
    <g id="02---B2B" stroke="none" stroke-width="1" fill="none" fill-rule="evenodd" stroke-linecap="round" stroke-linejoin="round">
        <g id="005.0.0-Abonelik" transform="translate(-735.000000, -1166.000000)" stroke="#37B24D" stroke-width="3">
            <g id="Group-30" transform="translate(135.000000, 1166.000000)">
                <g id="Group-28" transform="translate(600.000000, 0.000000)">
                    <g id="products-give-gift-1" transform="translate(3.000000, 4.000000)">
                        <rect id="Rectangle" x="0.416666667" y="38.4345" width="11.3333333" height="22.6666667" rx="1.41666667"></rect>
                        <path d="M11.75,56.8511667 C41.5793333,66.7961667 32.4333333,67.0795 64.7985,50.717 C65.2350652,50.4918711 65.5277133,50.0607527 65.5757955,49.571917 C65.6238777,49.0830814 65.4208355,48.6032066 65.0365,48.2973333 C63.1556737,46.6634319 60.551401,46.1451634 58.1883333,46.9345 L43.4493333,51.8333333" id="Path"></path>
                        <path d="M25.9166667,52.6011667 L41.5,52.6011667 C43.0648068,52.6011667 44.3333333,51.3326401 44.3333333,49.7678333 C44.3333333,48.2030265 43.0648068,46.9345 41.5,46.9345 L33,46.9345 C29.6419375,43.468996 25.072581,41.4381709 20.25,41.2678333 L11.75,41.2678333" id="Path"></path>
                        <path d="M28.75,18.6011667 L28.75,34.1845 C28.75,34.9669034 29.3842633,35.6011667 30.1666667,35.6011667 L55.6666667,35.6011667 C56.4490701,35.6011667 57.0833333,34.9669034 57.0833333,34.1845 L57.0833333,18.6011667" id="Path"></path>
                        <rect id="Rectangle" x="25.9166667" y="10.1011667" width="34" height="8.5" rx="1.41666667"></rect>
                        <line x1="42.9166667" y1="35.6011667" x2="42.9166667" y2="10.1011667" id="Path"></line>
                        <path d="M50.9746667,6.09483333 C48.6002849,7.95538694 45.8750719,9.31799342 42.962,10.1011667 C43.7432704,7.18737202 45.1060599,4.46179311 46.9683333,2.0885 C49.4588333,-0.402 50.8698333,-0.0166666667 51.9833333,1.0855 C53.0968333,2.18766667 53.4651667,3.60433333 50.9746667,6.09483333 Z" id="Path"></path>
                        <path d="M34.8586667,6.09483333 C37.2330484,7.95538694 39.9582614,9.31799342 42.8713333,10.1011667 C42.0900629,7.18737202 40.7272735,4.46179311 38.865,2.0885 C36.3745,-0.402 34.9635,-0.0166666667 33.85,1.0855 C32.7365,2.18766667 32.3681667,3.60433333 34.8586667,6.09483333 Z" id="Path"></path>
                    </g>
                </g>
            </g>
        </g>
    </g>
</svg>