<?xml version="1.0" encoding="UTF-8"?>
<svg width="72px" height="72px" viewBox="0 0 72 72" version="1.1" xmlns="http://www.w3.org/2000/svg" xmlns:xlink="http://www.w3.org/1999/xlink">
    <title>468B926C-ED48-432D-8C4C-8D5EA70811BE</title>
    <g id="02---B2B" stroke="none" stroke-width="1" fill="none" fill-rule="evenodd" stroke-linecap="round" stroke-linejoin="round">
        <g id="005.0.0-Abonelik" transform="translate(-135.000000, -1564.000000)" stroke="#1E146E" stroke-width="3">
            <g id="Group-30" transform="translate(135.000000, 1166.000000)">
                <g id="Group-27-Copy" transform="translate(0.000000, 398.000000)">
                    <g id="shipment-packages" transform="translate(2.000000, 6.000000)">
                        <path d="M3.09090909,28.3636364 L34,28.3636364 L34,59.2727273 L3.09090909,59.2727273 C1.38384714,59.2727273 0,57.8888801 0,56.1818182 L0,31.4545455 C0,29.7474835 1.38384714,28.3636364 3.09090909,28.3636364 Z" id="Path"></path>
                        <path d="M34,28.3636364 L64.9090909,28.3636364 C66.6161529,28.3636364 68,29.7474835 68,31.4545455 L68,56.1818182 C68,57.8888801 66.6161529,59.2727273 64.9090909,59.2727273 L34,59.2727273 L34,28.3636364 Z" id="Path"></path>
                        <path d="M49.4545455,28.3636364 L15.4545455,28.3636364 L15.4545455,3.63636364 C15.4545455,1.92930168 16.8383926,0.545454545 18.5454545,0.545454545 L46.3636364,0.545454545 C48.0706983,0.545454545 49.4545455,1.92930168 49.4545455,3.63636364 L49.4545455,28.3636364 Z" id="Path"></path>
                        <path d="M24.7272727,0.545454545 L24.7272727,12.7854545 C24.7281175,13.3788897 25.0686906,13.9194302 25.6036249,14.1763568 C26.1385592,14.4332833 26.7733663,14.3612136 27.2370909,13.9909091 L32.4545455,9.81818182 L37.672,13.9909091 C38.1357246,14.3612136 38.7705317,14.4332833 39.305466,14.1763568 C39.8404003,13.9194302 40.1809734,13.3788897 40.1818182,12.7854545 L40.1818182,0.545454545" id="Path"></path>
                        <path d="M9.27272727,28.3636364 L9.27272727,40.6036364 C9.27357205,41.1970715 9.61414513,41.737612 10.1490794,41.9945386 C10.6840137,42.2514652 11.3188208,42.1793954 11.7825455,41.8090909 L17,37.6363636 L22.2174545,41.8090909 C22.6811792,42.1793954 23.3159863,42.2514652 23.8509206,41.9945386 C24.3858549,41.737612 24.726428,41.1970715 24.7272727,40.6036364 L24.7272727,28.3636364" id="Path"></path>
                        <path d="M43.2727273,28.3636364 L43.2727273,40.6036364 C43.273572,41.1970715 43.6141451,41.737612 44.1490794,41.9945386 C44.6840137,42.2514652 45.3188208,42.1793954 45.7825455,41.8090909 L51,37.6363636 L56.2174545,41.8090909 C56.6811792,42.1793954 57.3159863,42.2514652 57.8509206,41.9945386 C58.3858549,41.737612 58.726428,41.1970715 58.7272727,40.6036364 L58.7272727,28.3636364" id="Path"></path>
                    </g>
                </g>
            </g>
        </g>
    </g>
</svg>