<?xml version="1.0" encoding="UTF-8"?>
<svg width="120px" height="120px" viewBox="0 0 120 120" version="1.1" xmlns="http://www.w3.org/2000/svg" xmlns:xlink="http://www.w3.org/1999/xlink">
    <title>450D9766-FEB5-449C-ACBC-492624D1D0BA</title>
    <g id="02---B2B" stroke="none" stroke-width="1" fill="none" fill-rule="evenodd">
        <g id="003.1.0-Sanal-Pos" transform="translate(-535.000000, -1102.000000)">
            <g id="Group-3" transform="translate(135.000000, 952.000000)">
                <g id="Group-16" transform="translate(0.000000, 150.000000)">
                    <g id="Group-14" transform="translate(400.000000, 0.000000)">
                        <rect id="Rectangle" x="0" y="0" width="120" height="120"></rect>
                        <g id="credit-card-scan" transform="translate(2.000000, 10.000000)" stroke="#5EADA9" stroke-linecap="round" stroke-linejoin="round" stroke-width="3.93333333">
                            <path d="M46.1836134,44.630112 L5.45378151,44.630112 C2.71556301,44.630112 0.495798319,42.4103474 0.495798319,39.6721289 L0.495798319,4.9662465 C0.495798319,2.22802799 2.71556301,0.00826330532 5.45378151,0.00826330532 L40.1596639,0.00826330532" id="Path"></path>
                            <line x1="64.9694118" y1="14.8822129" x2="64.9694118" y2="39.6721289" id="Path"></line>
                            <line x1="0.515630252" y1="9.92422969" x2="40.1794958" y2="9.92422969" id="Path"></line>
                            <line x1="25.3055462" y1="19.8401961" x2="10.4315966" y2="19.8401961" id="Path"></line>
                            <line x1="114.549244" y1="99.1679272" x2="114.549244" y2="44.630112" id="Path"></line>
                            <path d="M104.325882,44.630112 C105.973537,31.5832264 101.047552,18.5679314 91.1743193,9.88143273 C81.3010862,1.19493403 67.7644005,-2.03328133 55.0336134,1.26263305 C53.0747987,1.74412615 51.4116125,3.0328345 50.4562523,4.80936982 C49.5008921,6.58590515 49.3427765,8.68398926 50.0210924,10.5836415 L50.0210924,10.5836415 C51.4180296,14.3686817 55.4334573,16.5022777 59.3520168,15.5416246 C66.513484,13.8725756 74.0463459,15.4690155 79.9151248,19.8995653 C85.7839037,24.3301152 89.3828552,31.137477 89.7394958,38.4822129 C89.9038466,42.2854403 88.5889257,46.0045342 86.0705882,48.8592717 L80.8151261,54.8435574 C79.0097126,56.9134329 76.4266436,58.1417532 73.6816353,58.2357281 C70.9366269,58.3297031 68.2756014,57.2809136 66.3328571,55.3393557 L56.1541176,45.1259104 C54.2747505,43.2430006 51.5336233,42.5057507 48.9632921,43.1918755 C46.3929608,43.8780003 44.3839201,45.8832611 43.6929559,48.4522956 C43.0019918,51.0213302 43.7340783,53.763841 45.6134454,55.6467507 L64.0968067,76.6091036 C67.8162733,80.3274469 69.9064398,85.3709544 69.907563,90.6302801 L69.907563,99.1679272" id="Path"></path>
                            <path d="M100.647059,22.3638095 C109.14111,26.53228 114.52543,35.1683446 114.529412,44.630112" id="Path"></path>
                        </g>
                    </g>
                </g>
            </g>
        </g>
    </g>
</svg>