<?xml version="1.0" encoding="UTF-8"?>
<svg width="101px" height="22px" viewBox="0 0 101 22" version="1.1" xmlns="http://www.w3.org/2000/svg" xmlns:xlink="http://www.w3.org/1999/xlink">
    <title>C19E6D8C-0708-4999-BCC4-E96A57EE2C94</title>
    <g id="01---B2C" stroke="none" stroke-width="1" fill="none" fill-rule="evenodd">
        <g id="004.0.0-Vitruta-Campaign" transform="translate(-277.000000, -603.000000)" fill="#231F20" fill-rule="nonzero">
            <g id="Group-19" transform="translate(135.000000, 590.000000)">
                <g id="vitruta_logo" transform="translate(142.000000, 13.000000)">
                    <rect id="Rectangle" x="18.7299713" y="7.20868744" width="4.01893818" height="14.4069877"></rect>
                    <path d="M20.7072029,0 C19.2565167,0 18.1496968,1.10103872 18.1496968,2.49291785 C18.1496968,3.89518414 19.2565167,4.96506138 20.7072029,4.96506138 C22.1578891,4.96506138 23.2754548,3.89518414 23.2754548,2.49291785 C23.2754548,1.10103872 22.1578891,0 20.7072029,0 Z" id="Path"></path>
                    <path d="M34.5908075,18.374882 C33.3442919,18.374882 32.3556761,17.720491 32.3556761,15.9235127 L32.3556761,10.6572238 L37.7500798,10.6572238 L37.7500798,7.20868744 L32.3556761,7.20868744 L32.3556761,2.92917847 L28.336738,2.92917847 L28.336738,7.20868744 L25.4568571,7.20868744 L25.4568571,10.6572238 L28.336738,10.6572238 L28.336738,16.2351275 C28.336738,19.9641171 30.228003,21.9896128 33.9245664,21.9896128 C36.0414938,21.9896128 37.556655,21.3352219 38.8568997,20.4730878 L37.3847218,17.4400378 C36.578785,17.917847 35.5471859,18.374882 34.5908075,18.374882 Z" id="Path"></path>
                    <path d="M45.18619,8.78753541 L45.18619,7.20868744 L41.2962017,7.20868744 L41.2962017,21.6156752 L45.3151399,21.6156752 L45.3151399,13.7629839 C45.3151399,11.6232295 46.593893,10.5221907 48.4529205,10.5221907 C49.2696031,10.5221907 50.2259815,10.6987724 50.8814768,10.9792257 L51.4832429,7.12559018 C50.92446,6.92823418 50.258219,6.81397545 49.3878072,6.81397545 C47.5610171,6.82436261 46.1210767,7.43720491 45.18619,8.78753541 Z" id="Path"></path>
                    <path d="M64.0880945,15.1340888 C64.0880945,17.4400378 62.7663581,18.374882 61.0470263,18.374882 C59.3062028,18.374882 58.0059581,17.4400378 58.0059581,15.1340888 L58.0059581,7.20868744 L53.9870199,7.20868744 L53.9870199,15.476865 C53.9870199,20.02644 57.3074795,21.9896128 61.0470263,21.9896128 C64.7650814,21.9896128 68.0962868,20.02644 68.0962868,15.476865 L68.0962868,7.20868744 L64.0988403,7.20868744 L64.0988403,15.1340888 L64.0880945,15.1340888 Z" id="Path"></path>
                    <path d="M79.8199808,18.374882 C78.5734653,18.374882 77.5848495,17.720491 77.5848495,15.9235127 L77.5848495,10.6572238 L82.9792531,10.6572238 L82.9792531,7.20868744 L77.5848495,7.20868744 L77.5848495,2.92917847 L73.5659113,2.92917847 L73.5659113,7.20868744 L70.6860304,7.20868744 L70.6860304,10.6572238 L73.5659113,10.6572238 L73.5659113,16.2351275 C73.5659113,19.9641171 75.4571763,21.9896128 79.1537398,21.9896128 C81.2706671,21.9896128 82.7858283,21.3352219 84.086073,20.4730878 L82.6138951,17.4400378 C81.7972125,17.917847 80.7656134,18.374882 79.8199808,18.374882 Z" id="Path"></path>
                    <path d="M97.0777742,7.20868744 L97.0777742,8.80830973 C96.0891584,7.63456091 94.6599638,6.83474976 92.6182573,6.83474976 C88.5133525,6.83474976 85.4078093,10.0859301 85.4078093,14.4173749 C85.4078093,18.7384325 88.5133525,22 92.6182573,22 C94.6599638,22 96.1106501,21.2001889 97.0777742,20.0368272 L97.0777742,21.6260623 L101,21.6260623 L101,7.20868744 L97.0777742,7.20868744 Z M93.3597191,18.374882 C91.0063837,18.374882 89.5127141,16.6090652 89.5127141,14.4069877 C89.5127141,12.2049103 91.0063837,10.4390935 93.3597191,10.4390935 C95.6485796,10.4390935 97.2067241,12.1322002 97.2067241,14.4069877 C97.2067241,16.6817753 95.6485796,18.374882 93.3597191,18.374882 Z" id="Shape"></path>
                    <polygon id="Path" points="8.22055538 17.5335222 4.36280455 7.20868744 0 7.20868744 5.88871157 21.6156752 10.5201617 21.6156752 16.3443983 7.20868744 12.1105437 7.20868744"></polygon>
                </g>
            </g>
        </g>
    </g>
</svg>