<?xml version="1.0" encoding="UTF-8"?>
<svg width="72px" height="72px" viewBox="0 0 72 72" version="1.1" xmlns="http://www.w3.org/2000/svg" xmlns:xlink="http://www.w3.org/1999/xlink">
    <title>8CDCDF2D-A1CF-43BB-AB62-269D3EAD7BF3</title>
    <g id="02---B2B" stroke="none" stroke-width="1" fill="none" fill-rule="evenodd" stroke-linecap="round" stroke-linejoin="round">
        <g id="005.0.0-Masspayout" transform="translate(-535.000000, -1572.000000)" stroke="#4B438B" stroke-width="3">
            <g id="Group-30" transform="translate(135.000000, 1166.000000)">
                <g id="Group-28-Copy" transform="translate(400.000000, 406.000000)">
                    <g id="earth-cash" transform="translate(3.000000, 3.000000)">
                        <path d="M37.1536667,65.2773333 C35.7760534,65.4526734 34.3887269,65.5408333 33,65.5408333 C19.4402902,65.5313545 7.30590478,57.1194813 2.53976767,44.4250039 C-2.22636944,31.7305264 1.37359404,17.4111975 11.5765438,8.48003644 C21.7794935,-0.451124576 36.4493103,-2.12426378 48.4013201,4.28005371 C60.3533299,10.6843712 67.0852252,23.8253189 65.3,37.267" id="Path"></path>
                        <path d="M0.906833333,27.2908325 L18.1448333,27.2908325 C20.3995643,27.2898118 22.5623203,28.184675 24.1571667,29.7785 L27.3333333,32.9546667 C30.5168181,36.137174 30.667152,41.2497681 27.6761667,44.6138333 L23.8143333,48.9573333 C22.4311056,50.5131062 21.6669081,52.522401 21.6666667,54.6041667 L21.6666667,63.515" id="Path"></path>
                        <path d="M56.4061667,10.2908333 L39.9728333,10.2908333 C36.4520181,10.2908333 33.5978333,13.1450181 33.5978333,16.6658333 C33.5978333,20.1866486 36.4520181,23.0408333 39.9728333,23.0408333 L41.1968333,23.0408333 C44.0422151,23.0366158 46.7009812,24.4563968 48.2801667,26.8233333 L51.4903333,31.64" id="Path"></path>
                        <circle id="Oval" cx="51.4166667" cy="51.3741667" r="14.1666667"></circle>
                        <line x1="51.4166667" y1="57.0408333" x2="51.4166667" y2="59.8741667" id="Path"></line>
                        <line x1="51.4166667" y1="42.8741667" x2="51.4166667" y2="45.7075" id="Path"></line>
                        <path d="M45.75,57.0408333 L54.25,57.0408333 C55.8148068,57.0408333 57.0833333,55.7723068 57.0833333,54.2075 C57.0833333,52.6426932 55.8148068,51.3741667 54.25,51.3741667 L48.5833333,51.3741667 C47.0185265,51.3741667 45.75,50.1056401 45.75,48.5408333 C45.75,46.9760265 47.0185265,45.7075 48.5833333,45.7075 L57.0833333,45.7075" id="Path"></path>
                    </g>
                </g>
            </g>
        </g>
    </g>
</svg>